<?xml version="1.0" standalone="no"?>
<!DOCTYPE svg PUBLIC "-//W3C//DTD SVG 1.1//EN" "http://www.w3.org/Graphics/SVG/1.1/DTD/svg11.dtd" >
<svg xmlns="http://www.w3.org/2000/svg" xmlns:xlink="http://www.w3.org/1999/xlink" version="1.1">
<metadata>
Created by FontForge 20170731 at Wed Oct 31 13:10:28 2018
 By Aleksey,,,
Copyright (c) 2012-2018 by Colophon Foundry. All rights reserved.
</metadata>
<defs>
<font id="ValueSansPro-Bold" horiz-adv-x="650" >
  <font-face 
    font-family="Value Sans Pro"
    font-weight="700"
    font-stretch="normal"
    units-per-em="1000"
    panose-1="2 11 8 3 5 1 1 4 1 3"
    ascent="774"
    descent="-226"
    x-height="494"
    cap-height="700"
    bbox="-460 -342 1181 952"
    underline-thickness="120"
    underline-position="-400"
    unicode-range="U+000D-FB02"
  />
<missing-glyph horiz-adv-x="646" 
d="M62 700h522v-700h-522v700zM416 604h-186l93 -151zM259 350l-89 144v-288zM476 494l-89 -144l89 -144v288zM416 96l-93 151l-93 -151h186z" />
    <glyph glyph-name="f_f" unicode="ff" horiz-adv-x="676" 
d="M553.5 589q-13.5 -14 -13.5 -39v-56h80v-112h-80v-382h-132v382h-181v-382h-132v382h-57v112h57v53q0 56 24 93.5t62 55.5t79 18q49 0 88 -22l4 -114h-11q-29 26 -61 26q-24 0 -38.5 -15.5t-14.5 -40.5v-54h181v54q0 57 24 94t61.5 54.5t78.5 17.5q27 0 46.5 -5t40.5 -16
l5 -116h-12q-13 13 -30 19.5t-32 6.5q-23 0 -36.5 -14z" />
    <glyph glyph-name="f_f_i" unicode="ffi" horiz-adv-x="911" 
d="M728 586q-24 24 -24 58q0 35 24 59.5t58 24.5q35 0 59.5 -24.5t24.5 -59.5q0 -34 -24.5 -58t-59.5 -24q-34 0 -58 24zM853 0h-132v382h-181v-382h-132v382h-181v-382h-132v382h-57v112h57v53q0 56 24 93.5t62 55.5t79 18q49 0 88 -22l4 -114h-11q-29 26 -61 26
q-24 0 -38.5 -15.5t-14.5 -40.5v-54h181v54q0 57 24 94t61.5 54.5t78.5 17.5q27 0 46.5 -5t40.5 -16l5 -116h-12q-13 13 -30 19.5t-32 6.5q-23 0 -36.5 -14t-13.5 -39v-56h313v-494z" />
    <glyph glyph-name="f_i" unicode="fi" horiz-adv-x="596" 
d="M413 586q-24 24 -24 58q0 35 24 59.5t58 24.5q35 0 59.5 -24.5t24.5 -59.5q0 -34 -24.5 -58t-59.5 -24q-34 0 -58 24zM538 0h-132v382h-181v-382h-132v382h-55v112h55v54q0 57 24 94t61.5 54.5t78.5 17.5q27 0 46.5 -5t40.5 -16l5 -116h-12q-13 13 -30 19.5t-32 6.5
q-23 0 -36.5 -14t-13.5 -39v-56h313v-494z" />
    <glyph glyph-name="f_l" unicode="fl" horiz-adv-x="609" 
d="M93 382h-55v112h55v54q0 57 24 94t61.5 54.5t78.5 17.5q27 0 46.5 -5t40.5 -16l5 -116h-12q-13 13 -30 19.5t-32 6.5q-23 0 -36.5 -14t-13.5 -39v-56h80v-112h-80v-382h-132v382zM419 720h132v-720h-132v720z" />
    <glyph glyph-name=".notdef" horiz-adv-x="646" 
d="M62 700h522v-700h-522v700zM416 604h-186l93 -151zM259 350l-89 144v-288zM476 494l-89 -144l89 -144v288zM416 96l-93 151l-93 -151h186z" />
    <glyph glyph-name=".null" horiz-adv-x="0" 
 />
    <glyph glyph-name="nonmarkingreturn" unicode="&#xd;" horiz-adv-x="0" 
 />
    <glyph glyph-name="space" unicode=" " horiz-adv-x="220" 
 />
    <glyph glyph-name="exclam" unicode="!" horiz-adv-x="254" 
d="M61 700h132v-480h-132v480zM69.5 9.5q-23.5 23.5 -23.5 57.5t23.5 57.5t57.5 23.5t57.5 -23.5t23.5 -57.5t-23.5 -57.5t-57.5 -23.5t-57.5 23.5z" />
    <glyph glyph-name="quotedbl" unicode="&#x22;" horiz-adv-x="398" 
d="M40 700h138l-22 -235h-94zM220 700h138l-22 -235h-94z" />
    <glyph glyph-name="numbersign" unicode="#" horiz-adv-x="729" 
d="M147 179h-117l23 108h114l23 126h-119l23 108h116l33 179h122l-33 -179h128l34 179h122l-34 -179h117l-23 -108h-114l-23 -126h119l-23 -108h-116l-33 -179h-122l33 179h-128l-34 -179h-122zM417 287l23 126h-128l-23 -126h128z" />
    <glyph glyph-name="dollar" unicode="$" horiz-adv-x="524" 
d="M436 58.5q-50 -56.5 -134 -69.5v-65h-75v63q-57 4 -103.5 22.5t-77.5 44.5l8 164h10q76 -98 163 -109v206l-7 3q-84 39 -126.5 87t-42.5 117q0 78 50.5 129t125.5 61v64h75v-64q86 -8 133 -51l5 -149h-13q-62 67 -125 82v-174q6 -2 18 -8q82 -38 124 -86.5t42 -126.5
q0 -84 -50 -140.5zM189.5 492q11.5 -16 37.5 -32v133q-49 -15 -49 -65q0 -20 11.5 -36zM333 150.5q11 19.5 11 45.5t-10.5 44.5t-31.5 33.5v-154q20 11 31 30.5z" />
    <glyph glyph-name="percent" unicode="%" horiz-adv-x="728" 
d="M121.5 419q-37.5 21 -59.5 57t-22 80t22 80t59.5 57t82.5 21t82.5 -21t59.5 -57t22 -80t-22 -80t-59.5 -57t-82.5 -21t-82.5 21zM255 504q21 20 21 52t-21 52t-51 20t-51 -20t-21 -52t21 -52t51 -20t51 20zM158 161l332 412l56 -45l-331 -412zM441.5 7q-37.5 21 -59.5 57
t-22 80t22 80t59.5 57t82.5 21t82.5 -21t59.5 -57t22 -80t-22 -80t-59.5 -57t-82.5 -21t-82.5 21zM575 92q21 20 21 52t-21 52t-51 20t-51 -20t-21 -52t21 -52t51 -20t51 20z" />
    <glyph glyph-name="ampersand" unicode="&#x26;" horiz-adv-x="647" 
d="M135.5 11.5q-48.5 25.5 -76 72.5t-27.5 110q0 60 33.5 113t91.5 85q-22 31 -36.5 68.5t-14.5 72.5q0 55 26.5 96.5t71 63t96.5 21.5q86 0 136.5 -44t50.5 -116q0 -61 -34 -107t-114 -88l102 -126q37 51 82 135h18l31 -147q-22 -46 -51 -86l110 -135h-162l-37 46
q-83 -60 -186 -60q-62 0 -110.5 25.5zM346.5 492.5q21.5 25.5 21.5 55.5q0 32 -19 49t-49 17t-51 -21t-21 -54q0 -22 10.5 -44.5t32.5 -51.5q54 24 75.5 49.5zM357 140l-127 160q-56 -40 -56 -101q0 -43 25.5 -68t69.5 -25q43 0 88 34z" />
    <glyph glyph-name="quotesingle" unicode="'" horiz-adv-x="218" 
d="M40 700h138l-22 -235h-94z" />
    <glyph glyph-name="parenleft" unicode="(" horiz-adv-x="320" 
d="M93 -18q-43 121 -43 255t43 255t109 208h98q-118 -197 -118 -463t118 -463h-98q-66 87 -109 208z" />
    <glyph glyph-name="parenright" unicode=")" horiz-adv-x="320" 
d="M138 237q0 266 -118 463h98q66 -87 109 -208t43 -255t-43 -255t-109 -208h-98q118 197 118 463z" />
    <glyph glyph-name="asterisk" unicode="*" horiz-adv-x="418" 
d="M158 378l38 133l-97 -100l-14 4l-41 71l3 13l140 35l-140 35l-3 13l41 71l14 4l97 -100l-38 133l10 10h82l10 -10l-38 -133l97 100l14 -4l41 -71l-3 -13l-140 -35l140 -35l3 -13l-41 -71l-14 -4l-97 100l38 -133l-10 -10h-82z" />
    <glyph glyph-name="plus" unicode="+" horiz-adv-x="494" 
d="M194 254h-156v106h156v156h106v-156h156v-106h-156v-156h-106v156z" />
    <glyph glyph-name="comma" unicode="," horiz-adv-x="242" 
d="M61 -107q53 35 58 93q-31 0 -53 22t-22 54t22.5 55t53.5 23q33 0 55.5 -24t22.5 -62q0 -68 -33.5 -110.5t-94.5 -75.5z" />
    <glyph glyph-name="hyphen" unicode="-" horiz-adv-x="404" 
d="M38 370h328v-106h-328v106z" />
    <glyph glyph-name="period" unicode="." horiz-adv-x="242" 
d="M66.5 8.5q-22.5 22.5 -22.5 53.5q0 32 22.5 55t53.5 23q32 0 55 -23t23 -55q0 -31 -23 -53.5t-55 -22.5q-31 0 -53.5 22.5z" />
    <glyph glyph-name="slash" unicode="/" horiz-adv-x="583" 
d="M414 700h154l-399 -700h-154z" />
    <glyph glyph-name="zero" unicode="0" horiz-adv-x="686" 
d="M180 33q-70 47 -108 130t-38 187t38 187t108 130t163 47t163 -47t108 -130t38 -187t-38 -187t-108 -130t-163 -47t-163 47zM468 171.5q42 63.5 42 178.5t-42 178.5t-125 63.5t-125 -63.5t-42 -178.5t42 -178.5t125 -63.5t125 63.5z" />
    <glyph glyph-name="one" unicode="1" horiz-adv-x="266" 
d="M62 635l95 65h47v-700h-142v635z" />
    <glyph glyph-name="two" unicode="2" horiz-adv-x="565" 
d="M34 20l272 341q28 36 41.5 67t13.5 65q0 45 -28.5 73t-76.5 28q-52 0 -96.5 -30.5t-75.5 -78.5h-15l8 152q36 36 88 56.5t106 20.5q108 0 167 -55t59 -149q0 -58 -22.5 -111t-72.5 -114l-137 -165h254v-120h-485v20z" />
    <glyph glyph-name="three" unicode="3" horiz-adv-x="583" 
d="M151.5 -1.5q-48.5 12.5 -81.5 30.5l-16 144h15q48 -32 90 -49.5t89 -17.5q63 0 106 34t43 102q0 61 -39 98.5t-112 37.5q-33 0 -71 -8l-14 31l133 179h-238v120h449v-20l-160 -207q87 -16 137.5 -74t50.5 -153q0 -80 -35.5 -139t-99 -90t-145.5 -31q-53 0 -101.5 12.5z
" />
    <glyph glyph-name="four" unicode="4" horiz-adv-x="576" 
d="M325 160h-309v70l404 470h47v-420h73v-120h-73v-160h-142v160zM325 280v162l-134 -162h134z" />
    <glyph glyph-name="five" unicode="5" horiz-adv-x="553" 
d="M157.5 -8q-32.5 6 -91.5 23l-30 157h13q42 -32 90.5 -49t97.5 -17q67 0 105.5 31.5t38.5 93.5q0 60 -37 93.5t-100 33.5q-45 0 -86 -12.5t-86 -34.5l-32 5l45 384h402v-120h-295l-21 -127q49 20 104 20q118 0 180 -62t62 -175q0 -76 -35.5 -133t-96 -87t-135.5 -30
q-60 0 -92.5 6z" />
    <glyph glyph-name="six" unicode="6" horiz-adv-x="597" 
d="M110.5 75.5q-66.5 89.5 -66.5 240.5q0 107 34 197.5t102.5 145.5t169.5 55q78 0 130 -34l14 -133h-17q-34 26 -64 36.5t-63 10.5q-67 0 -111 -51t-53 -142q23 22 63 37t86 15q64 0 114.5 -29t79 -80.5t28.5 -116.5q0 -66 -33.5 -121t-91 -87.5t-124.5 -32.5
q-131 0 -197.5 89.5zM389.5 138.5q31.5 32.5 31.5 83.5t-31.5 83.5t-83.5 32.5t-83.5 -32.5t-31.5 -83.5t31.5 -83.5t83.5 -32.5t83.5 32.5z" />
    <glyph glyph-name="seven" unicode="7" horiz-adv-x="573" 
d="M354 580h-304v120h505v-20l-341 -680h-154z" />
    <glyph glyph-name="eight" unicode="8" horiz-adv-x="564" 
d="M153 18q-55 32 -84 81.5t-29 100.5q0 66 27.5 108t77.5 70q-40 33 -60 69t-20 83q0 50 28 92.5t77.5 67t111.5 24.5t111.5 -24.5t77.5 -67t28 -92.5q0 -47 -20 -83t-60 -69q50 -28 77.5 -70t27.5 -108q0 -51 -29 -100.5t-84 -81.5t-129 -32t-129 32zM341 461q22 23 22 58
t-22 58t-59 23t-59 -23t-22 -58t22 -58t59 -23t59 23zM356.5 136.5q31.5 30.5 31.5 78.5t-31.5 78.5t-74.5 30.5t-74.5 -30.5t-31.5 -78.5t31.5 -78.5t74.5 -30.5t74.5 30.5z" />
    <glyph glyph-name="nine" unicode="9" horiz-adv-x="591" 
d="M111 20l-14 133h17q34 -26 64 -36.5t63 -10.5q67 0 111 51t53 142q-23 -22 -63 -37t-86 -15q-64 0 -114.5 29t-79 80.5t-28.5 116.5q0 66 33.5 121t91 87.5t124.5 32.5q131 0 197.5 -89.5t66.5 -240.5q0 -107 -34 -197.5t-102.5 -145.5t-169.5 -55q-78 0 -130 34z
M368.5 394.5q31.5 32.5 31.5 83.5t-31.5 83.5t-83.5 32.5t-83.5 -32.5t-31.5 -83.5t31.5 -83.5t83.5 -32.5t83.5 32.5z" />
    <glyph glyph-name="colon" unicode=":" horiz-adv-x="242" 
d="M66.5 348.5q-22.5 22.5 -22.5 53.5q0 32 22.5 55t53.5 23q32 0 55 -23t23 -55q0 -31 -23 -53.5t-55 -22.5q-31 0 -53.5 22.5zM66.5 8.5q-22.5 22.5 -22.5 53.5q0 32 22.5 55t53.5 23q32 0 55 -23t23 -55q0 -31 -23 -53.5t-55 -22.5q-31 0 -53.5 22.5z" />
    <glyph glyph-name="semicolon" unicode=";" horiz-adv-x="242" 
d="M66.5 348.5q-22.5 22.5 -22.5 53.5q0 32 22.5 55t53.5 23q32 0 55 -23t23 -55q0 -31 -23 -53.5t-55 -22.5q-31 0 -53.5 22.5zM61 -107q53 35 58 93q-31 0 -53 22t-22 54t22.5 55t53.5 23q32 0 55 -23t23 -55q0 -74 -33.5 -117.5t-94.5 -76.5z" />
    <glyph glyph-name="less" unicode="&#x3c;" horiz-adv-x="428" 
d="M44 260v90l319 212h21v-120l-220 -137l220 -137v-120h-21z" />
    <glyph glyph-name="equal" unicode="=" horiz-adv-x="506" 
d="M44 470h418v-106h-418v106zM44 250h418v-106h-418v106z" />
    <glyph glyph-name="greater" unicode="&#x3e;" horiz-adv-x="428" 
d="M44 168l220 137l-220 137v120h21l319 -212v-90l-319 -212h-21v120z" />
    <glyph glyph-name="question" unicode="?" horiz-adv-x="456" 
d="M146 239q0 62 21.5 101.5t61.5 82.5q29 31 43 53.5t14 51.5q0 33 -23 52.5t-64 19.5q-42 0 -82 -25.5t-66 -57.5h-13l9 145q34 24 77.5 38t88.5 14q91 0 148 -44.5t57 -127.5q0 -56 -20 -92.5t-58 -78.5q-32 -35 -47 -60t-15 -60v-31h-132v19zM158.5 9.5
q-23.5 23.5 -23.5 57.5t23.5 57.5t57.5 23.5t57.5 -23.5t23.5 -57.5t-23.5 -57.5t-57.5 -23.5t-57.5 23.5z" />
    <glyph glyph-name="at" unicode="@" horiz-adv-x="875" 
d="M236 -33.5q-92 51.5 -144 143t-52 205.5q0 113 54.5 204t147.5 143t202 52t198.5 -49t141 -134t51.5 -190q0 -67 -23 -114.5t-61 -72t-84 -24.5q-44 0 -75 20.5t-47 53.5q-25 -37 -61 -55.5t-80 -18.5t-84 23t-65 66t-25 100q0 52 24 95t65 68.5t91 25.5q34 0 63 -12
t44 -31v33h95v-206q0 -40 15.5 -58t39.5 -18q28 0 46 24t18 75q0 145 -77 223.5t-210 78.5q-85 0 -152.5 -39.5t-105.5 -108.5t-38 -154q0 -86 36 -155t103 -108.5t157 -39.5q86 0 185 54h17l-7 -100q-92 -51 -195 -51q-116 0 -208 51.5zM494 246q27 30 27 73t-27 73t-71 30
t-71 -30t-27 -73t27 -73t71 -30t71 30z" />
    <glyph glyph-name="A" unicode="A" horiz-adv-x="698" 
d="M328 700h42l310 -700h-138l-52 120h-282l-52 -120h-138zM440 240l-91 212l-91 -212h182z" />
    <glyph glyph-name="B" unicode="B" horiz-adv-x="608" 
d="M62 700h247q113 0 174.5 -48.5t61.5 -130.5q0 -54 -29.5 -93.5t-76.5 -59.5q62 -16 100.5 -61t38.5 -109q0 -63 -31 -107.5t-84 -67.5t-117 -23h-284v700zM304 420q58 0 79 21t21 58t-21 58t-79 21h-100v-158h100zM333 122q103 0 103 88t-103 88h-129v-176h129z" />
    <glyph glyph-name="C" unicode="C" horiz-adv-x="665" 
d="M217 33q-85 47 -134 130t-49 187t49 187t134 130t190 47q64 0 108.5 -12.5t92.5 -40.5l11 -145h-19q-47 35 -92.5 52.5t-94.5 17.5q-74 0 -127.5 -30.5t-81.5 -84t-28 -121.5t28 -121.5t81.5 -84t127.5 -30.5q49 0 94.5 17.5t92.5 52.5h19l-11 -145q-48 -28 -92.5 -40.5
t-108.5 -12.5q-105 0 -190 47z" />
    <glyph glyph-name="D" unicode="D" horiz-adv-x="641" 
d="M62 700h172q110 0 194.5 -41.5t131.5 -120.5t47 -188t-47 -188t-131.5 -120.5t-194.5 -41.5h-172v700zM234 122q110 0 173.5 61t63.5 167t-63.5 167t-173.5 61h-30v-456h30z" />
    <glyph glyph-name="E" unicode="E" horiz-adv-x="549" 
d="M62 700h445v-120h-303v-160h292v-120h-292v-180h307v-120h-449v700z" />
    <glyph glyph-name="F" unicode="F" horiz-adv-x="566" 
d="M62 700h456v-122h-314v-182h303v-122h-303v-274h-142v700z" />
    <glyph glyph-name="G" unicode="G" horiz-adv-x="745" 
d="M217 33q-85 47 -134 130t-49 187t51.5 187t140 130t196.5 47q70 0 123.5 -16t102.5 -47l11 -145h-19q-59 43 -112 61.5t-105 18.5q-74 0 -130 -30.5t-86.5 -84.5t-30.5 -121q0 -68 28 -121.5t81.5 -84t127.5 -30.5q43 0 76 10t68 33v123h-196v120h338v-301
q-77 -59 -144.5 -86t-147.5 -27q-105 0 -190 47z" />
    <glyph glyph-name="H" unicode="H" horiz-adv-x="686" 
d="M62 700h142v-271h278v271h142v-700h-142v309h-278v-309h-142v700z" />
    <glyph glyph-name="I" unicode="I" horiz-adv-x="266" 
d="M62 700h142v-700h-142v700z" />
    <glyph glyph-name="J" unicode="J" horiz-adv-x="409" 
d="M110.5 -11q-20.5 3 -54.5 11l-14 120h19q37 -14 70 -14q34 0 54 25.5t20 76.5v492h142v-486q0 -75 -24.5 -126t-66 -76.5t-93.5 -25.5q-32 0 -52.5 3z" />
    <glyph glyph-name="K" unicode="K" horiz-adv-x="638" 
d="M62 700h142v-318l245 318h154l-263 -339l288 -361h-168l-256 319v-319h-142v700z" />
    <glyph glyph-name="L" unicode="L" horiz-adv-x="582" 
d="M62 700h142v-580h342v-120h-484v700z" />
    <glyph glyph-name="M" unicode="M" horiz-adv-x="898" 
d="M208 700h46l195 -431l195 431h46l186 -700h-139l-101 371l-171 -371h-32l-171 371l-101 -371h-139z" />
    <glyph glyph-name="N" unicode="N" horiz-adv-x="711" 
d="M62 700h60l385 -417v417h142v-700h-60l-385 417v-417h-142v700z" />
    <glyph glyph-name="O" unicode="O" horiz-adv-x="815" 
d="M218.5 33.5q-85.5 47.5 -135 130.5t-49.5 186t49.5 186t135 130.5t188.5 47.5t189 -47.5t135.5 -130.5t49.5 -186t-49.5 -186t-135.5 -130.5t-189 -47.5t-188.5 47.5zM526 140q53 29 84 83t31 127t-31 127t-84 83t-119 29q-65 0 -118.5 -29t-84.5 -83t-31 -127t31 -127
t84.5 -83t118.5 -29q66 0 119 29z" />
    <glyph glyph-name="P" unicode="P" horiz-adv-x="553" 
d="M62 700h204q119 0 188 -58.5t69 -159.5t-69 -159.5t-188 -58.5h-62v-264h-142v700zM267 386q59 0 86.5 25.5t27.5 70.5t-27.5 70.5t-86.5 25.5h-63v-192h63z" />
    <glyph glyph-name="Q" unicode="Q" horiz-adv-x="829" 
d="M613 43q-89 -57 -206 -57q-103 0 -188.5 47.5t-135 130.5t-49.5 186t49.5 186t135 130.5t188.5 47.5t188.5 -47.5t135 -130.5t49.5 -186q0 -126 -74 -222l103 -102l-88 -90zM521 135l-65 66l89 89l65 -65q28 54 28 125q0 72 -30 127t-82.5 85t-118.5 30t-118.5 -30
t-82.5 -85t-30 -127t30 -127t82.5 -85t118.5 -30q65 0 114 27z" />
    <glyph glyph-name="R" unicode="R" horiz-adv-x="591" 
d="M62 700h221q104 0 169.5 -54t65.5 -148q0 -68 -35 -116t-97 -70l187 -312h-157l-178 296h-34v-296h-142v700zM271 418q105 0 105 80t-105 80h-67v-160h67z" />
    <glyph glyph-name="S" unicode="S" horiz-adv-x="524" 
d="M135.5 5q-54.5 19 -89.5 49l8 164h10q40 -51 85 -80.5t101 -29.5q42 0 68 23.5t26 64.5q0 30 -14 50.5t-38.5 35t-71.5 36.5q-84 39 -126.5 87t-42.5 117q0 58 29 102t77 67t104 23q115 0 174 -53l5 -149h-13q-79 86 -163 86q-40 0 -63 -17.5t-23 -52.5q0 -32 30.5 -55
t111.5 -61q82 -38 124 -86.5t42 -126.5q0 -62 -28.5 -110.5t-80.5 -75.5t-120 -27q-67 0 -121.5 19z" />
    <glyph glyph-name="T" unicode="T" horiz-adv-x="546" 
d="M202 580h-168v120h478v-120h-168v-580h-142v580z" />
    <glyph glyph-name="U" unicode="U" horiz-adv-x="670" 
d="M128.5 64.5q-74.5 78.5 -74.5 213.5v422h142v-434q0 -86 39 -123t100 -37t100 37t39 123v434h142v-422q0 -135 -74.5 -213.5t-206.5 -78.5t-206.5 78.5z" />
    <glyph glyph-name="V" unicode="V" horiz-adv-x="708" 
d="M15 700h154l185 -448l185 448h154l-308 -700h-62z" />
    <glyph glyph-name="W" unicode="W" horiz-adv-x="996" 
d="M22 700h154l133 -393l151 393h76l151 -393l133 393h154l-240 -700h-62l-174 452l-174 -452h-62z" />
    <glyph glyph-name="X" unicode="X" horiz-adv-x="641" 
d="M246 378l-195 322h154l115 -199l116 199h154l-196 -322l229 -378h-154l-149 253l-148 -253h-154z" />
    <glyph glyph-name="Y" unicode="Y" horiz-adv-x="614" 
d="M236 296l-222 404h157l136 -269l136 269h157l-222 -404v-296h-142v296z" />
    <glyph glyph-name="Z" unicode="Z" horiz-adv-x="606" 
d="M22 20l329 560h-299v120h510v-20l-329 -560h341v-120h-552v20z" />
    <glyph glyph-name="bracketleft" unicode="[" horiz-adv-x="309" 
d="M60 700h214v-120h-82v-686h82v-120h-214v926z" />
    <glyph glyph-name="backslash" unicode="\" horiz-adv-x="583" 
d="M15 700h154l399 -700h-154z" />
    <glyph glyph-name="bracketright" unicode="]" horiz-adv-x="309" 
d="M35 -106h82v686h-82v120h214v-926h-214v120z" />
    <glyph glyph-name="asciicircum" unicode="^" horiz-adv-x="544" 
d="M35 411l192 289h90l192 -289v-21h-120l-117 177l-117 -177h-120v21z" />
    <glyph glyph-name="underscore" unicode="_" horiz-adv-x="522" 
d="M22 0h478v-106h-478v106z" />
    <glyph glyph-name="grave" unicode="`" horiz-adv-x="314" 
d="M30 700h162l92 -137h-112z" />
    <glyph glyph-name="a" unicode="a" horiz-adv-x="618" 
d="M156.5 18q-55.5 32 -90 91.5t-34.5 137.5q0 71 33 131t90 95t125 35q48 0 87.5 -16t60.5 -43v45h132v-494h-132v45q-31 -29 -66 -44t-90 -15q-60 0 -115.5 32zM397 148q37 40 37 99t-37 99t-98 40t-98 -40t-37 -99t37 -99t98 -40t98 40z" />
    <glyph glyph-name="b" unicode="b" horiz-adv-x="624" 
d="M190 52v-52h-132v720h132v-273q54 61 157 61q68 0 124 -31t88.5 -90t32.5 -140q0 -75 -31.5 -134.5t-87 -93t-124.5 -33.5q-100 0 -159 66zM421.5 147.5q38.5 39.5 38.5 99.5t-38.5 99.5t-99.5 39.5t-99.5 -39.5t-38.5 -99.5t38.5 -99.5t99.5 -39.5t99.5 39.5z" />
    <glyph glyph-name="c" unicode="c" horiz-adv-x="495" 
d="M167.5 17.5q-61.5 31.5 -98.5 90.5t-37 139t37 139t98.5 90.5t132.5 31.5q91 0 144 -39l5 -139h-14q-34 29 -66 42.5t-69 13.5q-61 0 -98.5 -39t-37.5 -100t37.5 -100t98.5 -39q37 0 69 13.5t66 42.5h14l-5 -139q-53 -39 -144 -39q-71 0 -132.5 31.5z" />
    <glyph glyph-name="d" unicode="d" horiz-adv-x="624" 
d="M150.5 19.5q-55.5 33.5 -87 93t-31.5 134.5q0 81 32.5 140t88.5 90t124 31q103 0 157 -61v273h132v-720h-132v52q-59 -66 -159 -66q-69 0 -124.5 33.5zM401.5 147.5q38.5 39.5 38.5 99.5t-38.5 99.5t-99.5 39.5t-99.5 -39.5t-38.5 -99.5t38.5 -99.5t99.5 -39.5t99.5 39.5
z" />
    <glyph glyph-name="e" unicode="e" horiz-adv-x="571" 
d="M165 21q-62 35 -97.5 95.5t-35.5 134.5q0 72 33.5 130.5t93 92.5t134.5 34q76 0 131.5 -35.5t84 -94.5t28.5 -127v-39h-379q12 -56 51.5 -85t104.5 -29q99 0 173 65h14l-5 -125q-45 -26 -95 -39t-96 -13q-78 0 -140 35zM405 302q-5 45 -37.5 70.5t-79.5 25.5
q-46 0 -80.5 -24.5t-46.5 -71.5h244z" />
    <glyph glyph-name="f" unicode="f" horiz-adv-x="361" 
d="M93 382h-55v112h55v54q0 57 24 94t61.5 54.5t78.5 17.5q27 0 46.5 -5t40.5 -16l5 -116h-12q-13 13 -30 19.5t-32 6.5q-23 0 -36.5 -14t-13.5 -39v-56h80v-112h-80v-382h-132v382z" />
    <glyph glyph-name="g" unicode="g" horiz-adv-x="610" 
d="M187.5 -230q-37.5 10 -68.5 29l-5 125h26q59 -42 137 -42q68 0 105.5 36t37.5 103v32q-23 -24 -60 -38.5t-84 -14.5q-68 0 -124 33.5t-88 91.5t-32 129q0 78 35.5 135.5t91.5 88t116 30.5q53 0 87 -16t58 -43v45h132v-449q0 -147 -73.5 -216t-201.5 -69q-52 0 -89.5 10z
M391 160.5q35 38.5 35 93.5t-35 93.5t-96 38.5t-96 -38.5t-35 -93.5t35 -93.5t96 -38.5t96 38.5z" />
    <glyph glyph-name="h" unicode="h" horiz-adv-x="588" 
d="M58 720h132v-287q26 34 71.5 54.5t94.5 20.5q82 0 131 -43.5t49 -127.5v-337h-132v290q0 48 -25 72t-69 24q-49 0 -84.5 -36t-35.5 -95v-255h-132v720z" />
    <glyph glyph-name="i" unicode="i" horiz-adv-x="248" 
d="M65 586q-24 24 -24 58q0 35 24 59.5t58 24.5q35 0 59.5 -24.5t24.5 -59.5q0 -34 -24.5 -58t-59.5 -24q-34 0 -58 24zM58 494h132v-494h-132v494z" />
    <glyph glyph-name="j" unicode="j" horiz-adv-x="254" 
d="M68 586q-24 24 -24 58q0 35 24 59.5t58 24.5q35 0 59.5 -24.5t24.5 -59.5q0 -34 -24.5 -58t-59.5 -24q-34 0 -58 24zM-34 -223l-12 108h20q14 -9 22.5 -12t24.5 -3q19 0 29 11.5t10 33.5v579h132v-567q0 -85 -45 -126t-114 -41q-39 0 -67 17z" />
    <glyph glyph-name="k" unicode="k" horiz-adv-x="543" 
d="M58 720h132v-429l172 203h157l-194 -229l208 -265h-169l-174 229v-229h-132v720z" />
    <glyph glyph-name="l" unicode="l" horiz-adv-x="248" 
d="M58 720h132v-720h-132v720z" />
    <glyph glyph-name="m" unicode="m" horiz-adv-x="871" 
d="M58 494h132v-61q23 33 67 54t89 21q51 0 88.5 -17.5t56.5 -52.5q33 35 74.5 52.5t95.5 17.5q72 0 115 -42t43 -115v-351h-132v298q0 44 -19.5 66t-56.5 22q-44 0 -75 -33.5t-31 -86.5v-266h-132v298q0 88 -77 88q-44 0 -75 -35t-31 -90v-261h-132v494z" />
    <glyph glyph-name="n" unicode="n" horiz-adv-x="580" 
d="M58 494h132v-61q27 34 70.5 54.5t91.5 20.5q81 0 128.5 -43.5t47.5 -127.5v-337h-132v290q0 48 -25.5 72t-68.5 24q-49 0 -80.5 -35.5t-31.5 -95.5v-255h-132v494z" />
    <glyph glyph-name="o" unicode="o" horiz-adv-x="606" 
d="M167.5 20.5q-62.5 34.5 -99 94.5t-36.5 132t36.5 132t99 94.5t135.5 34.5t135.5 -34.5t99 -94.5t36.5 -132t-36.5 -132t-99 -94.5t-135.5 -34.5t-135.5 34.5zM372.5 125.5q31.5 17.5 50.5 49.5t19 72t-19 72t-50.5 49.5t-69.5 17.5t-69.5 -17.5t-50.5 -49.5t-19 -72
t19 -72t50.5 -49.5t69.5 -17.5t69.5 17.5z" />
    <glyph glyph-name="p" unicode="p" horiz-adv-x="624" 
d="M58 494h132v-52q59 66 159 66q69 0 124.5 -33.5t87 -93t31.5 -134.5q0 -81 -32.5 -140t-88.5 -90t-124 -31q-103 0 -157 61v-273h-132v720zM421.5 147.5q38.5 39.5 38.5 99.5t-38.5 99.5t-99.5 39.5t-99.5 -39.5t-38.5 -99.5t38.5 -99.5t99.5 -39.5t99.5 39.5z" />
    <glyph glyph-name="q" unicode="q" horiz-adv-x="624" 
d="M434 47q-54 -61 -157 -61q-68 0 -124 31t-88.5 90t-32.5 140q0 75 31.5 134.5t87 93t124.5 33.5q100 0 159 -66v52h132v-720h-132v273zM401.5 147.5q38.5 39.5 38.5 99.5t-38.5 99.5t-99.5 39.5t-99.5 -39.5t-38.5 -99.5t38.5 -99.5t99.5 -39.5t99.5 39.5z" />
    <glyph glyph-name="r" unicode="r" horiz-adv-x="430" 
d="M58 494h132v-49q23 30 57 46.5t70 16.5q27 0 45 -5.5t35 -17.5l9 -139h-19q-15 18 -38.5 29t-48.5 11q-47 0 -78.5 -29.5t-31.5 -87.5v-269h-132v494z" />
    <glyph glyph-name="s" unicode="s" horiz-adv-x="424" 
d="M32 34l30 124h6q65 -50 133 -50q28 0 45.5 10.5t17.5 30.5q0 21 -20.5 34t-76.5 32q-57 19 -88.5 55t-31.5 85q0 69 51.5 111t130.5 42q40 0 71 -7.5t59 -24.5l5 -126h-7q-36 23 -64 34.5t-63 11.5q-25 0 -41 -10t-16 -26q0 -21 20 -34.5t75 -32.5q63 -21 95.5 -51
t32.5 -93q0 -52 -26 -89t-68.5 -55.5t-93.5 -18.5q-103 0 -176 48z" />
    <glyph glyph-name="t" unicode="t" horiz-adv-x="399" 
d="M139 28q-45 42 -45 124v230h-82v112h82v82l132 60v-142h134v-112h-134v-224q0 -31 15 -46t39 -15q37 0 76 29h15l-9 -115q-33 -15 -55.5 -20t-58.5 -5q-64 0 -109 42z" />
    <glyph glyph-name="u" unicode="u" horiz-adv-x="580" 
d="M99.5 29.5q-47.5 43.5 -47.5 127.5v337h132v-290q0 -48 25.5 -72t68.5 -24q49 0 80.5 35.5t31.5 95.5v255h132v-494h-132v61q-27 -34 -70.5 -54.5t-91.5 -20.5q-81 0 -128.5 43.5z" />
    <glyph glyph-name="v" unicode="v" horiz-adv-x="542" 
d="M14 494h136l121 -259l121 259h136l-241 -494h-32z" />
    <glyph glyph-name="w" unicode="w" horiz-adv-x="778" 
d="M12 494h136l105 -259l108 259h56l108 -259l105 259h136l-219 -494h-32l-126 300l-126 -300h-32z" />
    <glyph glyph-name="x" unicode="x" horiz-adv-x="511" 
d="M178 257l-147 237h148l76 -132l77 132h148l-148 -237l161 -257h-148l-90 152l-89 -152h-148z" />
    <glyph glyph-name="y" unicode="y" horiz-adv-x="539" 
d="M195 98l-185 396h140l116 -249l121 249h142l-350 -720h-142z" />
    <glyph glyph-name="z" unicode="z" horiz-adv-x="490" 
d="M30 20l213 352h-191v122h394v-20l-210 -352h214v-122h-420v20z" />
    <glyph glyph-name="braceleft" unicode="{" horiz-adv-x="357" 
d="M141 -191.5q-33 34.5 -33 93.5v220q0 30 -13 42.5t-39 12.5h-26v120h26q26 0 39 12.5t13 42.5v220q0 59 33 93.5t94 34.5h87v-120h-39q-43 0 -43 -50v-181q0 -49 -19.5 -75t-55.5 -37q36 -11 55.5 -37t19.5 -75v-181q0 -50 43 -50h39v-120h-87q-61 0 -94 34.5z" />
    <glyph glyph-name="bar" unicode="|" horiz-adv-x="256" 
d="M62 700h132v-926h-132v926z" />
    <glyph glyph-name="braceright" unicode="}" horiz-adv-x="357" 
d="M35 -106h39q43 0 43 50v181q0 49 19.5 75t55.5 37q-36 11 -55.5 37t-19.5 75v181q0 50 -43 50h-39v120h87q61 0 94 -34.5t33 -93.5v-220q0 -30 13 -42.5t39 -12.5h26v-120h-26q-26 0 -39 -12.5t-13 -42.5v-220q0 -59 -33 -93.5t-94 -34.5h-87v120z" />
    <glyph glyph-name="asciitilde" unicode="~" horiz-adv-x="479" 
d="M273 261.5q-24 7.5 -59 22.5q-29 12 -44.5 17.5t-30.5 5.5q-23 0 -43.5 -11.5t-43.5 -34.5h-10l8 107q18 24 45.5 35.5t59.5 11.5q26 0 49 -7.5t59 -22.5q26 -11 43.5 -17t33.5 -6q48 0 87 46h10l-8 -107q-18 -24 -45.5 -35.5t-59.5 -11.5q-27 0 -51 7.5z" />
    <glyph glyph-name="uni00A0" unicode="&#xa0;" horiz-adv-x="220" 
 />
    <glyph glyph-name="exclamdown" unicode="&#xa1;" horiz-adv-x="254" 
d="M184.5 484.5q23.5 -23.5 23.5 -57.5t-23.5 -57.5t-57.5 -23.5t-57.5 23.5t-23.5 57.5t23.5 57.5t57.5 23.5t57.5 -23.5zM193 274v-480h-132v480h132z" />
    <glyph glyph-name="cent" unicode="&#xa2;" horiz-adv-x="494" 
d="M258 -11q-63 8 -114.5 41t-81.5 88.5t-30 128.5q0 72 30 127.5t81.5 89t114.5 41.5v125h74v-124q64 -6 111 -37l5 -133h-15q-28 20 -51 31t-50 15v-270q29 4 53 15t47 31h15l-6 -131q-43 -33 -109 -39v-124h-74v125zM258 378q-43 -12 -68.5 -47.5t-25.5 -83.5
q0 -49 25 -84t69 -47v262z" />
    <glyph glyph-name="sterling" unicode="&#xa3;" horiz-adv-x="571" 
d="M81 319h-61v108h72l1 13q10 83 47 144.5t95 95.5t131 34q81 0 141 -36l14 -140l-17 -5q-77 60 -139 60q-56 0 -90 -40t-44 -112l-2 -14h162v-108h-170l-17 -198h332v-121h-481z" />
    <glyph glyph-name="currency" unicode="&#xa4;" horiz-adv-x="599" 
d="M56 170l64 64q-37 51 -37 116t37 116l-64 64l63 64l67 -67q53 31 114 31q60 0 113 -31l67 67l63 -64l-64 -64q37 -51 37 -116t-37 -116l64 -64l-63 -64l-67 67q-53 -31 -113 -31q-61 0 -114 31l-67 -67zM376 272q32 31 32 78t-32 78t-76 31q-45 0 -77 -30.5t-32 -78.5
t32 -78.5t77 -30.5q44 0 76 31z" />
    <glyph glyph-name="yen" unicode="&#xa5;" horiz-adv-x="614" 
d="M236 147h-138v106h138v57h-138v106h78l-162 284h157l136 -249l136 249h157l-162 -284h78v-106h-138v-57h138v-106h-138v-147h-142v147z" />
    <glyph glyph-name="brokenbar" unicode="&#xa6;" horiz-adv-x="256" 
d="M62 700h132v-400h-132v400zM62 174h132v-400h-132v400z" />
    <glyph glyph-name="section" unicode="&#xa7;" horiz-adv-x="539" 
d="M164 -224.5q-45 15.5 -70 37.5l-5 149h13q79 -86 163 -86q39 0 61.5 16t22.5 46q0 23 -13.5 40t-40 33t-83.5 45q-82 42 -124 90t-42 110q0 49 20.5 82t59.5 64q-56 54 -56 127q0 56 27.5 98t75.5 64.5t109 22.5q56 0 101 -15.5t70 -37.5l5 -149h-13q-79 86 -163 86
q-39 0 -61.5 -16t-22.5 -46q0 -23 13.5 -40t40 -33t83.5 -45q82 -42 124 -90t42 -110q0 -49 -20.5 -82t-59.5 -64q56 -54 56 -127q0 -56 -27.5 -98t-75.5 -64.5t-109 -22.5q-56 0 -101 15.5zM359 206q0 38 -32.5 66.5t-102.5 62.5l-5 3q-31 -31 -31 -70q0 -38 32.5 -66.5
t102.5 -62.5l5 -3q31 31 31 70z" />
    <glyph glyph-name="dieresis" unicode="&#xa8;" horiz-adv-x="395" 
d="M51 577q-21 21 -21 50q0 30 21 51.5t50 21.5q30 0 51.5 -21.5t21.5 -51.5q0 -29 -21.5 -50t-51.5 -21q-29 0 -50 21zM242 577q-21 21 -21 50q0 30 21 51.5t50 21.5q30 0 51.5 -21.5t21.5 -51.5q0 -29 -21.5 -50t-51.5 -21q-29 0 -50 21z" />
    <glyph glyph-name="copyright" unicode="&#xa9;" horiz-adv-x="812" 
d="M215 34.5q-85 48.5 -133 132t-48 183.5t48 183.5t133 132t191 48.5t191 -48.5t133 -132t48 -183.5t-48 -183.5t-133 -132t-191 -48.5t-191 48.5zM547 109q62 37 96.5 101t34.5 140t-34.5 140t-96.5 101t-141 37t-141 -37t-96.5 -101t-34.5 -140t34.5 -140t96.5 -101
t141 -37t141 37zM330.5 184.5q-44.5 22.5 -71 65.5t-26.5 100t26.5 100t71 65.5t95.5 22.5q64 0 104 -28l3 -100h-10q-46 40 -97 40q-44 0 -71 -28t-27 -72t27 -72t71 -28q51 0 97 40h10l-3 -100q-40 -28 -104 -28q-51 0 -95.5 22.5z" />
    <glyph glyph-name="ordfeminine" unicode="&#xaa;" horiz-adv-x="461" 
d="M120 369.5q-39 22.5 -63.5 64.5t-24.5 97q0 50 23.5 92t63.5 66.5t88 24.5q33 0 61 -11.5t43 -29.5v31h92v-347h-92v32q-22 -21 -46.5 -31.5t-63.5 -10.5q-42 0 -81 22.5zM289 461q26 28 26 70q0 41 -26 69t-69 28t-69 -28t-26 -69q0 -42 26 -70t69 -28t69 28z" />
    <glyph glyph-name="guillemotleft" unicode="&#xab;" horiz-adv-x="569" 
d="M32 282v70l236 202h21v-122l-133 -115l133 -115v-122h-21zM272 282v70l236 202h21v-122l-133 -115l133 -115v-122h-21z" />
    <glyph glyph-name="logicalnot" unicode="&#xac;" horiz-adv-x="492" 
d="M308 292h-256v112h388v-235h-132v123z" />
    <glyph glyph-name="uni00AD" unicode="&#xad;" horiz-adv-x="328" 
d="M0 370h328v-106h-328v106z" />
    <glyph glyph-name="registered" unicode="&#xae;" horiz-adv-x="812" 
d="M215 34.5q-85 48.5 -133 132t-48 183.5t48 183.5t133 132t191 48.5t191 -48.5t133 -132t48 -183.5t-48 -183.5t-133 -132t-191 -48.5t-191 48.5zM547 109q62 37 96.5 101t34.5 140t-34.5 140t-96.5 101t-141 37t-141 -37t-96.5 -101t-34.5 -140t34.5 -140t96.5 -101
t141 -37t141 37zM277 544h146q55 0 90 -30.5t35 -80.5q0 -38 -20 -65t-54 -39l103 -157h-97l-94 149h-19v-149h-90v372zM403 390q55 0 55 43q0 42 -55 42h-36v-85h36z" />
    <glyph glyph-name="macron" unicode="&#xaf;" horiz-adv-x="310" 
d="M30 664h250v-94h-250v94z" />
    <glyph glyph-name="degree" unicode="&#xb0;" horiz-adv-x="304" 
d="M63.5 505.5q-35.5 35.5 -35.5 86.5t35.5 86.5t88.5 35.5t88.5 -35.5t35.5 -86.5t-35.5 -86.5t-88.5 -35.5t-88.5 35.5zM201.5 541.5q18.5 19.5 18.5 50.5t-18.5 50.5t-49.5 19.5t-49.5 -19.5t-18.5 -50.5t18.5 -50.5t49.5 -19.5t49.5 19.5z" />
    <glyph glyph-name="plusminus" unicode="&#xb1;" horiz-adv-x="506" 
d="M44 46h418v-106h-418v106zM200 254h-156v106h156v156h106v-156h156v-106h-156v-156h-106v156z" />
    <glyph glyph-name="uni00B2" unicode="&#xb2;" horiz-adv-x="293" 
d="M14 522l131 163q28 35 28 67q0 18 -13 30t-35 12q-43 0 -75 -53h-22l4 83q18 18 47.5 28.5t60.5 10.5q58 0 89 -27.5t31 -72.5q0 -30 -12.5 -57.5t-40.5 -61.5l-55 -66h120v-72h-258v16z" />
    <glyph glyph-name="uni00B3" unicode="&#xb3;" horiz-adv-x="300" 
d="M83 512q-28 6 -44 15l-8 84h13q24 -16 45 -25t44 -9q61 0 61 59q0 26 -16.5 41.5t-45.5 15.5q-8 0 -38 -5l-13 26l58 77h-112v72h240v-10l-79 -102q41 -10 65.5 -38.5t24.5 -76.5q0 -62 -38 -96t-100 -34q-29 0 -57 6z" />
    <glyph glyph-name="acute" unicode="&#xb4;" horiz-adv-x="314" 
d="M122 700h162l-142 -137h-112z" />
    <glyph glyph-name="uni00B5" unicode="&#xb5;" horiz-adv-x="586" 
d="M58 494h132v-291q0 -46 26 -69.5t70 -23.5q47 0 78.5 35t31.5 96v253h132v-494h-132v60q-27 -34 -69 -54t-91 -20q-24 0 -46 8v-220h-132v720z" />
    <glyph glyph-name="paragraph" unicode="&#xb6;" horiz-adv-x="666" 
d="M269 310h-18q-106 0 -166.5 52.5t-60.5 142.5t60.5 142.5t166.5 52.5h353v-926h-122v820h-91v-820h-122v536z" />
    <glyph glyph-name="periodcentered" unicode="&#xb7;" horiz-adv-x="242" 
d="M66.5 308.5q-22.5 22.5 -22.5 53.5q0 32 22.5 55t53.5 23q32 0 55 -23t23 -55q0 -31 -23 -53.5t-55 -22.5q-31 0 -53.5 22.5z" />
    <glyph glyph-name="cedilla" unicode="&#xb8;" horiz-adv-x="298" 
d="M41 -227l-11 71l12 5q38 -21 73 -21q22 0 34.5 9t12.5 26q0 18 -12 27t-34 9q-10 0 -27.5 -3t-26.5 -6l-9 10l63 150l80 -28l-64 -79q24 6 49 6q40 0 63.5 -23t23.5 -63q0 -49 -36.5 -76t-96.5 -27q-55 0 -94 13z" />
    <glyph glyph-name="uni00B9" unicode="&#xb9;" horiz-adv-x="142" 
d="M30 826l47 33h35v-350h-82v317z" />
    <glyph glyph-name="ordmasculine" unicode="&#xba;" horiz-adv-x="445" 
d="M128 371.5q-44 24.5 -70 66.5t-26 93t26 93t70 66t95 24t95 -24t69.5 -66t25.5 -93t-25.5 -93t-69.5 -66.5t-95 -24.5t-95 24.5zM292.5 460.5q28.5 27.5 28.5 70.5t-28.5 70t-69.5 27t-69.5 -27t-28.5 -70t28.5 -70.5t69.5 -27.5t69.5 27.5z" />
    <glyph glyph-name="guillemotright" unicode="&#xbb;" horiz-adv-x="569" 
d="M40 202l133 115l-133 115v122h21l236 -202v-70l-236 -202h-21v122zM280 202l133 115l-133 115v122h21l236 -202v-70l-236 -202h-21v122z" />
    <glyph glyph-name="onequarter" unicode="&#xbc;" horiz-adv-x="538" 
d="M30 667l47 33h35v-350h-82v317zM42 161l332 412l56 -45l-331 -412zM399 61h-159v59l190 223h51v-210h44v-72h-44v-68h-82v68zM399 133v81l-67 -81h67z" />
    <glyph glyph-name="onehalf" unicode="&#xbd;" horiz-adv-x="623" 
d="M30 667l47 33h35v-350h-82v317zM42 161l332 412l56 -45l-331 -412zM344 9l131 163q28 35 28 67q0 18 -13 30t-35 12q-43 0 -75 -53h-22l4 83q18 18 47.5 28.5t60.5 10.5q58 0 89 -27.5t31 -72.5q0 -30 -12.5 -57.5t-40.5 -61.5l-55 -66h120v-72h-258v16z" />
    <glyph glyph-name="threequarters" unicode="&#xbe;" horiz-adv-x="666" 
d="M83 349q-28 6 -44 15l-8 84h13q24 -16 45 -25t44 -9q61 0 61 59q0 26 -16.5 41.5t-45.5 15.5q-8 0 -38 -5l-13 26l58 77h-112v72h240v-10l-79 -102q41 -10 65.5 -38.5t24.5 -76.5q0 -62 -38 -96t-100 -34q-29 0 -57 6zM170 161l332 412l56 -45l-331 -412zM527 61h-159v59
l190 223h51v-210h44v-72h-44v-68h-82v68zM527 133v81l-67 -81h67z" />
    <glyph glyph-name="questiondown" unicode="&#xbf;" horiz-adv-x="456" 
d="M297.5 484.5q23.5 -23.5 23.5 -57.5t-23.5 -57.5t-57.5 -23.5t-57.5 23.5t-23.5 57.5t23.5 57.5t57.5 23.5t57.5 -23.5zM310 255q0 -62 -21.5 -101.5t-61.5 -82.5q-29 -31 -43 -53.5t-14 -51.5q0 -33 23 -52.5t64 -19.5q42 0 82 25.5t66 57.5h13l-9 -145
q-34 -24 -77.5 -38t-88.5 -14q-91 0 -148 44.5t-57 127.5q0 56 20 92.5t58 78.5q32 35 47 60t15 60v31h132v-19z" />
    <glyph glyph-name="Agrave" unicode="&#xc0;" horiz-adv-x="698" 
d="M328 700h42l310 -700h-138l-52 120h-282l-52 -120h-138zM440 240l-91 212l-91 -212h182zM305 769l-144 137h165l91 -137h-112z" />
    <glyph glyph-name="Aacute" unicode="&#xc1;" horiz-adv-x="698" 
d="M328 700h42l310 -700h-138l-52 120h-282l-52 -120h-138zM440 240l-91 212l-91 -212h182zM372 906h165l-144 -137h-112z" />
    <glyph glyph-name="Acircumflex" unicode="&#xc2;" horiz-adv-x="698" 
d="M328 700h42l310 -700h-138l-52 120h-282l-52 -120h-138zM440 240l-91 212l-91 -212h182zM278 906h142l96 -137h-102l-66 62l-65 -62h-102z" />
    <glyph glyph-name="Atilde" unicode="&#xc3;" horiz-adv-x="698" 
d="M328 700h42l310 -700h-138l-52 120h-282l-52 -120h-138zM440 240l-91 212l-91 -212h182zM371.5 767.5q-18.5 7.5 -44.5 22.5q-19 12 -31.5 17.5t-27.5 5.5q-23 0 -43.5 -11.5t-43.5 -34.5h-10l8 92q36 47 101 47q26 0 45 -7.5t43 -22.5q18 -12 31.5 -17.5t29.5 -5.5
q48 0 87 46h10l-8 -92q-36 -47 -101 -47q-27 0 -45.5 7.5z" />
    <glyph glyph-name="Adieresis" unicode="&#xc4;" horiz-adv-x="698" 
d="M328 700h42l310 -700h-138l-52 120h-282l-52 -120h-138zM440 240l-91 212l-91 -212h182zM202 783q-21 21 -21 50q0 30 21 51.5t50 21.5t51 -21.5t22 -51.5q0 -29 -22 -50t-51 -21t-50 21zM394 783q-21 21 -21 50q0 30 21 51.5t50 21.5t51 -21.5t22 -51.5q0 -29 -22 -50
t-51 -21t-50 21z" />
    <glyph glyph-name="Aring" unicode="&#xc5;" horiz-adv-x="698" 
d="M680 0h-138l-52 120h-282l-52 -120h-138l292 660q-29 11 -46.5 36.5t-17.5 57.5q0 42 30 71.5t73 29.5t73 -29.5t30 -71.5q0 -32 -17.5 -57.5t-46.5 -36.5zM311 791.5q-15 -15.5 -15 -37.5t15 -37.5t38 -15.5t38 15.5t15 37.5t-15 37.5t-38 15.5t-38 -15.5zM440 240
l-91 212l-91 -212h182z" />
    <glyph glyph-name="AE" unicode="&#xc6;" horiz-adv-x="1014" 
d="M328 700h358l54 -120h-311l71 -160h286l52 -120h-285l79 -180h313l52 -120h-455l-52 120h-283l-51 -120h-138zM439 240l-90 212l-91 -212h181z" />
    <glyph glyph-name="Ccedilla" unicode="&#xc7;" horiz-adv-x="665" 
d="M287 -227l-11 71l12 5q38 -21 73 -21q22 0 34.5 9t12.5 26q0 18 -12 27t-34 9q-10 0 -27.5 -3t-26.5 -6l-9 10l38 92q-88 14 -157 63.5t-107.5 126t-38.5 168.5q0 104 49 187t134 130t190 47q64 0 108.5 -12.5t92.5 -40.5l11 -145h-19q-47 35 -92.5 52.5t-94.5 17.5
q-74 0 -127.5 -30.5t-81.5 -84t-28 -121.5t28 -121.5t81.5 -84t127.5 -30.5q49 0 94.5 17.5t92.5 52.5h19l-11 -145q-47 -27 -90.5 -39.5t-104.5 -13.5l-35 -43q24 6 49 6q40 0 63.5 -23t23.5 -63q0 -49 -36.5 -76t-96.5 -27q-55 0 -94 13z" />
    <glyph glyph-name="Egrave" unicode="&#xc8;" horiz-adv-x="549" 
d="M62 700h445v-120h-303v-160h292v-120h-292v-180h307v-120h-449v700zM252 769l-144 137h165l91 -137h-112z" />
    <glyph glyph-name="Eacute" unicode="&#xc9;" horiz-adv-x="549" 
d="M62 700h445v-120h-303v-160h292v-120h-292v-180h307v-120h-449v700zM319 906h165l-144 -137h-112z" />
    <glyph glyph-name="Ecircumflex" unicode="&#xca;" horiz-adv-x="549" 
d="M62 700h445v-120h-303v-160h292v-120h-292v-180h307v-120h-449v700zM225 906h142l96 -137h-102l-66 62l-65 -62h-102z" />
    <glyph glyph-name="Edieresis" unicode="&#xcb;" horiz-adv-x="549" 
d="M62 700h445v-120h-303v-160h292v-120h-292v-180h307v-120h-449v700zM149 783q-21 21 -21 50q0 30 21 51.5t50 21.5t51 -21.5t22 -51.5q0 -29 -22 -50t-51 -21t-50 21zM341 783q-21 21 -21 50q0 30 21 51.5t50 21.5t51 -21.5t22 -51.5q0 -29 -22 -50t-51 -21t-50 21z" />
    <glyph glyph-name="Igrave" unicode="&#xcc;" horiz-adv-x="266" 
d="M62 700h142v-700h-142v700zM89 769l-144 137h165l91 -137h-112z" />
    <glyph glyph-name="Iacute" unicode="&#xcd;" horiz-adv-x="266" 
d="M62 700h142v-700h-142v700zM156 906h165l-144 -137h-112z" />
    <glyph glyph-name="Icircumflex" unicode="&#xce;" horiz-adv-x="266" 
d="M62 700h142v-700h-142v700zM62 906h142l96 -137h-102l-66 62l-65 -62h-102z" />
    <glyph glyph-name="Idieresis" unicode="&#xcf;" horiz-adv-x="266" 
d="M62 700h142v-700h-142v700zM-14 783q-21 21 -21 50q0 30 21 51.5t50 21.5t51 -21.5t22 -51.5q0 -29 -22 -50t-51 -21t-50 21zM178 783q-21 21 -21 50q0 30 21 51.5t50 21.5t51 -21.5t22 -51.5q0 -29 -22 -50t-51 -21t-50 21z" />
    <glyph glyph-name="Eth" unicode="&#xd0;" horiz-adv-x="641" 
d="M62 297h-76v106h76v297h172q110 0 194.5 -41.5t131.5 -120.5t47 -188t-47 -188t-131.5 -120.5t-194.5 -41.5h-172v297zM234 122q110 0 173.5 61t63.5 167t-63.5 167t-173.5 61h-30v-175h130v-106h-130v-175h30z" />
    <glyph glyph-name="Ntilde" unicode="&#xd1;" horiz-adv-x="711" 
d="M62 700h60l385 -417v417h142v-700h-60l-385 417v-417h-142v700zM378.5 767.5q-18.5 7.5 -44.5 22.5q-19 12 -31.5 17.5t-27.5 5.5q-23 0 -43.5 -11.5t-43.5 -34.5h-10l8 92q36 47 101 47q26 0 45 -7.5t43 -22.5q18 -12 31.5 -17.5t29.5 -5.5q48 0 87 46h10l-8 -92
q-36 -47 -101 -47q-27 0 -45.5 7.5z" />
    <glyph glyph-name="Ograve" unicode="&#xd2;" horiz-adv-x="815" 
d="M218.5 33.5q-85.5 47.5 -135 130.5t-49.5 186t49.5 186t135 130.5t188.5 47.5t189 -47.5t135.5 -130.5t49.5 -186t-49.5 -186t-135.5 -130.5t-189 -47.5t-188.5 47.5zM526 140q53 29 84 83t31 127t-31 127t-84 83t-119 29q-65 0 -118.5 -29t-84.5 -83t-31 -127t31 -127
t84.5 -83t118.5 -29q66 0 119 29zM363 769l-144 137h165l91 -137h-112z" />
    <glyph glyph-name="Oacute" unicode="&#xd3;" horiz-adv-x="815" 
d="M218.5 33.5q-85.5 47.5 -135 130.5t-49.5 186t49.5 186t135 130.5t188.5 47.5t189 -47.5t135.5 -130.5t49.5 -186t-49.5 -186t-135.5 -130.5t-189 -47.5t-188.5 47.5zM526 140q53 29 84 83t31 127t-31 127t-84 83t-119 29q-65 0 -118.5 -29t-84.5 -83t-31 -127t31 -127
t84.5 -83t118.5 -29q66 0 119 29zM430 906h165l-144 -137h-112z" />
    <glyph glyph-name="Ocircumflex" unicode="&#xd4;" horiz-adv-x="815" 
d="M218.5 33.5q-85.5 47.5 -135 130.5t-49.5 186t49.5 186t135 130.5t188.5 47.5t189 -47.5t135.5 -130.5t49.5 -186t-49.5 -186t-135.5 -130.5t-189 -47.5t-188.5 47.5zM526 140q53 29 84 83t31 127t-31 127t-84 83t-119 29q-65 0 -118.5 -29t-84.5 -83t-31 -127t31 -127
t84.5 -83t118.5 -29q66 0 119 29zM336 906h142l96 -137h-102l-66 62l-65 -62h-102z" />
    <glyph glyph-name="Otilde" unicode="&#xd5;" horiz-adv-x="815" 
d="M218.5 33.5q-85.5 47.5 -135 130.5t-49.5 186t49.5 186t135 130.5t188.5 47.5t189 -47.5t135.5 -130.5t49.5 -186t-49.5 -186t-135.5 -130.5t-189 -47.5t-188.5 47.5zM526 140q53 29 84 83t31 127t-31 127t-84 83t-119 29q-65 0 -118.5 -29t-84.5 -83t-31 -127t31 -127
t84.5 -83t118.5 -29q66 0 119 29zM429.5 767.5q-18.5 7.5 -44.5 22.5q-19 12 -31.5 17.5t-27.5 5.5q-23 0 -43.5 -11.5t-43.5 -34.5h-10l8 92q36 47 101 47q26 0 45 -7.5t43 -22.5q18 -12 31.5 -17.5t29.5 -5.5q48 0 87 46h10l-8 -92q-36 -47 -101 -47q-27 0 -45.5 7.5z" />
    <glyph glyph-name="Odieresis" unicode="&#xd6;" horiz-adv-x="815" 
d="M218.5 33.5q-85.5 47.5 -135 130.5t-49.5 186t49.5 186t135 130.5t188.5 47.5t189 -47.5t135.5 -130.5t49.5 -186t-49.5 -186t-135.5 -130.5t-189 -47.5t-188.5 47.5zM526 140q53 29 84 83t31 127t-31 127t-84 83t-119 29q-65 0 -118.5 -29t-84.5 -83t-31 -127t31 -127
t84.5 -83t118.5 -29q66 0 119 29zM260 783q-21 21 -21 50q0 30 21 51.5t50 21.5t51 -21.5t22 -51.5q0 -29 -22 -50t-51 -21t-50 21zM452 783q-21 21 -21 50q0 30 21 51.5t50 21.5t51 -21.5t22 -51.5q0 -29 -22 -50t-51 -21t-50 21z" />
    <glyph glyph-name="multiply" unicode="&#xd7;" horiz-adv-x="458" 
d="M44 197l110 110l-110 110l75 75l110 -110l110 110l75 -75l-110 -110l110 -110l-75 -75l-110 110l-110 -110z" />
    <glyph glyph-name="Oslash" unicode="&#xd8;" horiz-adv-x="815" 
d="M744.5 510.5q36.5 -73.5 36.5 -160.5q0 -103 -49.5 -186t-135.5 -130.5t-189 -47.5q-63 0 -120 18l-32 -57l-116 64l31 55q-64 50 -100 123.5t-36 160.5q0 103 49.5 186t135 130.5t188.5 47.5q63 0 120 -18l32 57l116 -64l-31 -54q64 -51 100.5 -124.5zM235 181l228 402
q-27 6 -56 6q-65 0 -118.5 -29t-84.5 -83t-31 -127q0 -102 62 -169zM526 140q53 29 84 83t31 127q0 52 -16 95t-46 74l-228 -402q27 -6 56 -6q66 0 119 29z" />
    <glyph glyph-name="Ugrave" unicode="&#xd9;" horiz-adv-x="670" 
d="M128.5 64.5q-74.5 78.5 -74.5 213.5v422h142v-434q0 -86 39 -123t100 -37t100 37t39 123v434h142v-422q0 -135 -74.5 -213.5t-206.5 -78.5t-206.5 78.5zM291 769l-144 137h165l91 -137h-112z" />
    <glyph glyph-name="Uacute" unicode="&#xda;" horiz-adv-x="670" 
d="M128.5 64.5q-74.5 78.5 -74.5 213.5v422h142v-434q0 -86 39 -123t100 -37t100 37t39 123v434h142v-422q0 -135 -74.5 -213.5t-206.5 -78.5t-206.5 78.5zM358 906h165l-144 -137h-112z" />
    <glyph glyph-name="Ucircumflex" unicode="&#xdb;" horiz-adv-x="670" 
d="M128.5 64.5q-74.5 78.5 -74.5 213.5v422h142v-434q0 -86 39 -123t100 -37t100 37t39 123v434h142v-422q0 -135 -74.5 -213.5t-206.5 -78.5t-206.5 78.5zM264 906h142l96 -137h-102l-66 62l-65 -62h-102z" />
    <glyph glyph-name="Udieresis" unicode="&#xdc;" horiz-adv-x="670" 
d="M128.5 64.5q-74.5 78.5 -74.5 213.5v422h142v-434q0 -86 39 -123t100 -37t100 37t39 123v434h142v-422q0 -135 -74.5 -213.5t-206.5 -78.5t-206.5 78.5zM188 783q-21 21 -21 50q0 30 21 51.5t50 21.5t51 -21.5t22 -51.5q0 -29 -22 -50t-51 -21t-50 21zM380 783
q-21 21 -21 50q0 30 21 51.5t50 21.5t51 -21.5t22 -51.5q0 -29 -22 -50t-51 -21t-50 21z" />
    <glyph glyph-name="Yacute" unicode="&#xdd;" horiz-adv-x="614" 
d="M236 296l-222 404h157l136 -269l136 269h157l-222 -404v-296h-142v296zM330 906h165l-144 -137h-112z" />
    <glyph glyph-name="Thorn" unicode="&#xde;" horiz-adv-x="553" 
d="M62 700h142v-132h62q119 0 188 -58.5t69 -159.5t-69 -159.5t-188 -58.5h-62v-132h-142v700zM267 254q59 0 86.5 25.5t27.5 70.5t-27.5 70.5t-86.5 25.5h-63v-192h63z" />
    <glyph glyph-name="germandbls" unicode="&#xdf;" horiz-adv-x="633" 
d="M266 26l9 117h16q45 -34 89 -34q42 0 66 26t24 68q0 47 -33 76.5t-105 29.5h-41v117q49 1 77.5 29t28.5 67q0 36 -23 58t-61 22t-63 -22.5t-25 -65.5v-514h-132v389h-55v105h55v17q0 100 62 151.5t156 51.5q63 0 112 -23t76 -63t27 -90q0 -48 -25.5 -86t-69.5 -62
q79 -10 124.5 -61t45.5 -132q0 -61 -26 -109t-73 -75t-107 -27q-72 0 -129 40z" />
    <glyph glyph-name="agrave" unicode="&#xe0;" horiz-adv-x="618" 
d="M156.5 18q-55.5 32 -90 91.5t-34.5 137.5q0 71 33 131t90 95t125 35q48 0 87.5 -16t60.5 -43v45h132v-494h-132v45q-31 -29 -66 -44t-90 -15q-60 0 -115.5 32zM397 148q37 40 37 99t-37 99t-98 40t-98 -40t-37 -99t37 -99t98 -40t98 40zM113 700h165l91 -137h-112z" />
    <glyph glyph-name="aacute" unicode="&#xe1;" horiz-adv-x="618" 
d="M156.5 18q-55.5 32 -90 91.5t-34.5 137.5q0 71 33 131t90 95t125 35q48 0 87.5 -16t60.5 -43v45h132v-494h-132v45q-31 -29 -66 -44t-90 -15q-60 0 -115.5 32zM397 148q37 40 37 99t-37 99t-98 40t-98 -40t-37 -99t37 -99t98 -40t98 40zM304 700h165l-144 -137h-112z" />
    <glyph glyph-name="acircumflex" unicode="&#xe2;" horiz-adv-x="618" 
d="M156.5 18q-55.5 32 -90 91.5t-34.5 137.5q0 71 33 131t90 95t125 35q48 0 87.5 -16t60.5 -43v45h132v-494h-132v45q-31 -29 -66 -44t-90 -15q-60 0 -115.5 32zM397 148q37 40 37 99t-37 99t-98 40t-98 -40t-37 -99t37 -99t98 -40t98 40zM221 700h145l92 -137h-102l-63 60
l-62 -60h-102z" />
    <glyph glyph-name="atilde" unicode="&#xe3;" horiz-adv-x="618" 
d="M156.5 18q-55.5 32 -90 91.5t-34.5 137.5q0 71 33 131t90 95t125 35q48 0 87.5 -16t60.5 -43v45h132v-494h-132v45q-31 -29 -66 -44t-90 -15q-60 0 -115.5 32zM397 148q37 40 37 99t-37 99t-98 40t-98 -40t-37 -99t37 -99t98 -40t98 40zM315.5 561.5
q-18.5 7.5 -44.5 22.5q-19 12 -31.5 17.5t-27.5 5.5q-23 0 -43.5 -11.5t-43.5 -34.5h-10l8 92q36 47 101 47q26 0 45 -7.5t43 -22.5q18 -12 31.5 -17.5t29.5 -5.5q48 0 87 46h10l-8 -92q-36 -47 -101 -47q-27 0 -45.5 7.5z" />
    <glyph glyph-name="adieresis" unicode="&#xe4;" horiz-adv-x="618" 
d="M156.5 18q-55.5 32 -90 91.5t-34.5 137.5q0 71 33 131t90 95t125 35q48 0 87.5 -16t60.5 -43v45h132v-494h-132v45q-31 -29 -66 -44t-90 -15q-60 0 -115.5 32zM397 148q37 40 37 99t-37 99t-98 40t-98 -40t-37 -99t37 -99t98 -40t98 40zM146 577q-21 21 -21 50
q0 30 21 51.5t50 21.5t51 -21.5t22 -51.5q0 -29 -22 -50t-51 -21t-50 21zM338 577q-21 21 -21 50q0 30 21 51.5t50 21.5t51 -21.5t22 -51.5q0 -29 -22 -50t-51 -21t-50 21z" />
    <glyph glyph-name="aring" unicode="&#xe5;" horiz-adv-x="618" 
d="M156.5 18q-55.5 32 -90 91.5t-34.5 137.5q0 71 33 131t90 95t125 35q48 0 87.5 -16t60.5 -43v45h132v-494h-132v45q-31 -29 -66 -44t-90 -15q-60 0 -115.5 32zM397 148q37 40 37 99t-37 99t-98 40t-98 -40t-37 -99t37 -99t98 -40t98 40zM220 573.5q-30 29.5 -30 71.5
t30 71.5t73 29.5t73 -29.5t30 -71.5t-30 -71.5t-73 -29.5t-73 29.5zM331 607.5q15 15.5 15 37.5t-15 37.5t-38 15.5t-38 -15.5t-15 -37.5t15 -37.5t38 -15.5t38 15.5z" />
    <glyph glyph-name="ae" unicode="&#xe6;" horiz-adv-x="873" 
d="M115 4.5q-37 18.5 -59 52t-22 77.5q0 82 69.5 125t210.5 43h18q-1 47 -28 73.5t-67 26.5q-41 0 -72.5 -13.5t-64.5 -41.5h-21l11 114q30 20 77.5 33.5t92.5 13.5q106 0 157 -68q76 68 173 68q81 0 137 -35.5t84 -94t28 -127.5v-39h-379q11 -55 51.5 -84.5t99.5 -29.5
q49 0 92.5 14.5t85.5 50.5h14l-5 -125q-90 -52 -196 -52q-63 0 -117 25.5t-91 70.5q-42 -54 -89.5 -75t-108.5 -21q-44 0 -81 18.5zM707 302q-5 46 -37.5 75t-79.5 29q-44 0 -78.5 -27.5t-47.5 -76.5h243zM301.5 124.5q30.5 36.5 30.5 87.5q-85 0 -127.5 -14.5t-42.5 -56.5
q0 -24 16.5 -38.5t42.5 -14.5q50 0 80.5 36.5z" />
    <glyph glyph-name="ccedilla" unicode="&#xe7;" horiz-adv-x="495" 
d="M369 121.5q32 13.5 66 42.5h14l-5 -139q-52 -39 -141 -39l-35 -43q24 6 49 6q40 0 63.5 -23t23.5 -63q0 -49 -36.5 -76t-96.5 -27q-55 0 -94 13l-11 71l12 5q38 -21 73 -21q22 0 34.5 9t12.5 26q0 18 -12 27t-34 9q-10 0 -27.5 -3t-26.5 -6l-9 10l40 95q-86 20 -141.5 87
t-55.5 165q0 80 37 139t98.5 90.5t132.5 31.5q91 0 144 -39l5 -139h-14q-34 29 -66 42.5t-69 13.5q-61 0 -98.5 -39t-37.5 -100t37.5 -100t98.5 -39q37 0 69 13.5z" />
    <glyph glyph-name="egrave" unicode="&#xe8;" horiz-adv-x="571" 
d="M165 21q-62 35 -97.5 95.5t-35.5 134.5q0 72 33.5 130.5t93 92.5t134.5 34q76 0 131.5 -35.5t84 -94.5t28.5 -127v-39h-379q12 -56 51.5 -85t104.5 -29q99 0 173 65h14l-5 -125q-45 -26 -95 -39t-96 -13q-78 0 -140 35zM405 302q-5 45 -37.5 70.5t-79.5 25.5
q-46 0 -80.5 -24.5t-46.5 -71.5h244zM107 700h165l91 -137h-112z" />
    <glyph glyph-name="eacute" unicode="&#xe9;" horiz-adv-x="571" 
d="M165 21q-62 35 -97.5 95.5t-35.5 134.5q0 72 33.5 130.5t93 92.5t134.5 34q76 0 131.5 -35.5t84 -94.5t28.5 -127v-39h-379q12 -56 51.5 -85t104.5 -29q99 0 173 65h14l-5 -125q-45 -26 -95 -39t-96 -13q-78 0 -140 35zM405 302q-5 45 -37.5 70.5t-79.5 25.5
q-46 0 -80.5 -24.5t-46.5 -71.5h244zM298 700h165l-144 -137h-112z" />
    <glyph glyph-name="ecircumflex" unicode="&#xea;" horiz-adv-x="571" 
d="M165 21q-62 35 -97.5 95.5t-35.5 134.5q0 72 33.5 130.5t93 92.5t134.5 34q76 0 131.5 -35.5t84 -94.5t28.5 -127v-39h-379q12 -56 51.5 -85t104.5 -29q99 0 173 65h14l-5 -125q-45 -26 -95 -39t-96 -13q-78 0 -140 35zM405 302q-5 45 -37.5 70.5t-79.5 25.5
q-46 0 -80.5 -24.5t-46.5 -71.5h244zM215 700h145l92 -137h-102l-63 60l-62 -60h-102z" />
    <glyph glyph-name="edieresis" unicode="&#xeb;" horiz-adv-x="571" 
d="M165 21q-62 35 -97.5 95.5t-35.5 134.5q0 72 33.5 130.5t93 92.5t134.5 34q76 0 131.5 -35.5t84 -94.5t28.5 -127v-39h-379q12 -56 51.5 -85t104.5 -29q99 0 173 65h14l-5 -125q-45 -26 -95 -39t-96 -13q-78 0 -140 35zM405 302q-5 45 -37.5 70.5t-79.5 25.5
q-46 0 -80.5 -24.5t-46.5 -71.5h244zM140 577q-21 21 -21 50q0 30 21 51.5t50 21.5t51 -21.5t22 -51.5q0 -29 -22 -50t-51 -21t-50 21zM332 577q-21 21 -21 50q0 30 21 51.5t50 21.5t51 -21.5t22 -51.5q0 -29 -22 -50t-51 -21t-50 21z" />
    <glyph glyph-name="igrave" unicode="&#xec;" horiz-adv-x="248" 
d="M58 494h132v-494h-132v494zM-56 700h165l91 -137h-112z" />
    <glyph glyph-name="iacute" unicode="&#xed;" horiz-adv-x="248" 
d="M58 494h132v-494h-132v494zM135 700h165l-144 -137h-112z" />
    <glyph glyph-name="icircumflex" unicode="&#xee;" horiz-adv-x="248" 
d="M58 494h132v-494h-132v494zM52 700h145l92 -137h-102l-63 60l-62 -60h-102z" />
    <glyph glyph-name="idieresis" unicode="&#xef;" horiz-adv-x="248" 
d="M58 494h132v-494h-132v494zM-23 577q-21 21 -21 50q0 30 21 51.5t50 21.5t51 -21.5t22 -51.5q0 -29 -22 -50t-51 -21t-50 21zM169 577q-21 21 -21 50q0 30 21 51.5t50 21.5t51 -21.5t22 -51.5q0 -29 -22 -50t-51 -21t-50 21z" />
    <glyph glyph-name="eth" unicode="&#xf0;" horiz-adv-x="573" 
d="M147 17.5q-55 31.5 -85 85.5t-30 119q0 67 29 119.5t79.5 82t112.5 29.5q35 0 67 -10.5t56 -29.5q-21 74 -75 131l-139 -57l-21 52l113 46q-45 35 -104 64v16l121 53q68 -35 115 -79l86 36l21 -52l-66 -27q53 -64 80.5 -142.5t27.5 -165.5q0 -96 -33 -164t-92 -103
t-136 -35q-72 0 -127 31.5zM358 139q32 33 32 83t-32 83t-81 33t-81 -33t-32 -83t32 -83t81 -33t81 33z" />
    <glyph glyph-name="ntilde" unicode="&#xf1;" horiz-adv-x="580" 
d="M58 494h132v-61q27 34 70.5 54.5t91.5 20.5q81 0 128.5 -43.5t47.5 -127.5v-337h-132v290q0 48 -25.5 72t-68.5 24q-49 0 -80.5 -35.5t-31.5 -95.5v-255h-132v494zM324.5 561.5q-18.5 7.5 -44.5 22.5q-19 12 -31.5 17.5t-27.5 5.5q-23 0 -43.5 -11.5t-43.5 -34.5h-10
l8 92q36 47 101 47q26 0 45 -7.5t43 -22.5q18 -12 31.5 -17.5t29.5 -5.5q48 0 87 46h10l-8 -92q-36 -47 -101 -47q-27 0 -45.5 7.5z" />
    <glyph glyph-name="ograve" unicode="&#xf2;" horiz-adv-x="606" 
d="M167.5 20.5q-62.5 34.5 -99 94.5t-36.5 132t36.5 132t99 94.5t135.5 34.5t135.5 -34.5t99 -94.5t36.5 -132t-36.5 -132t-99 -94.5t-135.5 -34.5t-135.5 34.5zM372.5 125.5q31.5 17.5 50.5 49.5t19 72t-19 72t-50.5 49.5t-69.5 17.5t-69.5 -17.5t-50.5 -49.5t-19 -72
t19 -72t50.5 -49.5t69.5 -17.5t69.5 17.5zM123 700h165l91 -137h-112z" />
    <glyph glyph-name="oacute" unicode="&#xf3;" horiz-adv-x="606" 
d="M167.5 20.5q-62.5 34.5 -99 94.5t-36.5 132t36.5 132t99 94.5t135.5 34.5t135.5 -34.5t99 -94.5t36.5 -132t-36.5 -132t-99 -94.5t-135.5 -34.5t-135.5 34.5zM372.5 125.5q31.5 17.5 50.5 49.5t19 72t-19 72t-50.5 49.5t-69.5 17.5t-69.5 -17.5t-50.5 -49.5t-19 -72
t19 -72t50.5 -49.5t69.5 -17.5t69.5 17.5zM314 700h165l-144 -137h-112z" />
    <glyph glyph-name="ocircumflex" unicode="&#xf4;" horiz-adv-x="606" 
d="M167.5 20.5q-62.5 34.5 -99 94.5t-36.5 132t36.5 132t99 94.5t135.5 34.5t135.5 -34.5t99 -94.5t36.5 -132t-36.5 -132t-99 -94.5t-135.5 -34.5t-135.5 34.5zM372.5 125.5q31.5 17.5 50.5 49.5t19 72t-19 72t-50.5 49.5t-69.5 17.5t-69.5 -17.5t-50.5 -49.5t-19 -72
t19 -72t50.5 -49.5t69.5 -17.5t69.5 17.5zM231 700h145l92 -137h-102l-63 60l-62 -60h-102z" />
    <glyph glyph-name="otilde" unicode="&#xf5;" horiz-adv-x="606" 
d="M167.5 20.5q-62.5 34.5 -99 94.5t-36.5 132t36.5 132t99 94.5t135.5 34.5t135.5 -34.5t99 -94.5t36.5 -132t-36.5 -132t-99 -94.5t-135.5 -34.5t-135.5 34.5zM372.5 125.5q31.5 17.5 50.5 49.5t19 72t-19 72t-50.5 49.5t-69.5 17.5t-69.5 -17.5t-50.5 -49.5t-19 -72
t19 -72t50.5 -49.5t69.5 -17.5t69.5 17.5zM325.5 561.5q-18.5 7.5 -44.5 22.5q-19 12 -31.5 17.5t-27.5 5.5q-23 0 -43.5 -11.5t-43.5 -34.5h-10l8 92q36 47 101 47q26 0 45 -7.5t43 -22.5q18 -12 31.5 -17.5t29.5 -5.5q48 0 87 46h10l-8 -92q-36 -47 -101 -47
q-27 0 -45.5 7.5z" />
    <glyph glyph-name="odieresis" unicode="&#xf6;" horiz-adv-x="606" 
d="M167.5 20.5q-62.5 34.5 -99 94.5t-36.5 132t36.5 132t99 94.5t135.5 34.5t135.5 -34.5t99 -94.5t36.5 -132t-36.5 -132t-99 -94.5t-135.5 -34.5t-135.5 34.5zM372.5 125.5q31.5 17.5 50.5 49.5t19 72t-19 72t-50.5 49.5t-69.5 17.5t-69.5 -17.5t-50.5 -49.5t-19 -72
t19 -72t50.5 -49.5t69.5 -17.5t69.5 17.5zM156 577q-21 21 -21 50q0 30 21 51.5t50 21.5t51 -21.5t22 -51.5q0 -29 -22 -50t-51 -21t-50 21zM348 577q-21 21 -21 50q0 30 21 51.5t50 21.5t51 -21.5t22 -51.5q0 -29 -22 -50t-51 -21t-50 21z" />
    <glyph glyph-name="divide" unicode="&#xf7;" horiz-adv-x="506" 
d="M204 436q-22 22 -22 53q0 32 22 54.5t53 22.5q32 0 54.5 -22.5t22.5 -54.5q0 -31 -22.5 -53t-54.5 -22q-31 0 -53 22zM44 360h418v-106h-418v106zM204 71q-22 22 -22 53q0 32 22 54.5t53 22.5q32 0 54.5 -22.5t22.5 -54.5q0 -31 -22.5 -53t-54.5 -22q-31 0 -53 22z" />
    <glyph glyph-name="oslash" unicode="&#xf8;" horiz-adv-x="606" 
d="M549 357.5q25 -51.5 25 -110.5q0 -72 -36.5 -132t-99 -94.5t-135.5 -34.5q-38 0 -73 9l-25 -45l-103 56l24 43q-44 36 -69 87.5t-25 110.5q0 72 36.5 132t99 94.5t135.5 34.5q39 0 73 -9l25 45l103 -56l-24 -43q44 -36 69 -87.5zM190 164l123 222h-10q-38 0 -69.5 -17.5
t-50.5 -49.5t-19 -72q0 -46 26 -83zM372.5 125.5q31.5 17.5 50.5 49.5t19 72q0 46 -26 83l-123 -222h10q38 0 69.5 17.5z" />
    <glyph glyph-name="ugrave" unicode="&#xf9;" horiz-adv-x="580" 
d="M99.5 29.5q-47.5 43.5 -47.5 127.5v337h132v-290q0 -48 25.5 -72t68.5 -24q49 0 80.5 35.5t31.5 95.5v255h132v-494h-132v61q-27 -34 -70.5 -54.5t-91.5 -20.5q-81 0 -128.5 43.5zM110 700h165l91 -137h-112z" />
    <glyph glyph-name="uacute" unicode="&#xfa;" horiz-adv-x="580" 
d="M99.5 29.5q-47.5 43.5 -47.5 127.5v337h132v-290q0 -48 25.5 -72t68.5 -24q49 0 80.5 35.5t31.5 95.5v255h132v-494h-132v61q-27 -34 -70.5 -54.5t-91.5 -20.5q-81 0 -128.5 43.5zM301 700h165l-144 -137h-112z" />
    <glyph glyph-name="ucircumflex" unicode="&#xfb;" horiz-adv-x="580" 
d="M99.5 29.5q-47.5 43.5 -47.5 127.5v337h132v-290q0 -48 25.5 -72t68.5 -24q49 0 80.5 35.5t31.5 95.5v255h132v-494h-132v61q-27 -34 -70.5 -54.5t-91.5 -20.5q-81 0 -128.5 43.5zM218 700h145l92 -137h-102l-63 60l-62 -60h-102z" />
    <glyph glyph-name="udieresis" unicode="&#xfc;" horiz-adv-x="580" 
d="M99.5 29.5q-47.5 43.5 -47.5 127.5v337h132v-290q0 -48 25.5 -72t68.5 -24q49 0 80.5 35.5t31.5 95.5v255h132v-494h-132v61q-27 -34 -70.5 -54.5t-91.5 -20.5q-81 0 -128.5 43.5zM143 577q-21 21 -21 50q0 30 21 51.5t50 21.5t51 -21.5t22 -51.5q0 -29 -22 -50t-51 -21
t-50 21zM335 577q-21 21 -21 50q0 30 21 51.5t50 21.5t51 -21.5t22 -51.5q0 -29 -22 -50t-51 -21t-50 21z" />
    <glyph glyph-name="yacute" unicode="&#xfd;" horiz-adv-x="539" 
d="M195 98l-185 396h140l116 -249l121 249h142l-350 -720h-142zM281 700h165l-144 -137h-112z" />
    <glyph glyph-name="thorn" unicode="&#xfe;" horiz-adv-x="624" 
d="M58 700h132v-258q59 66 159 66q69 0 124.5 -33.5t87 -93t31.5 -134.5q0 -81 -32.5 -140t-88.5 -90t-124 -31q-103 0 -157 61v-273h-132v926zM421.5 147.5q38.5 39.5 38.5 99.5t-38.5 99.5t-99.5 39.5t-99.5 -39.5t-38.5 -99.5t38.5 -99.5t99.5 -39.5t99.5 39.5z" />
    <glyph glyph-name="ydieresis" unicode="&#xff;" horiz-adv-x="539" 
d="M195 98l-185 396h140l116 -249l121 249h142l-350 -720h-142zM123 577q-21 21 -21 50q0 30 21 51.5t50 21.5t51 -21.5t22 -51.5q0 -29 -22 -50t-51 -21t-50 21zM315 577q-21 21 -21 50q0 30 21 51.5t50 21.5t51 -21.5t22 -51.5q0 -29 -22 -50t-51 -21t-50 21z" />
    <glyph glyph-name="Amacron" unicode="&#x100;" horiz-adv-x="698" 
d="M328 700h42l310 -700h-138l-52 120h-282l-52 -120h-138zM440 240l-91 212l-91 -212h182zM223 871h252v-94h-252v94z" />
    <glyph glyph-name="amacron" unicode="&#x101;" horiz-adv-x="618" 
d="M156.5 18q-55.5 32 -90 91.5t-34.5 137.5q0 71 33 131t90 95t125 35q48 0 87.5 -16t60.5 -43v45h132v-494h-132v45q-31 -29 -66 -44t-90 -15q-60 0 -115.5 32zM397 148q37 40 37 99t-37 99t-98 40t-98 -40t-37 -99t37 -99t98 -40t98 40zM168 664h250v-94h-250v94z" />
    <glyph glyph-name="Abreve" unicode="&#x102;" horiz-adv-x="698" 
d="M328 700h42l310 -700h-138l-52 120h-282l-52 -120h-138zM440 240l-91 212l-91 -212h182zM257 800.5q-34 32.5 -34 85.5h86q2 -16 11.5 -27t28.5 -11t28.5 11t11.5 27h86q0 -53 -34 -85.5t-92 -32.5t-92 32.5z" />
    <glyph glyph-name="abreve" unicode="&#x103;" horiz-adv-x="618" 
d="M156.5 18q-55.5 32 -90 91.5t-34.5 137.5q0 71 33 131t90 95t125 35q48 0 87.5 -16t60.5 -43v45h132v-494h-132v45q-31 -29 -66 -44t-90 -15q-60 0 -115.5 32zM397 148q37 40 37 99t-37 99t-98 40t-98 -40t-37 -99t37 -99t98 -40t98 40zM201 594.5q-34 32.5 -34 85.5h86
q2 -16 11.5 -27t28.5 -11t28.5 11t11.5 27h86q0 -53 -34 -85.5t-92 -32.5t-92 32.5z" />
    <glyph glyph-name="Aogonek" unicode="&#x104;" horiz-adv-x="698" 
d="M752 -156l-11 -71q-39 -13 -86 -13q-63 0 -98 31t-35 82q0 37 21 70t57 57h-58l-52 120h-282l-52 -120h-138l310 700h42l310 -700q-26 -26 -43 -57t-17 -57t15.5 -42t42.5 -16q20 0 33 4.5t29 16.5zM440 240l-91 212l-91 -212h182z" />
    <glyph glyph-name="aogonek" unicode="&#x105;" horiz-adv-x="618" 
d="M632 -156l-11 -71q-39 -13 -86 -13q-63 0 -98 31t-35 82q0 37 21 70t57 57h-52v45q-31 -29 -66 -44t-90 -15q-60 0 -115.5 32t-90 91.5t-34.5 137.5q0 71 33 131t90 95t125 35q48 0 87.5 -16t60.5 -43v45h132v-494q-26 -26 -43 -57t-17 -57t15.5 -42t42.5 -16
q20 0 33 4.5t29 16.5zM397 148q37 40 37 99t-37 99t-98 40t-98 -40t-37 -99t37 -99t98 -40t98 40z" />
    <glyph glyph-name="Cacute" unicode="&#x106;" horiz-adv-x="665" 
d="M217 33q-85 47 -134 130t-49 187t49 187t134 130t190 47q64 0 108.5 -12.5t92.5 -40.5l11 -145h-19q-47 35 -92.5 52.5t-94.5 17.5q-74 0 -127.5 -30.5t-81.5 -84t-28 -121.5t28 -121.5t81.5 -84t127.5 -30.5q49 0 94.5 17.5t92.5 52.5h19l-11 -145q-48 -28 -92.5 -40.5
t-108.5 -12.5q-105 0 -190 47zM412 906h165l-144 -137h-112z" />
    <glyph glyph-name="cacute" unicode="&#x107;" horiz-adv-x="495" 
d="M167.5 17.5q-61.5 31.5 -98.5 90.5t-37 139t37 139t98.5 90.5t132.5 31.5q91 0 144 -39l5 -139h-14q-34 29 -66 42.5t-69 13.5q-61 0 -98.5 -39t-37.5 -100t37.5 -100t98.5 -39q37 0 69 13.5t66 42.5h14l-5 -139q-53 -39 -144 -39q-71 0 -132.5 31.5zM304 700h165
l-144 -137h-112z" />
    <glyph glyph-name="Ccircumflex" unicode="&#x108;" horiz-adv-x="665" 
d="M217 33q-85 47 -134 130t-49 187t49 187t134 130t190 47q64 0 108.5 -12.5t92.5 -40.5l11 -145h-19q-47 35 -92.5 52.5t-94.5 17.5q-74 0 -127.5 -30.5t-81.5 -84t-28 -121.5t28 -121.5t81.5 -84t127.5 -30.5q49 0 94.5 17.5t92.5 52.5h19l-11 -145q-48 -28 -92.5 -40.5
t-108.5 -12.5q-105 0 -190 47zM318 906h142l96 -137h-102l-66 62l-65 -62h-102z" />
    <glyph glyph-name="ccircumflex" unicode="&#x109;" horiz-adv-x="495" 
d="M167.5 17.5q-61.5 31.5 -98.5 90.5t-37 139t37 139t98.5 90.5t132.5 31.5q91 0 144 -39l5 -139h-14q-34 29 -66 42.5t-69 13.5q-61 0 -98.5 -39t-37.5 -100t37.5 -100t98.5 -39q37 0 69 13.5t66 42.5h14l-5 -139q-53 -39 -144 -39q-71 0 -132.5 31.5zM221 700h145
l92 -137h-102l-63 60l-62 -60h-102z" />
    <glyph glyph-name="Cdotaccent" unicode="&#x10a;" horiz-adv-x="665" 
d="M217 33q-85 47 -134 130t-49 187t49 187t134 130t190 47q64 0 108.5 -12.5t92.5 -40.5l11 -145h-19q-47 35 -92.5 52.5t-94.5 17.5q-74 0 -127.5 -30.5t-81.5 -84t-28 -121.5t28 -121.5t81.5 -84t127.5 -30.5q49 0 94.5 17.5t92.5 52.5h19l-11 -145q-48 -28 -92.5 -40.5
t-108.5 -12.5q-105 0 -190 47zM331 793q-24 24 -24 58t24 58t58 24t58 -24t24 -58t-24 -58t-58 -24t-58 24z" />
    <glyph glyph-name="cdotaccent" unicode="&#x10b;" horiz-adv-x="495" 
d="M167.5 17.5q-61.5 31.5 -98.5 90.5t-37 139t37 139t98.5 90.5t132.5 31.5q91 0 144 -39l5 -139h-14q-34 29 -66 42.5t-69 13.5q-61 0 -98.5 -39t-37.5 -100t37.5 -100t98.5 -39q37 0 69 13.5t66 42.5h14l-5 -139q-53 -39 -144 -39q-71 0 -132.5 31.5zM235 587
q-24 24 -24 58t24 58t58 24t58 -24t24 -58t-24 -58t-58 -24t-58 24z" />
    <glyph glyph-name="Ccaron" unicode="&#x10c;" horiz-adv-x="665" 
d="M217 33q-85 47 -134 130t-49 187t49 187t134 130t190 47q64 0 108.5 -12.5t92.5 -40.5l11 -145h-19q-47 35 -92.5 52.5t-94.5 17.5q-74 0 -127.5 -30.5t-81.5 -84t-28 -121.5t28 -121.5t81.5 -84t127.5 -30.5q49 0 94.5 17.5t92.5 52.5h19l-11 -145q-48 -28 -92.5 -40.5
t-108.5 -12.5q-105 0 -190 47zM224 906h102l62 -60l63 60h102l-92 -137h-145z" />
    <glyph glyph-name="ccaron" unicode="&#x10d;" horiz-adv-x="495" 
d="M167.5 17.5q-61.5 31.5 -98.5 90.5t-37 139t37 139t98.5 90.5t132.5 31.5q91 0 144 -39l5 -139h-14q-34 29 -66 42.5t-69 13.5q-61 0 -98.5 -39t-37.5 -100t37.5 -100t98.5 -39q37 0 69 13.5t66 42.5h14l-5 -139q-53 -39 -144 -39q-71 0 -132.5 31.5zM128 700h102l62 -60
l63 60h102l-92 -137h-145z" />
    <glyph glyph-name="Dcaron" unicode="&#x10e;" horiz-adv-x="641" 
d="M62 700h172q110 0 194.5 -41.5t131.5 -120.5t47 -188t-47 -188t-131.5 -120.5t-194.5 -41.5h-172v700zM234 122q110 0 173.5 61t63.5 167t-63.5 167t-173.5 61h-30v-456h30zM125 906h102l62 -60l63 60h102l-92 -137h-145z" />
    <glyph glyph-name="dcaron" unicode="&#x10f;" horiz-adv-x="797" 
d="M150.5 19.5q-55.5 33.5 -87 93t-31.5 134.5q0 81 32.5 140t88.5 90t124 31q103 0 157 -61v273h132v-720h-132v52q-59 -66 -159 -66q-69 0 -124.5 33.5zM401.5 147.5q38.5 39.5 38.5 99.5t-38.5 99.5t-99.5 39.5t-99.5 -39.5t-38.5 -99.5t38.5 -99.5t99.5 -39.5t99.5 39.5
zM660 463q53 39 58 93q-31 0 -53 22t-22 54t22.5 55t53.5 23q35 0 56.5 -24t21.5 -61q0 -111 -116 -183z" />
    <glyph glyph-name="Dcroat" unicode="&#x110;" horiz-adv-x="641" 
d="M62 297h-76v106h76v297h172q110 0 194.5 -41.5t131.5 -120.5t47 -188t-47 -188t-131.5 -120.5t-194.5 -41.5h-172v297zM234 122q110 0 173.5 61t63.5 167t-63.5 167t-173.5 61h-30v-175h130v-106h-130v-175h30z" />
    <glyph glyph-name="dcroat" unicode="&#x111;" horiz-adv-x="624" 
d="M150.5 19.5q-55.5 33.5 -87 93t-31.5 134.5q0 81 32.5 140t88.5 90t124 31q103 0 157 -61v117h-140v86h140v70h132v-70h56v-86h-56v-564h-132v52q-59 -66 -159 -66q-69 0 -124.5 33.5zM401.5 147.5q38.5 39.5 38.5 99.5t-38.5 99.5t-99.5 39.5t-99.5 -39.5t-38.5 -99.5
t38.5 -99.5t99.5 -39.5t99.5 39.5z" />
    <glyph glyph-name="Emacron" unicode="&#x112;" horiz-adv-x="549" 
d="M62 700h445v-120h-303v-160h292v-120h-292v-180h307v-120h-449v700zM170 871h252v-94h-252v94z" />
    <glyph glyph-name="emacron" unicode="&#x113;" horiz-adv-x="571" 
d="M165 21q-62 35 -97.5 95.5t-35.5 134.5q0 72 33.5 130.5t93 92.5t134.5 34q76 0 131.5 -35.5t84 -94.5t28.5 -127v-39h-379q12 -56 51.5 -85t104.5 -29q99 0 173 65h14l-5 -125q-45 -26 -95 -39t-96 -13q-78 0 -140 35zM405 302q-5 45 -37.5 70.5t-79.5 25.5
q-46 0 -80.5 -24.5t-46.5 -71.5h244zM162 664h250v-94h-250v94z" />
    <glyph glyph-name="Ebreve" unicode="&#x114;" horiz-adv-x="549" 
d="M62 700h445v-120h-303v-160h292v-120h-292v-180h307v-120h-449v700zM204 800.5q-34 32.5 -34 85.5h86q2 -16 11.5 -27t28.5 -11t28.5 11t11.5 27h86q0 -53 -34 -85.5t-92 -32.5t-92 32.5z" />
    <glyph glyph-name="ebreve" unicode="&#x115;" horiz-adv-x="571" 
d="M165 21q-62 35 -97.5 95.5t-35.5 134.5q0 72 33.5 130.5t93 92.5t134.5 34q76 0 131.5 -35.5t84 -94.5t28.5 -127v-39h-379q12 -56 51.5 -85t104.5 -29q99 0 173 65h14l-5 -125q-45 -26 -95 -39t-96 -13q-78 0 -140 35zM405 302q-5 45 -37.5 70.5t-79.5 25.5
q-46 0 -80.5 -24.5t-46.5 -71.5h244zM195 594.5q-34 32.5 -34 85.5h86q2 -16 11.5 -27t28.5 -11t28.5 11t11.5 27h86q0 -53 -34 -85.5t-92 -32.5t-92 32.5z" />
    <glyph glyph-name="Edotaccent" unicode="&#x116;" horiz-adv-x="549" 
d="M62 700h445v-120h-303v-160h292v-120h-292v-180h307v-120h-449v700zM238 793q-24 24 -24 58t24 58t58 24t58 -24t24 -58t-24 -58t-58 -24t-58 24z" />
    <glyph glyph-name="edotaccent" unicode="&#x117;" horiz-adv-x="571" 
d="M165 21q-62 35 -97.5 95.5t-35.5 134.5q0 72 33.5 130.5t93 92.5t134.5 34q76 0 131.5 -35.5t84 -94.5t28.5 -127v-39h-379q12 -56 51.5 -85t104.5 -29q99 0 173 65h14l-5 -125q-45 -26 -95 -39t-96 -13q-78 0 -140 35zM405 302q-5 45 -37.5 70.5t-79.5 25.5
q-46 0 -80.5 -24.5t-46.5 -71.5h244zM229 587q-24 24 -24 58t24 58t58 24t58 -24t24 -58t-24 -58t-58 -24t-58 24z" />
    <glyph glyph-name="Eogonek" unicode="&#x118;" horiz-adv-x="549" 
d="M583 -156l-11 -71q-39 -13 -86 -13q-63 0 -98 31t-35 82q0 37 21 70t57 57h-369v700h445v-120h-303v-160h292v-120h-292v-180h307v-120q-26 -26 -43 -57t-17 -57t15.5 -42t42.5 -16q20 0 33 4.5t29 16.5z" />
    <glyph glyph-name="eogonek" unicode="&#x119;" horiz-adv-x="571" 
d="M537 212h-379q12 -56 51.5 -85t104.5 -29q99 0 173 65h14l-5 -125q-46 -27 -95 -39q-26 -26 -42.5 -56t-16.5 -57q0 -26 15.5 -42t42.5 -16q20 0 33 4.5t29 16.5l12 -5l-11 -71q-39 -13 -86 -13q-63 0 -98 31t-35 82q0 32 15.5 61t43.5 52q-77 0 -139 35t-97 95.5
t-35 134.5q0 72 33.5 130.5t93 92.5t134.5 34q76 0 131.5 -35.5t84 -94.5t28.5 -127v-39zM405 302q-5 45 -37.5 70.5t-79.5 25.5q-46 0 -80.5 -24.5t-46.5 -71.5h244z" />
    <glyph glyph-name="Ecaron" unicode="&#x11a;" horiz-adv-x="549" 
d="M62 700h445v-120h-303v-160h292v-120h-292v-180h307v-120h-449v700zM131 906h102l62 -60l63 60h102l-92 -137h-145z" />
    <glyph glyph-name="ecaron" unicode="&#x11b;" horiz-adv-x="571" 
d="M165 21q-62 35 -97.5 95.5t-35.5 134.5q0 72 33.5 130.5t93 92.5t134.5 34q76 0 131.5 -35.5t84 -94.5t28.5 -127v-39h-379q12 -56 51.5 -85t104.5 -29q99 0 173 65h14l-5 -125q-45 -26 -95 -39t-96 -13q-78 0 -140 35zM405 302q-5 45 -37.5 70.5t-79.5 25.5
q-46 0 -80.5 -24.5t-46.5 -71.5h244zM122 700h102l62 -60l63 60h102l-92 -137h-145z" />
    <glyph glyph-name="Gcircumflex" unicode="&#x11c;" horiz-adv-x="745" 
d="M217 33q-85 47 -134 130t-49 187t51.5 187t140 130t196.5 47q70 0 123.5 -16t102.5 -47l11 -145h-19q-59 43 -112 61.5t-105 18.5q-74 0 -130 -30.5t-86.5 -84.5t-30.5 -121q0 -68 28 -121.5t81.5 -84t127.5 -30.5q43 0 76 10t68 33v123h-196v120h338v-301
q-77 -59 -144.5 -86t-147.5 -27q-105 0 -190 47zM348 906h142l96 -137h-102l-66 62l-65 -62h-102z" />
    <glyph glyph-name="gcircumflex" unicode="&#x11d;" horiz-adv-x="606" 
d="M187.5 -230q-37.5 10 -68.5 29l-5 125h26q59 -42 137 -42q68 0 105.5 36t37.5 103v32q-23 -24 -60 -38.5t-84 -14.5q-68 0 -124 33.5t-88 91.5t-32 129q0 78 35.5 135.5t91.5 88t116 30.5q53 0 87 -16t58 -43v45h132v-449q0 -147 -73.5 -216t-201.5 -69q-52 0 -89.5 10z
M391 160.5q35 38.5 35 93.5t-35 93.5t-96 38.5t-96 -38.5t-35 -93.5t35 -93.5t96 -38.5t96 38.5zM216 700h145l92 -137h-102l-63 60l-62 -60h-102z" />
    <glyph glyph-name="Gbreve" unicode="&#x11e;" horiz-adv-x="745" 
d="M217 33q-85 47 -134 130t-49 187t51.5 187t140 130t196.5 47q70 0 123.5 -16t102.5 -47l11 -145h-19q-59 43 -112 61.5t-105 18.5q-74 0 -130 -30.5t-86.5 -84.5t-30.5 -121q0 -68 28 -121.5t81.5 -84t127.5 -30.5q43 0 76 10t68 33v123h-196v120h338v-301
q-77 -59 -144.5 -86t-147.5 -27q-105 0 -190 47zM327 800.5q-34 32.5 -34 85.5h86q2 -16 11.5 -27t28.5 -11t28.5 11t11.5 27h86q0 -53 -34 -85.5t-92 -32.5t-92 32.5z" />
    <glyph glyph-name="gbreve" unicode="&#x11f;" horiz-adv-x="606" 
d="M187.5 -230q-37.5 10 -68.5 29l-5 125h26q59 -42 137 -42q68 0 105.5 36t37.5 103v32q-23 -24 -60 -38.5t-84 -14.5q-68 0 -124 33.5t-88 91.5t-32 129q0 78 35.5 135.5t91.5 88t116 30.5q53 0 87 -16t58 -43v45h132v-449q0 -147 -73.5 -216t-201.5 -69q-52 0 -89.5 10z
M391 160.5q35 38.5 35 93.5t-35 93.5t-96 38.5t-96 -38.5t-35 -93.5t35 -93.5t96 -38.5t96 38.5zM209 594.5q-34 32.5 -34 85.5h86q2 -16 11.5 -27t28.5 -11t28.5 11t11.5 27h86q0 -53 -34 -85.5t-92 -32.5t-92 32.5z" />
    <glyph glyph-name="Gdotaccent" unicode="&#x120;" horiz-adv-x="745" 
d="M217 33q-85 47 -134 130t-49 187t51.5 187t140 130t196.5 47q70 0 123.5 -16t102.5 -47l11 -145h-19q-59 43 -112 61.5t-105 18.5q-74 0 -130 -30.5t-86.5 -84.5t-30.5 -121q0 -68 28 -121.5t81.5 -84t127.5 -30.5q43 0 76 10t68 33v123h-196v120h338v-301
q-77 -59 -144.5 -86t-147.5 -27q-105 0 -190 47zM361 793q-24 24 -24 58t24 58t58 24t58 -24t24 -58t-24 -58t-58 -24t-58 24z" />
    <glyph glyph-name="gdotaccent" unicode="&#x121;" horiz-adv-x="610" 
d="M187.5 -230q-37.5 10 -68.5 29l-5 125h26q59 -42 137 -42q68 0 105.5 36t37.5 103v32q-23 -24 -60 -38.5t-84 -14.5q-68 0 -124 33.5t-88 91.5t-32 129q0 78 35.5 135.5t91.5 88t116 30.5q53 0 87 -16t58 -43v45h132v-449q0 -147 -73.5 -216t-201.5 -69q-52 0 -89.5 10z
M391 160.5q35 38.5 35 93.5t-35 93.5t-96 38.5t-96 -38.5t-35 -93.5t35 -93.5t96 -38.5t96 38.5zM235 587q-24 24 -24 58t24 58t58 24t58 -24t24 -58t-24 -58t-58 -24t-58 24z" />
    <glyph glyph-name="uni0122" unicode="&#x122;" horiz-adv-x="745" 
d="M217 33q-85 47 -134 130t-49 187t51.5 187t140 130t196.5 47q70 0 123.5 -16t102.5 -47l11 -145h-19q-59 43 -112 61.5t-105 18.5q-74 0 -130 -30.5t-86.5 -84.5t-30.5 -121q0 -68 28 -121.5t81.5 -84t127.5 -30.5q43 0 76 10t68 33v123h-196v120h338v-301
q-77 -59 -144.5 -86t-147.5 -27q-105 0 -190 47zM329 -317q53 35 58 93q-31 0 -53 22t-22 54t22.5 55t53.5 23q33 0 55.5 -24t22.5 -62q0 -68 -33.5 -110.5t-94.5 -75.5z" />
    <glyph glyph-name="uni0123" unicode="&#x123;" horiz-adv-x="610" 
d="M187.5 -230q-37.5 10 -68.5 29l-5 125h26q59 -42 137 -42q68 0 105.5 36t37.5 103v32q-23 -24 -60 -38.5t-84 -14.5q-68 0 -124 33.5t-88 91.5t-32 129q0 78 35.5 135.5t91.5 88t116 30.5q53 0 87 -16t58 -43v45h132v-449q0 -147 -73.5 -216t-201.5 -69q-52 0 -89.5 10z
M391 160.5q35 38.5 35 93.5t-35 93.5t-96 38.5t-96 -38.5t-35 -93.5t35 -93.5t96 -38.5t96 38.5zM229.5 586q-21.5 24 -21.5 61q0 111 116 183l21 -21q-53 -39 -58 -93q31 0 53 -22t22 -54t-22.5 -55t-53.5 -23q-35 0 -56.5 24z" />
    <glyph glyph-name="Hcircumflex" unicode="&#x124;" horiz-adv-x="686" 
d="M62 700h142v-271h278v271h142v-700h-142v309h-278v-309h-142v700zM272 906h142l96 -137h-102l-66 62l-65 -62h-102z" />
    <glyph glyph-name="hcircumflex" unicode="&#x125;" horiz-adv-x="588" 
d="M58 720h132v-287q26 34 71.5 54.5t94.5 20.5q82 0 131 -43.5t49 -127.5v-337h-132v290q0 48 -25 72t-69 24q-49 0 -84.5 -36t-35.5 -95v-255h-132v720zM192 926h145l92 -137h-102l-63 60l-62 -60h-102z" />
    <glyph glyph-name="Hbar" unicode="&#x126;" horiz-adv-x="752" 
d="M95 508h-75v94h75v98h142v-98h278v98h142v-98h75v-94h-75v-508h-142v309h-278v-309h-142v508zM515 429v79h-278v-79h278z" />
    <glyph glyph-name="hbar" unicode="&#x127;" horiz-adv-x="588" 
d="M58 564h-58v86h58v70h132v-70h140v-86h-140v-131q26 34 71.5 54.5t94.5 20.5q82 0 131 -43.5t49 -127.5v-337h-132v290q0 48 -25 72t-69 24q-49 0 -84.5 -36t-35.5 -95v-255h-132v564z" />
    <glyph glyph-name="Itilde" unicode="&#x128;" horiz-adv-x="266" 
d="M62 700h142v-700h-142v700zM155.5 767.5q-18.5 7.5 -44.5 22.5q-19 12 -31.5 17.5t-27.5 5.5q-23 0 -43.5 -11.5t-43.5 -34.5h-10l8 92q36 47 101 47q26 0 45 -7.5t43 -22.5q18 -12 31.5 -17.5t29.5 -5.5q48 0 87 46h10l-8 -92q-36 -47 -101 -47q-27 0 -45.5 7.5z" />
    <glyph glyph-name="itilde" unicode="&#x129;" horiz-adv-x="248" 
d="M58 494h132v-494h-132v494zM146.5 561.5q-18.5 7.5 -44.5 22.5q-19 12 -31.5 17.5t-27.5 5.5q-23 0 -43.5 -11.5t-43.5 -34.5h-10l8 92q36 47 101 47q26 0 45 -7.5t43 -22.5q18 -12 31.5 -17.5t29.5 -5.5q48 0 87 46h10l-8 -92q-36 -47 -101 -47q-27 0 -45.5 7.5z" />
    <glyph glyph-name="Imacron" unicode="&#x12a;" horiz-adv-x="266" 
d="M62 700h142v-700h-142v700zM7 871h252v-94h-252v94z" />
    <glyph glyph-name="imacron" unicode="&#x12b;" horiz-adv-x="248" 
d="M58 494h132v-494h-132v494zM-1 664h250v-94h-250v94z" />
    <glyph glyph-name="Ibreve" unicode="&#x12c;" horiz-adv-x="266" 
d="M62 700h142v-700h-142v700zM41 800.5q-34 32.5 -34 85.5h86q2 -16 11.5 -27t28.5 -11t28.5 11t11.5 27h86q0 -53 -34 -85.5t-92 -32.5t-92 32.5z" />
    <glyph glyph-name="ibreve" unicode="&#x12d;" horiz-adv-x="248" 
d="M58 494h132v-494h-132v494zM32 594.5q-34 32.5 -34 85.5h86q2 -16 11.5 -27t28.5 -11t28.5 11t11.5 27h86q0 -53 -34 -85.5t-92 -32.5t-92 32.5z" />
    <glyph glyph-name="Iogonek" unicode="&#x12e;" horiz-adv-x="262" 
d="M79 -209q-35 31 -35 82q0 37 21 70t57 57h-62v700h142v-700q-26 -26 -43 -57t-17 -57t15.5 -42t42.5 -16q20 0 33 4.5t29 16.5l12 -5l-11 -71q-39 -13 -86 -13q-63 0 -98 31z" />
    <glyph glyph-name="iogonek" unicode="&#x12f;" horiz-adv-x="248" 
d="M66 587q-24 24 -24 58t24 58t58 24t58 -24t24 -58t-24 -58t-58 -24t-58 24zM262 -156l-11 -71q-39 -13 -86 -13q-63 0 -98 31t-35 82q0 37 21 70t57 57h-52v494h132v-494q-26 -26 -43 -57t-17 -57t15.5 -42t42.5 -16q20 0 33 4.5t29 16.5z" />
    <glyph glyph-name="Idotaccent" unicode="&#x130;" horiz-adv-x="266" 
d="M62 700h142v-700h-142v700zM75 793q-24 24 -24 58t24 58t58 24t58 -24t24 -58t-24 -58t-58 -24t-58 24z" />
    <glyph glyph-name="dotlessi" unicode="&#x131;" horiz-adv-x="248" 
d="M58 494h132v-494h-132v494z" />
    <glyph glyph-name="IJ" unicode="&#x132;" horiz-adv-x="675" 
d="M62 700h142v-700h-142v700zM376.5 -11q-20.5 3 -54.5 11l-14 120h19q37 -14 70 -14q34 0 54 25.5t20 76.5v492h142v-486q0 -75 -24.5 -126t-66 -76.5t-93.5 -25.5q-32 0 -52.5 3z" />
    <glyph glyph-name="ij" unicode="&#x133;" horiz-adv-x="572" 
d="M65 586q-24 24 -24 58q0 35 24 59.5t58 24.5q35 0 59.5 -24.5t24.5 -59.5q0 -34 -24.5 -58t-59.5 -24q-34 0 -58 24zM386 586q-24 24 -24 58q0 35 24 59.5t58 24.5q35 0 59.5 -24.5t24.5 -59.5q0 -34 -24.5 -58t-59.5 -24q-34 0 -58 24zM77 -201l-5 125h26
q39 -23 74.5 -32.5t82.5 -9.5q63 0 93 35t30 98v15q-25 -21 -55 -32.5t-75 -11.5q-54 0 -97 24t-68.5 69t-25.5 107v308h132v-288q0 -48 24 -73t68 -25t70.5 25.5t26.5 72.5v288h132v-463q0 -84 -31 -145.5t-85.5 -93.5t-124.5 -32q-111 0 -192 39z" />
    <glyph glyph-name="Jcircumflex" unicode="&#x134;" horiz-adv-x="409" 
d="M110.5 -11q-20.5 3 -54.5 11l-14 120h19q37 -14 70 -14q34 0 54 25.5t20 76.5v492h142v-486q0 -75 -24.5 -126t-66 -76.5t-93.5 -25.5q-32 0 -52.5 3zM206 906h142l96 -137h-102l-66 62l-65 -62h-102z" />
    <glyph glyph-name="jcircumflex" unicode="&#x135;" horiz-adv-x="254" 
d="M55 700h145l92 -137h-102l-63 60l-62 -60h-102zM-34 -223l-12 109h20q14 -9 22.5 -12t24.5 -3q19 0 29 11.5t10 33.5v578h132v-567q0 -85 -45 -126t-114 -41q-39 0 -67 17z" />
    <glyph glyph-name="uni0136" unicode="&#x136;" horiz-adv-x="638" 
d="M62 700h142v-318l245 318h154l-263 -339l288 -361h-168l-256 319v-319h-142v700zM259 -317q53 35 58 93q-31 0 -53 22t-22 54t22.5 55t53.5 23q33 0 55.5 -24t22.5 -62q0 -68 -33.5 -110.5t-94.5 -75.5z" />
    <glyph glyph-name="uni0137" unicode="&#x137;" horiz-adv-x="543" 
d="M58 720h132v-429l172 203h157l-194 -229l208 -265h-169l-174 229v-229h-132v720zM208 -317q53 35 58 93q-31 0 -53 22t-22 54t22.5 55t53.5 23q33 0 55.5 -24t22.5 -62q0 -68 -33.5 -110.5t-94.5 -75.5z" />
    <glyph glyph-name="kgreenlandic" unicode="&#x138;" horiz-adv-x="543" 
d="M58 494h132v-203l172 203h157l-194 -229l208 -265h-169l-174 229v-229h-132v494z" />
    <glyph glyph-name="Lacute" unicode="&#x139;" horiz-adv-x="582" 
d="M62 700h142v-580h342v-120h-484v700zM157 906h165l-144 -137h-112z" />
    <glyph glyph-name="lacute" unicode="&#x13a;" horiz-adv-x="248" 
d="M58 720h132v-720h-132v720zM135 926h165l-144 -137h-112z" />
    <glyph glyph-name="uni013B" unicode="&#x13b;" horiz-adv-x="582" 
d="M62 700h142v-580h342v-120h-484v700zM245 -317q53 35 58 93q-31 0 -53 22t-22 54t22.5 55t53.5 23q33 0 55.5 -24t22.5 -62q0 -68 -33.5 -110.5t-94.5 -75.5z" />
    <glyph glyph-name="uni013C" unicode="&#x13c;" horiz-adv-x="248" 
d="M58 720h132v-720h-132v720zM64 -317q53 35 58 93q-31 0 -53 22t-22 54t22.5 55t53.5 23q33 0 55.5 -24t22.5 -62q0 -68 -33.5 -110.5t-94.5 -75.5z" />
    <glyph glyph-name="Lcaron" unicode="&#x13d;" horiz-adv-x="596" 
d="M62 700h142v-580h342v-120h-484v700zM423 463q53 39 58 93q-31 0 -53 22t-22 54t22.5 55t53.5 23q35 0 56.5 -24t21.5 -61q0 -111 -116 -183z" />
    <glyph glyph-name="lcaron" unicode="&#x13e;" horiz-adv-x="403" 
d="M58 720h132v-720h-132v720zM266 463q53 39 58 93q-31 0 -53 22t-22 54t22.5 55t53.5 23q35 0 56.5 -24t21.5 -61q0 -111 -116 -183z" />
    <glyph glyph-name="Ldot" unicode="&#x13f;" horiz-adv-x="582" 
d="M62 700h142v-580h342v-120h-484v700zM374.5 314.5q-22.5 22.5 -22.5 53.5q0 32 22.5 55t53.5 23q32 0 55 -23t23 -55q0 -31 -23 -53.5t-55 -22.5q-31 0 -53.5 22.5z" />
    <glyph glyph-name="ldot" unicode="&#x140;" horiz-adv-x="444" 
d="M58 720h132v-720h-132v720zM268.5 314.5q-22.5 22.5 -22.5 53.5q0 32 22.5 55t53.5 23q32 0 55 -23t23 -55q0 -31 -23 -53.5t-55 -22.5q-31 0 -53.5 22.5z" />
    <glyph glyph-name="Lslash" unicode="&#x141;" horiz-adv-x="596" 
d="M76 165l-76 -44v129l76 44v406h142v-323l160 93v-129l-160 -93v-128h342v-120h-484v165z" />
    <glyph glyph-name="lslash" unicode="&#x142;" horiz-adv-x="296" 
d="M82 205l-76 -44v129l76 44v386h132v-309l76 45v-129l-76 -45v-282h-132v205z" />
    <glyph glyph-name="Nacute" unicode="&#x143;" horiz-adv-x="711" 
d="M62 700h60l385 -417v417h142v-700h-60l-385 417v-417h-142v700zM379 906h165l-144 -137h-112z" />
    <glyph glyph-name="nacute" unicode="&#x144;" horiz-adv-x="580" 
d="M58 494h132v-61q27 34 70.5 54.5t91.5 20.5q81 0 128.5 -43.5t47.5 -127.5v-337h-132v290q0 48 -25.5 72t-68.5 24q-49 0 -80.5 -35.5t-31.5 -95.5v-255h-132v494zM313 700h165l-144 -137h-112z" />
    <glyph glyph-name="uni0145" unicode="&#x145;" horiz-adv-x="711" 
d="M62 700h60l385 -417v417h142v-700h-60l-385 417v-417h-142v700zM293 -317q53 35 58 93q-31 0 -53 22t-22 54t22.5 55t53.5 23q33 0 55.5 -24t22.5 -62q0 -68 -33.5 -110.5t-94.5 -75.5z" />
    <glyph glyph-name="uni0146" unicode="&#x146;" horiz-adv-x="580" 
d="M58 494h132v-61q27 34 70.5 54.5t91.5 20.5q81 0 128.5 -43.5t47.5 -127.5v-337h-132v290q0 48 -25.5 72t-68.5 24q-49 0 -80.5 -35.5t-31.5 -95.5v-255h-132v494zM230 -317q53 35 58 93q-31 0 -53 22t-22 54t22.5 55t53.5 23q33 0 55.5 -24t22.5 -62q0 -68 -33.5 -110.5
t-94.5 -75.5z" />
    <glyph glyph-name="Ncaron" unicode="&#x147;" horiz-adv-x="711" 
d="M62 700h60l385 -417v417h142v-700h-60l-385 417v-417h-142v700zM191 906h102l62 -60l63 60h102l-92 -137h-145z" />
    <glyph glyph-name="ncaron" unicode="&#x148;" horiz-adv-x="580" 
d="M58 494h132v-61q27 34 70.5 54.5t91.5 20.5q81 0 128.5 -43.5t47.5 -127.5v-337h-132v290q0 48 -25.5 72t-68.5 24q-49 0 -80.5 -35.5t-31.5 -95.5v-255h-132v494zM137 700h102l62 -60l63 60h102l-92 -137h-145z" />
    <glyph glyph-name="Eng" unicode="&#x14a;" horiz-adv-x="711" 
d="M412.5 -237q-20.5 3 -54.5 11l-14 120h19q37 -14 70 -14q34 0 54 25.5t20 76.5v18l-303 389v-389h-142v700h60l385 -486v486h142v-712q0 -75 -24.5 -126t-66 -76.5t-93.5 -25.5q-32 0 -52.5 3z" />
    <glyph glyph-name="eng" unicode="&#x14b;" horiz-adv-x="580" 
d="M302 -223l-12 108h20q14 -9 22.5 -12t24.5 -3q19 0 29 11.5t10 33.5v375q0 48 -25.5 72t-68.5 24q-49 0 -80.5 -35.5t-31.5 -95.5v-255h-132v494h132v-61q27 34 70.5 54.5t91.5 20.5q81 0 128.5 -43.5t47.5 -127.5v-410q0 -85 -45 -126t-114 -41q-39 0 -67 17z" />
    <glyph glyph-name="Omacron" unicode="&#x14c;" horiz-adv-x="815" 
d="M218.5 33.5q-85.5 47.5 -135 130.5t-49.5 186t49.5 186t135 130.5t188.5 47.5t189 -47.5t135.5 -130.5t49.5 -186t-49.5 -186t-135.5 -130.5t-189 -47.5t-188.5 47.5zM526 140q53 29 84 83t31 127t-31 127t-84 83t-119 29q-65 0 -118.5 -29t-84.5 -83t-31 -127t31 -127
t84.5 -83t118.5 -29q66 0 119 29zM281 871h252v-94h-252v94z" />
    <glyph glyph-name="omacron" unicode="&#x14d;" horiz-adv-x="606" 
d="M167.5 20.5q-62.5 34.5 -99 94.5t-36.5 132t36.5 132t99 94.5t135.5 34.5t135.5 -34.5t99 -94.5t36.5 -132t-36.5 -132t-99 -94.5t-135.5 -34.5t-135.5 34.5zM372.5 125.5q31.5 17.5 50.5 49.5t19 72t-19 72t-50.5 49.5t-69.5 17.5t-69.5 -17.5t-50.5 -49.5t-19 -72
t19 -72t50.5 -49.5t69.5 -17.5t69.5 17.5zM178 664h250v-94h-250v94z" />
    <glyph glyph-name="Obreve" unicode="&#x14e;" horiz-adv-x="815" 
d="M218.5 33.5q-85.5 47.5 -135 130.5t-49.5 186t49.5 186t135 130.5t188.5 47.5t189 -47.5t135.5 -130.5t49.5 -186t-49.5 -186t-135.5 -130.5t-189 -47.5t-188.5 47.5zM526 140q53 29 84 83t31 127t-31 127t-84 83t-119 29q-65 0 -118.5 -29t-84.5 -83t-31 -127t31 -127
t84.5 -83t118.5 -29q66 0 119 29zM315 800.5q-34 32.5 -34 85.5h86q2 -16 11.5 -27t28.5 -11t28.5 11t11.5 27h86q0 -53 -34 -85.5t-92 -32.5t-92 32.5z" />
    <glyph glyph-name="obreve" unicode="&#x14f;" horiz-adv-x="606" 
d="M167.5 20.5q-62.5 34.5 -99 94.5t-36.5 132t36.5 132t99 94.5t135.5 34.5t135.5 -34.5t99 -94.5t36.5 -132t-36.5 -132t-99 -94.5t-135.5 -34.5t-135.5 34.5zM372.5 125.5q31.5 17.5 50.5 49.5t19 72t-19 72t-50.5 49.5t-69.5 17.5t-69.5 -17.5t-50.5 -49.5t-19 -72
t19 -72t50.5 -49.5t69.5 -17.5t69.5 17.5zM211 594.5q-34 32.5 -34 85.5h86q2 -16 11.5 -27t28.5 -11t28.5 11t11.5 27h86q0 -53 -34 -85.5t-92 -32.5t-92 32.5z" />
    <glyph glyph-name="Ohungarumlaut" unicode="&#x150;" horiz-adv-x="815" 
d="M218.5 33.5q-85.5 47.5 -135 130.5t-49.5 186t49.5 186t135 130.5t188.5 47.5t189 -47.5t135.5 -130.5t49.5 -186t-49.5 -186t-135.5 -130.5t-189 -47.5t-188.5 47.5zM526 140q53 29 84 83t31 127t-31 127t-84 83t-119 29q-65 0 -118.5 -29t-84.5 -83t-31 -127t31 -127
t84.5 -83t118.5 -29q66 0 119 29zM319 906h162l-142 -137h-112zM525 906h162l-142 -137h-112z" />
    <glyph glyph-name="ohungarumlaut" unicode="&#x151;" horiz-adv-x="606" 
d="M167.5 20.5q-62.5 34.5 -99 94.5t-36.5 132t36.5 132t99 94.5t135.5 34.5t135.5 -34.5t99 -94.5t36.5 -132t-36.5 -132t-99 -94.5t-135.5 -34.5t-135.5 34.5zM372.5 125.5q31.5 17.5 50.5 49.5t19 72t-19 72t-50.5 49.5t-69.5 17.5t-69.5 -17.5t-50.5 -49.5t-19 -72
t19 -72t50.5 -49.5t69.5 -17.5t69.5 17.5zM195 700h162l-142 -137h-112zM401 700h162l-142 -137h-112z" />
    <glyph glyph-name="OE" unicode="&#x152;" horiz-adv-x="1125" 
d="M1087 120v-120h-449v60q-48 -36 -107 -55t-124 -19q-103 0 -188.5 47.5t-135 130.5t-49.5 186t49.5 186t135 130.5t188.5 47.5q65 0 124 -19.5t107 -55.5v61h445v-120h-303v-160h292v-120h-292v-180h307zM525 138q53 30 83 85t30 127t-30 127t-83 85t-118 30
q-66 0 -118.5 -30t-82.5 -85t-30 -127t30 -127t82.5 -85t118.5 -30q65 0 118 30z" />
    <glyph glyph-name="oe" unicode="&#x153;" horiz-adv-x="987" 
d="M167.5 20.5q-62.5 34.5 -99 94.5t-36.5 132t36.5 132t99 94.5t135.5 34.5q61 0 114.5 -24t91.5 -67q78 91 195 91q81 0 137 -35.5t84 -94t28 -127.5v-39h-379q11 -55 51.5 -84.5t99.5 -29.5q49 0 92.5 14.5t85.5 50.5h14l-5 -125q-90 -52 -196 -52q-62 0 -115.5 24.5
t-90.5 67.5q-38 -43 -92 -67.5t-115 -24.5q-73 0 -135.5 34.5zM821 302q-5 46 -37.5 75t-79.5 29q-45 0 -79.5 -27.5t-47.5 -76.5h244zM372.5 125.5q31.5 17.5 50.5 49.5t19 72t-19 72t-50.5 49.5t-69.5 17.5t-69.5 -17.5t-50.5 -49.5t-19 -72t19 -72t50.5 -49.5t69.5 -17.5
t69.5 17.5z" />
    <glyph glyph-name="Racute" unicode="&#x154;" horiz-adv-x="591" 
d="M62 700h221q104 0 169.5 -54t65.5 -148q0 -68 -35 -116t-97 -70l187 -312h-157l-178 296h-34v-296h-142v700zM271 418q105 0 105 80t-105 80h-67v-160h67zM319 906h165l-144 -137h-112z" />
    <glyph glyph-name="racute" unicode="&#x155;" horiz-adv-x="430" 
d="M58 494h132v-49q23 30 57 46.5t70 16.5q27 0 45 -5.5t35 -17.5l9 -139h-19q-15 18 -38.5 29t-48.5 11q-47 0 -78.5 -29.5t-31.5 -87.5v-269h-132v494zM248 700h165l-144 -137h-112z" />
    <glyph glyph-name="uni0156" unicode="&#x156;" horiz-adv-x="591" 
d="M62 700h221q104 0 169.5 -54t65.5 -148q0 -68 -35 -116t-97 -70l187 -312h-157l-178 296h-34v-296h-142v700zM271 418q105 0 105 80t-105 80h-67v-160h67zM254 -317q53 35 58 93q-31 0 -53 22t-22 54t22.5 55t53.5 23q33 0 55.5 -24t22.5 -62q0 -68 -33.5 -110.5
t-94.5 -75.5z" />
    <glyph glyph-name="uni0157" unicode="&#x157;" horiz-adv-x="430" 
d="M58 494h132v-49q23 30 57 46.5t70 16.5q27 0 45 -5.5t35 -17.5l9 -139h-19q-15 18 -38.5 29t-48.5 11q-47 0 -78.5 -29.5t-31.5 -87.5v-269h-132v494zM57 -317q53 35 58 93q-31 0 -53 22t-22 54t22.5 55t53.5 23q33 0 55.5 -24t22.5 -62q0 -68 -33.5 -110.5t-94.5 -75.5z
" />
    <glyph glyph-name="Rcaron" unicode="&#x158;" horiz-adv-x="591" 
d="M62 700h221q104 0 169.5 -54t65.5 -148q0 -68 -35 -116t-97 -70l187 -312h-157l-178 296h-34v-296h-142v700zM271 418q105 0 105 80t-105 80h-67v-160h67zM131 906h102l62 -60l63 60h102l-92 -137h-145z" />
    <glyph glyph-name="rcaron" unicode="&#x159;" horiz-adv-x="430" 
d="M58 494h132v-49q23 30 57 46.5t70 16.5q27 0 45 -5.5t35 -17.5l9 -139h-19q-15 18 -38.5 29t-48.5 11q-47 0 -78.5 -29.5t-31.5 -87.5v-269h-132v494zM72 700h102l62 -60l63 60h102l-92 -137h-145z" />
    <glyph glyph-name="Sacute" unicode="&#x15a;" horiz-adv-x="524" 
d="M135.5 5q-54.5 19 -89.5 49l8 164h10q40 -51 85 -80.5t101 -29.5q42 0 68 23.5t26 64.5q0 30 -14 50.5t-38.5 35t-71.5 36.5q-84 39 -126.5 87t-42.5 117q0 58 29 102t77 67t104 23q115 0 174 -53l5 -149h-13q-79 86 -163 86q-40 0 -63 -17.5t-23 -52.5q0 -32 30.5 -55
t111.5 -61q82 -38 124 -86.5t42 -126.5q0 -62 -28.5 -110.5t-80.5 -75.5t-120 -27q-67 0 -121.5 19zM284 906h165l-144 -137h-112z" />
    <glyph glyph-name="sacute" unicode="&#x15b;" horiz-adv-x="424" 
d="M32 34l30 124h6q65 -50 133 -50q28 0 45.5 10.5t17.5 30.5q0 21 -20.5 34t-76.5 32q-57 19 -88.5 55t-31.5 85q0 69 51.5 111t130.5 42q40 0 71 -7.5t59 -24.5l5 -126h-7q-36 23 -64 34.5t-63 11.5q-25 0 -41 -10t-16 -26q0 -21 20 -34.5t75 -32.5q63 -21 95.5 -51
t32.5 -93q0 -52 -26 -89t-68.5 -55.5t-93.5 -18.5q-103 0 -176 48zM234 700h165l-144 -137h-112z" />
    <glyph glyph-name="Scircumflex" unicode="&#x15c;" horiz-adv-x="524" 
d="M135.5 5q-54.5 19 -89.5 49l8 164h10q40 -51 85 -80.5t101 -29.5q42 0 68 23.5t26 64.5q0 30 -14 50.5t-38.5 35t-71.5 36.5q-84 39 -126.5 87t-42.5 117q0 58 29 102t77 67t104 23q115 0 174 -53l5 -149h-13q-79 86 -163 86q-40 0 -63 -17.5t-23 -52.5q0 -32 30.5 -55
t111.5 -61q82 -38 124 -86.5t42 -126.5q0 -62 -28.5 -110.5t-80.5 -75.5t-120 -27q-67 0 -121.5 19zM190 906h142l96 -137h-102l-66 62l-65 -62h-102z" />
    <glyph glyph-name="scircumflex" unicode="&#x15d;" horiz-adv-x="424" 
d="M32 34l30 124h6q65 -50 133 -50q28 0 45.5 10.5t17.5 30.5q0 21 -20.5 34t-76.5 32q-57 19 -88.5 55t-31.5 85q0 69 51.5 111t130.5 42q40 0 71 -7.5t59 -24.5l5 -126h-7q-36 23 -64 34.5t-63 11.5q-25 0 -41 -10t-16 -26q0 -21 20 -34.5t75 -32.5q63 -21 95.5 -51
t32.5 -93q0 -52 -26 -89t-68.5 -55.5t-93.5 -18.5q-103 0 -176 48zM151 700h145l92 -137h-102l-63 60l-62 -60h-102z" />
    <glyph glyph-name="Scedilla" unicode="&#x15e;" horiz-adv-x="524" 
d="M429.5 52q-56.5 -58 -150.5 -65l-35 -44q24 6 49 6q40 0 63.5 -23t23.5 -63q0 -49 -36.5 -76t-96.5 -27q-55 0 -94 13l-11 71l12 5q38 -21 73 -21q22 0 34.5 9t12.5 26q0 18 -12 27t-34 9q-10 0 -27.5 -3t-26.5 -6l-9 10l38 90q-49 6 -89.5 23.5t-67.5 40.5l8 164h10
q40 -51 85 -80.5t101 -29.5q42 0 68 23.5t26 64.5q0 30 -14 50.5t-38.5 35t-71.5 36.5q-84 39 -126.5 87t-42.5 117q0 58 29 102t77 67t104 23q115 0 174 -53l5 -149h-13q-79 86 -163 86q-40 0 -63 -17.5t-23 -52.5q0 -32 30.5 -55t111.5 -61q82 -38 124 -86.5t42 -126.5
q0 -89 -56.5 -147z" />
    <glyph glyph-name="scedilla" unicode="&#x15f;" horiz-adv-x="424" 
d="M351 37q-45 -42 -114 -49l-36 -45q24 6 49 6q40 0 63.5 -23t23.5 -63q0 -49 -36.5 -76t-96.5 -27q-55 0 -94 13l-11 71l12 5q38 -21 73 -21q22 0 34.5 9t12.5 26q0 18 -12 27t-34 9q-10 0 -27.5 -3t-26.5 -6l-9 10l37 89q-70 8 -127 45l30 124h6q65 -50 133 -50
q28 0 45.5 10.5t17.5 30.5q0 21 -20.5 34t-76.5 32q-57 19 -88.5 55t-31.5 85q0 69 51.5 111t130.5 42q40 0 71 -7.5t59 -24.5l5 -126h-7q-36 23 -64 34.5t-63 11.5q-25 0 -41 -10t-16 -26q0 -21 20 -34.5t75 -32.5q63 -21 95.5 -51t32.5 -93q0 -70 -45 -112z" />
    <glyph glyph-name="Scaron" unicode="&#x160;" horiz-adv-x="524" 
d="M135.5 5q-54.5 19 -89.5 49l8 164h10q40 -51 85 -80.5t101 -29.5q42 0 68 23.5t26 64.5q0 30 -14 50.5t-38.5 35t-71.5 36.5q-84 39 -126.5 87t-42.5 117q0 58 29 102t77 67t104 23q115 0 174 -53l5 -149h-13q-79 86 -163 86q-40 0 -63 -17.5t-23 -52.5q0 -32 30.5 -55
t111.5 -61q82 -38 124 -86.5t42 -126.5q0 -62 -28.5 -110.5t-80.5 -75.5t-120 -27q-67 0 -121.5 19zM96 906h102l62 -60l63 60h102l-92 -137h-145z" />
    <glyph glyph-name="scaron" unicode="&#x161;" horiz-adv-x="424" 
d="M32 34l30 124h6q65 -50 133 -50q28 0 45.5 10.5t17.5 30.5q0 21 -20.5 34t-76.5 32q-57 19 -88.5 55t-31.5 85q0 69 51.5 111t130.5 42q40 0 71 -7.5t59 -24.5l5 -126h-7q-36 23 -64 34.5t-63 11.5q-25 0 -41 -10t-16 -26q0 -21 20 -34.5t75 -32.5q63 -21 95.5 -51
t32.5 -93q0 -52 -26 -89t-68.5 -55.5t-93.5 -18.5q-103 0 -176 48zM58 700h102l62 -60l63 60h102l-92 -137h-145z" />
    <glyph glyph-name="uni0162" unicode="&#x162;" horiz-adv-x="546" 
d="M314 0l-46 -57q24 6 49 6q40 0 63.5 -23t23.5 -63q0 -49 -36.5 -76t-96.5 -27q-55 0 -94 13l-11 71l12 5q38 -21 73 -21q22 0 34.5 9t12.5 26q0 18 -12 27t-34 9q-10 0 -27.5 -3t-26.5 -6l-9 10l42 100h-29v580h-168v120h478v-120h-168v-580h-30z" />
    <glyph glyph-name="uni0163" unicode="&#x163;" horiz-adv-x="399" 
d="M340.5 -74q23.5 -23 23.5 -63q0 -49 -36.5 -76t-96.5 -27q-55 0 -94 13l-11 71l12 5q38 -21 73 -21q22 0 34.5 9t12.5 26q0 18 -12 27t-34 9q-10 0 -27.5 -3t-26.5 -6l-9 10l40 96q-43 16 -69 55t-26 101v230h-82v112h82v82l132 60v-142h134v-112h-134v-224q0 -31 15 -46
t39 -15q37 0 76 29h15l-9 -115q-30 -14 -50 -19t-49 -6l-35 -43q24 6 49 6q40 0 63.5 -23z" />
    <glyph glyph-name="Tcaron" unicode="&#x164;" horiz-adv-x="546" 
d="M202 580h-168v120h478v-120h-168v-580h-142v580zM108 906h102l62 -60l63 60h102l-92 -137h-145z" />
    <glyph glyph-name="tcaron" unicode="&#x165;" horiz-adv-x="550" 
d="M139 28q-45 42 -45 124v230h-82v112h82v82l132 60v-142h134v-112h-134v-224q0 -31 15 -46t39 -15q37 0 76 29h15l-9 -115q-33 -15 -55.5 -20t-58.5 -5q-64 0 -109 42zM413 463q53 39 58 93q-31 0 -53 22t-22 54t22.5 55t53.5 23q35 0 56.5 -24t21.5 -61q0 -111 -116 -183
z" />
    <glyph glyph-name="Tbar" unicode="&#x166;" horiz-adv-x="546" 
d="M202 356h-135v94h135v130h-168v120h478v-120h-168v-130h135v-94h-135v-356h-142v356z" />
    <glyph glyph-name="tbar" unicode="&#x167;" horiz-adv-x="399" 
d="M139 28q-45 42 -45 124v62h-72v86h72v82h-82v112h82v82l132 60v-142h134v-112h-134v-82h124v-86h-124v-56q0 -31 15 -46t39 -15q37 0 76 29h15l-9 -115q-33 -15 -55.5 -20t-58.5 -5q-64 0 -109 42z" />
    <glyph glyph-name="Utilde" unicode="&#x168;" horiz-adv-x="670" 
d="M128.5 64.5q-74.5 78.5 -74.5 213.5v422h142v-434q0 -86 39 -123t100 -37t100 37t39 123v434h142v-422q0 -135 -74.5 -213.5t-206.5 -78.5t-206.5 78.5zM357.5 767.5q-18.5 7.5 -44.5 22.5q-19 12 -31.5 17.5t-27.5 5.5q-23 0 -43.5 -11.5t-43.5 -34.5h-10l8 92
q36 47 101 47q26 0 45 -7.5t43 -22.5q18 -12 31.5 -17.5t29.5 -5.5q48 0 87 46h10l-8 -92q-36 -47 -101 -47q-27 0 -45.5 7.5z" />
    <glyph glyph-name="utilde" unicode="&#x169;" horiz-adv-x="580" 
d="M99.5 29.5q-47.5 43.5 -47.5 127.5v337h132v-290q0 -48 25.5 -72t68.5 -24q49 0 80.5 35.5t31.5 95.5v255h132v-494h-132v61q-27 -34 -70.5 -54.5t-91.5 -20.5q-81 0 -128.5 43.5zM312.5 561.5q-18.5 7.5 -44.5 22.5q-19 12 -31.5 17.5t-27.5 5.5q-23 0 -43.5 -11.5
t-43.5 -34.5h-10l8 92q36 47 101 47q26 0 45 -7.5t43 -22.5q18 -12 31.5 -17.5t29.5 -5.5q48 0 87 46h10l-8 -92q-36 -47 -101 -47q-27 0 -45.5 7.5z" />
    <glyph glyph-name="Umacron" unicode="&#x16a;" horiz-adv-x="670" 
d="M128.5 64.5q-74.5 78.5 -74.5 213.5v422h142v-434q0 -86 39 -123t100 -37t100 37t39 123v434h142v-422q0 -135 -74.5 -213.5t-206.5 -78.5t-206.5 78.5zM209 871h252v-94h-252v94z" />
    <glyph glyph-name="umacron" unicode="&#x16b;" horiz-adv-x="580" 
d="M99.5 29.5q-47.5 43.5 -47.5 127.5v337h132v-290q0 -48 25.5 -72t68.5 -24q49 0 80.5 35.5t31.5 95.5v255h132v-494h-132v61q-27 -34 -70.5 -54.5t-91.5 -20.5q-81 0 -128.5 43.5zM165 664h250v-94h-250v94z" />
    <glyph glyph-name="Ubreve" unicode="&#x16c;" horiz-adv-x="670" 
d="M128.5 64.5q-74.5 78.5 -74.5 213.5v422h142v-434q0 -86 39 -123t100 -37t100 37t39 123v434h142v-422q0 -135 -74.5 -213.5t-206.5 -78.5t-206.5 78.5zM243 800.5q-34 32.5 -34 85.5h86q2 -16 11.5 -27t28.5 -11t28.5 11t11.5 27h86q0 -53 -34 -85.5t-92 -32.5t-92 32.5
z" />
    <glyph glyph-name="ubreve" unicode="&#x16d;" horiz-adv-x="580" 
d="M99.5 29.5q-47.5 43.5 -47.5 127.5v337h132v-290q0 -48 25.5 -72t68.5 -24q49 0 80.5 35.5t31.5 95.5v255h132v-494h-132v61q-27 -34 -70.5 -54.5t-91.5 -20.5q-81 0 -128.5 43.5zM198 594.5q-34 32.5 -34 85.5h86q2 -16 11.5 -27t28.5 -11t28.5 11t11.5 27h86
q0 -53 -34 -85.5t-92 -32.5t-92 32.5z" />
    <glyph glyph-name="Uring" unicode="&#x16e;" horiz-adv-x="670" 
d="M128.5 64.5q-74.5 78.5 -74.5 213.5v422h142v-434q0 -86 39 -123t100 -37t100 37t39 123v434h142v-422q0 -135 -74.5 -213.5t-206.5 -78.5t-206.5 78.5zM262 779.5q-30 29.5 -30 71.5t30 71.5t73 29.5t73 -29.5t30 -71.5t-30 -71.5t-73 -29.5t-73 29.5zM373 813.5
q15 15.5 15 37.5t-15 37.5t-38 15.5t-38 -15.5t-15 -37.5t15 -37.5t38 -15.5t38 15.5z" />
    <glyph glyph-name="uring" unicode="&#x16f;" horiz-adv-x="580" 
d="M99.5 29.5q-47.5 43.5 -47.5 127.5v337h132v-290q0 -48 25.5 -72t68.5 -24q49 0 80.5 35.5t31.5 95.5v255h132v-494h-132v61q-27 -34 -70.5 -54.5t-91.5 -20.5q-81 0 -128.5 43.5zM217 573.5q-30 29.5 -30 71.5t30 71.5t73 29.5t73 -29.5t30 -71.5t-30 -71.5t-73 -29.5
t-73 29.5zM328 607.5q15 15.5 15 37.5t-15 37.5t-38 15.5t-38 -15.5t-15 -37.5t15 -37.5t38 -15.5t38 15.5z" />
    <glyph glyph-name="Uhungarumlaut" unicode="&#x170;" horiz-adv-x="670" 
d="M128.5 64.5q-74.5 78.5 -74.5 213.5v422h142v-434q0 -86 39 -123t100 -37t100 37t39 123v434h142v-422q0 -135 -74.5 -213.5t-206.5 -78.5t-206.5 78.5zM247 906h162l-142 -137h-112zM453 906h162l-142 -137h-112z" />
    <glyph glyph-name="uhungarumlaut" unicode="&#x171;" horiz-adv-x="580" 
d="M99.5 29.5q-47.5 43.5 -47.5 127.5v337h132v-290q0 -48 25.5 -72t68.5 -24q49 0 80.5 35.5t31.5 95.5v255h132v-494h-132v61q-27 -34 -70.5 -54.5t-91.5 -20.5q-81 0 -128.5 43.5zM182 700h162l-142 -137h-112zM388 700h162l-142 -137h-112z" />
    <glyph glyph-name="Uogonek" unicode="&#x172;" horiz-adv-x="670" 
d="M616 700v-422q0 -109 -48.5 -182t-138.5 -98q-26 -26 -42 -56t-16 -56t15.5 -42t42.5 -16q20 0 33 4.5t29 16.5l12 -5l-11 -71q-39 -13 -86 -13q-63 0 -98 31t-35 82q0 32 15.5 61t43.5 52q-131 1 -204.5 79t-73.5 213v422h142v-434q0 -86 39 -123t100 -37t100 37t39 123
v434h142z" />
    <glyph glyph-name="uogonek" unicode="&#x173;" horiz-adv-x="580" 
d="M594 -156l-11 -71q-39 -13 -86 -13q-63 0 -98 31t-35 82q0 37 21 70t57 57h-52v61q-27 -34 -70.5 -54.5t-91.5 -20.5q-81 0 -128.5 43.5t-47.5 127.5v337h132v-290q0 -48 25.5 -72t68.5 -24q49 0 80.5 35.5t31.5 95.5v255h132v-494q-26 -26 -43 -57t-17 -57t15.5 -42
t42.5 -16q20 0 33 4.5t29 16.5z" />
    <glyph glyph-name="Wcircumflex" unicode="&#x174;" horiz-adv-x="996" 
d="M22 700h154l133 -393l151 393h76l151 -393l133 393h154l-240 -700h-62l-174 452l-174 -452h-62zM427 906h142l96 -137h-102l-66 62l-65 -62h-102z" />
    <glyph glyph-name="wcircumflex" unicode="&#x175;" horiz-adv-x="778" 
d="M12 494h136l105 -259l108 259h56l108 -259l105 259h136l-219 -494h-32l-126 300l-126 -300h-32zM317 700h145l92 -137h-102l-63 60l-62 -60h-102z" />
    <glyph glyph-name="Ycircumflex" unicode="&#x176;" horiz-adv-x="614" 
d="M236 296l-222 404h157l136 -269l136 269h157l-222 -404v-296h-142v296zM236 906h142l96 -137h-102l-66 62l-65 -62h-102z" />
    <glyph glyph-name="ycircumflex" unicode="&#x177;" horiz-adv-x="539" 
d="M195 98l-185 396h140l116 -249l121 249h142l-350 -720h-142zM198 700h145l92 -137h-102l-63 60l-62 -60h-102z" />
    <glyph glyph-name="Ydieresis" unicode="&#x178;" horiz-adv-x="614" 
d="M236 296l-222 404h157l136 -269l136 269h157l-222 -404v-296h-142v296zM160 783q-21 21 -21 50q0 30 21 51.5t50 21.5t51 -21.5t22 -51.5q0 -29 -22 -50t-51 -21t-50 21zM352 783q-21 21 -21 50q0 30 21 51.5t50 21.5t51 -21.5t22 -51.5q0 -29 -22 -50t-51 -21t-50 21z
" />
    <glyph glyph-name="Zacute" unicode="&#x179;" horiz-adv-x="606" 
d="M22 20l329 560h-299v120h510v-20l-329 -560h341v-120h-552v20zM328 906h165l-144 -137h-112z" />
    <glyph glyph-name="zacute" unicode="&#x17a;" horiz-adv-x="490" 
d="M30 20l213 352h-191v122h394v-20l-210 -352h214v-122h-420v20zM255 700h165l-144 -137h-112z" />
    <glyph glyph-name="Zdotaccent" unicode="&#x17b;" horiz-adv-x="606" 
d="M22 20l329 560h-299v120h510v-20l-329 -560h341v-120h-552v20zM247 793q-24 24 -24 58t24 58t58 24t58 -24t24 -58t-24 -58t-58 -24t-58 24z" />
    <glyph glyph-name="zdotaccent" unicode="&#x17c;" horiz-adv-x="490" 
d="M30 20l213 352h-191v122h394v-20l-210 -352h214v-122h-420v20zM186 587q-24 24 -24 58t24 58t58 24t58 -24t24 -58t-24 -58t-58 -24t-58 24z" />
    <glyph glyph-name="Zcaron" unicode="&#x17d;" horiz-adv-x="606" 
d="M22 20l329 560h-299v120h510v-20l-329 -560h341v-120h-552v20zM140 906h102l62 -60l63 60h102l-92 -137h-145z" />
    <glyph glyph-name="zcaron" unicode="&#x17e;" horiz-adv-x="490" 
d="M30 20l213 352h-191v122h394v-20l-210 -352h214v-122h-420v20zM79 700h102l62 -60l63 60h102l-92 -137h-145z" />
    <glyph glyph-name="florin" unicode="&#x192;" horiz-adv-x="564" 
d="M48.5 -211q-19.5 5 -38.5 16l18 116h12q10 -13 26 -19.5t31 -6.5q25 0 40 14.5t21 45.5l85 427h-55l21 112h56l10 54q17 84 69.5 125t119.5 41q32 0 51.5 -5t38.5 -16l-18 -116h-12q-10 13 -26 19.5t-31 6.5q-25 0 -40 -14.5t-21 -45.5l-9 -49h79l-21 -112h-80l-85 -432
q-17 -85 -68.5 -125.5t-121.5 -40.5q-32 0 -51.5 5z" />
    <glyph glyph-name="uni01B5" unicode="&#x1b5;" horiz-adv-x="606" 
d="M22 20l169 286h-136v94h191l105 180h-299v120h510v-20l-165 -280h150v-94h-205l-109 -186h341v-120h-552v20z" />
    <glyph glyph-name="uni01B6" unicode="&#x1b6;" horiz-adv-x="490" 
d="M30 20l114 188h-81v86h133l47 78h-191v122h394v-20l-108 -180h93v-86h-144l-51 -86h214v-122h-420v20z" />
    <glyph glyph-name="AEacute" unicode="&#x1fc;" horiz-adv-x="1013" 
d="M328 700h358l54 -120h-311l71 -160h286l52 -120h-285l79 -180h313l52 -120h-455l-52 120h-283l-51 -120h-138zM439 240l-90 212l-91 -212h181zM475 906h162l-142 -137h-112z" />
    <glyph glyph-name="aeacute" unicode="&#x1fd;" horiz-adv-x="873" 
d="M115 4.5q-37 18.5 -59 52t-22 77.5q0 82 69.5 125t210.5 43h18q-1 47 -28 73.5t-67 26.5q-41 0 -72.5 -13.5t-64.5 -41.5h-21l11 114q30 20 77.5 33.5t92.5 13.5q106 0 157 -68q76 68 173 68q81 0 137 -35.5t84 -94t28 -127.5v-39h-379q11 -55 51.5 -84.5t99.5 -29.5
q49 0 92.5 14.5t85.5 50.5h14l-5 -125q-90 -52 -196 -52q-63 0 -117 25.5t-91 70.5q-42 -54 -89.5 -75t-108.5 -21q-44 0 -81 18.5zM707 302q-5 46 -37.5 75t-79.5 29q-44 0 -78.5 -27.5t-47.5 -76.5h243zM301.5 124.5q30.5 36.5 30.5 87.5q-85 0 -127.5 -14.5t-42.5 -56.5
q0 -24 16.5 -38.5t42.5 -14.5q50 0 80.5 36.5zM430 700h165l-144 -137h-112z" />
    <glyph glyph-name="uni0218" unicode="&#x218;" horiz-adv-x="524" 
d="M135.5 5q-54.5 19 -89.5 49l8 164h10q40 -51 85 -80.5t101 -29.5q42 0 68 23.5t26 64.5q0 30 -14 50.5t-38.5 35t-71.5 36.5q-84 39 -126.5 87t-42.5 117q0 58 29 102t77 67t104 23q115 0 174 -53l5 -149h-13q-79 86 -163 86q-40 0 -63 -17.5t-23 -52.5q0 -32 30.5 -55
t111.5 -61q82 -38 124 -86.5t42 -126.5q0 -62 -28.5 -110.5t-80.5 -75.5t-120 -27q-67 0 -121.5 19zM202 -317q53 35 58 93q-31 0 -53 22t-22 54t22.5 55t53.5 23q33 0 55.5 -24t22.5 -62q0 -68 -33.5 -110.5t-94.5 -75.5z" />
    <glyph glyph-name="uni0219" unicode="&#x219;" horiz-adv-x="424" 
d="M32 34l30 124h6q65 -50 133 -50q28 0 45.5 10.5t17.5 30.5q0 21 -20.5 34t-76.5 32q-57 19 -88.5 55t-31.5 85q0 69 51.5 111t130.5 42q40 0 71 -7.5t59 -24.5l5 -126h-7q-36 23 -64 34.5t-63 11.5q-25 0 -41 -10t-16 -26q0 -21 20 -34.5t75 -32.5q63 -21 95.5 -51
t32.5 -93q0 -52 -26 -89t-68.5 -55.5t-93.5 -18.5q-103 0 -176 48zM153 -317q53 35 58 93q-31 0 -53 22t-22 54t22.5 55t53.5 23q33 0 55.5 -24t22.5 -62q0 -68 -33.5 -110.5t-94.5 -75.5z" />
    <glyph glyph-name="uni021A" unicode="&#x21a;" horiz-adv-x="546" 
d="M202 580h-168v120h478v-120h-168v-580h-142v580zM201 -317q53 35 58 93q-31 0 -53 22t-22 54t22.5 55t53.5 23q33 0 55.5 -24t22.5 -62q0 -68 -33.5 -110.5t-94.5 -75.5z" />
    <glyph glyph-name="uni021B" unicode="&#x21b;" horiz-adv-x="399" 
d="M139 28q-45 42 -45 124v230h-82v112h82v82l132 60v-142h134v-112h-134v-224q0 -31 15 -46t39 -15q37 0 76 29h15l-9 -115q-33 -15 -55.5 -20t-58.5 -5q-64 0 -109 42zM177 -317q53 35 58 93q-31 0 -53 22t-22 54t22.5 55t53.5 23q33 0 55.5 -24t22.5 -62
q0 -68 -33.5 -110.5t-94.5 -75.5z" />
    <glyph glyph-name="uni0237" unicode="&#x237;" horiz-adv-x="254" 
d="M-34 -223l-12 108h20q14 -9 22.5 -12t24.5 -3q19 0 29 11.5t10 33.5v579h132v-567q0 -85 -45 -126t-114 -41q-39 0 -67 17z" />
    <glyph glyph-name="circumflex" unicode="&#x2c6;" horiz-adv-x="389" 
d="M122 700h145l92 -137h-102l-63 60l-62 -60h-102z" />
    <glyph glyph-name="caron" unicode="&#x2c7;" horiz-adv-x="389" 
d="M30 700h102l62 -60l63 60h102l-92 -137h-145z" />
    <glyph glyph-name="uni02C9" unicode="&#x2c9;" horiz-adv-x="250" 
d="M0 664h250v-94h-250v94z" />
    <glyph glyph-name="breve" unicode="&#x2d8;" horiz-adv-x="312" 
d="M64 594.5q-34 32.5 -34 85.5h86q2 -16 11.5 -27t28.5 -11t28.5 11t11.5 27h86q0 -53 -34 -85.5t-92 -32.5t-92 32.5z" />
    <glyph glyph-name="dotaccent" unicode="&#x2d9;" horiz-adv-x="226" 
d="M54 586q-24 24 -24 58q0 35 24 59.5t58 24.5q35 0 59.5 -24.5t24.5 -59.5q0 -34 -24.5 -58t-59.5 -24q-34 0 -58 24z" />
    <glyph glyph-name="ring" unicode="&#x2da;" horiz-adv-x="266" 
d="M60 573.5q-30 29.5 -30 71.5t30 71.5t73 29.5t73 -29.5t30 -71.5t-30 -71.5t-73 -29.5t-73 29.5zM171 607.5q15 15.5 15 37.5t-15 37.5t-38 15.5t-38 -15.5t-15 -37.5t15 -37.5t38 -15.5t38 15.5z" />
    <glyph glyph-name="ogonek" unicode="&#x2db;" horiz-adv-x="290" 
d="M65 -209q-35 31 -35 82q0 46 32 85.5t83 61.5l43 -20q-26 -26 -43 -57t-17 -57t15.5 -42t42.5 -16q20 0 33 4.5t29 16.5l12 -5l-11 -71q-39 -13 -86 -13q-63 0 -98 31z" />
    <glyph glyph-name="tilde" unicode="&#x2dc;" horiz-adv-x="415" 
d="M230.5 561.5q-18.5 7.5 -44.5 22.5q-19 12 -31.5 17.5t-27.5 5.5q-23 0 -43.5 -11.5t-43.5 -34.5h-10l8 92q36 47 101 47q26 0 45 -7.5t43 -22.5q18 -12 31.5 -17.5t29.5 -5.5q48 0 87 46h10l-8 -92q-36 -47 -101 -47q-27 0 -45.5 7.5z" />
    <glyph glyph-name="hungarumlaut" unicode="&#x2dd;" horiz-adv-x="520" 
d="M122 700h162l-142 -137h-112zM328 700h162l-142 -137h-112z" />
    <glyph glyph-name="gravecomb" unicode="&#x300;" horiz-adv-x="0" 
d="M-256 700h165l91 -137h-112z" />
    <glyph glyph-name="acutecomb" unicode="&#x301;" horiz-adv-x="0" 
d="M-165 700h165l-144 -137h-112z" />
    <glyph glyph-name="uni0302" unicode="&#x302;" horiz-adv-x="0" 
d="M-237 700h145l92 -137h-102l-63 60l-62 -60h-102z" />
    <glyph glyph-name="tildecomb" unicode="&#x303;" horiz-adv-x="0" 
d="M-154.5 561.5q-18.5 7.5 -44.5 22.5q-19 12 -31.5 17.5t-27.5 5.5q-23 0 -43.5 -11.5t-43.5 -34.5h-10l8 92q36 47 101 47q26 0 45 -7.5t43 -22.5q18 -12 31.5 -17.5t29.5 -5.5q48 0 87 46h10l-8 -92q-36 -47 -101 -47q-27 0 -45.5 7.5z" />
    <glyph glyph-name="uni0304" unicode="&#x304;" horiz-adv-x="0" 
d="M-250 664h250v-94h-250v94z" />
    <glyph glyph-name="uni0306" unicode="&#x306;" horiz-adv-x="0" 
d="M-218 594.5q-34 32.5 -34 85.5h86q2 -16 11.5 -27t28.5 -11t28.5 11t11.5 27h86q0 -53 -34 -85.5t-92 -32.5t-92 32.5z" />
    <glyph glyph-name="uni0307" unicode="&#x307;" horiz-adv-x="0" 
d="M-140 587q-24 24 -24 58t24 58t58 24t58 -24t24 -58t-24 -58t-58 -24t-58 24z" />
    <glyph glyph-name="uni0308" unicode="&#x308;" horiz-adv-x="0" 
d="M-315 577q-21 21 -21 50q0 30 21 51.5t50 21.5t51 -21.5t22 -51.5q0 -29 -22 -50t-51 -21t-50 21zM-123 577q-21 21 -21 50q0 30 21 51.5t50 21.5t51 -21.5t22 -51.5q0 -29 -22 -50t-51 -21t-50 21z" />
    <glyph glyph-name="uni030A" unicode="&#x30a;" horiz-adv-x="0" 
d="M-176 573.5q-30 29.5 -30 71.5t30 71.5t73 29.5t73 -29.5t30 -71.5t-30 -71.5t-73 -29.5t-73 29.5zM-65 607.5q15 15.5 15 37.5t-15 37.5t-38 15.5t-38 -15.5t-15 -37.5t15 -37.5t38 -15.5t38 15.5z" />
    <glyph glyph-name="uni030B" unicode="&#x30b;" horiz-adv-x="0" 
d="M-368 700h162l-142 -137h-112zM-162 700h162l-142 -137h-112z" />
    <glyph glyph-name="uni030C" unicode="&#x30c;" horiz-adv-x="0" 
d="M-329 700h102l62 -60l63 60h102l-92 -137h-145z" />
    <glyph glyph-name="uni0327" unicode="&#x327;" horiz-adv-x="0" 
d="M-227 -227l-11 71l12 5q38 -21 73 -21q22 0 34.5 9t12.5 26q0 18 -12 27t-34 9q-10 0 -27.5 -3t-26.5 -6l-9 10l63 150l80 -28l-64 -79q24 6 49 6q40 0 63.5 -23t23.5 -63q0 -49 -36.5 -76t-96.5 -27q-55 0 -94 13z" />
    <glyph glyph-name="uni0328" unicode="&#x328;" horiz-adv-x="0" 
d="M-195 -209q-35 31 -35 82q0 46 32 85.5t83 61.5l43 -20q-26 -26 -43 -57t-17 -57t15.5 -42t42.5 -16q20 0 33 4.5t29 16.5l12 -5l-11 -71q-39 -13 -86 -13q-63 0 -98 31z" />
    <glyph glyph-name="uni037E" unicode="&#x37e;" horiz-adv-x="242" 
d="M66.5 348.5q-22.5 22.5 -22.5 53.5q0 32 22.5 55t53.5 23q32 0 55 -23t23 -55q0 -31 -23 -53.5t-55 -22.5q-31 0 -53.5 22.5zM61 -107q53 35 58 93q-31 0 -53 22t-22 54t22.5 55t53.5 23q32 0 55 -23t23 -55q0 -74 -33.5 -117.5t-94.5 -76.5z" />
    <glyph glyph-name="tonos" unicode="&#x384;" horiz-adv-x="261" 
d="M88 700h143l-97 -137h-104z" />
    <glyph glyph-name="dieresistonos" unicode="&#x385;" horiz-adv-x="479" 
d="M233 798h143l-97 -137h-104zM51 565q-21 21 -21 50q0 30 21 51.5t50 21.5t51 -21.5t22 -51.5q0 -29 -22 -50t-51 -21t-50 21zM326.5 565q-20.5 21 -20.5 50q0 30 20.5 51.5t49.5 21.5q30 0 51.5 -21.5t21.5 -51.5q0 -29 -21.5 -50t-51.5 -21q-29 0 -49.5 21z" />
    <glyph glyph-name="Alphatonos" unicode="&#x386;" horiz-adv-x="696" 
d="M328 700h42l310 -700h-138l-52 120h-282l-52 -120h-138zM440 240l-91 212l-91 -212h182zM104 700h143l-97 -137h-104z" />
    <glyph glyph-name="anoteleia" unicode="&#x387;" horiz-adv-x="242" 
d="M66.5 308.5q-22.5 22.5 -22.5 53.5q0 32 22.5 55t53.5 23q32 0 55 -23t23 -55q0 -31 -23 -53.5t-55 -22.5q-31 0 -53.5 22.5z" />
    <glyph glyph-name="Epsilontonos" unicode="&#x388;" horiz-adv-x="724" 
d="M237 700h445v-120h-303v-160h292v-120h-292v-180h307v-120h-449v700zM58 700h143l-97 -137h-104z" />
    <glyph glyph-name="Etatonos" unicode="&#x389;" horiz-adv-x="861" 
d="M237 700h142v-271h278v271h142v-700h-142v309h-278v-309h-142v700zM58 700h143l-97 -137h-104z" />
    <glyph glyph-name="Iotatonos" unicode="&#x38a;" horiz-adv-x="441" 
d="M237 700h142v-700h-142v700zM58 700h143l-97 -137h-104z" />
    <glyph glyph-name="Omicrontonos" unicode="&#x38c;" horiz-adv-x="916" 
d="M319.5 33.5q-85.5 47.5 -135 130.5t-49.5 186t49.5 186t135 130.5t188.5 47.5t189 -47.5t135.5 -130.5t49.5 -186t-49.5 -186t-135.5 -130.5t-189 -47.5t-188.5 47.5zM627 140q53 29 84 83t31 127t-31 127t-84 83t-119 29q-65 0 -118.5 -29t-84.5 -83t-31 -127t31 -127
t84.5 -83t118.5 -29q66 0 119 29zM58 700h143l-97 -137h-104z" />
    <glyph glyph-name="Upsilontonos" unicode="&#x38e;" horiz-adv-x="825" 
d="M447 296l-222 404h157l136 -269l136 269h157l-222 -404v-296h-142v296zM58 700h143l-97 -137h-104z" />
    <glyph glyph-name="Omegatonos" unicode="&#x38f;" horiz-adv-x="866" 
d="M124 120h116q-56 42 -91 111.5t-35 149.5q0 95 45 170.5t126.5 119t187.5 43.5t187.5 -43.5t126.5 -119t45 -170.5q0 -80 -35 -149.5t-91 -111.5h116v-120h-296v100q74 40 119 109.5t45 157.5q0 107 -60 166t-157 59t-157 -59t-60 -166q0 -88 45 -157.5t119 -109.5v-100
h-296v120zM58 700h143l-97 -137h-104z" />
    <glyph glyph-name="iotadieresistonos" unicode="&#x390;" horiz-adv-x="248" 
d="M58 494h132v-494h-132v494zM124 798h143l-97 -137h-104zM-58 565q-21 21 -21 50q0 30 21 51.5t50 21.5t51 -21.5t22 -51.5q0 -29 -22 -50t-51 -21t-50 21zM217.5 565q-20.5 21 -20.5 50q0 30 20.5 51.5t49.5 21.5q30 0 51.5 -21.5t21.5 -51.5q0 -29 -21.5 -50t-51.5 -21
q-29 0 -49.5 21z" />
    <glyph glyph-name="Alpha" unicode="&#x391;" horiz-adv-x="698" 
d="M328 700h42l310 -700h-138l-52 120h-282l-52 -120h-138zM440 240l-91 212l-91 -212h182z" />
    <glyph glyph-name="Beta" unicode="&#x392;" horiz-adv-x="608" 
d="M62 700h247q113 0 174.5 -48.5t61.5 -130.5q0 -54 -29.5 -93.5t-76.5 -59.5q62 -16 100.5 -61t38.5 -109q0 -63 -31 -107.5t-84 -67.5t-117 -23h-284v700zM304 420q58 0 79 21t21 58t-21 58t-79 21h-100v-158h100zM333 122q103 0 103 88t-103 88h-129v-176h129z" />
    <glyph glyph-name="Gamma" unicode="&#x393;" horiz-adv-x="550" 
d="M62 700h440v-120h-298v-580h-142v700z" />
    <glyph glyph-name="uni0394" unicode="&#x394;" horiz-adv-x="697" 
d="M327 700h43l309 -700h-661zM492 117l-143 339l-144 -339h287z" />
    <glyph glyph-name="Epsilon" unicode="&#x395;" horiz-adv-x="549" 
d="M62 700h445v-120h-303v-160h292v-120h-292v-180h307v-120h-449v700z" />
    <glyph glyph-name="Zeta" unicode="&#x396;" horiz-adv-x="606" 
d="M22 20l329 560h-299v120h510v-20l-329 -560h341v-120h-552v20z" />
    <glyph glyph-name="Eta" unicode="&#x397;" horiz-adv-x="686" 
d="M62 700h142v-271h278v271h142v-700h-142v309h-278v-309h-142v700z" />
    <glyph glyph-name="Theta" unicode="&#x398;" horiz-adv-x="815" 
d="M218.5 33.5q-85.5 47.5 -135 130.5t-49.5 186t49.5 186t135 130.5t188.5 47.5t189 -47.5t135.5 -130.5t49.5 -186t-49.5 -186t-135.5 -130.5t-189 -47.5t-188.5 47.5zM526 140q53 29 84 83t31 127t-31 127t-84 83t-119 29q-65 0 -118.5 -29t-84.5 -83t-31 -127t31 -127
t84.5 -83t118.5 -29q66 0 119 29zM276 412h263v-124h-263v124z" />
    <glyph glyph-name="Iota" unicode="&#x399;" horiz-adv-x="266" 
d="M62 700h142v-700h-142v700z" />
    <glyph glyph-name="Kappa" unicode="&#x39a;" horiz-adv-x="638" 
d="M62 700h142v-318l245 318h154l-263 -339l288 -361h-168l-256 319v-319h-142v700z" />
    <glyph glyph-name="Lambda" unicode="&#x39b;" horiz-adv-x="697" 
d="M327 700h43l309 -700h-136l-194 456l-194 -456h-137z" />
    <glyph glyph-name="Mu" unicode="&#x39c;" horiz-adv-x="898" 
d="M208 700h46l195 -431l195 431h46l186 -700h-139l-101 371l-171 -371h-32l-171 371l-101 -371h-139z" />
    <glyph glyph-name="Nu" unicode="&#x39d;" horiz-adv-x="711" 
d="M62 700h60l385 -417v417h142v-700h-60l-385 417v-417h-142v700z" />
    <glyph glyph-name="Xi" unicode="&#x39e;" horiz-adv-x="563" 
d="M48 700h467v-121h-467v121zM74 416h416v-114h-416v114zM46 121h471v-121h-471v121z" />
    <glyph glyph-name="Omicron" unicode="&#x39f;" horiz-adv-x="815" 
d="M218.5 33.5q-85.5 47.5 -135 130.5t-49.5 186t49.5 186t135 130.5t188.5 47.5t189 -47.5t135.5 -130.5t49.5 -186t-49.5 -186t-135.5 -130.5t-189 -47.5t-188.5 47.5zM526 140q53 29 84 83t31 127t-31 127t-84 83t-119 29q-65 0 -118.5 -29t-84.5 -83t-31 -127t31 -127
t84.5 -83t118.5 -29q66 0 119 29z" />
    <glyph glyph-name="Pi" unicode="&#x3a0;" horiz-adv-x="686" 
d="M62 700h562v-700h-142v579h-278v-579h-142v700z" />
    <glyph glyph-name="Rho" unicode="&#x3a1;" horiz-adv-x="553" 
d="M62 700h204q119 0 188 -58.5t69 -159.5t-69 -159.5t-188 -58.5h-62v-264h-142v700zM267 386q59 0 86.5 25.5t27.5 70.5t-27.5 70.5t-86.5 25.5h-63v-192h63z" />
    <glyph glyph-name="Sigma" unicode="&#x3a3;" horiz-adv-x="604" 
d="M34 50l213 320l-197 280v50h496v-120h-274l145 -210l-171 -250h320v-120h-532v50z" />
    <glyph glyph-name="Tau" unicode="&#x3a4;" horiz-adv-x="546" 
d="M202 580h-168v120h478v-120h-168v-580h-142v580z" />
    <glyph glyph-name="Upsilon" unicode="&#x3a5;" horiz-adv-x="614" 
d="M236 296l-222 404h157l136 -269l136 269h157l-222 -404v-296h-142v296z" />
    <glyph glyph-name="Phi" unicode="&#x3a6;" horiz-adv-x="823" 
d="M749 197.5q-40 -62.5 -109.5 -97.5t-155.5 -39v-61h-142v60q-85 3 -155.5 37.5t-111.5 98t-41 149.5q0 84 42 150t112.5 104t153.5 41v60h142v-61q84 -5 154 -43t110.5 -103t40.5 -148q0 -85 -40 -147.5zM223 228.5q50 -39.5 119 -42.5v329q-42 -3 -80.5 -22.5
t-63.5 -56.5t-25 -89q0 -79 50 -118.5zM602 231.5q48 39.5 48 115.5q0 50 -23.5 86.5t-61.5 56.5t-81 24v-327q70 5 118 44.5z" />
    <glyph glyph-name="Chi" unicode="&#x3a7;" horiz-adv-x="641" 
d="M246 378l-195 322h154l115 -199l116 199h154l-196 -322l229 -378h-154l-149 253l-148 -253h-154z" />
    <glyph glyph-name="Psi" unicode="&#x3a8;" horiz-adv-x="794" 
d="M750 700v-199q0 -135 -74.5 -215t-206.5 -92v-194h-142v194q-133 11 -208 91.5t-75 215.5v199h142v-195q0 -79 40 -126.5t101 -60.5v382h142v-382q60 14 99.5 61.5t39.5 125.5v195h142z" />
    <glyph glyph-name="uni03A9" unicode="&#x3a9;" horiz-adv-x="786" 
d="M44 120h116q-56 42 -91 111.5t-35 149.5q0 95 45 170.5t126.5 119t187.5 43.5t187.5 -43.5t126.5 -119t45 -170.5q0 -80 -35 -149.5t-91 -111.5h116v-120h-296v100q74 40 119 109.5t45 157.5q0 107 -60 166t-157 59t-157 -59t-60 -166q0 -88 45 -157.5t119 -109.5v-100
h-296v120z" />
    <glyph glyph-name="Iotadieresis" unicode="&#x3aa;" horiz-adv-x="266" 
d="M62 700h142v-700h-142v700zM-14 783q-21 21 -21 50q0 30 21 51.5t50 21.5t51 -21.5t22 -51.5q0 -29 -22 -50t-51 -21t-50 21zM178 783q-21 21 -21 50q0 30 21 51.5t50 21.5t51 -21.5t22 -51.5q0 -29 -22 -50t-51 -21t-50 21z" />
    <glyph glyph-name="Upsilondieresis" unicode="&#x3ab;" horiz-adv-x="614" 
d="M236 296l-222 404h157l136 -269l136 269h157l-222 -404v-296h-142v296zM160 783q-21 21 -21 50q0 30 21 51.5t50 21.5t51 -21.5t22 -51.5q0 -29 -22 -50t-51 -21t-50 21zM352 783q-21 21 -21 50q0 30 21 51.5t50 21.5t51 -21.5t22 -51.5q0 -29 -22 -50t-51 -21t-50 21z
" />
    <glyph glyph-name="alphatonos" unicode="&#x3ac;" horiz-adv-x="639" 
d="M156.5 18q-55.5 32 -90 91.5t-34.5 137.5q0 71 33 131t90 95t125 35q48 0 87.5 -16t60.5 -43v45h132v-346q0 -15 7 -24t19 -9q20 0 28 10h11v-100q-14 -16 -39.5 -27.5t-56.5 -11.5q-51 0 -73.5 19.5t-27.5 39.5q-31 -29 -66 -44t-90 -15q-60 0 -115.5 32zM397 148
q37 40 37 99t-37 99t-98 40t-98 -40t-37 -99t37 -99t98 -40t98 40zM299 700h143l-97 -137h-104z" />
    <glyph glyph-name="epsilontonos" unicode="&#x3ad;" horiz-adv-x="437" 
d="M134 5.5q-46 19.5 -72 54t-26 77.5q0 37 19.5 66.5t58.5 45.5q-37 16 -56 44.5t-19 64.5q0 44 26.5 78t71.5 53t100 19q40 0 80.5 -9.5t65.5 -23.5l5 -121h-10q-32 21 -64 32.5t-70 11.5q-35 0 -56.5 -12.5t-21.5 -34.5q0 -21 21 -34.5t63 -13.5h49v-103h-47
q-43 0 -63 -14.5t-20 -36.5q0 -25 22.5 -38t62.5 -13q38 0 67 11t59 31h11l-5 -121q-23 -12 -62 -22.5t-85 -10.5q-59 0 -105 19.5zM233 700h143l-97 -137h-104z" />
    <glyph glyph-name="etatonos" unicode="&#x3ae;" horiz-adv-x="580" 
d="M396 290q0 48 -25.5 72t-68.5 24q-49 0 -80.5 -35.5t-31.5 -95.5v-255h-132v494h132v-61q27 34 70.5 54.5t91.5 20.5q81 0 128.5 -43.5t47.5 -127.5v-563h-132v516zM316 700h143l-97 -137h-104z" />
    <glyph glyph-name="iotatonos" unicode="&#x3af;" horiz-adv-x="248" 
d="M58 494h132v-494h-132v494zM130 700h143l-97 -137h-104z" />
    <glyph glyph-name="upsilondieresistonos" unicode="&#x3b0;" horiz-adv-x="560" 
d="M115.5 41.5q-63.5 55.5 -63.5 169.5v283h132v-282q0 -55 25.5 -81.5t70.5 -26.5t70.5 26.5t25.5 81.5v282h132v-283q0 -114 -64 -169.5t-164 -55.5q-101 0 -164.5 55.5zM280 798h143l-97 -137h-104zM98 565q-21 21 -21 50q0 30 21 51.5t50 21.5t51 -21.5t22 -51.5
q0 -29 -22 -50t-51 -21t-50 21zM373.5 565q-20.5 21 -20.5 50q0 30 20.5 51.5t49.5 21.5q30 0 51.5 -21.5t21.5 -51.5q0 -29 -21.5 -50t-51.5 -21q-29 0 -49.5 21z" />
    <glyph glyph-name="alpha" unicode="&#x3b1;" horiz-adv-x="639" 
d="M156.5 18q-55.5 32 -90 91.5t-34.5 137.5q0 71 33 131t90 95t125 35q48 0 87.5 -16t60.5 -43v45h132v-346q0 -15 7 -24t19 -9q20 0 28 10h11v-100q-14 -16 -39.5 -27.5t-56.5 -11.5q-51 0 -73.5 19.5t-27.5 39.5q-31 -29 -66 -44t-90 -15q-60 0 -115.5 32zM397 148
q37 40 37 99t-37 99t-98 40t-98 -40t-37 -99t37 -99t98 -40t98 40z" />
    <glyph glyph-name="beta" unicode="&#x3b2;" horiz-adv-x="585" 
d="M58 468q0 65 25.5 121t79 90.5t133.5 34.5q68 0 119.5 -25t80 -70t28.5 -103q0 -55 -27.5 -92.5t-71.5 -55.5q59 -13 94.5 -58t35.5 -114q0 -63 -30 -110.5t-81 -73.5t-112 -26q-48 0 -84 16t-58 43v-271h-132v694zM393 124.5q30 31.5 30 75.5q0 48 -31 77t-90 29h-43
v105h30q50 0 76.5 27t26.5 68q0 39 -27 62.5t-70 23.5q-47 0 -76 -30.5t-29 -81.5v-241q0 -77 36 -111.5t87 -34.5q50 0 80 31.5z" />
    <glyph glyph-name="gamma" unicode="&#x3b3;" horiz-adv-x="542" 
d="M204 24l-190 470h141l116 -320l116 320h141l-190 -470v-250h-134v250z" />
    <glyph glyph-name="delta" unicode="&#x3b4;" horiz-adv-x="551" 
d="M519 219q0 -66 -32.5 -119.5t-88.5 -83.5t-122 -30q-67 0 -123 30t-88.5 83.5t-32.5 119.5q0 69 37 125t99 85q-37 22 -56.5 54.5t-19.5 70.5q0 48 27 84.5t73.5 56t104.5 19.5q82 0 144 -39l5 -126h-12q-65 56 -136 56q-42 0 -63 -16.5t-21 -43.5q0 -29 25 -49.5
t75 -38.5q205 -75 205 -238zM359 133q34 33 34 87q0 55 -34 88t-84 33q-49 0 -83 -33t-34 -87q0 -55 33.5 -88t83.5 -33t84 33z" />
    <glyph glyph-name="epsilon" unicode="&#x3b5;" horiz-adv-x="437" 
d="M134 5.5q-46 19.5 -72 54t-26 77.5q0 37 19.5 66.5t58.5 45.5q-37 16 -56 44.5t-19 64.5q0 44 26.5 78t71.5 53t100 19q40 0 80.5 -9.5t65.5 -23.5l5 -121h-10q-32 21 -64 32.5t-70 11.5q-35 0 -56.5 -12.5t-21.5 -34.5q0 -21 21 -34.5t63 -13.5h49v-103h-47
q-43 0 -63 -14.5t-20 -36.5q0 -25 22.5 -38t62.5 -13q38 0 67 11t59 31h11l-5 -121q-23 -12 -62 -22.5t-85 -10.5q-59 0 -105 19.5z" />
    <glyph glyph-name="zeta" unicode="&#x3b6;" horiz-adv-x="500" 
d="M210 -222.5q-39 8.5 -55 18.5l-21 123h12q54 -32 109 -32q68 0 68 48q0 26 -17.5 36.5t-52.5 17.5q-87 19 -143 69.5t-56 152.5q0 84 35 147.5t88 126.5l94 110h-227v105h421v-40l-210 -259q-65 -80 -65 -162q0 -63 33 -94t100 -53q40 -13 69 -28.5t51.5 -47t22.5 -82.5
q0 -75 -49.5 -120t-131.5 -45q-36 0 -75 8.5z" />
    <glyph glyph-name="eta" unicode="&#x3b7;" horiz-adv-x="580" 
d="M396 290q0 48 -25.5 72t-68.5 24q-49 0 -80.5 -35.5t-31.5 -95.5v-255h-132v494h132v-61q27 34 70.5 54.5t91.5 20.5q81 0 128.5 -43.5t47.5 -127.5v-563h-132v516z" />
    <glyph glyph-name="theta" unicode="&#x3b8;" horiz-adv-x="676" 
d="M180.5 33q-69.5 47 -108 130t-38.5 187t38.5 187t108 130t157.5 47t157.5 -47t108 -130t38.5 -187t-38.5 -187t-108 -130t-157.5 -47t-157.5 47zM502 402q-11 89 -54 138.5t-110 49.5t-110 -49.5t-54 -138.5h328zM448 159.5q43 49.5 54 138.5h-328q11 -89 54 -138.5
t110 -49.5t110 49.5z" />
    <glyph glyph-name="iota" unicode="&#x3b9;" horiz-adv-x="248" 
d="M58 494h132v-494h-132v494z" />
    <glyph glyph-name="kappa" unicode="&#x3ba;" horiz-adv-x="546" 
d="M58 494h132v-203l110 128q35 41 65 58t73 17h54v-110h-27q-19 0 -34 -9t-31 -26l-75 -85l211 -264h-168l-178 229v-229h-132v494z" />
    <glyph glyph-name="lambda" unicode="&#x3bb;" horiz-adv-x="539" 
d="M179 720l350 -720h-142l-121 249l-116 -249h-140l185 396l-158 324h142z" />
    <glyph glyph-name="uni03BC" unicode="&#x3bc;" horiz-adv-x="586" 
d="M58 494h132v-286q0 -48 26 -73t70 -25q48 0 79 33t31 94v257h132v-494h-132v60q-29 -35 -69 -54.5t-89 -19.5q-26 0 -48 8v-220h-132v720z" />
    <glyph glyph-name="nu" unicode="&#x3bd;" horiz-adv-x="542" 
d="M14 494h136l121 -259l121 259h136l-241 -494h-32z" />
    <glyph glyph-name="xi" unicode="&#x3be;" horiz-adv-x="540" 
d="M173 -193l17 98h12q36 -18 60 -25t45 -7q65 0 65 51q0 22 -12.5 34.5t-30.5 18t-54 12.5q-96 19 -163.5 64.5t-67.5 148.5q0 67 32 114t83 69q-43 21 -64.5 58.5t-21.5 84.5q0 52 27 94.5t79.5 67t127.5 24.5q59 0 105 -15t74 -39l7 -140h-19q-31 38 -72.5 54.5
t-84.5 16.5q-54 0 -83 -21.5t-29 -54.5q0 -36 33 -58.5t95 -22.5h61v-105h-62q-76 0 -116 -30.5t-40 -81.5q0 -53 37 -77t104 -38q55 -11 92 -26.5t62 -48.5t25 -90q0 -81 -48.5 -126t-129.5 -45q-79 -2 -145 41z" />
    <glyph glyph-name="omicron" unicode="&#x3bf;" horiz-adv-x="606" 
d="M167.5 20.5q-62.5 34.5 -99 94.5t-36.5 132t36.5 132t99 94.5t135.5 34.5t135.5 -34.5t99 -94.5t36.5 -132t-36.5 -132t-99 -94.5t-135.5 -34.5t-135.5 34.5zM372.5 125.5q31.5 17.5 50.5 49.5t19 72t-19 72t-50.5 49.5t-69.5 17.5t-69.5 -17.5t-50.5 -49.5t-19 -72
t19 -72t50.5 -49.5t69.5 -17.5t69.5 17.5z" />
    <glyph glyph-name="pi" unicode="&#x3c0;" horiz-adv-x="705" 
d="M504 3.5q-33 17.5 -54.5 54.5t-21.5 90v241h-179v-389h-132v389h-89v105h621v-105h-89v-230q0 -31 16 -46t38 -15q13 0 27.5 4.5t22.5 14.5h13l-12 -106q-43 -25 -93 -25q-35 0 -68 17.5z" />
    <glyph glyph-name="rho" unicode="&#x3c1;" horiz-adv-x="624" 
d="M58 229q0 93 37 155.5t99 93t137 30.5q74 0 133.5 -32.5t93.5 -91.5t34 -137q0 -77 -34 -136.5t-91.5 -92t-123.5 -32.5q-47 0 -87.5 15t-65.5 41v-268h-132v455zM390.5 128.5q30.5 18.5 48 50t17.5 68.5t-17.5 68.5t-48 50t-69.5 18.5t-70 -18.5t-48.5 -50t-17.5 -68.5
t17.5 -68.5t48.5 -50t70 -18.5t69.5 18.5z" />
    <glyph glyph-name="uni03C2" unicode="&#x3c2;" horiz-adv-x="512" 
d="M230.5 -193.5q-30.5 7.5 -65.5 21.5l-12 118h16q56 -39 111 -39q53 0 53 36q0 21 -14.5 29.5t-50.5 16.5q-236 49 -236 255q0 83 36.5 142.5t98 90.5t134.5 31q83 0 142 -39l5 -133h-15q-31 23 -61.5 35.5t-66.5 12.5q-65 0 -103 -38.5t-38 -98.5q0 -45 22 -73.5
t55.5 -43.5t84.5 -28q63 -17 101.5 -50t38.5 -100q0 -73 -46.5 -113t-125.5 -40q-33 0 -63.5 7.5z" />
    <glyph glyph-name="sigma" unicode="&#x3c3;" horiz-adv-x="629" 
d="M593 397h-67q48 -67 48 -150q0 -72 -36.5 -132t-99 -94.5t-135.5 -34.5t-135.5 34.5t-99 94.5t-36.5 132t36.5 132t99 94.5t135.5 34.5q46 0 88 -14h202v-97zM372.5 125.5q31.5 17.5 50.5 49.5t19 72t-19 72t-50.5 49.5t-69.5 17.5t-69.5 -17.5t-50.5 -49.5t-19 -72
t19 -72t50.5 -49.5t69.5 -17.5t69.5 17.5z" />
    <glyph glyph-name="tau" unicode="&#x3c4;" horiz-adv-x="444" 
d="M216 3.5q-35 17.5 -57 54t-22 90.5v241h-125v105h382v-105h-125v-230q0 -31 16.5 -46t39.5 -15q39 0 78 29h13l-12 -116q-30 -15 -53 -20t-60 -5q-40 0 -75 17.5z" />
    <glyph glyph-name="upsilon" unicode="&#x3c5;" horiz-adv-x="560" 
d="M115.5 41.5q-63.5 55.5 -63.5 169.5v283h132v-282q0 -55 25.5 -81.5t70.5 -26.5t70.5 26.5t25.5 81.5v282h132v-283q0 -114 -64 -169.5t-164 -55.5q-101 0 -164.5 55.5z" />
    <glyph glyph-name="phi" unicode="&#x3c6;" horiz-adv-x="749" 
d="M308 -14q-77 0 -140 33.5t-99.5 93t-36.5 134.5t36.5 134.5t99.5 93t140 33.5v90h132v-90q77 0 140.5 -33t100 -92.5t36.5 -135.5t-36.5 -135.5t-100 -92.5t-140.5 -33v-90h-132v90zM308 384q-61 0 -100.5 -38t-39.5 -99t39.5 -99t100.5 -38v274zM541 148q40 38 40 99
t-40 99t-101 38v-274q61 0 101 38z" />
    <glyph glyph-name="chi" unicode="&#x3c7;" horiz-adv-x="599" 
d="M435.5 -218q-29.5 22 -52.5 68l-87 175l-128 -251h-146l189 365l-110 221q-11 21 -23.5 30t-30.5 9q-14 0 -29 -4v100q38 13 73 13q43 0 73.5 -22t52.5 -68l79 -165l119 241h144l-179 -355l118 -231q11 -22 23.5 -30.5t31.5 -8.5q13 0 28 4v-100q-36 -13 -73 -13
q-43 0 -72.5 22z" />
    <glyph glyph-name="psi" unicode="&#x3c8;" horiz-adv-x="771" 
d="M319 -13q-67 0 -128 27.5t-100 88.5t-39 156v235h132v-218q0 -59 21 -97.5t52 -56t62 -17.5v475h132v-475q32 0 63 17.5t52 56t21 97.5v218h132v-235q0 -95 -39.5 -156t-100.5 -88.5t-128 -27.5v-141h-132v141z" />
    <glyph glyph-name="omega" unicode="&#x3c9;" horiz-adv-x="807" 
d="M133 14.5q-47 28.5 -74 78t-27 110.5q0 85 23.5 149t76.5 142h141q-56 -82 -80 -143t-24 -140q0 -44 23.5 -77.5t64.5 -33.5q44 0 63.5 31t19.5 80v156h127v-156q0 -49 19.5 -80t63.5 -31q41 0 64.5 33.5t23.5 77.5q0 79 -24 140t-80 143h141q53 -77 76.5 -141t23.5 -150
q0 -61 -26.5 -110.5t-74 -78t-106.5 -28.5q-115 0 -164 96q-51 -96 -164 -96q-60 0 -107 28.5z" />
    <glyph glyph-name="iotadieresis" unicode="&#x3ca;" horiz-adv-x="248" 
d="M58 494h132v-494h-132v494zM-23 577q-21 21 -21 50q0 30 21 51.5t50 21.5t51 -21.5t22 -51.5q0 -29 -22 -50t-51 -21t-50 21zM169 577q-21 21 -21 50q0 30 21 51.5t50 21.5t51 -21.5t22 -51.5q0 -29 -22 -50t-51 -21t-50 21z" />
    <glyph glyph-name="upsilondieresis" unicode="&#x3cb;" horiz-adv-x="560" 
d="M115.5 41.5q-63.5 55.5 -63.5 169.5v283h132v-282q0 -55 25.5 -81.5t70.5 -26.5t70.5 26.5t25.5 81.5v282h132v-283q0 -114 -64 -169.5t-164 -55.5q-101 0 -164.5 55.5zM133 577q-21 21 -21 50q0 30 21 51.5t50 21.5t51 -21.5t22 -51.5q0 -29 -22 -50t-51 -21t-50 21z
M325 577q-21 21 -21 50q0 30 21 51.5t50 21.5t51 -21.5t22 -51.5q0 -29 -22 -50t-51 -21t-50 21z" />
    <glyph glyph-name="omicrontonos" unicode="&#x3cc;" horiz-adv-x="606" 
d="M167.5 20.5q-62.5 34.5 -99 94.5t-36.5 132t36.5 132t99 94.5t135.5 34.5t135.5 -34.5t99 -94.5t36.5 -132t-36.5 -132t-99 -94.5t-135.5 -34.5t-135.5 34.5zM372.5 125.5q31.5 17.5 50.5 49.5t19 72t-19 72t-50.5 49.5t-69.5 17.5t-69.5 -17.5t-50.5 -49.5t-19 -72
t19 -72t50.5 -49.5t69.5 -17.5t69.5 17.5zM314 700h165l-144 -137h-112z" />
    <glyph glyph-name="upsilontonos" unicode="&#x3cd;" horiz-adv-x="560" 
d="M115.5 41.5q-63.5 55.5 -63.5 169.5v283h132v-282q0 -55 25.5 -81.5t70.5 -26.5t70.5 26.5t25.5 81.5v282h132v-283q0 -114 -64 -169.5t-164 -55.5q-101 0 -164.5 55.5zM286 700h143l-97 -137h-104z" />
    <glyph glyph-name="omegatonos" unicode="&#x3ce;" horiz-adv-x="807" 
d="M133 14.5q-47 28.5 -74 78t-27 110.5q0 85 23.5 149t76.5 142h141q-56 -82 -80 -143t-24 -140q0 -44 23.5 -77.5t64.5 -33.5q44 0 63.5 31t19.5 80v156h127v-156q0 -49 19.5 -80t63.5 -31q41 0 64.5 33.5t23.5 77.5q0 79 -24 140t-80 143h141q53 -77 76.5 -141t23.5 -150
q0 -61 -26.5 -110.5t-74 -78t-106.5 -28.5q-115 0 -164 96q-51 -96 -164 -96q-60 0 -107 28.5zM410 700h143l-97 -137h-104z" />
    <glyph glyph-name="uni0400" unicode="&#x400;" horiz-adv-x="549" 
d="M62 700h445v-120h-303v-160h292v-120h-292v-180h307v-120h-449v700zM252 769l-144 137h165l91 -137h-112z" />
    <glyph glyph-name="uni0401" unicode="&#x401;" horiz-adv-x="549" 
d="M62 700h445v-120h-303v-160h292v-120h-292v-180h307v-120h-449v700zM149 783q-21 21 -21 50q0 30 21 51.5t50 21.5t51 -21.5t22 -51.5q0 -29 -22 -50t-51 -21t-50 21zM341 783q-21 21 -21 50q0 30 21 51.5t50 21.5t51 -21.5t22 -51.5q0 -29 -22 -50t-51 -21t-50 21z" />
    <glyph glyph-name="uni0402" unicode="&#x402;" horiz-adv-x="744" 
d="M592 423q53 -25 86.5 -76t33.5 -125q0 -71 -31 -125t-81.5 -82.5t-108.5 -28.5q-48 0 -83 19l-3 118h18q19 -16 51 -16q43 0 69.5 32.5t26.5 81.5q0 51 -31 78t-87 27q-66 0 -127 -29v-297h-142v579h-149v121h480v-121h-189v-164q36 15 76.5 24t77.5 9q60 0 113 -25z" />
    <glyph glyph-name="uni0403" unicode="&#x403;" horiz-adv-x="550" 
d="M62 700h440v-120h-298v-580h-142v700zM323 906h165l-144 -137h-112z" />
    <glyph glyph-name="uni0404" unicode="&#x404;" horiz-adv-x="665" 
d="M507.5 131.5q45.5 17.5 92.5 52.5h19l-11 -145q-48 -28 -92.5 -40.5t-108.5 -12.5q-105 0 -190 47t-134 130t-49 187t49 187t134 130t190 47q64 0 108.5 -12.5t92.5 -40.5l11 -145h-19q-47 35 -92.5 52.5t-94.5 17.5q-94 0 -154 -48t-77 -128h287v-120h-287
q17 -80 77 -128t154 -48q49 0 94.5 17.5z" />
    <glyph glyph-name="uni0405" unicode="&#x405;" horiz-adv-x="524" 
d="M135.5 5q-54.5 19 -89.5 49l8 164h10q40 -51 85 -80.5t101 -29.5q42 0 68 23.5t26 64.5q0 30 -14 50.5t-38.5 35t-71.5 36.5q-84 39 -126.5 87t-42.5 117q0 58 29 102t77 67t104 23q115 0 174 -53l5 -149h-13q-79 86 -163 86q-40 0 -63 -17.5t-23 -52.5q0 -32 30.5 -55
t111.5 -61q82 -38 124 -86.5t42 -126.5q0 -62 -28.5 -110.5t-80.5 -75.5t-120 -27q-67 0 -121.5 19z" />
    <glyph glyph-name="uni0406" unicode="&#x406;" horiz-adv-x="266" 
d="M62 700h142v-700h-142v700z" />
    <glyph glyph-name="uni0407" unicode="&#x407;" horiz-adv-x="266" 
d="M62 700h142v-700h-142v700zM-14 783q-21 21 -21 50q0 30 21 51.5t50 21.5t51 -21.5t22 -51.5q0 -29 -22 -50t-51 -21t-50 21zM178 783q-21 21 -21 50q0 30 21 51.5t50 21.5t51 -21.5t22 -51.5q0 -29 -22 -50t-51 -21t-50 21z" />
    <glyph glyph-name="uni0408" unicode="&#x408;" horiz-adv-x="409" 
d="M110.5 -11q-20.5 3 -54.5 11l-14 120h19q37 -14 70 -14q34 0 54 25.5t20 76.5v492h142v-486q0 -75 -24.5 -126t-66 -76.5t-93.5 -25.5q-32 0 -52.5 3z" />
    <glyph glyph-name="uni0409" unicode="&#x409;" horiz-adv-x="1054" 
d="M54 0l-12 121h17q21 -14 45 -14q23 0 37 18.5t17 65.5l41 509h484v-252h84q75 0 133 -27t91 -77.5t33 -119.5t-33 -119.5t-91 -77.5t-133 -27h-226v579h-229l-34 -410q-8 -97 -44.5 -140t-107.5 -43q-38 0 -72 14zM768 122q54 0 84 27t30 75t-30 75t-84 27h-85v-204h85z
" />
    <glyph glyph-name="uni040A" unicode="&#x40a;" horiz-adv-x="985" 
d="M62 700h142v-274h278v274h142v-272h74q74 0 132.5 -26.5t91.5 -75t33 -112.5t-33 -112.5t-91.5 -75t-132.5 -26.5h-216v306h-278v-306h-142v700zM699 122q53 0 83.5 25.5t30.5 66.5t-30.5 66.5t-83.5 25.5h-75v-184h75z" />
    <glyph glyph-name="uni040B" unicode="&#x40b;" horiz-adv-x="764" 
d="M183 579h-149v121h480v-121h-189v-179q30 23 74 36t99 13q96 0 155 -51t59 -153v-245h-142v211q0 61 -27.5 89t-75.5 28q-44 0 -80.5 -12.5t-61.5 -30.5v-285h-142v579z" />
    <glyph glyph-name="uni040C" unicode="&#x40c;" horiz-adv-x="638" 
d="M62 700h142v-318l245 318h154l-263 -339l288 -361h-168l-256 319v-319h-142v700zM345 906h165l-144 -137h-112z" />
    <glyph glyph-name="uni040D" unicode="&#x40d;" horiz-adv-x="711" 
d="M62 700h142v-456l323 456h122v-700h-142v456l-323 -456h-122v700zM319 769l-144 137h165l91 -137h-112z" />
    <glyph glyph-name="uni040E" unicode="&#x40e;" horiz-adv-x="613" 
d="M112.5 -10.5q-20.5 3.5 -43.5 13.5l-13 124h19q37 -21 74 -21q52 0 84 72l4 8l-223 514h147l147 -367l144 367h147l-242 -556q-34 -78 -78 -118t-117 -40q-29 0 -49.5 3.5zM211 800.5q-34 32.5 -34 85.5h86q2 -16 11.5 -27t28.5 -11t28.5 11t11.5 27h86q0 -53 -34 -85.5
t-92 -32.5t-92 32.5z" />
    <glyph glyph-name="uni040F" unicode="&#x40f;" horiz-adv-x="686" 
d="M272 0h-210v700h142v-579h278v579h142v-700h-210v-132h-142v132z" />
    <glyph glyph-name="uni0410" unicode="&#x410;" horiz-adv-x="698" 
d="M328 700h42l310 -700h-138l-52 120h-282l-52 -120h-138zM440 240l-91 212l-91 -212h182z" />
    <glyph glyph-name="uni0411" unicode="&#x411;" horiz-adv-x="581" 
d="M479 378q74 -58 74 -160t-74 -160t-213 -58h-204v700h438v-121h-296v-143h62q139 0 213 -58zM379 148q32 26 32 70t-32 70t-92 26h-83v-192h83q60 0 92 26z" />
    <glyph glyph-name="uni0412" unicode="&#x412;" horiz-adv-x="608" 
d="M62 700h247q113 0 174.5 -48.5t61.5 -130.5q0 -54 -29.5 -93.5t-76.5 -59.5q62 -16 100.5 -61t38.5 -109q0 -63 -31 -107.5t-84 -67.5t-117 -23h-284v700zM304 420q58 0 79 21t21 58t-21 58t-79 21h-100v-158h100zM333 122q103 0 103 88t-103 88h-129v-176h129z" />
    <glyph glyph-name="uni0413" unicode="&#x413;" horiz-adv-x="550" 
d="M62 700h440v-120h-298v-580h-142v700z" />
    <glyph glyph-name="uni0414" unicode="&#x414;" horiz-adv-x="754" 
d="M34 121h17q28 0 45 17t22 63l51 499h473v-579h78v-253h-136v132h-414v-132h-136v253zM500 121v458h-215l-37 -371q-3 -27 -7.5 -47t-16.5 -40h276z" />
    <glyph glyph-name="uni0415" unicode="&#x415;" horiz-adv-x="549" 
d="M62 700h445v-120h-303v-160h292v-120h-292v-180h307v-120h-449v700z" />
    <glyph glyph-name="uni0416" unicode="&#x416;" horiz-adv-x="990" 
d="M289 360l-256 340h158l233 -316v316h142v-316l233 316h159l-257 -340l279 -360h-167l-247 318v-318h-142v318l-247 -318h-167z" />
    <glyph glyph-name="uni0417" unicode="&#x417;" horiz-adv-x="579" 
d="M148.5 -2q-45.5 12 -85.5 34l-15 142h19q38 -31 84.5 -48t108.5 -17q59 0 97.5 24t38.5 75q0 45 -34 69.5t-95 24.5h-95v114h87q56 0 82 27.5t26 65.5q0 39 -29 60t-81 21q-51 0 -99 -21.5t-78 -68.5h-19l7 147q80 67 207 67q70 0 122.5 -25.5t81 -68.5t28.5 -96
q0 -48 -21.5 -87.5t-63.5 -61.5q49 -18 81 -60.5t32 -106.5q0 -67 -34 -117.5t-96.5 -77.5t-146.5 -27q-64 0 -109.5 12z" />
    <glyph glyph-name="uni0418" unicode="&#x418;" horiz-adv-x="711" 
d="M62 700h142v-456l323 456h122v-700h-142v456l-323 -456h-122v700z" />
    <glyph glyph-name="uni0419" unicode="&#x419;" horiz-adv-x="711" 
d="M62 700h142v-456l323 456h122v-700h-142v456l-323 -456h-122v700zM271 800.5q-34 32.5 -34 85.5h86q2 -16 11.5 -27t28.5 -11t28.5 11t11.5 27h86q0 -53 -34 -85.5t-92 -32.5t-92 32.5z" />
    <glyph glyph-name="uni041A" unicode="&#x41a;" horiz-adv-x="638" 
d="M62 700h142v-318l245 318h154l-263 -339l288 -361h-168l-256 319v-319h-142v700z" />
    <glyph glyph-name="uni041B" unicode="&#x41b;" horiz-adv-x="749" 
d="M54 0l-12 121h17q21 -14 47 -14q24 0 38 16.5t18 56.5l41 520h484v-700h-142v579h-229l-37 -436q-7 -78 -45 -117.5t-104 -39.5q-42 0 -76 14z" />
    <glyph glyph-name="uni041C" unicode="&#x41c;" horiz-adv-x="898" 
d="M208 700h46l195 -431l195 431h46l186 -700h-139l-101 371l-171 -371h-32l-171 371l-101 -371h-139z" />
    <glyph glyph-name="uni041D" unicode="&#x41d;" horiz-adv-x="686" 
d="M62 700h142v-271h278v271h142v-700h-142v309h-278v-309h-142v700z" />
    <glyph glyph-name="uni041E" unicode="&#x41e;" horiz-adv-x="815" 
d="M218.5 33.5q-85.5 47.5 -135 130.5t-49.5 186t49.5 186t135 130.5t188.5 47.5t189 -47.5t135.5 -130.5t49.5 -186t-49.5 -186t-135.5 -130.5t-189 -47.5t-188.5 47.5zM526 140q53 29 84 83t31 127t-31 127t-84 83t-119 29q-65 0 -118.5 -29t-84.5 -83t-31 -127t31 -127
t84.5 -83t118.5 -29q66 0 119 29z" />
    <glyph glyph-name="uni041F" unicode="&#x41f;" horiz-adv-x="686" 
d="M62 700h562v-700h-142v579h-278v-579h-142v700z" />
    <glyph glyph-name="uni0420" unicode="&#x420;" horiz-adv-x="553" 
d="M62 700h204q119 0 188 -58.5t69 -159.5t-69 -159.5t-188 -58.5h-62v-264h-142v700zM267 386q59 0 86.5 25.5t27.5 70.5t-27.5 70.5t-86.5 25.5h-63v-192h63z" />
    <glyph glyph-name="uni0421" unicode="&#x421;" horiz-adv-x="665" 
d="M217 33q-85 47 -134 130t-49 187t49 187t134 130t190 47q64 0 108.5 -12.5t92.5 -40.5l11 -145h-19q-47 35 -92.5 52.5t-94.5 17.5q-74 0 -127.5 -30.5t-81.5 -84t-28 -121.5t28 -121.5t81.5 -84t127.5 -30.5q49 0 94.5 17.5t92.5 52.5h19l-11 -145q-48 -28 -92.5 -40.5
t-108.5 -12.5q-105 0 -190 47z" />
    <glyph glyph-name="uni0422" unicode="&#x422;" horiz-adv-x="546" 
d="M202 580h-168v120h478v-120h-168v-580h-142v580z" />
    <glyph glyph-name="uni0423" unicode="&#x423;" horiz-adv-x="613" 
d="M112.5 -10.5q-20.5 3.5 -43.5 13.5l-13 124h19q37 -21 74 -21q52 0 84 72l4 8l-223 514h147l147 -367l144 367h147l-242 -556q-34 -78 -78 -118t-117 -40q-29 0 -49.5 3.5z" />
    <glyph glyph-name="uni0424" unicode="&#x424;" horiz-adv-x="857" 
d="M356 61q-96 4 -169 38.5t-113 97.5t-40 148q0 84 40.5 149t113.5 103t168 42v81h142v-80q96 -4 169.5 -42t114.5 -103.5t41 -149.5q0 -85 -40.5 -148t-114 -98t-170.5 -39v-80h-142v81zM356 514q-79 -6 -131 -49t-52 -118q0 -77 51 -116.5t132 -43.5v327zM631.5 229.5
q51.5 38.5 51.5 117.5q0 76 -52.5 119t-132.5 48v-327q82 4 133.5 42.5z" />
    <glyph glyph-name="uni0425" unicode="&#x425;" horiz-adv-x="641" 
d="M246 378l-195 322h154l115 -199l116 199h154l-196 -322l229 -378h-154l-149 253l-148 -253h-154z" />
    <glyph glyph-name="uni0426" unicode="&#x426;" horiz-adv-x="742" 
d="M566 0h-504v700h142v-579h278v579h142v-578h78v-254h-136v132z" />
    <glyph glyph-name="uni0427" unicode="&#x427;" horiz-adv-x="629" 
d="M425 291q-49 -13 -134 -13q-237 0 -237 202v220h142v-199q0 -58 35 -79t91 -21q66 0 103 11v288h142v-700h-142v291z" />
    <glyph glyph-name="uni0428" unicode="&#x428;" horiz-adv-x="929" 
d="M62 700h142v-579h190v579h142v-579h189v579h142v-700h-805v700z" />
    <glyph glyph-name="uni0429" unicode="&#x429;" horiz-adv-x="985" 
d="M809 0h-747v700h142v-579h190v579h142v-579h189v579h142v-578h78v-254h-136v132z" />
    <glyph glyph-name="uni042A" unicode="&#x42a;" horiz-adv-x="667" 
d="M154 579h-136v121h278v-252h84q75 0 133 -27t91 -77.5t33 -119.5t-33 -119.5t-91 -77.5t-133 -27h-226v579zM381 122q54 0 84 27t30 75t-30 75t-84 27h-85v-204h85z" />
    <glyph glyph-name="uni042B" unicode="&#x42b;" horiz-adv-x="841" 
d="M62 700h142v-252h84q75 0 133 -27t91 -77.5t33 -119.5t-33 -119.5t-91 -77.5t-133 -27h-226v700zM289 122q54 0 84 27t30 75t-30 75t-84 27h-85v-204h85zM637 700h142v-700h-142v700z" />
    <glyph glyph-name="uni042C" unicode="&#x42c;" horiz-adv-x="575" 
d="M62 700h142v-252h84q75 0 133 -27t91 -77.5t33 -119.5t-33 -119.5t-91 -77.5t-133 -27h-226v700zM289 122q54 0 84 27t30 75t-30 75t-84 27h-85v-204h85z" />
    <glyph glyph-name="uni042D" unicode="&#x42d;" horiz-adv-x="665" 
d="M448 667q85 -47 134 -130t49 -187t-49 -187t-134 -130t-190 -47q-64 0 -108.5 12.5t-92.5 40.5l-11 145h19q47 -35 92.5 -52.5t94.5 -17.5q94 0 154 48t77 128h-287v120h287q-17 80 -77 128t-154 48q-49 0 -94.5 -17.5t-92.5 -52.5h-19l11 145q48 28 92.5 40.5
t108.5 12.5q105 0 190 -47z" />
    <glyph glyph-name="uni042E" unicode="&#x42e;" horiz-adv-x="1002" 
d="M468 26q-72 40 -117 111t-55 162h-92v-299h-142v700h142v-287h93q12 88 57.5 156t116.5 106.5t159 38.5q98 0 175 -47t120 -130t43 -187t-43 -187t-120 -130t-175 -47q-90 0 -162 40zM734 141.5q45 30.5 69.5 85t24.5 123.5t-24.5 123.5t-69.5 85t-104 30.5t-104 -30.5
t-69.5 -85t-24.5 -123.5t24.5 -123.5t69.5 -85t104 -30.5t104 30.5z" />
    <glyph glyph-name="uni042F" unicode="&#x42f;" horiz-adv-x="601" 
d="M193 292q-57 25 -88.5 74t-31.5 118q0 102 67 159t178 57h221v-700h-142v268h-63l-159 -268h-157zM397 390v188h-67q-59 0 -87 -22.5t-28 -71.5t28 -71.5t87 -22.5h67z" />
    <glyph glyph-name="uni0430" unicode="&#x430;" horiz-adv-x="618" 
d="M156.5 18q-55.5 32 -90 91.5t-34.5 137.5q0 71 33 131t90 95t125 35q48 0 87.5 -16t60.5 -43v45h132v-494h-132v45q-31 -29 -66 -44t-90 -15q-60 0 -115.5 32zM397 148q37 40 37 99t-37 99t-98 40t-98 -40t-37 -99t37 -99t98 -40t98 40z" />
    <glyph glyph-name="uni0431" unicode="&#x431;" horiz-adv-x="609" 
d="M174.5 19q-62.5 33 -102.5 110t-40 202q0 100 29.5 186.5t96.5 142t174 56.5q120 2 120 40h115q0 -87 -59.5 -121.5t-164.5 -36.5q-99 -2 -152 -57.5t-65 -151.5q37 67 89.5 93t117.5 26q68 0 124 -32.5t88 -91.5t32 -137q0 -77 -35.5 -136.5t-96.5 -92t-135 -32.5
q-73 0 -135.5 33zM403 149q38 39 38 98t-38 98t-97 39q-58 0 -96 -39t-38 -98t38 -98t96 -39q59 0 97 39z" />
    <glyph glyph-name="uni0432" unicode="&#x432;" horiz-adv-x="538" 
d="M58 494h239q86 0 132 -34t46 -89q0 -41 -16.5 -68t-50.5 -43q43 -14 67.5 -45t24.5 -75q0 -68 -52.5 -104t-131.5 -36h-258v494zM285 310q28 0 42.5 11.5t14.5 33.5q0 21 -14.5 32.5t-42.5 11.5h-95v-89h95zM290 95q34 0 54 15.5t20 42.5q0 28 -19.5 43.5t-54.5 15.5
h-100v-117h100z" />
    <glyph glyph-name="uni0433" unicode="&#x433;" horiz-adv-x="458" 
d="M58 494h366v-112h-234v-382h-132v494z" />
    <glyph glyph-name="uni0434" unicode="&#x434;" horiz-adv-x="619" 
d="M38 105h34q22 0 35 14t15 42l24 333h382v-389h53v-216h-132v111h-279v-111h-132v216zM396 105v277h-148l-12 -182q-2 -40 -6.5 -60.5t-14.5 -34.5h181z" />
    <glyph glyph-name="uni0435" unicode="&#x435;" horiz-adv-x="571" 
d="M165 21q-62 35 -97.5 95.5t-35.5 134.5q0 72 33.5 130.5t93 92.5t134.5 34q76 0 131.5 -35.5t84 -94.5t28.5 -127v-39h-379q12 -56 51.5 -85t104.5 -29q99 0 173 65h14l-5 -125q-45 -26 -95 -39t-96 -13q-78 0 -140 35zM405 302q-5 45 -37.5 70.5t-79.5 25.5
q-46 0 -80.5 -24.5t-46.5 -71.5h244z" />
    <glyph glyph-name="uni0436" unicode="&#x436;" horiz-adv-x="786" 
d="M204 264l-183 230h149l157 -203v203h132v-203l158 203h148l-182 -230l193 -264h-155l-162 229v-229h-132v229l-161 -229h-156z" />
    <glyph glyph-name="uni0437" unicode="&#x437;" horiz-adv-x="476" 
d="M119.5 -4q-39.5 10 -64.5 24l-5 125h14q23 -21 59.5 -33t76.5 -12q46 0 71.5 14.5t25.5 42.5q0 52 -85 52h-40v98h39q74 0 74 45q0 20 -18.5 32.5t-57.5 12.5q-41 0 -79.5 -18.5t-59.5 -50.5h-14l5 122q24 23 69 40.5t99 17.5q86 0 135 -38t49 -96q0 -34 -16.5 -63
t-45.5 -47q35 -13 57 -42.5t22 -74.5q0 -74 -60 -117.5t-160 -43.5q-51 0 -90.5 10z" />
    <glyph glyph-name="uni0438" unicode="&#x438;" horiz-adv-x="581" 
d="M58 494h132v-274l238 274h95v-494h-132v274l-238 -274h-95v494z" />
    <glyph glyph-name="uni0439" unicode="&#x439;" horiz-adv-x="581" 
d="M58 494h132v-274l238 274h95v-494h-132v274l-238 -274h-95v494zM199 594.5q-34 32.5 -34 85.5h86q2 -16 11.5 -27t28.5 -11t28.5 11t11.5 27h86q0 -53 -34 -85.5t-92 -32.5t-92 32.5z" />
    <glyph glyph-name="uni043A" unicode="&#x43a;" horiz-adv-x="546" 
d="M58 494h132v-203l174 203h161l-200 -230l211 -264h-168l-178 229v-229h-132v494z" />
    <glyph glyph-name="uni043B" unicode="&#x43b;" horiz-adv-x="573" 
d="M63.5 -9.5q-17.5 4.5 -27.5 10.5l-10 101h18q15 -16 33 -16q28 0 31 46l25 362h382v-494h-132v382h-137l-20 -271q-5 -59 -37.5 -92t-88.5 -33q-19 0 -36.5 4.5z" />
    <glyph glyph-name="uni043C" unicode="&#x43c;" horiz-adv-x="723" 
d="M170 494h62l129 -277l130 277h62l140 -494h-127l-66 247l-111 -247h-56l-111 247l-66 -247h-126z" />
    <glyph glyph-name="uni043D" unicode="&#x43d;" horiz-adv-x="576" 
d="M58 494h132v-193h196v193h132v-494h-132v189h-196v-189h-132v494z" />
    <glyph glyph-name="uni043E" unicode="&#x43e;" horiz-adv-x="606" 
d="M167.5 20.5q-62.5 34.5 -99 94.5t-36.5 132t36.5 132t99 94.5t135.5 34.5t135.5 -34.5t99 -94.5t36.5 -132t-36.5 -132t-99 -94.5t-135.5 -34.5t-135.5 34.5zM372.5 125.5q31.5 17.5 50.5 49.5t19 72t-19 72t-50.5 49.5t-69.5 17.5t-69.5 -17.5t-50.5 -49.5t-19 -72
t19 -72t50.5 -49.5t69.5 -17.5t69.5 17.5z" />
    <glyph glyph-name="uni043F" unicode="&#x43f;" horiz-adv-x="576" 
d="M58 494h460v-494h-132v382h-196v-382h-132v494z" />
    <glyph glyph-name="uni0440" unicode="&#x440;" horiz-adv-x="624" 
d="M58 494h132v-52q59 66 159 66q69 0 124.5 -33.5t87 -93t31.5 -134.5q0 -81 -32.5 -140t-88.5 -90t-124 -31q-103 0 -157 61v-273h-132v720zM421.5 147.5q38.5 39.5 38.5 99.5t-38.5 99.5t-99.5 39.5t-99.5 -39.5t-38.5 -99.5t38.5 -99.5t99.5 -39.5t99.5 39.5z" />
    <glyph glyph-name="uni0441" unicode="&#x441;" horiz-adv-x="495" 
d="M167.5 17.5q-61.5 31.5 -98.5 90.5t-37 139t37 139t98.5 90.5t132.5 31.5q91 0 144 -39l5 -139h-14q-34 29 -66 42.5t-69 13.5q-61 0 -98.5 -39t-37.5 -100t37.5 -100t98.5 -39q37 0 69 13.5t66 42.5h14l-5 -139q-53 -39 -144 -39q-71 0 -132.5 31.5z" />
    <glyph glyph-name="uni0442" unicode="&#x442;" horiz-adv-x="517" 
d="M192 382h-154v112h441v-112h-155v-382h-132v382z" />
    <glyph glyph-name="uni0443" unicode="&#x443;" horiz-adv-x="539" 
d="M195 98l-185 396h140l116 -249l121 249h142l-350 -720h-142z" />
    <glyph glyph-name="uni0444" unicode="&#x444;" horiz-adv-x="714" 
d="M647.5 116q-34.5 -57 -94 -90t-130.5 -39v-213h-132v213q-71 6 -130.5 39t-94 90t-34.5 131t34.5 131t94 90t130.5 39v213h132v-213q71 -6 130.5 -39t94 -90t34.5 -131t-34.5 -131zM200.5 154.5q36.5 -36.5 90.5 -44.5v274q-54 -8 -90.5 -44.5t-36.5 -92.5t36.5 -92.5z
M513.5 154.5q36.5 36.5 36.5 92.5t-36.5 92.5t-90.5 44.5v-274q54 8 90.5 44.5z" />
    <glyph glyph-name="uni0445" unicode="&#x445;" horiz-adv-x="511" 
d="M178 257l-147 237h148l76 -132l77 132h148l-148 -237l161 -257h-148l-90 152l-89 -152h-148z" />
    <glyph glyph-name="uni0446" unicode="&#x446;" horiz-adv-x="628" 
d="M462 0h-404v494h132v-382h196v382h132v-383h70v-222h-126v111z" />
    <glyph glyph-name="uni0447" unicode="&#x447;" horiz-adv-x="550" 
d="M360 183q-49 -17 -115 -17q-79 0 -136 41t-57 137v150h132v-123q0 -46 27 -69t76 -23q40 0 73 12v203h132v-494h-132v183z" />
    <glyph glyph-name="uni0448" unicode="&#x448;" horiz-adv-x="766" 
d="M58 494h132v-382h127v382h132v-382h127v382h132v-494h-650v494z" />
    <glyph glyph-name="uni0449" unicode="&#x449;" horiz-adv-x="818" 
d="M652 0h-594v494h132v-382h127v382h132v-382h127v382h132v-383h70v-222h-126v111z" />
    <glyph glyph-name="uni044A" unicode="&#x44a;" horiz-adv-x="560" 
d="M528 166q0 -166 -222 -166h-198v382h-94v112h226v-163h66q222 0 222 -165zM396 166q0 53 -74 53h-82v-107h82q74 0 74 54z" />
    <glyph glyph-name="uni044B" unicode="&#x44b;" horiz-adv-x="735" 
d="M58 494h132v-163h66q222 0 222 -165q0 -166 -222 -166h-198v494zM272 112q74 0 74 54q0 53 -74 53h-82v-107h82zM545 494h132v-494h-132v494z" />
    <glyph glyph-name="uni044C" unicode="&#x44c;" horiz-adv-x="510" 
d="M58 494h132v-163h66q222 0 222 -165q0 -166 -222 -166h-198v494zM272 112q74 0 74 54q0 53 -74 53h-82v-107h82z" />
    <glyph glyph-name="uni044D" unicode="&#x44d;" horiz-adv-x="495" 
d="M329.5 476.5q60.5 -31.5 97 -90.5t36.5 -139t-36.5 -139t-98 -90.5t-133.5 -31.5q-40 0 -78.5 10t-65.5 29l-5 131h14q33 -29 65.5 -42t69.5 -13q47 0 81 26.5t47 68.5h-198v102h198q-13 43 -47 69.5t-81 26.5q-38 0 -70 -12t-65 -41h-14l5 128q27 19 66 29t82 10
q70 0 130.5 -31.5z" />
    <glyph glyph-name="uni044E" unicode="&#x44e;" horiz-adv-x="783" 
d="M338.5 43q-66.5 57 -84.5 148h-64v-191h-132v494h132v-191h64q18 91 84.5 148t161.5 57q73 0 130 -34t89 -94t32 -133t-32 -133t-89 -94t-130 -34q-95 0 -161.5 57zM587.5 146q31.5 38 31.5 101t-31.5 101t-87.5 38t-87.5 -38t-31.5 -101t31.5 -101t87.5 -38t87.5 38z
" />
    <glyph glyph-name="uni044F" unicode="&#x44f;" horiz-adv-x="521" 
d="M134 196q-40 19 -62.5 54t-22.5 84q0 77 54.5 118.5t141.5 41.5h218v-494h-132v174h-78l-100 -174h-135zM331 275v118h-75q-31 0 -53 -15t-22 -44t22 -44t53 -15h75z" />
    <glyph glyph-name="uni0450" unicode="&#x450;" horiz-adv-x="571" 
d="M165 21q-62 35 -97.5 95.5t-35.5 134.5q0 72 33.5 130.5t93 92.5t134.5 34q76 0 131.5 -35.5t84 -94.5t28.5 -127v-39h-379q12 -56 51.5 -85t104.5 -29q99 0 173 65h14l-5 -125q-45 -26 -95 -39t-96 -13q-78 0 -140 35zM405 302q-5 45 -37.5 70.5t-79.5 25.5
q-46 0 -80.5 -24.5t-46.5 -71.5h244zM107 700h165l91 -137h-112z" />
    <glyph glyph-name="uni0451" unicode="&#x451;" horiz-adv-x="571" 
d="M165 21q-62 35 -97.5 95.5t-35.5 134.5q0 72 33.5 130.5t93 92.5t134.5 34q76 0 131.5 -35.5t84 -94.5t28.5 -127v-39h-379q12 -56 51.5 -85t104.5 -29q99 0 173 65h14l-5 -125q-45 -26 -95 -39t-96 -13q-78 0 -140 35zM405 302q-5 45 -37.5 70.5t-79.5 25.5
q-46 0 -80.5 -24.5t-46.5 -71.5h244zM140 577q-21 21 -21 50q0 30 21 51.5t50 21.5t51 -21.5t22 -51.5q0 -29 -22 -50t-51 -21t-50 21zM332 577q-21 21 -21 50q0 30 21 51.5t50 21.5t51 -21.5t22 -51.5q0 -29 -22 -50t-51 -21t-50 21z" />
    <glyph glyph-name="uni0452" unicode="&#x452;" horiz-adv-x="587" 
d="M351.5 -236q-21.5 4 -38.5 13l-11 111h19q14 -9 24 -13.5t23 -4.5q20 0 31.5 13t11.5 39v369q0 43 -28 68t-71 25q-47 0 -81 -35t-34 -96v-253h-132v564h-65v86h65v70h132v-70h137v-86h-137v-128q32 34 74.5 53t90.5 19q78 0 129.5 -46t51.5 -126v-407q0 -86 -43 -127.5
t-110 -41.5q-17 0 -38.5 4z" />
    <glyph glyph-name="uni0453" unicode="&#x453;" horiz-adv-x="458" 
d="M58 494h366v-112h-234v-382h-132v494zM267 700h165l-144 -137h-112z" />
    <glyph glyph-name="uni0454" unicode="&#x454;" horiz-adv-x="495" 
d="M369.5 114q32.5 13 65.5 42h14l-5 -131q-27 -19 -65.5 -29t-78.5 -10q-72 0 -133.5 31.5t-98 90.5t-36.5 139t36.5 139t97 90.5t130.5 31.5q43 0 82 -10t66 -29l5 -128h-14q-33 29 -65 41t-70 12q-47 0 -81 -26.5t-47 -69.5h198v-102h-198q13 -42 47 -68.5t81 -26.5
q37 0 69.5 13z" />
    <glyph glyph-name="uni0455" unicode="&#x455;" horiz-adv-x="424" 
d="M32 34l30 124h6q65 -50 133 -50q28 0 45.5 10.5t17.5 30.5q0 21 -20.5 34t-76.5 32q-57 19 -88.5 55t-31.5 85q0 69 51.5 111t130.5 42q40 0 71 -7.5t59 -24.5l5 -126h-7q-36 23 -64 34.5t-63 11.5q-25 0 -41 -10t-16 -26q0 -21 20 -34.5t75 -32.5q63 -21 95.5 -51
t32.5 -93q0 -52 -26 -89t-68.5 -55.5t-93.5 -18.5q-103 0 -176 48z" />
    <glyph glyph-name="uni0456" unicode="&#x456;" horiz-adv-x="248" 
d="M65 586q-24 24 -24 58q0 35 24 59.5t58 24.5q35 0 59.5 -24.5t24.5 -59.5q0 -34 -24.5 -58t-59.5 -24q-34 0 -58 24zM58 494h132v-494h-132v494z" />
    <glyph glyph-name="uni0457" unicode="&#x457;" horiz-adv-x="282" 
d="M2.5 588.5q-22.5 21.5 -22.5 57.5t22.5 57.5t50.5 21.5t51 -22t23 -57q0 -36 -22.5 -57.5t-51.5 -21.5q-28 0 -50.5 21.5zM177.5 588.5q-22.5 21.5 -22.5 57.5q0 35 23 57t51 22t50.5 -21.5t22.5 -57.5t-22.5 -57.5t-50.5 -21.5q-29 0 -51.5 21.5zM75 494h132v-494h-132
v494z" />
    <glyph glyph-name="uni0458" unicode="&#x458;" horiz-adv-x="254" 
d="M68 586q-24 24 -24 58q0 35 24 59.5t58 24.5q35 0 59.5 -24.5t24.5 -59.5q0 -34 -24.5 -58t-59.5 -24q-34 0 -58 24zM-34 -223l-12 108h20q14 -9 22.5 -12t24.5 -3q19 0 29 11.5t10 33.5v579h132v-567q0 -85 -45 -126t-114 -41q-39 0 -67 17z" />
    <glyph glyph-name="uni0459" unicode="&#x459;" horiz-adv-x="835" 
d="M63.5 -9.5q-17.5 4.5 -27.5 10.5l-10 101h18q15 -16 33 -16q28 0 31 46l25 362h382v-163h66q222 0 222 -165q0 -166 -222 -166h-198v382h-137l-20 -271q-5 -59 -37.5 -92t-88.5 -33q-19 0 -36.5 4.5zM597 112q74 0 74 54q0 53 -74 53h-82v-107h82z" />
    <glyph glyph-name="uni045A" unicode="&#x45a;" horiz-adv-x="858" 
d="M58 494h132v-163h216v163h132v-163h66q222 0 222 -165q0 -166 -222 -166h-198v219h-216v-219h-132v494zM620 112q74 0 74 54q0 53 -74 53h-82v-107h82z" />
    <glyph glyph-name="uni045B" unicode="&#x45b;" horiz-adv-x="588" 
d="M58 564h-58v86h58v70h132v-70h140v-86h-140v-131q26 34 71.5 54.5t94.5 20.5q82 0 131 -43.5t49 -127.5v-337h-132v290q0 48 -25 72t-69 24q-49 0 -84.5 -36t-35.5 -95v-255h-132v564z" />
    <glyph glyph-name="uni045C" unicode="&#x45c;" horiz-adv-x="546" 
d="M58 494h132v-203l174 203h161l-200 -230l211 -264h-168l-178 229v-229h-132v494zM269 700h162l-142 -137h-112z" />
    <glyph glyph-name="uni045D" unicode="&#x45d;" horiz-adv-x="581" 
d="M58 494h132v-274l238 274h95v-494h-132v274l-238 -274h-95v494zM111 700h165l91 -137h-112z" />
    <glyph glyph-name="uni045E" unicode="&#x45e;" horiz-adv-x="539" 
d="M195 98l-185 396h140l116 -249l121 249h142l-350 -720h-142zM178 594.5q-34 32.5 -34 85.5h86q2 -16 11.5 -27t28.5 -11t28.5 11t11.5 27h86q0 -53 -34 -85.5t-92 -32.5t-92 32.5z" />
    <glyph glyph-name="uni045F" unicode="&#x45f;" horiz-adv-x="576" 
d="M225 0h-167v494h132v-382h196v382h132v-494h-167v-111h-126v111z" />
    <glyph glyph-name="uni0462" unicode="&#x462;" horiz-adv-x="642" 
d="M543 377.5q69 -58.5 69 -159.5t-69 -159.5t-188 -58.5h-204v494h-131v114h131v92h142v-92h166v-114h-166v-58h62q119 0 188 -58.5zM442.5 147.5q27.5 25.5 27.5 70.5t-27.5 70.5t-86.5 25.5h-63v-192h63q59 0 86.5 25.5z" />
    <glyph glyph-name="uni0463" unicode="&#x463;" horiz-adv-x="572" 
d="M120 393h-106v101h106v226h132v-226h153v-101h-153v-62h66q222 0 222 -165q0 -166 -222 -166h-198v393zM334 112q74 0 74 54q0 53 -74 53h-82v-107h82z" />
    <glyph glyph-name="uni0472" unicode="&#x472;" horiz-adv-x="815" 
d="M596 666.5q86 -47.5 135.5 -130.5t49.5 -186t-49.5 -186t-135.5 -130.5t-189 -47.5t-188.5 47.5t-135 130.5t-49.5 186t49.5 186t135 130.5t188.5 47.5t189 -47.5zM264.5 545q-61.5 -44 -82.5 -122q55 30 108 30q38 0 66 -11.5t63 -33.5q32 -19 53.5 -28.5t49.5 -9.5
q35 0 60.5 8.5t53.5 27.5q-17 85 -79.5 134t-149.5 49q-81 0 -142.5 -44zM551 155.5q61 44.5 81 123.5q-55 -29 -106 -29q-38 0 -66 11.5t-63 33.5q-32 19 -53.5 28.5t-49.5 9.5q-35 0 -61.5 -8.5t-54.5 -29.5q16 -85 79.5 -134.5t149.5 -49.5q83 0 144 44.5z" />
    <glyph glyph-name="uni0473" unicode="&#x473;" horiz-adv-x="606" 
d="M167.5 20.5q-62.5 34.5 -99 94.5t-36.5 132t36.5 132t99 94.5t135.5 34.5t135.5 -34.5t99 -94.5t36.5 -132t-36.5 -132t-99 -94.5t-135.5 -34.5t-135.5 34.5zM448 291q-14 49 -54.5 79.5t-90.5 30.5q-46 0 -84 -25.5t-55 -67.5q26 14 60 14q27 0 46 -6t43 -18
q22 -11 40 -17t42 -6q27 0 53 16zM387 118.5q38 25.5 55 67.5q-26 -14 -60 -14q-27 0 -46 6t-43 18q-22 11 -40 17t-42 6q-27 0 -53 -16q14 -49 54.5 -79.5t90.5 -30.5q46 0 84 25.5z" />
    <glyph glyph-name="uni0474" unicode="&#x474;" horiz-adv-x="766" 
d="M15 700h152l189 -440l129 299q34 78 75 116.5t110 38.5q20 0 42 -5.5t39 -15.5l-30 -112q-17 7 -28 7q-26 0 -41.5 -14.5t-30.5 -48.5l-234 -525h-63z" />
    <glyph glyph-name="uni0475" unicode="&#x475;" horiz-adv-x="596" 
d="M14 494h139l120 -277l84 188q24 52 58.5 77.5t85.5 25.5q48 0 84 -18l-27 -101q-18 9 -37 9q-33 0 -56 -45l-170 -353h-44z" />
    <glyph glyph-name="uni0490" unicode="&#x490;" horiz-adv-x="551" 
d="M62 700h304v119h137v-239h-299v-580h-142v700z" />
    <glyph glyph-name="uni0491" unicode="&#x491;" horiz-adv-x="458" 
d="M58 494h234v98h132v-210h-234v-382h-132v494z" />
    <glyph glyph-name="uni0E3F" unicode="&#xe3f;" horiz-adv-x="608" 
d="M539.5 307q38.5 -45 38.5 -109q0 -63 -31 -107.5t-84 -67.5t-117 -23h-14v-76h-75v76h-195v700h195v76h75v-77q102 -4 157.5 -52t55.5 -126q0 -54 -29.5 -93.5t-76.5 -59.5q62 -16 100.5 -61zM204 420h53v158h-53v-158zM389 551.5q-15 19.5 -57 24.5v-154q42 5 57 24.5
t15 52.5t-15 52.5zM257 122v176h-53v-176h53zM436 210q0 88 -103 88h-1v-176h1q103 0 103 88z" />
    <glyph glyph-name="Wgrave" unicode="&#x1e80;" horiz-adv-x="996" 
d="M22 700h154l133 -393l151 393h76l151 -393l133 393h154l-240 -700h-62l-174 452l-174 -452h-62zM454 769l-144 137h165l91 -137h-112z" />
    <glyph glyph-name="wgrave" unicode="&#x1e81;" horiz-adv-x="778" 
d="M12 494h136l105 -259l108 259h56l108 -259l105 259h136l-219 -494h-32l-126 300l-126 -300h-32zM209 700h165l91 -137h-112z" />
    <glyph glyph-name="Wacute" unicode="&#x1e82;" horiz-adv-x="996" 
d="M22 700h154l133 -393l151 393h76l151 -393l133 393h154l-240 -700h-62l-174 452l-174 -452h-62zM521 906h165l-144 -137h-112z" />
    <glyph glyph-name="wacute" unicode="&#x1e83;" horiz-adv-x="778" 
d="M12 494h136l105 -259l108 259h56l108 -259l105 259h136l-219 -494h-32l-126 300l-126 -300h-32zM400 700h165l-144 -137h-112z" />
    <glyph glyph-name="Wdieresis" unicode="&#x1e84;" horiz-adv-x="996" 
d="M22 700h154l133 -393l151 393h76l151 -393l133 393h154l-240 -700h-62l-174 452l-174 -452h-62zM351 783q-21 21 -21 50q0 30 21 51.5t50 21.5t51 -21.5t22 -51.5q0 -29 -22 -50t-51 -21t-50 21zM543 783q-21 21 -21 50q0 30 21 51.5t50 21.5t51 -21.5t22 -51.5
q0 -29 -22 -50t-51 -21t-50 21z" />
    <glyph glyph-name="wdieresis" unicode="&#x1e85;" horiz-adv-x="778" 
d="M12 494h136l105 -259l108 259h56l108 -259l105 259h136l-219 -494h-32l-126 300l-126 -300h-32zM242 577q-21 21 -21 50q0 30 21 51.5t50 21.5t51 -21.5t22 -51.5q0 -29 -22 -50t-51 -21t-50 21zM434 577q-21 21 -21 50q0 30 21 51.5t50 21.5t51 -21.5t22 -51.5
q0 -29 -22 -50t-51 -21t-50 21z" />
    <glyph glyph-name="uni1E9E" unicode="&#x1e9e;" horiz-adv-x="639" 
d="M251 26l8 116h16q24 -18 44.5 -25.5t45.5 -7.5q39 0 69.5 27t30.5 82q0 58 -36 86.5t-98 28.5q-39 0 -56 -1v101l95 147h-166v-580h-142v700h472v-71l-128 -195q88 -8 143.5 -65.5t55.5 -151.5q0 -67 -29 -119.5t-80.5 -82t-116.5 -29.5q-73 0 -128 40z" />
    <glyph glyph-name="Ygrave" unicode="&#x1ef2;" horiz-adv-x="614" 
d="M236 296l-222 404h157l136 -269l136 269h157l-222 -404v-296h-142v296zM263 769l-144 137h165l91 -137h-112z" />
    <glyph glyph-name="ygrave" unicode="&#x1ef3;" horiz-adv-x="539" 
d="M195 98l-185 396h140l116 -249l121 249h142l-350 -720h-142zM90 700h165l91 -137h-112z" />
    <glyph glyph-name="endash" unicode="&#x2013;" horiz-adv-x="554" 
d="M38 370h478v-106h-478v106z" />
    <glyph glyph-name="emdash" unicode="&#x2014;" horiz-adv-x="804" 
d="M38 370h728v-106h-728v106z" />
    <glyph glyph-name="quoteleft" unicode="&#x2018;" horiz-adv-x="242" 
d="M65.5 466q-21.5 24 -21.5 61q0 111 116 183l21 -21q-53 -39 -58 -93q31 0 53 -22t22 -54t-22.5 -55t-53.5 -23q-35 0 -56.5 24z" />
    <glyph glyph-name="quoteright" unicode="&#x2019;" horiz-adv-x="242" 
d="M61 463q53 39 58 93q-31 0 -53 22t-22 54t22.5 55t53.5 23q35 0 56.5 -24t21.5 -61q0 -111 -116 -183z" />
    <glyph glyph-name="quotesinglbase" unicode="&#x201a;" horiz-adv-x="242" 
d="M61 -93q53 39 58 93q-31 0 -53 22t-22 54t22.5 55t53.5 23q35 0 56.5 -24t21.5 -61q0 -111 -116 -183z" />
    <glyph glyph-name="quotedblleft" unicode="&#x201c;" horiz-adv-x="433" 
d="M65.5 466q-21.5 24 -21.5 61q0 111 116 183l21 -21q-53 -39 -58 -93q31 0 53 -22t22 -54t-22.5 -55t-53.5 -23q-35 0 -56.5 24zM256.5 466q-21.5 24 -21.5 61q0 111 116 183l21 -21q-53 -39 -58 -93q31 0 53 -22t22 -54t-22.5 -55t-53.5 -23q-35 0 -56.5 24z" />
    <glyph glyph-name="quotedblright" unicode="&#x201d;" horiz-adv-x="433" 
d="M61 463q53 39 58 93q-31 0 -53 22t-22 54t22.5 55t53.5 23q35 0 56.5 -24t21.5 -61q0 -111 -116 -183zM252 463q53 39 58 93q-31 0 -53 22t-22 54t22.5 55t53.5 23q35 0 56.5 -24t21.5 -61q0 -111 -116 -183z" />
    <glyph glyph-name="quotedblbase" unicode="&#x201e;" horiz-adv-x="433" 
d="M61 -93q53 39 58 93q-31 0 -53 22t-22 54t22.5 55t53.5 23q35 0 56.5 -24t21.5 -61q0 -111 -116 -183zM252 -93q53 39 58 93q-31 0 -53 22t-22 54t22.5 55t53.5 23q35 0 56.5 -24t21.5 -61q0 -111 -116 -183z" />
    <glyph glyph-name="dagger" unicode="&#x2020;" horiz-adv-x="380" 
d="M123 388h-107v106h107v206h132v-206h109v-106h-109v-614h-132v614z" />
    <glyph glyph-name="daggerdbl" unicode="&#x2021;" horiz-adv-x="380" 
d="M123 0h-107v106h107v282h-107v106h107v206h132v-206h109v-106h-109v-282h109v-106h-109v-226h-132v226z" />
    <glyph glyph-name="bullet" unicode="&#x2022;" horiz-adv-x="358" 
d="M97.5 218.5q-33.5 33.5 -33.5 81.5t33.5 81.5t81.5 33.5t81.5 -33.5t33.5 -81.5t-33.5 -81.5t-81.5 -33.5t-81.5 33.5z" />
    <glyph glyph-name="ellipsis" unicode="&#x2026;" horiz-adv-x="704" 
d="M66.5 8.5q-22.5 22.5 -22.5 53.5q0 32 22.5 55t53.5 23q32 0 55 -23t23 -55q0 -31 -23 -53.5t-55 -22.5q-31 0 -53.5 22.5zM297.5 8.5q-22.5 22.5 -22.5 53.5q0 32 22.5 55t53.5 23q32 0 55 -23t23 -55q0 -31 -23 -53.5t-55 -22.5q-31 0 -53.5 22.5zM528.5 8.5
q-22.5 22.5 -22.5 53.5q0 32 22.5 55t53.5 23q32 0 55 -23t23 -55q0 -31 -23 -53.5t-55 -22.5q-31 0 -53.5 22.5z" />
    <glyph glyph-name="perthousand" unicode="&#x2030;" horiz-adv-x="1088" 
d="M121.5 419q-37.5 21 -59.5 57t-22 80t22 80t59.5 57t82.5 21t82.5 -21t59.5 -57t22 -80t-22 -80t-59.5 -57t-82.5 -21t-82.5 21zM255 504q21 20 21 52t-21 52t-51 20t-51 -20t-21 -52t21 -52t51 -20t51 20zM158 161l332 412l56 -45l-331 -412zM441.5 7q-37.5 21 -59.5 57
t-22 80t22 80t59.5 57t82.5 21t82.5 -21t59.5 -57t22 -80t-22 -80t-59.5 -57t-82.5 -21t-82.5 21zM801.5 7q-37.5 21 -59.5 57t-22 80t22 80t59.5 57t82.5 21t82.5 -21t59.5 -57t22 -80t-22 -80t-59.5 -57t-82.5 -21t-82.5 21zM575 92q21 20 21 52t-21 52t-51 20t-51 -20
t-21 -52t21 -52t51 -20t51 20zM935 92q21 20 21 52t-21 52t-51 20t-51 -20t-21 -52t21 -52t51 -20t51 20z" />
    <glyph glyph-name="guilsinglleft" unicode="&#x2039;" horiz-adv-x="329" 
d="M32 282v70l236 202h21v-122l-133 -115l133 -115v-122h-21z" />
    <glyph glyph-name="guilsinglright" unicode="&#x203a;" horiz-adv-x="329" 
d="M40 202l133 115l-133 115v122h21l236 -202v-70l-236 -202h-21v122z" />
    <glyph glyph-name="uni203D" unicode="&#x203d;" horiz-adv-x="470" 
d="M52 527h-14l8 132q53 40 125 51v59h96v-59q72 -12 118.5 -57t46.5 -117q0 -55 -23.5 -92.5t-67.5 -81.5q-34 -35 -50 -58.5t-16 -53.5v-27h-104v380q-69 -14 -119 -76zM301.5 566.5q-12.5 17.5 -34.5 27.5v-166q23 25 35 47.5t12 48.5q0 25 -12.5 42.5zM275.5 125.5
q23.5 -23.5 23.5 -56.5q0 -34 -23.5 -57t-56.5 -23q-34 0 -57.5 23t-23.5 57q0 33 23.5 56.5t57.5 23.5q33 0 56.5 -23.5z" />
    <glyph glyph-name="fraction" unicode="&#x2044;" horiz-adv-x="188" 
d="M-100 161l332 412l56 -45l-331 -412z" />
    <glyph glyph-name="uni2048" unicode="&#x2048;" horiz-adv-x="664" 
d="M146 239q0 62 21.5 101.5t61.5 82.5q29 31 43 53.5t14 51.5q0 33 -23 52.5t-64 19.5q-42 0 -82 -25.5t-66 -57.5h-13l9 145q34 24 77.5 38t88.5 14q91 0 148 -44.5t57 -127.5q0 -56 -20 -92.5t-58 -78.5q-32 -35 -47 -60t-15 -60v-31h-132v19zM158.5 9.5
q-23.5 23.5 -23.5 57.5t23.5 57.5t57.5 23.5t57.5 -23.5t23.5 -57.5t-23.5 -57.5t-57.5 -23.5t-57.5 23.5zM471 700h132v-480h-132v480zM479.5 9.5q-23.5 23.5 -23.5 57.5t23.5 57.5t57.5 23.5t57.5 -23.5t23.5 -57.5t-23.5 -57.5t-57.5 -23.5t-57.5 23.5z" />
    <glyph glyph-name="uni2049" unicode="&#x2049;" horiz-adv-x="676" 
d="M61 700h132v-480h-132v480zM69.5 9.5q-23.5 23.5 -23.5 57.5t23.5 57.5t57.5 23.5t57.5 -23.5t23.5 -57.5t-23.5 -57.5t-57.5 -23.5t-57.5 23.5zM366 239q0 62 21.5 101.5t61.5 82.5q29 31 43 53.5t14 51.5q0 33 -23 52.5t-64 19.5q-42 0 -82 -25.5t-66 -57.5h-13l9 145
q34 24 77.5 38t88.5 14q91 0 148 -44.5t57 -127.5q0 -56 -20 -92.5t-58 -78.5q-32 -35 -47 -60t-15 -60v-31h-132v19zM378.5 9.5q-23.5 23.5 -23.5 57.5t23.5 57.5t57.5 23.5t57.5 -23.5t23.5 -57.5t-23.5 -57.5t-57.5 -23.5t-57.5 23.5z" />
    <glyph glyph-name="uni2070" unicode="&#x2070;" horiz-adv-x="358" 
d="M65 553q-42 51 -42 131t42 131t114 51t114 -51t42 -131t-42 -131t-114 -51t-114 51zM234.5 602.5q18.5 28.5 18.5 81.5t-18.5 81.5t-55.5 28.5t-55.5 -28.5t-18.5 -81.5t18.5 -81.5t55.5 -28.5t55.5 28.5z" />
    <glyph glyph-name="uni2074" unicode="&#x2074;" horiz-adv-x="308" 
d="M169 577h-159v59l190 223h51v-210h44v-72h-44v-68h-82v68zM169 649v81l-67 -81h67z" />
    <glyph glyph-name="uni2075" unicode="&#x2075;" horiz-adv-x="286" 
d="M85.5 509q-18.5 3 -45.5 11l-17 87h12q40 -28 89 -28q30 0 46.5 13.5t16.5 38.5q0 27 -17 40.5t-46 13.5q-21 0 -39.5 -5.5t-41.5 -15.5l-20 3l23 196h208v-70h-146l-9 -52q20 8 50 8q58 0 89 -31t31 -87q0 -58 -38.5 -91.5t-98.5 -33.5q-28 0 -46.5 3z" />
    <glyph glyph-name="uni2076" unicode="&#x2076;" horiz-adv-x="300" 
d="M54.5 547q-34.5 45 -34.5 120q0 83 40.5 141t115.5 58q41 0 69 -19l8 -77h-11q-33 26 -66 26q-29 0 -48.5 -20.5t-26.5 -61.5q30 21 68 21q50 0 82 -31.5t32 -81.5t-37 -85t-91 -35q-66 0 -100.5 45zM192 582.5q14 14.5 14 37.5t-14 37.5t-38 14.5q-23 0 -37 -14.5
t-14 -37.5t14 -37.5t37 -14.5q24 0 38 14.5z" />
    <glyph glyph-name="uni2077" unicode="&#x2077;" horiz-adv-x="286" 
d="M164 787h-147v72h259v-15l-167 -335h-86z" />
    <glyph glyph-name="uni2078" unicode="&#x2078;" horiz-adv-x="288" 
d="M54 534q-34 32 -34 75q0 33 13.5 54t38.5 35q-20 16 -30 34.5t-10 41.5q0 38 31.5 65t80.5 27t80.5 -27t31.5 -65q0 -23 -10 -41.5t-30 -34.5q25 -14 38.5 -35t13.5 -54q0 -27 -15 -52t-43.5 -40t-65.5 -15q-56 0 -90 32zM171 741.5q10 10.5 10 26.5t-10 27t-27 11
t-27 -11t-10 -27t10 -26.5t27 -10.5t27 10.5zM178 579.5q14 13.5 14 36.5t-14 37t-34 14t-34 -14t-14 -37t14 -36.5t34 -13.5t34 13.5z" />
    <glyph glyph-name="uni2079" unicode="&#x2079;" horiz-adv-x="300" 
d="M55 521l-8 77h11q33 -26 66 -26q29 0 48.5 20.5t26.5 61.5q-30 -21 -68 -21q-50 0 -82 31.5t-32 81.5t37 85t91 35q66 0 100.5 -45t34.5 -120q0 -83 -40.5 -141t-115.5 -58q-41 0 -69 19zM183 710.5q14 14.5 14 37.5t-14 37.5t-37 14.5q-24 0 -38 -14.5t-14 -37.5
t14 -37.5t38 -14.5q23 0 37 14.5z" />
    <glyph glyph-name="uni2080" unicode="&#x2080;" horiz-adv-x="358" 
d="M65 -182q-42 51 -42 131t42 131t114 51t114 -51t42 -131t-42 -131t-114 -51t-114 51zM234.5 -132.5q18.5 28.5 18.5 81.5t-18.5 81.5t-55.5 28.5t-55.5 -28.5t-18.5 -81.5t18.5 -81.5t55.5 -28.5t55.5 28.5z" />
    <glyph glyph-name="uni2081" unicode="&#x2081;" horiz-adv-x="142" 
d="M30 91l47 33h35v-350h-82v317z" />
    <glyph glyph-name="uni2082" unicode="&#x2082;" horiz-adv-x="293" 
d="M14 -210l131 163q28 35 28 67q0 18 -13 30t-35 12q-43 0 -75 -53h-22l4 83q18 18 47.5 28.5t60.5 10.5q58 0 89 -27.5t31 -72.5q0 -30 -12.5 -57.5t-40.5 -61.5l-55 -66h120v-72h-258v16z" />
    <glyph glyph-name="uni2083" unicode="&#x2083;" horiz-adv-x="300" 
d="M83 -227q-28 6 -44 15l-8 84h13q24 -16 45 -25t44 -9q61 0 61 59q0 26 -16.5 41.5t-45.5 15.5q-8 0 -38 -5l-13 26l58 77h-112v72h240v-10l-79 -102q41 -10 65.5 -38.5t24.5 -76.5q0 -62 -38 -96t-100 -34q-29 0 -57 6z" />
    <glyph glyph-name="uni2084" unicode="&#x2084;" horiz-adv-x="308" 
d="M169 -158h-159v59l190 223h51v-210h44v-72h-44v-68h-82v68zM169 -86v81l-67 -81h67z" />
    <glyph glyph-name="uni2085" unicode="&#x2085;" horiz-adv-x="286" 
d="M85.5 -230q-18.5 3 -45.5 11l-17 87h12q40 -28 89 -28q30 0 46.5 13.5t16.5 38.5q0 27 -17 40.5t-46 13.5q-21 0 -39.5 -5.5t-41.5 -15.5l-20 3l23 196h208v-70h-146l-9 -52q20 8 50 8q58 0 89 -31t31 -87q0 -58 -38.5 -91.5t-98.5 -33.5q-28 0 -46.5 3z" />
    <glyph glyph-name="uni2086" unicode="&#x2086;" horiz-adv-x="300" 
d="M54.5 -188q-34.5 45 -34.5 120q0 83 40.5 141t115.5 58q41 0 69 -19l8 -77h-11q-33 26 -66 26q-29 0 -48.5 -20.5t-26.5 -61.5q30 21 68 21q50 0 82 -31.5t32 -81.5t-37 -85t-91 -35q-66 0 -100.5 45zM192 -152.5q14 14.5 14 37.5t-14 37.5t-38 14.5q-23 0 -37 -14.5
t-14 -37.5t14 -37.5t37 -14.5q24 0 38 14.5z" />
    <glyph glyph-name="uni2087" unicode="&#x2087;" horiz-adv-x="286" 
d="M164 52h-147v72h259v-15l-167 -335h-86z" />
    <glyph glyph-name="uni2088" unicode="&#x2088;" horiz-adv-x="288" 
d="M54 -201q-34 32 -34 75q0 33 13.5 54t38.5 35q-20 16 -30 34.5t-10 41.5q0 38 31.5 65t80.5 27t80.5 -27t31.5 -65q0 -23 -10 -41.5t-30 -34.5q25 -14 38.5 -35t13.5 -54q0 -27 -15 -52t-43.5 -40t-65.5 -15q-56 0 -90 32zM171 6.5q10 10.5 10 26.5t-10 27t-27 11
t-27 -11t-10 -27t10 -26.5t27 -10.5t27 10.5zM178 -155.5q14 13.5 14 36.5t-14 37t-34 14t-34 -14t-14 -37t14 -36.5t34 -13.5t34 13.5z" />
    <glyph glyph-name="uni2089" unicode="&#x2089;" horiz-adv-x="300" 
d="M55 -214l-8 77h11q33 -26 66 -26q29 0 48.5 20.5t26.5 61.5q-30 -21 -68 -21q-50 0 -82 31.5t-32 81.5t37 85t91 35q32 0 59 -12t43 -35q33 -46 33 -118q0 -83 -40.5 -141t-115.5 -58q-41 0 -69 19zM183 -24.5q14 14.5 14 37.5t-14 37.5t-37 14.5q-24 0 -38 -14.5
t-14 -37.5t14 -37.5t38 -14.5q23 0 37 14.5z" />
    <glyph glyph-name="franc" unicode="&#x20a3;" horiz-adv-x="566" 
d="M204 578v-182h303v-122h-303v-78h143v-122h-143v-74h-142v74h-52v122h52v504h456v-122h-314z" />
    <glyph glyph-name="uni20A8" unicode="&#x20a8;" horiz-adv-x="1015" 
d="M62 700h221q104 0 169.5 -54t65.5 -148q0 -68 -35 -116t-97 -70l187 -312h-157l-178 296h-34v-296h-142v700zM271 418q105 0 105 80t-105 80h-67v-160h67zM623 34l30 124h6q65 -50 133 -50q28 0 45.5 10.5t17.5 30.5q0 21 -20.5 34t-76.5 32q-57 19 -88.5 55t-31.5 85
q0 69 51.5 111t130.5 42q40 0 71 -7.5t59 -24.5l5 -126h-7q-36 23 -64 34.5t-63 11.5q-25 0 -41 -10t-16 -26q0 -21 20 -34.5t75 -32.5q63 -21 95.5 -51t32.5 -93q0 -52 -26 -89t-68.5 -55.5t-93.5 -18.5q-103 0 -176 48z" />
    <glyph glyph-name="uni20A9" unicode="&#x20a9;" horiz-adv-x="986" 
d="M885 429h88v-50h-104l-125 -379h-62l-136 379h-96l-136 -379h-62l-125 379h-103v50h87l-89 271h144l85 -271h83l96 271h136l95 -271h74l85 271h154zM528 429l-30 83l-30 -83h60zM317 379h-50l23 -75zM719 379h-40l21 -60z" />
    <glyph glyph-name="uni20AA" unicode="&#x20aa;" horiz-adv-x="842" 
d="M62 700h351q175 0 175 -156v-346h-142v286q0 55 -21.5 75.5t-73.5 20.5h-147v-580h-142v700zM254 156v346h142v-286q0 -55 21.5 -75.5t73.5 -20.5h147v580h142v-700h-351q-175 0 -175 156z" />
    <glyph glyph-name="dong" unicode="&#x20ab;" horiz-adv-x="556" 
d="M137 150q-45 27 -71 74t-26 105t26 105t72 74t103 27q73 0 116 -43v74h-99v87h99v47h123v-47h56v-87h-56v-432h-123v36q-45 -47 -119 -47q-56 0 -101 27zM323.5 258.5q26.5 28.5 26.5 70.5t-26.5 70.5t-70.5 28.5t-70.5 -28.5t-26.5 -70.5t26.5 -70.5t70.5 -28.5
t70.5 28.5zM62 87h418v-87h-418v87z" />
    <glyph glyph-name="Euro" unicode="&#x20ac;" horiz-adv-x="648" 
d="M273 18.5q-69 32.5 -115 89t-65 126.5h-77l30 86h32q-1 10 -1 30t1 30h-62l30 86h47q34 111 121 179.5t211 68.5q49 0 92.5 -12t73.5 -35l11 -130h-16q-43 32 -79.5 44t-85.5 12q-64 0 -113 -33.5t-73 -93.5h263l-30 -86h-251q-1 -9 -1 -30t1 -30h281l-30 -86h-233
q23 -59 72.5 -93t113.5 -34q49 0 85.5 12t79.5 44h16l-11 -130q-30 -23 -73.5 -35t-92.5 -12q-83 0 -152 32.5z" />
    <glyph glyph-name="uni20AD" unicode="&#x20ad;" horiz-adv-x="666" 
d="M255 290h-23v-290h-142v290h-55v120h55v290h142v-290h22l223 290h154l-225 -290h194v-120h-175l231 -290h-168z" />
    <glyph glyph-name="uni20B1" unicode="&#x20b1;" horiz-adv-x="656" 
d="M626 501h-64q1 -6 1 -19t-1 -19h64v-50h-73q-21 -70 -85.5 -109.5t-161.5 -39.5h-62v-264h-142v413h-72v50h72v38h-72v50h72v149h204q97 0 161.5 -39.5t85.5 -109.5h73v-50zM244 551h151q-29 27 -88 27h-63v-27zM420 501h-176v-38h176q1 6 1 19t-1 19zM395 413h-151v-27
h63q59 0 88 27z" />
    <glyph glyph-name="uni20B4" unicode="&#x20b4;" horiz-adv-x="609" 
d="M443 368q-35 -26 -70 -47h194v-83h-318q-25 -28 -25 -61q0 -35 25.5 -52.5t72.5 -17.5q53 0 95 21t88 59h13l5 -137q-34 -29 -86 -46.5t-115 -17.5q-108 0 -171 51t-63 140q0 33 9 61h-55v83h105q18 20 55 47h-160v83h301q31 19 47 38t16 43q0 30 -26.5 49t-71.5 19
q-87 0 -167 -78h-15l6 138q25 23 72 38.5t107 15.5q103 0 164 -49.5t61 -134.5q0 -43 -18 -79h49v-83h-124z" />
    <glyph glyph-name="uni20B8" unicode="&#x20b8;" horiz-adv-x="546" 
d="M34 700h478v-120h-478v120zM202 410h-168v120h478v-120h-168v-410h-142v410z" />
    <glyph glyph-name="uni20B9" unicode="&#x20b9;" horiz-adv-x="655" 
d="M490 598q14 -24 20 -48h83v-102h-79q-13 -77 -71.5 -120.5t-145.5 -43.5h-48l324 -284h-167l-344 311v75h209q78 0 99 62h-308v102h302q-26 48 -93 48h-209v102h531v-102h-103z" />
    <glyph glyph-name="uni20BA" unicode="&#x20ba;" horiz-adv-x="615" 
d="M585 285q0 -156 -88 -220.5t-257 -64.5h-142v193l-78 -31v120l78 31v70l-78 -31v120l78 31v197h142v-140l117 47v-120l-117 -47v-70l117 47v-120l-117 -47v-130q108 0 154.5 38t48.5 127h142z" />
    <glyph glyph-name="uni20BD" unicode="&#x20bd;" horiz-adv-x="603" 
d="M254 264v-71h193v-121h-193v-72h-142v72h-82v121h82v69h-82v121h82v317h204q119 0 188 -58.5t69 -159.5t-69 -159.5t-188 -58.5h-62zM254 386h63q59 0 86.5 25.5t27.5 70.5t-27.5 70.5t-86.5 25.5h-63v-192z" />
    <glyph glyph-name="uni20BF" unicode="&#x20bf;" horiz-adv-x="608" 
d="M534.5 74q-43.5 -49 -114.5 -66v-86h-107v78h-73v-78h-106v78h-72v700h72v78h106v-78h69h4v78h107v-94q61 -19 93 -62t32 -101q0 -54 -29.5 -93.5t-76.5 -59.5q62 -16 100.5 -61t38.5 -109q0 -75 -43.5 -124zM383 557q-21 21 -79 21h-100v-158h100q58 0 79 21t21 58
t-21 58zM436 210q0 88 -103 88h-129v-176h129q103 0 103 88z" />
    <glyph glyph-name="uni2113" unicode="&#x2113;" horiz-adv-x="507" 
d="M237.5 88.5q31.5 -34.5 80.5 -34.5q32 0 59 13t66 46v-79q-67 -48 -130 -48q-69 0 -116.5 46.5t-75.5 125.5q-37 -15 -81 -30v68q37 14 47 17l19 8q-14 71 -14 141q0 106 25 185.5t73 123t114 43.5q77 0 120 -52.5t43 -139.5q0 -81 -28.5 -141t-89.5 -105
q-67 -49 -164 -92q21 -61 52.5 -95.5zM169 248q60 26 101 53q65 41 96 93.5t31 127.5q0 60 -24 92t-71 32q-66 0 -104 -76t-38 -208q0 -48 9 -114z" />
    <glyph glyph-name="uni2116" unicode="&#x2116;" horiz-adv-x="1213" 
d="M848 314.5q-51 28.5 -81 77.5t-30 108t30 108t81 77.5t111 28.5t111 -28.5t81 -77.5t30 -108t-30 -108t-81 -77.5t-111 -28.5t-111 28.5zM62 700h60l385 -417v417h142v-700h-60l-385 417v-417h-142v700zM1023 435q26 25 26 65t-26 65t-64 25t-64 -25t-26 -65t26 -65
t64 -25t64 25zM747 239h424v-120h-424v120z" />
    <glyph glyph-name="uni2117" unicode="&#x2117;" horiz-adv-x="812" 
d="M215 34.5q-85 48.5 -133 132t-48 183.5t48 183.5t133 132t191 48.5t191 -48.5t133 -132t48 -183.5t-48 -183.5t-133 -132t-191 -48.5t-191 48.5zM547 109q62 37 96.5 101t34.5 140t-34.5 140t-96.5 101t-141 37t-141 -37t-96.5 -101t-34.5 -140t34.5 -140t96.5 -101
t141 -37t141 37zM285 544h132q63 0 100 -31t37 -84q0 -54 -37 -85t-100 -31h-42v-141h-90v372zM403 382q32 0 46.5 11.5t14.5 35.5q0 23 -14.5 34.5t-46.5 11.5h-28v-93h28z" />
    <glyph glyph-name="uni2120" unicode="&#x2120;" horiz-adv-x="872" 
d="M105.5 300q-33.5 11 -55.5 31l5 105h18q24 -32 48 -47t51 -15q21 0 32.5 10.5t11.5 30.5q0 17 -10 25.5t-28 16.5t-26 12q-51 24 -75 53.5t-24 68.5q0 51 36 84t90 33q69 0 106 -35l3 -95h-20q-44 48 -88 48q-39 0 -39 -31q0 -14 15 -25.5t59 -30.5q51 -23 74.5 -53
t23.5 -70q0 -57 -38 -92t-99 -35q-37 0 -70.5 11zM431 700h38l103 -228l104 228h38l108 -404h-95l-52 186l-88 -186h-29l-88 186l-52 -186h-97z" />
    <glyph glyph-name="trademark" unicode="&#x2122;" horiz-adv-x="710" 
d="M106 636h-86v64h248v-64h-86v-286h-76v286zM351 700h28l94 -210l94 210h28l95 -350h-76l-47 176l-84 -176h-20l-84 176l-47 -176h-76z" />
    <glyph glyph-name="uni2126" unicode="&#x2126;" horiz-adv-x="826" 
d="M64 120h116q-56 42 -91 111.5t-35 149.5q0 95 45 170.5t126.5 119t187.5 43.5t187.5 -43.5t126.5 -119t45 -170.5q0 -80 -35 -149.5t-91 -111.5h116v-120h-296v100q74 40 119 109.5t45 157.5q0 107 -60 166t-157 59t-157 -59t-60 -166q0 -88 45 -157.5t119 -109.5v-100
h-296v120z" />
    <glyph glyph-name="estimated" unicode="&#x212e;" horiz-adv-x="762" 
d="M157 153q33 -51 94 -82t130 -31q86 0 156.5 39.5t102.5 109.5h56q-43 -88 -128.5 -142t-186.5 -54q-104 0 -184 48t-123.5 129.5t-43.5 179.5q0 99 43.5 181t123.5 129.5t184 47.5q101 0 181 -45.5t125 -127t45 -185.5h-575v-197zM253.5 634q-59.5 -29 -96.5 -78v-159
h453v156q-32 46 -93.5 78t-135.5 32q-68 0 -127.5 -29z" />
    <glyph glyph-name="uni2153" unicode="&#x2153;" horiz-adv-x="630" 
d="M30 667l47 33h35v-350h-82v317zM42 161l332 412l56 -45l-331 -412zM413 -7q-28 6 -44 15l-8 84h13q24 -16 45 -25t44 -9q61 0 61 59q0 26 -16.5 41.5t-45.5 15.5q-8 0 -38 -5l-13 26l58 77h-112v72h240v-10l-79 -102q41 -10 65.5 -38.5t24.5 -76.5q0 -62 -38 -96
t-100 -34q-29 0 -57 6z" />
    <glyph glyph-name="uni2154" unicode="&#x2154;" horiz-adv-x="781" 
d="M14 366l131 163q28 35 28 67q0 18 -13 30t-35 12q-43 0 -75 -53h-22l4 83q18 18 47.5 28.5t60.5 10.5q58 0 89 -27.5t31 -72.5q0 -30 -12.5 -57.5t-40.5 -61.5l-55 -66h120v-72h-258v16zM193 161l332 412l56 -45l-331 -412zM564 -7q-28 6 -44 15l-8 84h13q24 -16 45 -25
t44 -9q61 0 61 59q0 26 -16.5 41.5t-45.5 15.5q-8 0 -38 -5l-13 26l58 77h-112v72h240v-10l-79 -102q41 -10 65.5 -38.5t24.5 -76.5q0 -62 -38 -96t-100 -34q-29 0 -57 6z" />
    <glyph glyph-name="oneeighth" unicode="&#x215b;" horiz-adv-x="598" 
d="M30 667l47 33h35v-350h-82v317zM42 161l332 412l56 -45l-331 -412zM364 18q-34 32 -34 75q0 33 13.5 54t38.5 35q-20 16 -30 34.5t-10 41.5q0 38 31.5 65t80.5 27t80.5 -27t31.5 -65q0 -23 -10 -41.5t-30 -34.5q25 -14 38.5 -35t13.5 -54q0 -27 -15 -52t-43.5 -40
t-65.5 -15q-56 0 -90 32zM481 225.5q10 10.5 10 26.5t-10 27t-27 11t-27 -11t-10 -27t10 -26.5t27 -10.5t27 10.5zM488 63.5q14 13.5 14 36.5t-14 37t-34 14t-34 -14t-14 -37t14 -36.5t34 -13.5t34 13.5z" />
    <glyph glyph-name="threeeighths" unicode="&#x215c;" horiz-adv-x="726" 
d="M83 349q-28 6 -44 15l-8 84h13q24 -16 45 -25t44 -9q61 0 61 59q0 26 -16.5 41.5t-45.5 15.5q-8 0 -38 -5l-13 26l58 77h-112v72h240v-10l-79 -102q41 -10 65.5 -38.5t24.5 -76.5q0 -62 -38 -96t-100 -34q-29 0 -57 6zM170 161l332 412l56 -45l-331 -412zM492 18
q-34 32 -34 75q0 33 13.5 54t38.5 35q-20 16 -30 34.5t-10 41.5q0 38 31.5 65t80.5 27t80.5 -27t31.5 -65q0 -23 -10 -41.5t-30 -34.5q25 -14 38.5 -35t13.5 -54q0 -27 -15 -52t-43.5 -40t-65.5 -15q-56 0 -90 32zM609 225.5q10 10.5 10 26.5t-10 27t-27 11t-27 -11t-10 -27
t10 -26.5t27 -10.5t27 10.5zM616 63.5q14 13.5 14 36.5t-14 37t-34 14t-34 -14t-14 -37t14 -36.5t34 -13.5t34 13.5z" />
    <glyph glyph-name="fiveeighths" unicode="&#x215d;" horiz-adv-x="712" 
d="M85.5 346q-18.5 3 -45.5 11l-17 87h12q40 -28 89 -28q30 0 46.5 13.5t16.5 38.5q0 27 -17 40.5t-46 13.5q-21 0 -39.5 -5.5t-41.5 -15.5l-20 3l23 196h208v-70h-146l-9 -52q20 8 50 8q58 0 89 -31t31 -87q0 -58 -38.5 -91.5t-98.5 -33.5q-28 0 -46.5 3zM156 161l332 412
l56 -45l-331 -412zM478 18q-34 32 -34 75q0 33 13.5 54t38.5 35q-20 16 -30 34.5t-10 41.5q0 38 31.5 65t80.5 27t80.5 -27t31.5 -65q0 -23 -10 -41.5t-30 -34.5q25 -14 38.5 -35t13.5 -54q0 -27 -15 -52t-43.5 -40t-65.5 -15q-56 0 -90 32zM595 225.5q10 10.5 10 26.5
t-10 27t-27 11t-27 -11t-10 -27t10 -26.5t27 -10.5t27 10.5zM602 63.5q14 13.5 14 36.5t-14 37t-34 14t-34 -14t-14 -37t14 -36.5t34 -13.5t34 13.5z" />
    <glyph glyph-name="seveneighths" unicode="&#x215e;" horiz-adv-x="662" 
d="M164 628h-147v72h259v-15l-167 -335h-86zM86 161l332 412l56 -45l-331 -412zM428 18q-34 32 -34 75q0 33 13.5 54t38.5 35q-20 16 -30 34.5t-10 41.5q0 38 31.5 65t80.5 27t80.5 -27t31.5 -65q0 -23 -10 -41.5t-30 -34.5q25 -14 38.5 -35t13.5 -54q0 -27 -15 -52
t-43.5 -40t-65.5 -15q-56 0 -90 32zM545 225.5q10 10.5 10 26.5t-10 27t-27 11t-27 -11t-10 -27t10 -26.5t27 -10.5t27 10.5zM552 63.5q14 13.5 14 36.5t-14 37t-34 14t-34 -14t-14 -37t14 -36.5t34 -13.5t34 13.5z" />
    <glyph glyph-name="arrowleft" unicode="&#x2190;" horiz-adv-x="573" 
d="M527 280h-301l58 -46v-85h-20l-218 174v21l218 174h20v-85l-57 -45h300v-108z" />
    <glyph glyph-name="arrowup" unicode="&#x2191;" horiz-adv-x="477" 
d="M184 406l-45 -57h-85v20l174 218h21l174 -218v-20h-85l-46 58v-301h-108v300z" />
    <glyph glyph-name="arrowright" unicode="&#x2192;" horiz-adv-x="573" 
d="M346 388l-57 45v85h20l218 -174v-21l-218 -174h-20v85l58 46h-301v108h300z" />
    <glyph glyph-name="arrowdown" unicode="&#x2193;" horiz-adv-x="477" 
d="M292 590v-301l46 58h85v-20l-174 -218h-21l-174 218v20h85l45 -57v300h108z" />
    <glyph glyph-name="arrowboth" unicode="&#x2194;" horiz-adv-x="770" 
d="M724 345v-21l-218 -174h-20v85l58 46h-318l58 -46v-85h-20l-218 174v21l218 174h20v-85l-57 -45h316l-57 45v85h20z" />
    <glyph glyph-name="arrowupdn" unicode="&#x2195;" horiz-adv-x="469" 
d="M50 218v20h85l45 -57v338l-45 -57h-85v20l174 218h21l174 -218v-20h-85l-46 58v-340l46 58h85v-20l-174 -218h-21z" />
    <glyph glyph-name="uni2196" unicode="&#x2196;" horiz-adv-x="478" 
d="M356 127l-213 213l8 -73l-60 -60l-14 14l-31 277l15 15l277 -31l14 -14l-60 -61l-72 9l212 -212z" />
    <glyph glyph-name="uni2197" unicode="&#x2197;" horiz-adv-x="478" 
d="M258 416l-72 -9l-60 61l14 14l277 31l15 -15l-31 -277l-14 -14l-60 60l8 73l-213 -213l-76 77z" />
    <glyph glyph-name="uni2198" unicode="&#x2198;" horiz-adv-x="478" 
d="M335 324l-9 72l61 60l14 -14l31 -277l-15 -15l-277 31l-14 14l60 60l73 -8l-213 213l77 76z" />
    <glyph glyph-name="uni2199" unicode="&#x2199;" horiz-adv-x="478" 
d="M220 236l72 9l60 -61l-14 -14l-277 -31l-15 15l31 277l14 14l60 -60l-8 -73l213 213l76 -77z" />
    <glyph glyph-name="partialdiff" unicode="&#x2202;" horiz-adv-x="577" 
d="M151 18q-56 32 -87.5 86t-31.5 118q0 67 31 119.5t83.5 82t115.5 29.5q74 0 121 -42q-6 59 -30.5 104t-61 69t-78.5 24q-32 0 -56.5 -7t-51.5 -22l-11 7l27 114q58 14 108 14q102 0 172 -58t104 -154.5t34 -213.5q0 -95 -33 -163.5t-92 -103.5t-136 -35q-71 0 -127 32z
M365 136.5q33 33.5 33 85.5q0 53 -33.5 86.5t-82.5 33.5t-82 -33.5t-33 -86.5t33 -86t82 -33q50 0 83 33.5z" />
    <glyph glyph-name="uni2206" unicode="&#x2206;" horiz-adv-x="664" 
d="M28 73l236 627h137l235 -627v-73h-608v73zM487 112l-155 420l-155 -420h310z" />
    <glyph glyph-name="product" unicode="&#x220f;" horiz-adv-x="636" 
d="M62 700h512v-926h-142v806h-228v-806h-142v926z" />
    <glyph glyph-name="summation" unicode="&#x2211;" horiz-adv-x="602" 
d="M35 50l213 320l-197 280v50h496v-120h-274l145 -210l-171 -250h320v-120h-532v50z" />
    <glyph glyph-name="minus" unicode="&#x2212;" horiz-adv-x="494" 
d="M38 360h418v-106h-418v106z" />
    <glyph glyph-name="uni2215" unicode="&#x2215;" horiz-adv-x="508" 
d="M391 772h137l-412 -848h-136z" />
    <glyph glyph-name="uni2219" unicode="&#x2219;" horiz-adv-x="358" 
d="M97.5 218.5q-33.5 33.5 -33.5 81.5t33.5 81.5t81.5 33.5t81.5 -33.5t33.5 -81.5t-33.5 -81.5t-81.5 -33.5t-81.5 33.5z" />
    <glyph glyph-name="radical" unicode="&#x221a;" horiz-adv-x="544" 
d="M113 278h-96v112h194l51 -201l134 511h125l-186 -700h-132z" />
    <glyph glyph-name="infinity" unicode="&#x221e;" horiz-adv-x="564" 
d="M229 -9q-58 11 -101 43.5t-65.5 76.5t-22.5 89q0 118 105 180q-39 30 -59 66t-20 84q0 64 44.5 114t118.5 65v67h37v-62h16h16v62h37v-67q73 -15 118 -65t45 -114q0 -48 -20 -84t-59 -66q105 -62 105 -180q0 -45 -22.5 -89t-65.5 -76.5t-101 -43.5v-67h-37v62h-16h-16
v-62h-37v67zM298 440v164q-8 2 -16 2t-16 -2v-164q7 -1 16 -1t16 1zM229 588q-33 -25 -33 -66q0 -20 9 -37t24 -28v131zM359.5 484.5q8.5 17.5 8.5 37.5q0 42 -33 66v-131q16 10 24.5 27.5zM298 107v213q-7 1 -16 1q-10 0 -16 -1v-213q7 -1 16 -1t16 1zM229 308
q-25 -13 -39.5 -37t-14.5 -57t14.5 -58t39.5 -37v189zM374.5 156q14.5 25 14.5 58t-14.5 57t-39.5 37v-189q25 12 39.5 37z" />
    <glyph glyph-name="integral" unicode="&#x222b;" horiz-adv-x="564" 
d="M48.5 -211q-19.5 5 -38.5 16l18 116h12q10 -13 26 -19.5t31 -6.5q25 0 40 14.5t21 45.5l116 593q17 84 70 125t120 41q32 0 51.5 -5t38.5 -16l-18 -116h-12q-10 13 -26 19.5t-31 6.5q-25 0 -40 -14.5t-21 -45.5l-116 -593q-17 -85 -68.5 -125.5t-121.5 -40.5
q-32 0 -51.5 5z" />
    <glyph glyph-name="approxequal" unicode="&#x2248;" horiz-adv-x="483" 
d="M275 171.5q-24 7.5 -59 22.5q-29 12 -44.5 17.5t-30.5 5.5q-23 0 -43.5 -11.5t-43.5 -34.5h-10l8 107q18 24 45.5 35.5t59.5 11.5q26 0 49 -7.5t59 -22.5q26 -11 43.5 -17t33.5 -6q48 0 87 46h10l-8 -107q-18 -24 -45.5 -35.5t-59.5 -11.5q-27 0 -51 7.5zM275 361.5
q-24 7.5 -59 22.5q-29 12 -44.5 17.5t-30.5 5.5q-23 0 -43.5 -11.5t-43.5 -34.5h-10l8 107q18 24 45.5 35.5t59.5 11.5q26 0 49 -7.5t59 -22.5q26 -11 43.5 -17t33.5 -6q48 0 87 46h10l-8 -107q-18 -24 -45.5 -35.5t-59.5 -11.5q-27 0 -51 7.5z" />
    <glyph glyph-name="notequal" unicode="&#x2260;" horiz-adv-x="506" 
d="M110 144h-66v106h122l61 114h-183v106h239l40 74h113l-40 -74h66v-106h-122l-61 -114h183v-106h-239l-40 -74h-113z" />
    <glyph glyph-name="lessequal" unicode="&#x2264;" horiz-adv-x="506" 
d="M73 310v90l319 212h21v-120l-220 -137l220 -137v-120h-21zM44 46h418v-106h-418v106z" />
    <glyph glyph-name="greaterequal" unicode="&#x2265;" horiz-adv-x="506" 
d="M73 218l220 137l-220 137v120h21l319 -212v-90l-319 -212h-21v120zM44 46h418v-106h-418v106z" />
    <glyph glyph-name="lozenge" unicode="&#x25ca;" horiz-adv-x="582" 
d="M12 350l208 350h142l208 -350l-208 -350h-142zM428 350l-137 235l-137 -235l137 -236z" />
    <glyph glyph-name="uniF8FF" unicode="&#xf8ff;" horiz-adv-x="780" 
d="M100.5 6.5q-6.5 6.5 -6.5 15.5v595q0 7 4.5 13.5t11.5 8.5l270 78l10 2l10 -2l270 -78q7 -2 11.5 -8.5t4.5 -13.5v-595q0 -9 -6.5 -15.5t-15.5 -6.5l-7 1l-267 77l-267 -77l-7 -1q-9 0 -15.5 6.5zM368 669l-230 -67q4 -62 35 -114t82.5 -84.5t112.5 -37.5v303z
M524.5 403.5q51.5 32.5 82.5 84.5t35 114l-230 67v-303q61 5 112.5 37.5zM368 118v204q-73 6 -134 43.5t-97 97.5v-412zM643 463q-37 -60 -97.5 -97.5t-133.5 -43.5v-204l231 -67v412z" />
    <glyph glyph-name="fi" unicode="&#xfb01;" horiz-adv-x="596" 
d="M413 586q-24 24 -24 58q0 35 24 59.5t58 24.5q35 0 59.5 -24.5t24.5 -59.5q0 -34 -24.5 -58t-59.5 -24q-34 0 -58 24zM538 0h-132v382h-181v-382h-132v382h-55v112h55v54q0 57 24 94t61.5 54.5t78.5 17.5q27 0 46.5 -5t40.5 -16l5 -116h-12q-13 13 -30 19.5t-32 6.5
q-23 0 -36.5 -14t-13.5 -39v-56h313v-494z" />
    <glyph glyph-name="fl" unicode="&#xfb02;" horiz-adv-x="609" 
d="M93 382h-55v112h55v54q0 57 24 94t61.5 54.5t78.5 17.5q27 0 46.5 -5t40.5 -16l5 -116h-12q-13 13 -30 19.5t-32 6.5q-23 0 -36.5 -14t-13.5 -39v-56h80v-112h-80v-382h-132v382zM419 720h132v-720h-132v720z" />
    <glyph glyph-name="i.loclTRK" horiz-adv-x="248" 
d="M58 494h132v-494h-132v494zM66 587q-24 24 -24 58t24 58t58 24t58 -24t24 -58t-24 -58t-58 -24t-58 24z" />
    <glyph glyph-name="y.ss04" horiz-adv-x="566" 
d="M87 -200l-6 126h23q66 -46 142 -46q66 0 105 38.5t39 101.5v40q-29 -35 -69 -54.5t-89 -19.5q-79 0 -129.5 47t-50.5 131v330h132v-286q0 -48 26 -73t70 -25q48 0 79 33t31 94v257h132v-449q0 -147 -73 -216t-200 -69q-96 0 -162 40z" />
    <glyph glyph-name="yacute.ss04" horiz-adv-x="566" 
d="M87 -200l-6 126h23q66 -46 142 -46q66 0 105 38.5t39 101.5v40q-29 -35 -69 -54.5t-89 -19.5q-79 0 -129.5 47t-50.5 131v330h132v-286q0 -48 26 -73t70 -25q48 0 79 33t31 94v257h132v-449q0 -147 -73 -216t-200 -69q-96 0 -162 40zM299 700h165l-144 -137h-112z" />
    <glyph glyph-name="ycircumflex.ss04" horiz-adv-x="566" 
d="M87 -200l-6 126h23q66 -46 142 -46q66 0 105 38.5t39 101.5v40q-29 -35 -69 -54.5t-89 -19.5q-79 0 -129.5 47t-50.5 131v330h132v-286q0 -48 26 -73t70 -25q48 0 79 33t31 94v257h132v-449q0 -147 -73 -216t-200 -69q-96 0 -162 40zM216 700h145l92 -137h-102l-63 60
l-62 -60h-102z" />
    <glyph glyph-name="ydieresis.ss04" horiz-adv-x="566" 
d="M87 -200l-6 126h23q66 -46 142 -46q66 0 105 38.5t39 101.5v40q-29 -35 -69 -54.5t-89 -19.5q-79 0 -129.5 47t-50.5 131v330h132v-286q0 -48 26 -73t70 -25q48 0 79 33t31 94v257h132v-449q0 -147 -73 -216t-200 -69q-96 0 -162 40zM141 577q-21 21 -21 50q0 30 21 51.5
t50 21.5t51 -21.5t22 -51.5q0 -29 -22 -50t-51 -21t-50 21zM333 577q-21 21 -21 50q0 30 21 51.5t50 21.5t51 -21.5t22 -51.5q0 -29 -22 -50t-51 -21t-50 21z" />
    <glyph glyph-name="j.ss05" horiz-adv-x="248" 
d="M65 586q-24 24 -24 58q0 35 24 59.5t58 24.5q35 0 59.5 -24.5t24.5 -59.5q0 -34 -24.5 -58t-59.5 -24q-34 0 -58 24zM57 494h132v-720h-132v720z" />
    <glyph glyph-name="uni0237.ss05" horiz-adv-x="214" 
d="M41 494h132v-720h-132v720z" />
    <glyph glyph-name="jcircumflex.ss05" horiz-adv-x="214" 
d="M41 494h132v-720h-132v720zM35 700h145l92 -137h-102l-63 60l-62 -60h-102z" />
    <glyph glyph-name="f_f_j" horiz-adv-x="915" 
d="M729 586q-24 24 -24 58q0 35 24 59.5t58 24.5q35 0 59.5 -24.5t24.5 -59.5q0 -34 -24.5 -58t-59.5 -24q-34 0 -58 24zM853 -73q0 -85 -45 -126t-114 -41q-39 0 -67 17l-12 108h20q14 -9 22.5 -12t24.5 -3q19 0 29 11.5t10 33.5v467h-181v-382h-132v382h-181v-382h-132
v382h-57v112h57v53q0 56 24 93.5t62 55.5t79 18q49 0 88 -22l4 -114h-11q-29 26 -61 26q-24 0 -38.5 -15.5t-14.5 -40.5v-54h181v54q0 57 24 94t61.5 54.5t78.5 17.5q27 0 46.5 -5t40.5 -16l5 -116h-12q-13 13 -30 19.5t-32 6.5q-23 0 -36.5 -14t-13.5 -39v-56h313v-567z
" />
    <glyph glyph-name="f_j" horiz-adv-x="600" 
d="M414 586q-24 24 -24 58q0 35 24 59.5t58 24.5q35 0 59.5 -24.5t24.5 -59.5q0 -34 -24.5 -58t-59.5 -24q-34 0 -58 24zM538 -73q0 -85 -45 -126t-114 -41q-39 0 -67 17l-12 108h20q14 -9 22.5 -12t24.5 -3q19 0 29 11.5t10 33.5v467h-181v-382h-132v382h-55v112h55v54
q0 57 24 94t61.5 54.5t78.5 17.5q27 0 46.5 -5t40.5 -16l5 -116h-12q-13 13 -30 19.5t-32 6.5q-23 0 -36.5 -14t-13.5 -39v-56h313v-567z" />
    <glyph glyph-name="f_f_j.ss05" horiz-adv-x="915" 
d="M729 586q-24 24 -24 58q0 35 24 59.5t58 24.5q35 0 59.5 -24.5t24.5 -59.5q0 -34 -24.5 -58t-59.5 -24q-34 0 -58 24zM721 382h-181v-382h-132v382h-181v-382h-132v382h-57v112h57v53q0 56 24 93.5t62 55.5t79 18q49 0 88 -22l4 -114h-11q-29 26 -61 26
q-24 0 -38.5 -15.5t-14.5 -40.5v-54h181v54q0 57 24 94t61.5 54.5t78.5 17.5q27 0 46.5 -5t40.5 -16l5 -116h-12q-13 13 -30 19.5t-32 6.5q-23 0 -36.5 -14t-13.5 -39v-56h313v-720h-132v608z" />
    <glyph glyph-name="f_j.ss05" horiz-adv-x="600" 
d="M414 586q-24 24 -24 58q0 35 24 59.5t58 24.5q35 0 59.5 -24.5t24.5 -59.5q0 -34 -24.5 -58t-59.5 -24q-34 0 -58 24zM538 -226h-132v608h-181v-382h-132v382h-55v112h55v54q0 57 24 94t61.5 54.5t78.5 17.5q27 0 46.5 -5t40.5 -16l5 -116h-12q-13 13 -30 19.5t-32 6.5
q-23 0 -36.5 -14t-13.5 -39v-56h313v-720z" />
    <glyph glyph-name="uni0414.loclBGR" horiz-adv-x="744" 
d="M710 121v-253h-142v132h-392v-132h-142v253h61l246 579h62l246 -579h61zM505 121l-133 333l-131 -333h264z" />
    <glyph glyph-name="uni041B.loclBGR" horiz-adv-x="692" 
d="M325 700h42l310 -700h-144l-187 441l-187 -441h-144z" />
    <glyph glyph-name="uni0432.loclBGR" horiz-adv-x="577" 
d="M185 11q-55 25 -91 86t-36 161v210q0 111 60.5 178.5t182.5 67.5q63 0 113.5 -23.5t79.5 -66t29 -97.5q0 -120 -112 -159q60 -10 94 -55t34 -110t-31.5 -114.5t-85.5 -76t-119 -26.5q-63 0 -118 25zM292 416q43 0 71 23t28 64q0 44 -27 66.5t-68 22.5q-48 0 -77 -28.5
t-29 -84.5v-63h102zM379 134.5q28 26.5 28 67.5q0 51 -34 76.5t-92 25.5h-91v-45q0 -151 119 -151q42 0 70 26.5z" />
    <glyph glyph-name="uni0433.loclBGR" horiz-adv-x="424" 
d="M82 25q-54 39 -54 116q0 63 34 97.5t94 54.5q55 19 75 32.5t20 34.5q0 16 -16 26t-41 10q-35 0 -63 -11.5t-64 -34.5h-7l5 126q28 17 59 24.5t71 7.5q80 0 131 -38.5t51 -106.5q0 -50 -32 -89.5t-88 -58.5t-76.5 -32t-20.5 -34q0 -20 17.5 -30.5t45.5 -10.5q68 0 133 50
h6l30 -124q-73 -48 -176 -48q-80 0 -134 39z" />
    <glyph glyph-name="uni0434.loclBGR" horiz-adv-x="610" 
d="M187.5 -230q-37.5 10 -68.5 29l-5 125h26q59 -42 137 -42q68 0 105.5 36t37.5 103v32q-23 -24 -60 -38.5t-84 -14.5q-68 0 -124 33.5t-88 91.5t-32 129q0 78 35.5 135.5t91.5 88t116 30.5q53 0 87 -16t58 -43v45h132v-449q0 -147 -73.5 -216t-201.5 -69q-52 0 -89.5 10z
M391 160.5q35 38.5 35 93.5t-35 93.5t-96 38.5t-96 -38.5t-35 -93.5t35 -93.5t96 -38.5t96 38.5z" />
    <glyph glyph-name="uni0436.loclBGR" horiz-adv-x="786" 
d="M204 264l-183 230h149l157 -203v409h132v-409l158 203h148l-182 -230l193 -264h-155l-162 229v-229h-132v229l-161 -229h-156z" />
    <glyph glyph-name="uni0437.loclBGR" horiz-adv-x="542" 
d="M153 -228q-44 12 -89 33l-14 140h15q40 -30 86 -46.5t91 -16.5q51 0 86.5 27.5t35.5 79.5q0 49 -31.5 75t-86.5 26h-72v112h72q42 0 67.5 27.5t25.5 67.5q0 42 -27 67t-80 25q-45 0 -86.5 -23t-69.5 -67h-15l7 137q34 34 81.5 53t103.5 19q65 0 114.5 -25.5t76.5 -70.5
t27 -101q0 -54 -29 -97t-73 -58q53 -11 90 -55t37 -112q0 -70 -33.5 -122t-90 -79.5t-124.5 -27.5q-51 0 -95 12z" />
    <glyph glyph-name="uni0438.loclBGR" horiz-adv-x="580" 
d="M99.5 29.5q-47.5 43.5 -47.5 127.5v337h132v-290q0 -48 25.5 -72t68.5 -24q49 0 80.5 35.5t31.5 95.5v255h132v-494h-132v61q-27 -34 -70.5 -54.5t-91.5 -20.5q-81 0 -128.5 43.5z" />
    <glyph glyph-name="uni0439.loclBGR" horiz-adv-x="580" 
d="M99.5 29.5q-47.5 43.5 -47.5 127.5v337h132v-290q0 -48 25.5 -72t68.5 -24q49 0 80.5 35.5t31.5 95.5v255h132v-494h-132v61q-27 -34 -70.5 -54.5t-91.5 -20.5q-81 0 -128.5 43.5zM198 594.5q-34 32.5 -34 85.5h86q2 -16 11.5 -27t28.5 -11t28.5 11t11.5 27h86
q0 -53 -34 -85.5t-92 -32.5t-92 32.5z" />
    <glyph glyph-name="uni043A.loclBGR" horiz-adv-x="543" 
d="M58 720h132v-429l172 203h157l-194 -229l208 -265h-169l-174 229v-229h-132v720z" />
    <glyph glyph-name="uni043B.loclBGR" horiz-adv-x="542" 
d="M249 494h44l235 -494h-136l-121 259l-121 -259h-136z" />
    <glyph glyph-name="uni043F.loclBGR" horiz-adv-x="580" 
d="M58 494h132v-61q27 34 70.5 54.5t91.5 20.5q81 0 128.5 -43.5t47.5 -127.5v-337h-132v290q0 48 -25.5 72t-68.5 24q-49 0 -80.5 -35.5t-31.5 -95.5v-255h-132v494z" />
    <glyph glyph-name="uni0442.loclBGR" horiz-adv-x="871" 
d="M58 494h132v-61q23 33 67 54t89 21q51 0 88.5 -17.5t56.5 -52.5q33 35 74.5 52.5t95.5 17.5q72 0 115 -42t43 -115v-351h-132v298q0 44 -19.5 66t-56.5 22q-44 0 -75 -33.5t-31 -86.5v-266h-132v298q0 88 -77 88q-44 0 -75 -35t-31 -90v-261h-132v494z" />
    <glyph glyph-name="uni0446.loclBGR" horiz-adv-x="630" 
d="M466 0h-76v61q-27 -34 -70.5 -54.5t-91.5 -20.5q-81 0 -128.5 43.5t-47.5 127.5v337h132v-290q0 -48 25.5 -72t68.5 -24q49 0 80.5 35.5t31.5 95.5v255h132v-374h70v-231h-126v111z" />
    <glyph glyph-name="uni0448.loclBGR" horiz-adv-x="877" 
d="M101 28q-43 42 -43 115v351h132v-298q0 -44 19.5 -66t56.5 -22q45 0 75.5 33.5t30.5 86.5v266h132v-298q0 -88 77 -88q45 0 75.5 35t30.5 90v261h132v-494h-132v61q-23 -33 -67 -54t-89 -21q-51 0 -88.5 17.5t-56.5 52.5q-33 -35 -74.5 -52.5t-95.5 -17.5q-72 0 -115 42z
" />
    <glyph glyph-name="uni0449.loclBGR" horiz-adv-x="929" 
d="M763 0h-76v61q-23 -33 -67 -54t-89 -21q-51 0 -88.5 17.5t-56.5 52.5q-33 -35 -74.5 -52.5t-95.5 -17.5q-72 0 -115 42t-43 115v351h132v-298q0 -44 19.5 -66t56.5 -22q45 0 75.5 33.5t30.5 86.5v266h132v-298q0 -88 77 -88q45 0 75.5 35t30.5 90v261h132v-374h70v-231
h-126v111z" />
    <glyph glyph-name="uni044C.loclBGR" horiz-adv-x="522" 
d="M119 40.5q-61 54.5 -61 147.5v306h132v-159q50 23 106 23q52 0 96.5 -23.5t71 -66t26.5 -97.5q0 -57 -30 -99t-78.5 -64t-102.5 -22q-99 0 -160 54.5zM335.5 114.5q22.5 22.5 22.5 54.5q0 36 -24 54.5t-57 18.5q-46 0 -87 -22v-46q0 -36 23.5 -59t62.5 -23
q37 0 59.5 22.5z" />
    <glyph glyph-name="uni044A.loclBGR" horiz-adv-x="585" 
d="M182 40.5q-61 54.5 -61 147.5v194h-107v112h239v-159q50 23 106 23q52 0 96.5 -23.5t71 -66t26.5 -97.5q0 -57 -30 -99t-78.5 -64t-102.5 -22q-99 0 -160 54.5zM398.5 114.5q22.5 22.5 22.5 54.5q0 36 -24 54.5t-57 18.5q-46 0 -87 -22v-46q0 -36 23.5 -59t62.5 -23
q37 0 59.5 22.5z" />
    <glyph glyph-name="uni044E.loclBGR" horiz-adv-x="783" 
d="M338.5 43q-66.5 57 -84.5 148h-64v-191h-132v700h132v-397h64q18 91 84.5 148t161.5 57q73 0 130 -34t89 -94t32 -133t-32 -133t-89 -94t-130 -34q-95 0 -161.5 57zM587.5 146q31.5 38 31.5 101t-31.5 101t-87.5 38t-87.5 -38t-31.5 -101t31.5 -101t87.5 -38t87.5 38z
" />
    <glyph glyph-name="delta.ss06" horiz-adv-x="568" 
d="M159.5 16.5q-57.5 31.5 -92.5 89t-35 133.5q0 100 61 167.5t161 81.5l-168 185v27h388v-113h-168l121 -126q56 -58 82.5 -110t26.5 -115q0 -75 -35 -132t-92.5 -88t-124.5 -31t-124.5 31.5zM348 117q30 16 49 47.5t19 75.5t-19 75.5t-49 47.5t-64 16t-64 -16t-48.5 -47
t-18.5 -75q0 -45 18.5 -76.5t48.5 -47.5t64 -16t64 16z" />
    <glyph glyph-name="zero.osf" horiz-adv-x="576" 
d="M156.5 20q-58.5 34 -91.5 94t-33 133t33 133t91.5 94t131.5 34t131.5 -34t91.5 -94t33 -133t-33 -133t-91.5 -94t-131.5 -34t-131.5 34zM373 144q31 38 31 103t-31 103t-85 38t-85 -38t-31 -103t31 -103t85 -38t85 38z" />
    <glyph glyph-name="one.osf" horiz-adv-x="258" 
d="M58 429l96 65h46v-494h-142v429z" />
    <glyph glyph-name="two.osf" horiz-adv-x="474" 
d="M42 35l182 174q40 39 57 66t17 54q0 32 -23.5 51t-66.5 19q-44 0 -80.5 -25t-57.5 -68h-19l9 128q30 34 76 54t98 20q82 0 136 -42.5t54 -116.5q0 -49 -25.5 -94t-80.5 -95l-53 -48h185v-112h-408v35z" />
    <glyph glyph-name="three.osf" horiz-adv-x="551" 
d="M151 -153.5q-48 12.5 -81 30.5l-16 144h15q38 -30 83 -48.5t92 -18.5q56 0 88.5 30t32.5 80t-32.5 79t-90.5 29q-35 0 -73 -8l-14 31l117 179h-215v120h422v-20l-148 -207q80 -15 125 -67t45 -135q0 -67 -30 -119.5t-86.5 -82t-133.5 -29.5q-52 0 -100 12.5z" />
    <glyph glyph-name="four.osf" horiz-adv-x="553" 
d="M291 -14h-275v70l370 438h47v-396h84v-112h-84v-144h-142v144zM291 98v136l-111 -136h111z" />
    <glyph glyph-name="five.osf" horiz-adv-x="521" 
d="M66 -125l-30 145h13q41 -31 92 -48.5t93 -17.5q52 0 83.5 28.5t31.5 79.5t-32 78.5t-89 27.5q-75 0 -156 -47l-32 5l45 368h370v-120h-263l-21 -111q49 20 106 20q94 0 151 -57t57 -155q0 -70 -31 -124t-87.5 -83.5t-130.5 -29.5q-82 0 -170 41z" />
    <glyph glyph-name="six.osf" horiz-adv-x="577" 
d="M163 25.5q-58 39.5 -88.5 108t-30.5 155.5q0 96 31.5 180.5t96 137.5t157.5 53q76 0 128 -34l14 -133h-17q-61 47 -126 47q-122 0 -142 -169q23 22 61.5 37t82.5 15q56 0 103.5 -26t75.5 -73t28 -108q0 -66 -33 -118.5t-87.5 -82t-116.5 -29.5q-79 0 -137 39.5z
M371.5 136q29.5 30 29.5 72t-29.5 71t-75.5 29t-75.5 -29t-29.5 -71t29.5 -72t75.5 -30t75.5 30z" />
    <glyph glyph-name="seven.osf" horiz-adv-x="553" 
d="M334 374h-284v120h485v-20l-311 -640h-154z" />
    <glyph glyph-name="eight.osf" horiz-adv-x="536" 
d="M148 15q-52 29 -80 76.5t-28 98.5q0 55 24.5 97t66.5 66q-66 55 -66 130q0 48 27 89t73.5 64.5t102.5 23.5t102.5 -23.5t73.5 -64.5t27 -89q0 -75 -66 -130q42 -24 66.5 -66t24.5 -97q0 -51 -28 -98.5t-80 -76.5t-120 -29t-120 29zM317.5 424.5q17.5 20.5 17.5 50.5
t-17.5 50.5t-49.5 20.5t-49.5 -20.5t-17.5 -50.5t17.5 -50.5t49.5 -20.5t49.5 20.5zM335 134q25 28 25 71t-25 71t-67 28t-67 -28t-25 -71t25 -71t67 -28t67 28z" />
    <glyph glyph-name="nine.osf" horiz-adv-x="571" 
d="M408 468.5q58 -39.5 88.5 -108t30.5 -155.5q0 -96 -31.5 -180.5t-96 -137.5t-157.5 -53q-76 0 -128 34l-14 133h17q61 -47 126 -47q122 0 142 169q-23 -22 -61.5 -37t-82.5 -15q-56 0 -103.5 26t-75.5 73t-28 108q0 66 33 118.5t87.5 82t116.5 29.5q79 0 137 -39.5z
M199.5 358q-29.5 -30 -29.5 -72t29.5 -71t75.5 -29t75.5 29t29.5 71t-29.5 72t-75.5 30t-75.5 -30z" />
    <glyph glyph-name="one.osf.ss02" horiz-adv-x="319" 
d="M119 298l-75 -50h-14v120l185 126h46v-494h-142v298z" />
    <glyph glyph-name="zero.osf.zero" horiz-adv-x="576" 
d="M156.5 20q-58.5 34 -91.5 94t-33 133t33 133t91.5 94t131.5 34t131.5 -34t91.5 -94t33 -133t-33 -133t-91.5 -94t-131.5 -34t-131.5 34zM348 388q-25 15 -60 15q-59 0 -93.5 -42.5t-34.5 -113.5q0 -26 4 -43zM381.5 133.5q34.5 42.5 34.5 113.5q0 17 -4 47l-187 -187
q29 -16 63 -16q59 0 93.5 42.5z" />
    <glyph glyph-name="one.ss02" horiz-adv-x="382" 
d="M178 504l-124 -84h-14v120l234 160h46v-700h-142v504z" />
    <glyph glyph-name="zero.tf" 
d="M162 33q-70 47 -108 130t-38 187t38 187t108 130t163 47t163 -47t108 -130t38 -187t-38 -187t-108 -130t-163 -47t-163 47zM450 171.5q42 63.5 42 178.5t-42 178.5t-125 63.5t-125 -63.5t-42 -178.5t42 -178.5t125 -63.5t125 63.5z" />
    <glyph glyph-name="one.tf" 
d="M85 121h169v383l-125 -84h-14v120l235 160h46v-579h169v-121h-480v121z" />
    <glyph glyph-name="two.tf" 
d="M83 20l272 341q28 36 41.5 67t13.5 65q0 45 -28.5 73t-76.5 28q-52 0 -96.5 -30.5t-75.5 -78.5h-15l8 152q36 36 88 56.5t106 20.5q108 0 167 -55t59 -149q0 -58 -22.5 -111t-72.5 -114l-137 -165h254v-120h-485v20z" />
    <glyph glyph-name="three.tf" 
d="M183.5 -1.5q-48.5 12.5 -81.5 30.5l-16 144h15q48 -32 90 -49.5t89 -17.5q63 0 106 34t43 102q0 61 -39 98.5t-112 37.5q-33 0 -71 -8l-14 31l133 179h-238v120h449v-20l-160 -207q87 -16 137.5 -74t50.5 -153q0 -80 -35.5 -139t-99 -90t-145.5 -31q-53 0 -101.5 12.5z
" />
    <glyph glyph-name="four.tf" 
d="M372 160h-309v70l404 470h47v-420h73v-120h-73v-160h-142v160zM372 280v162l-134 -162h134z" />
    <glyph glyph-name="five.tf" 
d="M206.5 -8q-32.5 6 -91.5 23l-30 157h13q42 -32 90.5 -49t97.5 -17q67 0 105.5 31.5t38.5 93.5q0 60 -37 93.5t-100 33.5q-45 0 -86 -12.5t-86 -34.5l-32 5l45 384h402v-120h-295l-21 -127q49 20 104 20q118 0 180 -62t62 -175q0 -76 -35.5 -133t-96 -87t-135.5 -30
q-60 0 -92.5 6z" />
    <glyph glyph-name="six.tf" 
d="M134.5 75.5q-66.5 89.5 -66.5 240.5q0 107 34 197.5t102.5 145.5t169.5 55q78 0 130 -34l14 -133h-17q-34 26 -64 36.5t-63 10.5q-67 0 -111 -51t-53 -142q23 22 63 37t86 15q64 0 114.5 -29t79 -80.5t28.5 -116.5q0 -66 -33.5 -121t-91 -87.5t-124.5 -32.5
q-131 0 -197.5 89.5zM413.5 138.5q31.5 32.5 31.5 83.5t-31.5 83.5t-83.5 32.5t-83.5 -32.5t-31.5 -83.5t31.5 -83.5t83.5 -32.5t83.5 32.5z" />
    <glyph glyph-name="seven.tf" 
d="M376 580h-304v120h505v-20l-341 -680h-154z" />
    <glyph glyph-name="eight.tf" 
d="M196 18q-55 32 -84 81.5t-29 100.5q0 66 27.5 108t77.5 70q-40 33 -60 69t-20 83q0 50 28 92.5t77.5 67t111.5 24.5t111.5 -24.5t77.5 -67t28 -92.5q0 -47 -20 -83t-60 -69q50 -28 77.5 -70t27.5 -108q0 -51 -29 -100.5t-84 -81.5t-129 -32t-129 32zM384 461q22 23 22 58
t-22 58t-59 23t-59 -23t-22 -58t22 -58t59 -23t59 23zM399.5 136.5q31.5 30.5 31.5 78.5t-31.5 78.5t-74.5 30.5t-74.5 -30.5t-31.5 -78.5t31.5 -78.5t74.5 -30.5t74.5 30.5z" />
    <glyph glyph-name="nine.tf" 
d="M146 20l-14 133h17q34 -26 64 -36.5t63 -10.5q67 0 111 51t53 142q-23 -22 -63 -37t-86 -15q-64 0 -114.5 29t-79 80.5t-28.5 116.5q0 66 33.5 121t91 87.5t124.5 32.5q131 0 197.5 -89.5t66.5 -240.5q0 -107 -34 -197.5t-102.5 -145.5t-169.5 -55q-78 0 -130 34z
M403.5 394.5q31.5 32.5 31.5 83.5t-31.5 83.5t-83.5 32.5t-83.5 -32.5t-31.5 -83.5t31.5 -83.5t83.5 -32.5t83.5 32.5z" />
    <glyph glyph-name="zero.tf.zero" 
d="M162 33q-70 47 -108 130t-38 187t38 187t108 130t163 47t163 -47t108 -130t38 -187t-38 -187t-108 -130t-163 -47t-163 47zM433 549q-41 43 -108 43q-83 0 -125 -63.5t-42 -178.5q0 -34 5 -71zM450 171.5q42 63.5 42 178.5q0 34 -5 71l-270 -270q41 -43 108 -43
q83 0 125 63.5z" />
    <glyph glyph-name="zero.tosf" 
d="M193.5 20q-58.5 34 -91.5 94t-33 133t33 133t91.5 94t131.5 34t131.5 -34t91.5 -94t33 -133t-33 -133t-91.5 -94t-131.5 -34t-131.5 34zM410 144q31 38 31 103t-31 103t-85 38t-85 -38t-31 -103t31 -103t85 -38t85 38z" />
    <glyph glyph-name="one.tosf" 
d="M90 110h169v188l-125 -84h-14v120l235 160h36v-384h169v-110h-470v110z" />
    <glyph glyph-name="two.tosf" 
d="M121 35l182 174q40 39 57 66t17 54q0 32 -23.5 51t-66.5 19q-44 0 -80.5 -25t-57.5 -68h-19l9 128q30 34 76 54t98 20q82 0 136 -42.5t54 -116.5q0 -49 -25.5 -94t-80.5 -95l-53 -48h185v-112h-408v35z" />
    <glyph glyph-name="three.tosf" 
d="M183.5 -207.5q-48.5 12.5 -81.5 30.5l-16 144h15q48 -32 90 -49.5t89 -17.5q63 0 106 34t43 102q0 61 -39 98.5t-112 37.5q-33 0 -71 -8l-14 31l133 179h-238v120h449v-20l-160 -207q87 -16 137.5 -74t50.5 -153q0 -80 -35.5 -139t-99 -90t-145.5 -31q-53 0 -101.5 12.5z
" />
    <glyph glyph-name="four.tosf" 
d="M372 -46h-309v70l404 470h47v-420h73v-120h-73v-160h-142v160zM372 74v162l-134 -162h134z" />
    <glyph glyph-name="five.tosf" 
d="M205.5 -214q-32.5 6 -91.5 23l-30 157h13q42 -32 90.5 -49t97.5 -17q67 0 105.5 31.5t38.5 93.5q0 60 -37 93.5t-100 33.5q-45 0 -86 -12.5t-86 -34.5l-32 5l45 384h402v-120h-295l-21 -127q49 20 104 20q118 0 180 -62t62 -175q0 -76 -35.5 -133t-96 -87t-135.5 -30
q-60 0 -92.5 6z" />
    <glyph glyph-name="six.tosf" 
d="M134.5 75.5q-66.5 89.5 -66.5 240.5q0 107 34 197.5t102.5 145.5t169.5 55q78 0 130 -34l14 -133h-17q-34 26 -64 36.5t-63 10.5q-67 0 -111 -51t-53 -142q23 22 63 37t86 15q64 0 114.5 -29t79 -80.5t28.5 -116.5q0 -66 -33.5 -121t-91 -87.5t-124.5 -32.5
q-131 0 -197.5 89.5zM413.5 138.5q31.5 32.5 31.5 83.5t-31.5 83.5t-83.5 32.5t-83.5 -32.5t-31.5 -83.5t31.5 -83.5t83.5 -32.5t83.5 32.5z" />
    <glyph glyph-name="seven.tosf" 
d="M376 374h-304v120h505v-20l-341 -680h-154z" />
    <glyph glyph-name="eight.tosf" 
d="M196 18q-55 32 -84 81.5t-29 100.5q0 66 27.5 108t77.5 70q-40 33 -60 69t-20 83q0 50 28 92.5t77.5 67t111.5 24.5t111.5 -24.5t77.5 -67t28 -92.5q0 -47 -20 -83t-60 -69q50 -28 77.5 -70t27.5 -108q0 -51 -29 -100.5t-84 -81.5t-129 -32t-129 32zM384 461q22 23 22 58
t-22 58t-59 23t-59 -23t-22 -58t22 -58t59 -23t59 23zM399.5 136.5q31.5 30.5 31.5 78.5t-31.5 78.5t-74.5 30.5t-74.5 -30.5t-31.5 -78.5t31.5 -78.5t74.5 -30.5t74.5 30.5z" />
    <glyph glyph-name="nine.tosf" 
d="M452 468.5q58 -39.5 88.5 -108t30.5 -155.5q0 -96 -31.5 -180.5t-96 -137.5t-157.5 -53q-76 0 -128 34l-14 133h17q61 -47 126 -47q122 0 142 169q-23 -22 -61.5 -37t-82.5 -15q-56 0 -103.5 26t-75.5 73t-28 108q0 66 33 118.5t87.5 82t116.5 29.5q79 0 137 -39.5z
M243.5 358q-29.5 -30 -29.5 -72t29.5 -71t75.5 -29t75.5 29t29.5 71t-29.5 72t-75.5 30t-75.5 -30z" />
    <glyph glyph-name="zero.tosf.zero" 
d="M193.5 20q-58.5 34 -91.5 94t-33 133t33 133t91.5 94t131.5 34t131.5 -34t91.5 -94t33 -133t-33 -133t-91.5 -94t-131.5 -34t-131.5 34zM385 388q-25 15 -60 15q-59 0 -93.5 -42.5t-34.5 -113.5q0 -26 4 -43zM418.5 133.5q34.5 42.5 34.5 113.5q0 17 -4 47l-187 -187
q29 -16 63 -16q59 0 93.5 42.5z" />
    <glyph glyph-name="zero.zero" horiz-adv-x="686" 
d="M180 33q-70 47 -108 130t-38 187t38 187t108 130t163 47t163 -47t108 -130t38 -187t-38 -187t-108 -130t-163 -47t-163 47zM451 549q-41 43 -108 43q-83 0 -125 -63.5t-42 -178.5q0 -34 5 -71zM468 171.5q42 63.5 42 178.5q0 34 -5 71l-270 -270q41 -43 108 -43
q83 0 125 63.5z" />
    <glyph glyph-name="zero.dnom" horiz-adv-x="358" 
d="M65 37q-42 51 -42 131t42 131t114 51t114 -51t42 -131t-42 -131t-114 -51t-114 51zM234.5 86.5q18.5 28.5 18.5 81.5t-18.5 81.5t-55.5 28.5t-55.5 -28.5t-18.5 -81.5t18.5 -81.5t55.5 -28.5t55.5 28.5z" />
    <glyph glyph-name="one.dnom" horiz-adv-x="142" 
d="M30 310l47 33h35v-350h-82v317z" />
    <glyph glyph-name="two.dnom" horiz-adv-x="293" 
d="M14 9l131 163q28 35 28 67q0 18 -13 30t-35 12q-43 0 -75 -53h-22l4 83q18 18 47.5 28.5t60.5 10.5q58 0 89 -27.5t31 -72.5q0 -30 -12.5 -57.5t-40.5 -61.5l-55 -66h120v-72h-258v16z" />
    <glyph glyph-name="three.dnom" horiz-adv-x="300" 
d="M83 -7q-28 6 -44 15l-8 84h13q24 -16 45 -25t44 -9q61 0 61 59q0 26 -16.5 41.5t-45.5 15.5q-8 0 -38 -5l-13 26l58 77h-112v72h240v-10l-79 -102q41 -10 65.5 -38.5t24.5 -76.5q0 -62 -38 -96t-100 -34q-29 0 -57 6z" />
    <glyph glyph-name="four.dnom" horiz-adv-x="308" 
d="M169 61h-159v59l190 223h51v-210h44v-72h-44v-68h-82v68zM169 133v81l-67 -81h67z" />
    <glyph glyph-name="five.dnom" horiz-adv-x="286" 
d="M85.5 -11q-18.5 3 -45.5 11l-17 87h12q40 -28 89 -28q30 0 46.5 13.5t16.5 38.5q0 27 -17 40.5t-46 13.5q-21 0 -39.5 -5.5t-41.5 -15.5l-20 3l23 196h208v-70h-146l-9 -52q20 8 50 8q58 0 89 -31t31 -87q0 -58 -38.5 -91.5t-98.5 -33.5q-28 0 -46.5 3z" />
    <glyph glyph-name="six.dnom" horiz-adv-x="300" 
d="M54.5 31q-34.5 45 -34.5 120q0 83 40.5 141t115.5 58q41 0 69 -19l8 -77h-11q-33 26 -66 26q-29 0 -48.5 -20.5t-26.5 -61.5q30 21 68 21q50 0 82 -31.5t32 -81.5t-37 -85t-91 -35q-66 0 -100.5 45zM192 66.5q14 14.5 14 37.5t-14 37.5t-38 14.5q-23 0 -37 -14.5
t-14 -37.5t14 -37.5t37 -14.5q24 0 38 14.5z" />
    <glyph glyph-name="seven.dnom" horiz-adv-x="286" 
d="M164 278h-147v72h259v-15l-167 -335h-86z" />
    <glyph glyph-name="eight.dnom" horiz-adv-x="288" 
d="M54 18q-34 32 -34 75q0 33 13.5 54t38.5 35q-20 16 -30 34.5t-10 41.5q0 38 31.5 65t80.5 27t80.5 -27t31.5 -65q0 -23 -10 -41.5t-30 -34.5q25 -14 38.5 -35t13.5 -54q0 -27 -15 -52t-43.5 -40t-65.5 -15q-56 0 -90 32zM171 225.5q10 10.5 10 26.5t-10 27t-27 11
t-27 -11t-10 -27t10 -26.5t27 -10.5t27 10.5zM178 63.5q14 13.5 14 36.5t-14 37t-34 14t-34 -14t-14 -37t14 -36.5t34 -13.5t34 13.5z" />
    <glyph glyph-name="nine.dnom" horiz-adv-x="300" 
d="M55 5l-8 77h11q33 -26 66 -26q29 0 48.5 20.5t26.5 61.5q-30 -21 -68 -21q-50 0 -82 31.5t-32 81.5t37 85t91 35q66 0 100.5 -45t34.5 -120q0 -83 -40.5 -141t-115.5 -58q-41 0 -69 19zM183 194.5q14 14.5 14 37.5t-14 37.5t-37 14.5q-24 0 -38 -14.5t-14 -37.5t14 -37.5
t38 -14.5q23 0 37 14.5z" />
    <glyph glyph-name="zero.numr" horiz-adv-x="358" 
d="M65 394q-42 51 -42 131t42 131t114 51t114 -51t42 -131t-42 -131t-114 -51t-114 51zM234.5 443.5q18.5 28.5 18.5 81.5t-18.5 81.5t-55.5 28.5t-55.5 -28.5t-18.5 -81.5t18.5 -81.5t55.5 -28.5t55.5 28.5z" />
    <glyph glyph-name="one.numr" horiz-adv-x="142" 
d="M30 667l47 33h35v-350h-82v317z" />
    <glyph glyph-name="two.numr" horiz-adv-x="293" 
d="M14 366l131 163q28 35 28 67q0 18 -13 30t-35 12q-43 0 -75 -53h-22l4 83q18 18 47.5 28.5t60.5 10.5q58 0 89 -27.5t31 -72.5q0 -30 -12.5 -57.5t-40.5 -61.5l-55 -66h120v-72h-258v16z" />
    <glyph glyph-name="three.numr" horiz-adv-x="300" 
d="M83 349q-28 6 -44 15l-8 84h13q24 -16 45 -25t44 -9q61 0 61 59q0 26 -16.5 41.5t-45.5 15.5q-8 0 -38 -5l-13 26l58 77h-112v72h240v-10l-79 -102q41 -10 65.5 -38.5t24.5 -76.5q0 -62 -38 -96t-100 -34q-29 0 -57 6z" />
    <glyph glyph-name="four.numr" horiz-adv-x="308" 
d="M169 418h-159v59l190 223h51v-210h44v-72h-44v-68h-82v68zM169 490v81l-67 -81h67z" />
    <glyph glyph-name="five.numr" horiz-adv-x="286" 
d="M85.5 346q-18.5 3 -45.5 11l-17 87h12q40 -28 89 -28q30 0 46.5 13.5t16.5 38.5q0 27 -17 40.5t-46 13.5q-21 0 -39.5 -5.5t-41.5 -15.5l-20 3l23 196h208v-70h-146l-9 -52q20 8 50 8q58 0 89 -31t31 -87q0 -58 -38.5 -91.5t-98.5 -33.5q-28 0 -46.5 3z" />
    <glyph glyph-name="six.numr" horiz-adv-x="300" 
d="M54.5 388q-34.5 45 -34.5 120q0 83 40.5 141t115.5 58q41 0 69 -19l8 -77h-11q-33 26 -66 26q-29 0 -48.5 -20.5t-26.5 -61.5q30 21 68 21q50 0 82 -31.5t32 -81.5t-37 -85t-91 -35q-66 0 -100.5 45zM192 423.5q14 14.5 14 37.5t-14 37.5t-38 14.5q-23 0 -37 -14.5
t-14 -37.5t14 -37.5t37 -14.5q24 0 38 14.5z" />
    <glyph glyph-name="seven.numr" horiz-adv-x="286" 
d="M164 628h-147v72h259v-15l-167 -335h-86z" />
    <glyph glyph-name="eight.numr" horiz-adv-x="288" 
d="M54 375q-34 32 -34 75q0 33 13.5 54t38.5 35q-20 16 -30 34.5t-10 41.5q0 38 31.5 65t80.5 27t80.5 -27t31.5 -65q0 -23 -10 -41.5t-30 -34.5q25 -14 38.5 -35t13.5 -54q0 -27 -15 -52t-43.5 -40t-65.5 -15q-56 0 -90 32zM171 582.5q10 10.5 10 26.5t-10 27t-27 11
t-27 -11t-10 -27t10 -26.5t27 -10.5t27 10.5zM178 420.5q14 13.5 14 36.5t-14 37t-34 14t-34 -14t-14 -37t14 -36.5t34 -13.5t34 13.5z" />
    <glyph glyph-name="nine.numr" horiz-adv-x="300" 
d="M55 362l-8 77h11q33 -26 66 -26q29 0 48.5 20.5t26.5 61.5q-30 -21 -68 -21q-50 0 -82 31.5t-32 81.5t37 85t91 35q66 0 100.5 -45t34.5 -120q0 -83 -40.5 -141t-115.5 -58q-41 0 -69 19zM183 551.5q14 14.5 14 37.5t-14 37.5t-37 14.5q-24 0 -38 -14.5t-14 -37.5
t14 -37.5t38 -14.5q23 0 37 14.5z" />
    <glyph glyph-name="fraction.ss01" horiz-adv-x="584" 
d="M30 411h524v-76h-524v76z" />
    <glyph glyph-name="onehalf.ss01" horiz-adv-x="584" 
d="M30 411h524v-76h-524v76zM251 801l47 33h35v-350h-82v317zM163 -74l131 163q28 35 28 67q0 18 -13 30t-35 12q-43 0 -75 -53h-22l4 83q18 18 47.5 28.5t60.5 10.5q58 0 89 -27.5t31 -72.5q0 -30 -12.5 -57.5t-40.5 -61.5l-55 -66h120v-72h-258v16z" />
    <glyph glyph-name="uni2153.ss01" horiz-adv-x="584" 
d="M30 411h524v-76h-524v76zM251 801l47 33h35v-350h-82v317zM223 -84q-28 6 -44 15l-8 84h13q24 -16 45 -25t44 -9q61 0 61 59q0 26 -16.5 41.5t-45.5 15.5q-8 0 -38 -5l-13 26l58 77h-112v72h240v-10l-79 -102q41 -10 65.5 -38.5t24.5 -76.5q0 -62 -38 -96t-100 -34
q-29 0 -57 6z" />
    <glyph glyph-name="uni2154.ss01" horiz-adv-x="584" 
d="M30 411h524v-76h-524v76zM163 500l131 163q28 35 28 67q0 18 -13 30t-35 12q-43 0 -75 -53h-22l4 83q18 18 47.5 28.5t60.5 10.5q58 0 89 -27.5t31 -72.5q0 -30 -12.5 -57.5t-40.5 -61.5l-55 -66h120v-72h-258v16zM223 -84q-28 6 -44 15l-8 84h13q24 -16 45 -25t44 -9
q61 0 61 59q0 26 -16.5 41.5t-45.5 15.5q-8 0 -38 -5l-13 26l58 77h-112v72h240v-10l-79 -102q41 -10 65.5 -38.5t24.5 -76.5q0 -62 -38 -96t-100 -34q-29 0 -57 6z" />
    <glyph glyph-name="onequarter.ss01" horiz-adv-x="584" 
d="M30 411h524v-76h-524v76zM251 801l47 33h35v-350h-82v317zM288 -15h-159v59l190 223h51v-210h44v-72h-44v-68h-82v68zM288 57v81l-67 -81h67z" />
    </font>
</defs>
</svg>
