<?xml version="1.0" standalone="no"?>
<!DOCTYPE svg PUBLIC "-//W3C//DTD SVG 1.1//EN" "http://www.w3.org/Graphics/SVG/1.1/DTD/svg11.dtd" >
<svg xmlns="http://www.w3.org/2000/svg" xmlns:xlink="http://www.w3.org/1999/xlink" version="1.1">
<metadata>
Created by FontForge 20170731 at Wed Oct 31 13:10:28 2018
 By Aleksey,,,
Copyright (c) 2012-2018 by Colophon Foundry. All rights reserved.
</metadata>
<defs>
<font id="ValueSansPro-Medium" horiz-adv-x="650" >
  <font-face 
    font-family="Value Sans Pro Medium"
    font-weight="500"
    font-stretch="normal"
    units-per-em="1000"
    panose-1="2 11 6 3 5 1 1 4 1 3"
    ascent="774"
    descent="-226"
    x-height="494"
    cap-height="700"
    bbox="-421 -319 1158 952"
    underline-thickness="100"
    underline-position="-360"
    unicode-range="U+000D-FB02"
  />
<missing-glyph horiz-adv-x="638" 
d="M66 700h506v-700h-506v700zM421 614h-203l101 -170zM262 350l-102 170v-340zM478 520l-102 -170l102 -170v340zM421 86l-102 170l-101 -170h203z" />
    <glyph glyph-name="f_f" unicode="ff" horiz-adv-x="659" 
d="M529 605.5q-16 -17.5 -16 -48.5v-63h84v-92h-84v-402h-106v402h-199v-402h-106v402h-61v92h61v64q0 48 21.5 83.5t55.5 54t73 18.5q26 0 46 -5t40 -16l3 -96h-9q-13 12 -30 19t-33 7q-28 0 -44.5 -18t-16.5 -49v-62h199v64q0 49 21 84.5t55.5 53.5t72.5 18q27 0 45.5 -5
t39.5 -16l4 -96h-10q-13 13 -30.5 19.5t-32.5 6.5q-27 0 -43 -17.5z" />
    <glyph glyph-name="f_f_i" unicode="ffi" horiz-adv-x="878" 
d="M817 0h-106v402h-198v-402h-106v402h-199v-402h-106v402h-61v92h61v64q0 48 21.5 83.5t55.5 54t73 18.5q26 0 46 -5t40 -16l3 -96h-9q-13 12 -30 19t-33 7q-28 0 -44.5 -18t-16.5 -49v-62h199v64q0 49 21 84.5t55.5 53.5t72.5 18q27 0 45.5 -5t39.5 -16l4 -96h-10
q-13 13 -30.5 19.5t-32.5 6.5q-27 0 -43 -17.5t-16 -48.5v-63h304v-494zM715.5 595.5q-20.5 20.5 -20.5 48.5q0 29 20 49.5t49 20.5t49.5 -20.5t20.5 -49.5q0 -28 -20.5 -48.5t-49.5 -20.5q-28 0 -48.5 20.5z" />
    <glyph glyph-name="f_i" unicode="fi" horiz-adv-x="573" 
d="M512 0h-106v402h-199v-402h-106v402h-60v92h60v64q0 49 21.5 84.5t55.5 53.5t73 18q26 0 45.5 -5t39.5 -16l4 -96h-10q-13 13 -30.5 19.5t-32.5 6.5q-28 0 -44 -17.5t-16 -48.5v-63h305v-494zM409.5 595.5q-20.5 20.5 -20.5 48.5q0 29 20 49.5t49 20.5t49.5 -20.5
t20.5 -49.5t-20.5 -49t-49.5 -20q-28 0 -48.5 20.5z" />
    <glyph glyph-name="f_l" unicode="fl" horiz-adv-x="582" 
d="M101 402h-60v92h60v64q0 49 21.5 84.5t55.5 53.5t73 18q26 0 45.5 -5t39.5 -16l4 -96h-10q-13 13 -30.5 19.5t-32.5 6.5q-28 0 -44 -17.5t-16 -48.5v-63h84v-92h-84v-402h-106v402zM415 720h106v-720h-106v720z" />
    <glyph glyph-name=".notdef" horiz-adv-x="638" 
d="M66 700h506v-700h-506v700zM421 614h-203l101 -170zM262 350l-102 170v-340zM478 520l-102 -170l102 -170v340zM421 86l-102 170l-101 -170h203z" />
    <glyph glyph-name=".null" horiz-adv-x="0" 
 />
    <glyph glyph-name="nonmarkingreturn" unicode="&#xd;" horiz-adv-x="0" 
 />
    <glyph glyph-name="space" unicode=" " horiz-adv-x="220" 
 />
    <glyph glyph-name="exclam" unicode="!" horiz-adv-x="238" 
d="M66 700h106v-490h-106v490zM70.5 6.5q-20.5 20.5 -20.5 48.5q0 29 20.5 49t48.5 20q29 0 49 -20t20 -49q0 -28 -20 -48.5t-49 -20.5q-28 0 -48.5 20.5z" />
    <glyph glyph-name="quotedbl" unicode="&#x22;" horiz-adv-x="368" 
d="M40 700h118l-22 -227h-74zM210 700h118l-22 -227h-74z" />
    <glyph glyph-name="numbersign" unicode="#" horiz-adv-x="706" 
d="M150 189h-120l19 88h117l27 146h-122l19 88h119l35 189h98l-35 -189h152l35 189h98l-35 -189h119l-19 -88h-117l-27 -146h123l-19 -88h-120l-35 -189h-98l35 189h-151l-36 -189h-98zM415 277l27 146h-151l-27 -146h151z" />
    <glyph glyph-name="dollar" unicode="$" horiz-adv-x="521" 
d="M431 59q-50 -57 -133 -70v-65h-67v63q-58 3 -104 23.5t-78 49.5l7 134h10q36 -45 76 -74t89 -34v242l-3 1q-172 77 -172 204q0 74 50 122t125 57v64h67v-64q80 -8 131 -52l5 -123h-13q-56 64 -123 79v-204l8 -4q86 -38 130.5 -87.5t44.5 -122.5q0 -82 -50 -139z
M177.5 488q17.5 -22 53.5 -43v172q-33 -7 -52 -27.5t-19 -52.5q0 -27 17.5 -49zM347.5 128.5q17.5 25.5 17.5 61.5q0 34 -17 58t-50 45v-201q32 11 49.5 36.5z" />
    <glyph glyph-name="percent" unicode="%" horiz-adv-x="711" 
d="M121 419q-37 21 -59 57t-22 80t22 80t59 57t82 21t82 -21t59 -57t22 -80t-22 -80t-59 -57t-82 -21t-82 21zM263.5 494q24.5 24 24.5 62q0 39 -24.5 62.5t-60.5 23.5t-60.5 -23.5t-24.5 -62.5q0 -38 25 -62t60 -24q36 0 60.5 24zM153 159l333 412l49 -41l-331 -411zM426 7
q-37 21 -59 57t-22 80t22 80t59 57t82 21t82 -21t59 -57t22 -80t-22 -80t-59 -57t-82 -21t-82 21zM568.5 82q24.5 24 24.5 62q0 39 -24.5 62.5t-60.5 23.5t-60.5 -23.5t-24.5 -62.5q0 -38 25 -62t60 -24q36 0 60.5 24z" />
    <glyph glyph-name="ampersand" unicode="&#x26;" horiz-adv-x="640" 
d="M138 11.5q-48 25.5 -75.5 72.5t-27.5 108q0 59 35.5 112.5t101.5 88.5q-59 78 -59 147q0 54 26 93.5t69 60t91 20.5q52 0 93 -20t64 -55t23 -79q0 -62 -38 -108.5t-117 -86.5l125 -153q42 59 77 141h13l28 -123q-23 -53 -54 -96l109 -134h-131l-49 59q-87 -73 -195 -73
q-61 0 -109 25.5zM354.5 492q24.5 28 24.5 61q0 34 -22.5 54.5t-57.5 20.5q-36 0 -59.5 -23.5t-23.5 -61.5q0 -24 12.5 -49.5t37.5 -57.5q64 28 88.5 56zM381 135l-149 183q-40 -23 -60.5 -54.5t-20.5 -67.5q0 -51 31 -81.5t82 -30.5q60 0 117 51z" />
    <glyph glyph-name="quotesingle" unicode="'" horiz-adv-x="198" 
d="M40 700h118l-22 -227h-74z" />
    <glyph glyph-name="parenleft" unicode="(" horiz-adv-x="306" 
d="M93 -19q-43 119 -43 256q0 138 42.5 256.5t109.5 206.5h84q-130 -217 -130 -463t130 -463h-84q-66 88 -109 207z" />
    <glyph glyph-name="parenright" unicode=")" horiz-adv-x="306" 
d="M150 237q0 246 -130 463h84q67 -88 109.5 -206.5t42.5 -256.5q0 -137 -43 -256t-109 -207h-84q130 217 130 463z" />
    <glyph glyph-name="asterisk" unicode="*" horiz-adv-x="398" 
d="M154 394l33 127l-94 -92l-11 3l-38 65l3 11l129 35l-129 36l-3 11l38 64l11 4l94 -92l-33 126l8 8h75l8 -8l-33 -126l94 92l11 -4l37 -64l-2 -11l-129 -36l129 -35l2 -11l-37 -65l-11 -3l-94 92l33 -127l-8 -8h-75z" />
    <glyph glyph-name="plus" unicode="+" horiz-adv-x="488" 
d="M201 264h-161v86h161v161h86v-161h161v-86h-161v-161h-86v161z" />
    <glyph glyph-name="comma" unicode="," horiz-adv-x="222" 
d="M57 -102q48 32 53 88q-27 0 -46.5 19t-19.5 47q0 29 19 48.5t47 19.5q29 0 48.5 -21.5t19.5 -54.5q0 -108 -113 -168z" />
    <glyph glyph-name="hyphen" unicode="-" horiz-adv-x="398" 
d="M40 360h318v-86h-318v86z" />
    <glyph glyph-name="period" unicode="." horiz-adv-x="222" 
d="M63.5 5.5q-19.5 19.5 -19.5 46.5q0 28 19.5 48t46.5 20q29 0 48.5 -19.5t19.5 -48.5q0 -27 -20 -46.5t-48 -19.5q-27 0 -46.5 19.5z" />
    <glyph glyph-name="slash" unicode="/" horiz-adv-x="549" 
d="M414 700h120l-399 -700h-120z" />
    <glyph glyph-name="zero" unicode="0" horiz-adv-x="681" 
d="M180 33q-69 47 -106 129.5t-37 187.5t37 187.5t106 129.5t161 47t160.5 -47t105.5 -129.5t37 -187.5t-37 -187.5t-105.5 -129.5t-160.5 -47t-161 47zM478 155.5q50 70.5 50 194.5t-50 194.5t-137 70.5t-137.5 -70.5t-50.5 -194.5t50.5 -194.5t137.5 -70.5t137 70.5z" />
    <glyph glyph-name="one" unicode="1" horiz-adv-x="248" 
d="M66 644l82 56h34v-700h-116v644z" />
    <glyph glyph-name="two" unicode="2" horiz-adv-x="558" 
d="M36 15l273 338q34 43 49.5 77.5t15.5 73.5q0 52 -33 82t-85 30t-98 -29.5t-77 -78.5h-12l7 128q36 37 86 57.5t102 20.5q68 0 118 -25.5t76.5 -70.5t26.5 -103q0 -57 -24 -110t-71 -109l-163 -198h283v-98h-474v15z" />
    <glyph glyph-name="three" unicode="3" horiz-adv-x="576" 
d="M75 31l-13 120h11q44 -31 88.5 -49t93.5 -18q68 0 113 40t45 110t-43.5 110.5t-117.5 40.5q-41 0 -78 -9l-11 25l151 201h-257v98h436v-15l-170 -219q89 -14 145 -71t56 -155q0 -77 -34 -134.5t-95 -88.5t-140 -31q-98 0 -180 45z" />
    <glyph glyph-name="four" unicode="4" horiz-adv-x="563" 
d="M334 167h-316v55l398 478h34v-435h75v-98h-75v-167h-116v167zM334 265v204l-167 -204h167z" />
    <glyph glyph-name="five" unicode="5" horiz-adv-x="544" 
d="M152.5 -6q-36.5 8 -89.5 28l-25 128h11q88 -66 188 -66q68 0 113 38.5t45 110.5q0 71 -43 110.5t-111 39.5q-82 0 -174 -55l-24 4l44 368h387v-98h-301l-23 -154q59 25 118 25q110 0 174 -63t64 -174q0 -75 -34.5 -131.5t-94.5 -87.5t-134 -31q-54 0 -90.5 8z" />
    <glyph glyph-name="six" unicode="6" horiz-adv-x="596" 
d="M112.5 76.5q-66.5 90.5 -66.5 239.5q0 107 34 197.5t102.5 145.5t166.5 55q73 0 128 -33l12 -111h-15q-34 26 -63 36t-62 10q-78 0 -127.5 -60t-59.5 -170q29 31 74.5 49.5t92.5 18.5q66 0 117 -29t79.5 -81.5t28.5 -118.5q0 -64 -33 -119t-90 -87.5t-124 -32.5
q-128 0 -194.5 90.5zM403.5 123q37.5 39 37.5 99t-37.5 99t-98.5 39t-98.5 -39t-37.5 -99q0 -59 37.5 -98.5t98.5 -39.5t98.5 39z" />
    <glyph glyph-name="seven" unicode="7" horiz-adv-x="556" 
d="M377 602h-325v98h485v-15l-344 -685h-122z" />
    <glyph glyph-name="eight" unicode="8" horiz-adv-x="561" 
d="M154.5 18q-53.5 32 -81.5 81.5t-28 100.5q0 64 29.5 109t79.5 73q-82 59 -82 148q0 51 26.5 93t74.5 66.5t108 24.5t107.5 -24.5t74 -66.5t26.5 -93q0 -88 -81 -148q108 -60 108 -182q0 -51 -28 -100.5t-81 -81.5t-126 -32t-126.5 32zM353 455q28 27 28 70q0 42 -28 69
t-72 27t-72.5 -27t-28.5 -69q0 -43 28.5 -70t72.5 -27t72 27zM368.5 119q36.5 35 36.5 91q0 55 -36.5 90t-87.5 35t-88 -35t-37 -90q0 -56 37 -91t88 -35t87.5 35z" />
    <glyph glyph-name="nine" unicode="9" horiz-adv-x="593" 
d="M116 19l-12 112h15q34 -26 63 -36.5t62 -10.5q78 0 127.5 60t59.5 171q-29 -32 -72.5 -50t-94.5 -18q-65 0 -116 29t-80 81t-29 119q0 64 33 119t89.5 87t124.5 32q128 0 194.5 -90t66.5 -240q0 -107 -34 -197.5t-102.5 -145.5t-166.5 -55q-73 0 -128 33zM386.5 379.5
q37.5 39.5 37.5 98.5q0 60 -37.5 99t-98.5 39t-98.5 -39t-37.5 -99t37.5 -99t98.5 -39t98.5 39.5z" />
    <glyph glyph-name="colon" unicode=":" horiz-adv-x="222" 
d="M63.5 363.5q-19.5 19.5 -19.5 46.5q0 28 19.5 48t46.5 20q29 0 48.5 -19.5t19.5 -48.5q0 -27 -20 -46.5t-48 -19.5q-27 0 -46.5 19.5zM63.5 5.5q-19.5 19.5 -19.5 46.5q0 28 19.5 48t46.5 20q29 0 48.5 -19.5t19.5 -48.5q0 -27 -20 -46.5t-48 -19.5q-27 0 -46.5 19.5z
" />
    <glyph glyph-name="semicolon" unicode=";" horiz-adv-x="222" 
d="M63.5 363.5q-19.5 19.5 -19.5 46.5q0 28 19.5 48t46.5 20q29 0 48.5 -19.5t19.5 -48.5q0 -27 -20 -46.5t-48 -19.5q-27 0 -46.5 19.5zM57 -103q48 32 53 88q-27 0 -46.5 19t-19.5 47q0 29 19 49t47 20t48 -20t20 -49q0 -63 -30.5 -105t-82.5 -71z" />
    <glyph glyph-name="less" unicode="&#x3c;" horiz-adv-x="418" 
d="M46 265v80l311 213h15v-100l-229 -153l229 -152v-101h-15z" />
    <glyph glyph-name="equal" unicode="=" horiz-adv-x="500" 
d="M46 455h408v-86h-408v86zM46 235h408v-86h-408v86z" />
    <glyph glyph-name="greater" unicode="&#x3e;" horiz-adv-x="418" 
d="M46 153l230 152l-230 153v100h16l310 -213v-80l-310 -213h-16v101z" />
    <glyph glyph-name="question" unicode="?" horiz-adv-x="447" 
d="M155 239q0 40 11.5 71t27.5 53t44 53q33 36 48.5 61t15.5 59q0 41 -27 64.5t-74 23.5q-44 0 -85 -25t-66 -56h-11l8 115q32 25 75.5 40.5t87.5 15.5q88 0 143 -44t55 -123q0 -55 -21 -92t-61 -80q-33 -36 -49 -62.5t-16 -61.5v-41h-106v29zM162 6q-20 20 -20 49t20 49
t48 20q29 0 49.5 -20t20.5 -49t-20.5 -49t-49.5 -20q-28 0 -48 20z" />
    <glyph glyph-name="at" unicode="@" horiz-adv-x="869" 
d="M234.5 -33.5q-91.5 51.5 -143 143t-51.5 205.5q0 113 54.5 204t146.5 143t200 52q109 0 197.5 -49t139.5 -134t51 -190q0 -66 -22 -114t-59 -72.5t-81 -24.5q-43 0 -73.5 21t-44.5 55q-56 -76 -143 -76q-45 0 -85.5 23t-65.5 66t-25 100q0 54 25 97.5t66.5 67.5t90.5 24
q34 0 65 -13.5t49 -35.5v39h81v-206q0 -46 16.5 -68t45.5 -22q31 0 52.5 32.5t21.5 89.5q0 98 -40 168t-108.5 105.5t-153.5 35.5q-83 0 -154 -40t-113 -112.5t-42 -165.5q0 -94 40 -166.5t110.5 -112.5t158.5 -40q95 0 184 57h13l-5 -87q-89 -51 -192 -51
q-115 0 -206.5 51.5zM499 235.5q30 33.5 30 83.5t-30 83.5t-79 33.5q-48 0 -78 -33.5t-30 -83.5t30 -83.5t78 -33.5q49 0 79 33.5z" />
    <glyph glyph-name="A" unicode="A" horiz-adv-x="686" 
d="M326 700h34l307 -700h-114l-56 131h-308l-56 -131h-114zM456 229l-113 263l-112 -263h225z" />
    <glyph glyph-name="B" unicode="B" horiz-adv-x="600" 
d="M66 700h237q109 0 170 -48.5t61 -127.5q0 -55 -28 -94.5t-76 -61.5q63 -18 101 -62t38 -108t-32.5 -108.5t-85.5 -67t-116 -22.5h-269v700zM303 409q60 0 88 26t28 70t-28 70t-88 26h-121v-192h121zM327 99q62 0 94 28.5t32 77.5t-32 77t-94 28h-145v-211h145z" />
    <glyph glyph-name="C" unicode="C" horiz-adv-x="664" 
d="M216.5 33q-83.5 47 -131.5 130t-48 187t48.5 187t132 130t185.5 47q63 0 110.5 -14t92.5 -42l8 -122h-14q-45 37 -92 56.5t-104 19.5q-73 0 -130 -32.5t-89 -92t-32 -137.5q0 -77 32 -136.5t89.5 -92.5t129.5 -33q56 0 103 19.5t93 57.5h14l-8 -122q-45 -28 -93.5 -42.5
t-110.5 -14.5q-102 0 -185.5 47z" />
    <glyph glyph-name="D" unicode="D" horiz-adv-x="633" 
d="M66 700h164q103 0 186.5 -42t131.5 -121t48 -187q0 -107 -48 -186.5t-131.5 -121.5t-186.5 -42h-164v700zM231 99q74 0 131 30t89 86.5t32 134.5t-32 134.5t-89 86.5t-131 30h-49v-502h49z" />
    <glyph glyph-name="E" unicode="E" horiz-adv-x="534" 
d="M66 700h423v-98h-307v-193h296v-98h-296v-213h311v-98h-427v700z" />
    <glyph glyph-name="F" unicode="F" horiz-adv-x="553" 
d="M66 700h436v-99h-320v-216h309v-99h-309v-286h-116v700z" />
    <glyph glyph-name="G" unicode="G" horiz-adv-x="739" 
d="M217 32.5q-83 46.5 -131.5 129.5t-48.5 188t50.5 188t137 129.5t190.5 46.5q132 0 225 -64l9 -118h-16q-57 43 -109 61.5t-108 18.5q-73 0 -133 -31.5t-95 -91t-35 -139.5t33 -139.5t90 -91t129 -31.5q95 0 168 60v150h-209v98h325v-291q-69 -60 -138 -89.5t-150 -29.5
q-101 0 -184 46.5z" />
    <glyph glyph-name="H" unicode="H" horiz-adv-x="668" 
d="M66 700h116v-282h304v282h116v-700h-116v320h-304v-320h-116v700z" />
    <glyph glyph-name="I" unicode="I" horiz-adv-x="248" 
d="M66 700h116v-700h-116v700z" />
    <glyph glyph-name="J" unicode="J" horiz-adv-x="397" 
d="M106 -11q-20 3 -50 11l-12 103h16q43 -19 77 -19q37 0 57.5 24t20.5 74v518h116v-510q0 -97 -47.5 -150.5t-127.5 -53.5q-30 0 -50 3z" />
    <glyph glyph-name="K" unicode="K" horiz-adv-x="602" 
d="M66 700h116v-329l255 329h130l-269 -341l293 -359h-136l-273 332v-332h-116v700z" />
    <glyph glyph-name="L" unicode="L" horiz-adv-x="571" 
d="M66 700h116v-602h351v-98h-467v700z" />
    <glyph glyph-name="M" unicode="M" horiz-adv-x="888" 
d="M207 700h38l199 -471l199 471h38l184 -700h-114l-111 420l-183 -420h-26l-182 420l-111 -420h-115z" />
    <glyph glyph-name="N" unicode="N" horiz-adv-x="693" 
d="M66 700h47l398 -457v457h116v-700h-47l-398 459v-459h-116v700z" />
    <glyph glyph-name="O" unicode="O" horiz-adv-x="813" 
d="M219.5 33.5q-84.5 47.5 -133.5 130.5t-49 186t49 186t133.5 130.5t186.5 47.5t187 -47.5t134 -130.5t49 -186t-49 -186t-134 -130.5t-187 -47.5t-186.5 47.5zM535.5 119q58.5 32 92 91.5t33.5 139.5t-33.5 140t-92 92t-129.5 32t-129 -32t-91.5 -92t-33.5 -140
t33.5 -139.5t91.5 -91.5t129 -32t129.5 32z" />
    <glyph glyph-name="P" unicode="P" horiz-adv-x="540" 
d="M66 700h191q78 0 134.5 -28t86.5 -76.5t30 -110.5t-30 -110.5t-86.5 -76.5t-134.5 -28h-75v-270h-116v700zM258 369q64 0 99 30t35 86t-34.5 86t-99.5 30h-76v-232h76z" />
    <glyph glyph-name="Q" unicode="Q" horiz-adv-x="820" 
d="M621 51q-93 -65 -215 -65q-102 0 -186.5 47.5t-133.5 130.5t-49 186t49 186t133.5 130.5t186.5 47.5t186.5 -47.5t133.5 -130.5t49 -186q0 -65 -20.5 -123.5t-58.5 -105.5l99 -98l-72 -74zM547 125l-79 81l72 72l79 -79q40 66 40 151q0 80 -33 140t-91 92.5t-129 32.5
t-129 -32.5t-91 -92.5t-33 -140t33.5 -140t91 -92.5t128.5 -32.5q79 0 141 40z" />
    <glyph glyph-name="R" unicode="R" horiz-adv-x="572" 
d="M66 700h203q104 0 169.5 -53t65.5 -146q0 -69 -39 -116t-102 -69l190 -316h-126l-182 302h-63v-302h-116v700zM264 401q60 0 92 25.5t32 74.5t-32 74.5t-92 25.5h-82v-200h82z" />
    <glyph glyph-name="S" unicode="S" horiz-adv-x="521" 
d="M137 7q-52 21 -88 53l7 134h10q40 -50 84 -79.5t101 -29.5q52 0 83 28.5t31 76.5t-33 77.5t-104 61.5q-172 77 -172 204q0 55 28 96t75 63t102 22q56 0 98.5 -15t69.5 -39l5 -123h-13q-74 83 -160 83q-46 0 -73.5 -22t-27.5 -61q0 -38 34.5 -66.5t111.5 -62.5
q86 -38 130.5 -87.5t44.5 -122.5q0 -61 -29 -109t-80 -75.5t-117 -27.5t-118 21z" />
    <glyph glyph-name="T" unicode="T" horiz-adv-x="542" 
d="M213 602h-176v98h468v-98h-176v-602h-116v602z" />
    <glyph glyph-name="U" unicode="U" horiz-adv-x="654" 
d="M184 20q-61 34 -94 98t-33 152v430h116v-444q0 -89 44.5 -130.5t109.5 -41.5t109.5 41.5t44.5 130.5v444h116v-430q0 -88 -33 -152t-94 -98t-143 -34t-143 34z" />
    <glyph glyph-name="V" unicode="V" horiz-adv-x="696" 
d="M15 700h122l211 -498l211 498h122l-308 -700h-50z" />
    <glyph glyph-name="W" unicode="W" horiz-adv-x="970" 
d="M22 700h122l145 -443l170 443h52l170 -443l145 443h122l-237 -700h-42l-184 483l-184 -483h-42z" />
    <glyph glyph-name="X" unicode="X" horiz-adv-x="616" 
d="M248 379l-195 321h123l132 -225l132 225h123l-195 -321l228 -379h-123l-165 280l-165 -280h-123z" />
    <glyph glyph-name="Y" unicode="Y" horiz-adv-x="600" 
d="M242 300l-228 400h127l159 -293l160 293h126l-228 -400v-300h-116v300z" />
    <glyph glyph-name="Z" unicode="Z" horiz-adv-x="601" 
d="M25 15l355 587h-325v98h498v-15l-356 -587h370v-98h-542v15z" />
    <glyph glyph-name="bracketleft" unicode="[" horiz-adv-x="291" 
d="M60 700h196v-98h-90v-730h90v-98h-196v926z" />
    <glyph glyph-name="backslash" unicode="\" horiz-adv-x="549" 
d="M15 700h120l399 -700h-120z" />
    <glyph glyph-name="bracketright" unicode="]" horiz-adv-x="291" 
d="M35 -128h90v730h-90v98h196v-926h-196v98z" />
    <glyph glyph-name="asciicircum" unicode="^" horiz-adv-x="524" 
d="M35 409l192 291h71l191 -291v-16h-97l-130 198l-130 -198h-97v16z" />
    <glyph glyph-name="underscore" unicode="_" horiz-adv-x="512" 
d="M22 0h468v-86h-468v86z" />
    <glyph glyph-name="grave" unicode="`" horiz-adv-x="292" 
d="M30 700h140l92 -137h-90z" />
    <glyph glyph-name="a" unicode="a" horiz-adv-x="616" 
d="M161 19.5q-57 33.5 -91.5 93.5t-34.5 134q0 71 33.5 131t91.5 95t128 35q52 0 94 -19t67 -48v53h106v-494h-106v54q-64 -68 -165 -68q-66 0 -123 33.5zM380.5 105q35.5 22 54.5 59.5t19 82.5t-19 82.5t-54.5 59.5t-82.5 22t-83 -22t-55 -59.5t-19 -82.5t19.5 -82.5
t55 -59.5t82.5 -22t82.5 22z" />
    <glyph glyph-name="b" unicode="b" horiz-adv-x="621" 
d="M240 6q-43 20 -73 54v-60h-106v720h106v-285q30 33 74 53t98 20q68 0 124.5 -32t89.5 -91.5t33 -137.5q0 -75 -32.5 -134.5t-89.5 -93t-127 -33.5q-54 0 -97 20zM404 105q36 22 56 59.5t20 82.5q0 46 -20 83.5t-56 59t-83 21.5t-83 -21.5t-56 -59t-20 -83.5
q0 -45 20 -82.5t56 -59.5t83 -22t83 22z" />
    <glyph glyph-name="c" unicode="c" horiz-adv-x="494" 
d="M167 18q-60 32 -96 91t-36 138t36 138.5t96.5 91t130.5 31.5q89 0 144 -41l4 -110h-12q-33 29 -64.5 41.5t-71.5 12.5q-70 0 -113.5 -46t-43.5 -118t42.5 -118t114.5 -46q39 0 70.5 12.5t64.5 41.5h12l-4 -109q-54 -42 -143 -42q-71 0 -131 32z" />
    <glyph glyph-name="d" unicode="d" horiz-adv-x="621" 
d="M157 20q-57 34 -89.5 93.5t-32.5 133.5q0 77 33.5 136.5t91.5 92t128 32.5q53 0 96 -19t70 -51v282h106v-720h-106v60q-65 -74 -170 -74q-70 0 -127 34zM383 105q36 22 56 59.5t20 82.5q0 46 -20 83.5t-56 59t-83 21.5t-83 -21.5t-56 -59t-20 -83.5q0 -45 20 -82.5
t56 -59.5t83 -22t83 22z" />
    <glyph glyph-name="e" unicode="e" horiz-adv-x="568" 
d="M165 20.5q-61 34.5 -95.5 95t-34.5 133.5q0 72 33.5 131.5t91.5 93.5t129 34q72 0 127 -32.5t84.5 -89.5t29.5 -127v-40h-392q9 -67 55.5 -104t111.5 -37q49 0 92 16.5t87 56.5h11l-4 -106q-88 -59 -190 -59q-75 0 -136 34.5zM428 297q-7 56 -45.5 89.5t-96.5 33.5
q-51 0 -91.5 -32t-52.5 -91h286z" />
    <glyph glyph-name="f" unicode="f" horiz-adv-x="354" 
d="M101 402h-60v92h60v64q0 49 21.5 84.5t55.5 53.5t73 18q26 0 45.5 -5t39.5 -16l4 -96h-10q-13 13 -30.5 19.5t-32.5 6.5q-28 0 -44 -17.5t-16 -48.5v-63h84v-92h-84v-402h-106v402z" />
    <glyph glyph-name="g" unicode="g" horiz-adv-x="608" 
d="M122 -199l-4 102h19q31 -22 66 -34t81 -12q72 0 114.5 40t42.5 115v54q-26 -32 -68 -49t-92 -17q-67 0 -123.5 32.5t-89.5 90.5t-33 131q0 77 35.5 134.5t92.5 88.5t120 31q53 0 93 -18t65 -49v53h106v-449q0 -147 -71 -216t-197 -69q-89 0 -157 41zM377.5 118.5
q34.5 21.5 52.5 57.5t18 78t-18 78t-52.5 57.5t-82.5 21.5t-83 -21.5t-53 -57.5t-18 -78t18 -78t53 -57.5t83 -21.5t82.5 21.5z" />
    <glyph glyph-name="h" unicode="h" horiz-adv-x="572" 
d="M61 720h106v-294q26 36 73.5 59t97.5 23q81 0 130 -45t49 -127v-336h-106v304q0 51 -30 79t-79 28q-36 0 -67 -18.5t-49.5 -52t-18.5 -75.5v-265h-106v720z" />
    <glyph glyph-name="i" unicode="i" horiz-adv-x="228" 
d="M65.5 595.5q-20.5 20.5 -20.5 48.5q0 29 20 49.5t49 20.5t49.5 -20.5t20.5 -49.5q0 -28 -20.5 -48.5t-49.5 -20.5q-28 0 -48.5 20.5zM61 494h106v-494h-106v494z" />
    <glyph glyph-name="j" unicode="j" horiz-adv-x="240" 
d="M73 595.5q-20 20.5 -20 48.5q0 29 20 49.5t48 20.5q29 0 50 -20.5t21 -49.5q0 -28 -21 -48.5t-50 -20.5q-28 0 -48 20.5zM-36 -223l-10 91h15q14 -9 24.5 -13t25.5 -4q50 0 50 58v585h106v-571q0 -81 -39 -122t-105 -41q-39 0 -67 17z" />
    <glyph glyph-name="k" unicode="k" horiz-adv-x="500" 
d="M61 720h106v-438l185 212h126l-201 -230l210 -264h-132l-188 238v-238h-106v720z" />
    <glyph glyph-name="l" unicode="l" horiz-adv-x="228" 
d="M61 720h106v-720h-106v720z" />
    <glyph glyph-name="m" unicode="m" horiz-adv-x="821" 
d="M61 494h106v-61q23 34 63.5 54.5t85.5 20.5q100 0 136 -75q28 35 70 55t91 20q73 0 113 -42t40 -115v-351h-106v319q0 45 -22.5 68.5t-63.5 23.5q-44 0 -75 -33.5t-31 -86.5v-291h-106v319q0 46 -23.5 69t-63.5 23q-47 0 -77.5 -37t-30.5 -98v-276h-106v494z" />
    <glyph glyph-name="n" unicode="n" horiz-adv-x="564" 
d="M61 494h106v-67q27 37 72 59t95 22q79 0 127 -45t48 -127v-336h-106v304q0 51 -29 79t-78 28q-55 0 -92 -41t-37 -105v-265h-106v494z" />
    <glyph glyph-name="o" unicode="o" horiz-adv-x="600" 
d="M167 20q-61 34 -96.5 94t-35.5 133q0 74 35.5 133.5t96.5 93.5t133 34q73 0 133.5 -34t96 -93.5t35.5 -133.5t-35.5 -133.5t-96 -93.5t-133.5 -34q-72 0 -133 34zM380.5 103.5q36.5 20.5 57.5 58t21 85.5t-21 85.5t-57.5 58t-80.5 20.5t-80.5 -20.5t-57.5 -58t-21 -85.5
t21 -85.5t57.5 -58t80.5 -20.5t80.5 20.5z" />
    <glyph glyph-name="p" unicode="p" horiz-adv-x="621" 
d="M61 494h106v-63q30 35 73.5 56t97.5 21q70 0 126.5 -33t89 -92.5t32.5 -135.5q0 -78 -33 -137.5t-89.5 -91.5t-124.5 -32q-55 0 -99.5 20t-72.5 54v-286h-106v720zM403 105q36 22 56.5 59.5t20.5 82.5q0 46 -20.5 83.5t-56.5 59t-82 21.5t-82 -21.5t-56.5 -59
t-20.5 -83.5q0 -45 20.5 -82.5t56.5 -59.5t82 -22t82 22z" />
    <glyph glyph-name="q" unicode="q" horiz-adv-x="621" 
d="M454 60q-30 -35 -73.5 -54.5t-98.5 -19.5q-68 0 -124.5 32t-89.5 91.5t-33 137.5q0 76 33 135.5t90 92.5t127 33q55 0 98.5 -21t70.5 -54v61h106v-720h-106v286zM382 105q36 22 56.5 59.5t20.5 82.5q0 46 -20.5 83.5t-56.5 59t-82 21.5t-82 -21.5t-56.5 -59t-20.5 -83.5
q0 -45 20.5 -82.5t56.5 -59.5t82 -22t82 22z" />
    <glyph glyph-name="r" unicode="r" horiz-adv-x="412" 
d="M61 494h106v-60q24 36 60 55t74 19q46 0 78 -23l7 -110h-14q-33 36 -85 36q-50 0 -85 -33.5t-35 -101.5v-276h-106v494z" />
    <glyph glyph-name="s" unicode="s" horiz-adv-x="423" 
d="M36 35l25 100h6q68 -52 137 -52q37 0 59 15.5t22 42.5q0 28 -23.5 44t-82.5 36q-129 44 -129 144q0 41 22 73.5t61.5 51t89.5 18.5q75 0 132 -35l4 -102h-7q-32 23 -62.5 34.5t-67.5 11.5q-32 0 -52.5 -12.5t-20.5 -35.5q0 -27 24 -44t82 -37q68 -23 102 -54.5t34 -90.5
q0 -47 -25 -83t-67 -55t-92 -19q-97 0 -171 49z" />
    <glyph glyph-name="t" unicode="t" horiz-adv-x="386" 
d="M142.5 25q-39.5 39 -39.5 112v265h-89v92h89v88l106 49v-137h137v-92h-137v-263q0 -31 17 -46t42 -15q18 0 35.5 6t39.5 23h12l-8 -96q-29 -15 -50 -20t-53 -5q-62 0 -101.5 39z" />
    <glyph glyph-name="u" unicode="u" horiz-adv-x="564" 
d="M103 31q-48 45 -48 127v336h106v-304q0 -51 29 -79t78 -28q55 0 92 41t37 105v265h106v-494h-106v68q-27 -37 -72 -59.5t-95 -22.5q-79 0 -127 45z" />
    <glyph glyph-name="v" unicode="v" horiz-adv-x="536" 
d="M16 494h113l139 -297l139 297h113l-241 -494h-22z" />
    <glyph glyph-name="w" unicode="w" horiz-adv-x="772" 
d="M14 494h110l123 -294l119 294h40l120 -294l122 294h110l-217 -494h-27l-128 319l-128 -319h-27z" />
    <glyph glyph-name="x" unicode="x" horiz-adv-x="486" 
d="M184 256l-151 238h118l93 -155l93 155h117l-148 -237l159 -257h-117l-105 172l-104 -172h-118z" />
    <glyph glyph-name="y" unicode="y" horiz-adv-x="520" 
d="M201 94l-189 400h113l132 -283l137 283h114l-349 -720h-113z" />
    <glyph glyph-name="z" unicode="z" horiz-adv-x="483" 
d="M32 15l240 382h-219v97h383v-15l-237 -382h243v-97h-410v15z" />
    <glyph glyph-name="braceleft" unicode="{" horiz-adv-x="337" 
d="M137.5 -193.5q-31.5 32.5 -31.5 87.5v239q0 30 -13 42.5t-39 12.5h-24v98h24q26 0 39 12.5t13 42.5v239q0 55 31.5 87.5t89.5 32.5h75v-98h-47q-43 0 -43 -50v-216q0 -80 -71 -99q35 -9 53 -32.5t18 -66.5v-216q0 -50 43 -50h47v-98h-75q-58 0 -89.5 32.5z" />
    <glyph glyph-name="bar" unicode="|" horiz-adv-x="238" 
d="M66 700h106v-926h-106v926z" />
    <glyph glyph-name="braceright" unicode="}" horiz-adv-x="337" 
d="M35 -128h47q43 0 43 50v216q0 43 18 66.5t53 32.5q-71 19 -71 99v216q0 50 -43 50h-47v98h75q58 0 89.5 -32.5t31.5 -87.5v-239q0 -30 13 -42.5t39 -12.5h24v-98h-24q-26 0 -39 -12.5t-13 -42.5v-239q0 -55 -31.5 -87.5t-89.5 -32.5h-75v98z" />
    <glyph glyph-name="asciitilde" unicode="~" horiz-adv-x="480" 
d="M277 270q-24 8 -55 23q-28 13 -45 19t-36 6q-24 0 -45 -11.5t-43 -33.5h-8l7 90q39 45 100 45q27 0 50 -8t55 -23q27 -13 45 -19t37 -6q47 0 88 44h8l-7 -90q-38 -44 -100 -44q-27 0 -51 8z" />
    <glyph glyph-name="uni00A0" unicode="&#xa0;" horiz-adv-x="220" 
 />
    <glyph glyph-name="exclamdown" unicode="&#xa1;" horiz-adv-x="238" 
d="M168 488q20 -20 20 -48q0 -29 -20 -49.5t-49 -20.5t-49 20.5t-20 49.5q0 28 20 48t49 20t49 -20zM172 284v-490h-106v490h106z" />
    <glyph glyph-name="cent" unicode="&#xa2;" horiz-adv-x="493" 
d="M260 -12q-63 8 -114 41.5t-81 89.5t-30 128t30 128t81 89.5t114 41.5v124h66v-123q67 -6 115 -40l4 -107h-12q-27 22 -52 33.5t-55 15.5v-323q30 3 55 14.5t51 33.5h12l-5 -105q-49 -38 -113 -42v-123h-66v124zM260 406q-54 -12 -86.5 -55.5t-32.5 -103.5
q0 -62 31.5 -104.5t87.5 -53.5v317z" />
    <glyph glyph-name="sterling" unicode="&#xa3;" horiz-adv-x="558" 
d="M85 330h-65v87h73l3 28q8 82 43 143t90.5 93.5t123.5 32.5q79 0 141 -37l12 -116l-14 -4q-76 59 -140 59q-57 0 -96.5 -43t-48.5 -126l-3 -30h173v-87h-180l-22 -231h348v-99h-465z" />
    <glyph glyph-name="currency" unicode="&#xa4;" horiz-adv-x="590" 
d="M56 168l63 62q-40 54 -40 120q0 67 40 120l-63 63l56 56l65 -64q55 33 118 33t118 -33l65 64l56 -56l-63 -63q40 -53 40 -120q0 -66 -40 -120l63 -62l-56 -57l-65 65q-54 -34 -118 -34t-118 34l-65 -65zM382.5 261q36.5 35 36.5 89t-36.5 89.5t-87.5 35.5t-87.5 -35.5
t-36.5 -89.5t36.5 -89t87.5 -35t87.5 35z" />
    <glyph glyph-name="yen" unicode="&#xa5;" horiz-adv-x="600" 
d="M242 161h-146v86h146v60h-146v86h97l-179 307h127l159 -283l160 283h126l-178 -307h96v-86h-146v-60h146v-86h-146v-161h-116v161z" />
    <glyph glyph-name="brokenbar" unicode="&#xa6;" horiz-adv-x="238" 
d="M66 700h106v-400h-106v400zM66 174h106v-400h-106v400z" />
    <glyph glyph-name="section" unicode="&#xa7;" horiz-adv-x="524" 
d="M160.5 -224q-43.5 16 -69.5 39l-4 119h10q77 -83 164 -83q44 0 72 22.5t28 60.5q0 36 -31 64.5t-114 69.5q-84 41 -125.5 88.5t-41.5 105.5q0 46 21.5 81t60.5 64q-61 56 -61 129q0 52 27.5 92.5t74.5 63t103 22.5q55 0 98 -16t69 -39l5 -119h-10q-77 83 -164 83
q-45 0 -73 -22.5t-28 -60.5q0 -36 31.5 -64.5t114.5 -68.5q83 -41 124.5 -89t41.5 -105q0 -46 -21 -81t-61 -65q61 -55 61 -129q0 -52 -27.5 -92.5t-74 -63t-102.5 -22.5q-55 0 -98.5 16zM377 204q0 38 -34.5 69.5t-104.5 64.5q-28 14 -33 17q-22 -17 -35 -38.5t-13 -46.5
q0 -38 34.5 -69t104.5 -65q22 -11 32 -17q49 37 49 85z" />
    <glyph glyph-name="dieresis" unicode="&#xa8;" horiz-adv-x="371" 
d="M48.5 583.5q-18.5 18.5 -18.5 43.5q0 26 18.5 45t43.5 19q26 0 45 -19t19 -45q0 -25 -19 -43.5t-45 -18.5q-25 0 -43.5 18.5zM233.5 583.5q-18.5 18.5 -18.5 43.5q0 26 18.5 45t43.5 19q26 0 45 -19t19 -45q0 -25 -19 -43.5t-45 -18.5q-25 0 -43.5 18.5z" />
    <glyph glyph-name="copyright" unicode="&#xa9;" horiz-adv-x="810" 
d="M215 34.5q-84 48.5 -131 132t-47 183.5t47 183.5t131 132t190 48.5t190 -48.5t131 -132t47 -183.5t-47 -183.5t-131 -132t-190 -48.5t-190 48.5zM555.5 93q66.5 40 103 108t36.5 149q0 82 -36.5 150t-103 107.5t-150.5 39.5t-150 -39.5t-103 -107.5t-37 -150
q0 -81 37 -149t103 -108t150 -40t150.5 40zM328 185q-43 23 -69 65.5t-26 99.5t26 99.5t69.5 65.5t93.5 23q65 0 104 -30l2 -79h-8q-23 21 -46 30t-52 9q-50 0 -81.5 -33t-31.5 -85t30.5 -85t82.5 -33q29 0 51.5 9t46.5 30h8l-3 -79q-39 -30 -103 -30q-51 0 -94 23z" />
    <glyph glyph-name="ordfeminine" unicode="&#xaa;" horiz-adv-x="461" 
d="M123.5 370.5q-40.5 23.5 -64.5 65.5t-24 95q0 50 23.5 92t64.5 66.5t90 24.5q36 0 66 -13t47 -34v37h74v-347h-74v38q-46 -48 -116 -48q-46 0 -86.5 23.5zM299 448.5q30 33.5 30 82.5t-29.5 82t-79.5 33t-80 -33t-30 -82t30 -82.5t80 -33.5q49 0 79 33.5z" />
    <glyph glyph-name="guillemotleft" unicode="&#xab;" horiz-adv-x="533" 
d="M32 289v56l233 200h16v-102l-147 -126l147 -126v-102h-16zM244 289v56l233 200h16v-102l-147 -126l147 -126v-102h-16z" />
    <glyph glyph-name="logicalnot" unicode="&#xac;" horiz-adv-x="475" 
d="M319 302h-267v92h371v-225h-104v133z" />
    <glyph glyph-name="uni00AD" unicode="&#xad;" horiz-adv-x="318" 
d="M0 360h318v-86h-318v86z" />
    <glyph glyph-name="registered" unicode="&#xae;" horiz-adv-x="810" 
d="M215 34.5q-84 48.5 -131 132t-47 183.5t47 183.5t131 132t190 48.5t190 -48.5t131 -132t47 -183.5t-47 -183.5t-131 -132t-190 -48.5t-190 48.5zM555.5 93q66.5 40 103 108t36.5 149q0 82 -36.5 150t-103 107.5t-150.5 39.5t-150 -39.5t-103 -107.5t-37 -150
q0 -81 37 -149t103 -108t150 -40t150.5 40zM287 544h127q55 0 89.5 -29.5t34.5 -78.5q0 -37 -22 -64t-56 -38l103 -162h-78l-96 155h-32v-155h-70v372zM403 385q62 0 62 51q0 25 -16 37.5t-46 12.5h-46v-101h46z" />
    <glyph glyph-name="macron" unicode="&#xaf;" horiz-adv-x="300" 
d="M30 659h240v-79h-240v79z" />
    <glyph glyph-name="degree" unicode="&#xb0;" horiz-adv-x="306" 
d="M64.5 505.5q-35.5 35.5 -35.5 86.5t35.5 86.5t88.5 35.5t88.5 -35.5t35.5 -86.5t-35.5 -86.5t-88.5 -35.5t-88.5 35.5zM205.5 539q19.5 21 19.5 53q0 33 -19.5 53.5t-52.5 20.5t-52.5 -20.5t-19.5 -53.5q0 -32 20 -53t52 -21q33 0 52.5 21z" />
    <glyph glyph-name="plusminus" unicode="&#xb1;" horiz-adv-x="500" 
d="M46 26h408v-86h-408v86zM207 264h-161v86h161v161h86v-161h161v-86h-161v-161h-86v161z" />
    <glyph glyph-name="uni00B2" unicode="&#xb2;" horiz-adv-x="287" 
d="M14 518l135 164q17 20 24.5 37.5t7.5 36.5q0 21 -15 34.5t-39 13.5q-47 0 -82 -54h-16l4 73q19 19 46.5 29.5t56.5 10.5q54 0 85.5 -28t31.5 -73q0 -28 -13 -56t-43 -63l-64 -76h133v-61h-252v12z" />
    <glyph glyph-name="uni00B3" unicode="&#xb3;" horiz-adv-x="292" 
d="M80 513q-26 7 -44 17l-7 73h10q45 -36 91 -36q31 0 49.5 17t18.5 49q0 30 -19 48t-50 18q-14 0 -38 -6l-11 21l67 88h-119v61h229v-8l-83 -107q42 -8 69 -37t27 -75q0 -62 -38.5 -96t-96.5 -34q-29 0 -55 7z" />
    <glyph glyph-name="acute" unicode="&#xb4;" horiz-adv-x="292" 
d="M122 700h140l-142 -137h-90z" />
    <glyph glyph-name="uni00B5" unicode="&#xb5;" horiz-adv-x="570" 
d="M61 494h106v-304q0 -51 29.5 -78.5t78.5 -27.5q54 0 91 40.5t37 105.5v264h106v-494h-106v67q-27 -37 -71 -59t-95 -22q-40 0 -70 15v-227h-106v720z" />
    <glyph glyph-name="paragraph" unicode="&#xb6;" horiz-adv-x="628" 
d="M245 349h-16q-95 0 -150 48t-55 128q0 79 55 127t150 48h333v-926h-104v835h-109v-835h-104v575z" />
    <glyph glyph-name="periodcentered" unicode="&#xb7;" horiz-adv-x="222" 
d="M63.5 305.5q-19.5 19.5 -19.5 46.5q0 28 19.5 48t46.5 20q29 0 48.5 -19.5t19.5 -48.5q0 -27 -20 -46.5t-48 -19.5q-27 0 -46.5 19.5z" />
    <glyph glyph-name="cedilla" unicode="&#xb8;" horiz-adv-x="286" 
d="M40 -226l-10 61l10 4q40 -22 73 -22q24 0 38.5 11t14.5 32q0 22 -14 32.5t-37 10.5q-12 0 -30 -3.5t-27 -7.5l-7 8l64 148l63 -22l-61 -86q23 9 54 9q38 0 61.5 -24.5t23.5 -63.5q0 -46 -35.5 -73.5t-93.5 -27.5q-52 0 -87 14z" />
    <glyph glyph-name="uni00B9" unicode="&#xb9;" horiz-adv-x="131" 
d="M30 826l47 33h24v-350h-71v317z" />
    <glyph glyph-name="ordmasculine" unicode="&#xba;" horiz-adv-x="443" 
d="M127.5 371q-42.5 24 -67.5 66t-25 94q0 51 25 93t67.5 66t93.5 24t94 -24t68 -66t25 -93q0 -52 -25 -94t-68 -66t-94 -24t-93.5 24zM300.5 447.5q32.5 32.5 32.5 83.5t-32.5 83t-79.5 32t-79 -32t-32 -83t32 -83.5t79 -32.5t79.5 32.5z" />
    <glyph glyph-name="guillemotright" unicode="&#xbb;" horiz-adv-x="533" 
d="M40 191l147 126l-147 126v102h16l233 -200v-56l-233 -200h-16v102zM252 191l147 126l-147 126v102h16l233 -200v-56l-233 -200h-16v102z" />
    <glyph glyph-name="onequarter" unicode="&#xbc;" horiz-adv-x="511" 
d="M30 667l47 33h24v-350h-71v317zM31 159l333 412l49 -41l-332 -411zM382 67h-159v46l192 230h38v-215h46v-61h-46v-74h-71v74zM382 128v92l-76 -92h76z" />
    <glyph glyph-name="onehalf" unicode="&#xbd;" horiz-adv-x="600" 
d="M30 667l47 33h24v-350h-71v317zM31 159l333 412l49 -41l-332 -411zM327 5l135 164q17 20 24.5 37.5t7.5 36.5q0 21 -15 34.5t-39 13.5q-47 0 -82 -54h-16l4 73q19 19 46.5 29.5t56.5 10.5q54 0 85.5 -28t31.5 -73q0 -28 -13 -56t-43 -63l-64 -76h133v-61h-252v12z" />
    <glyph glyph-name="threequarters" unicode="&#xbe;" horiz-adv-x="642" 
d="M80 350q-26 7 -44 17l-7 73h10q45 -36 91 -36q31 0 49.5 17t18.5 49q0 30 -19 48t-50 18q-14 0 -38 -6l-11 21l67 88h-119v61h229v-8l-83 -107q42 -8 69 -37t27 -75q0 -62 -38.5 -96t-96.5 -34q-29 0 -55 7zM162 159l333 412l49 -41l-332 -411zM513 67h-159v46l192 230
h38v-215h46v-61h-46v-74h-71v74zM513 128v92l-76 -92h76z" />
    <glyph glyph-name="questiondown" unicode="&#xbf;" horiz-adv-x="447" 
d="M286 488q20 -20 20 -48q0 -29 -20 -49.5t-49 -20.5t-49 20.5t-20 49.5q0 28 20 48t49 20t49 -20zM293 255q0 -56 -21.5 -94t-62.5 -82q-33 -37 -48.5 -62t-15.5 -59q0 -41 27.5 -64.5t74.5 -23.5q44 0 84.5 25t65.5 56h11l-7 -115q-31 -24 -75.5 -40t-87.5 -16
q-88 0 -143.5 44t-55.5 123q0 56 21 92.5t61 79.5q34 37 50 63t16 61v41h106v-29z" />
    <glyph glyph-name="Agrave" unicode="&#xc0;" horiz-adv-x="686" 
d="M326 700h34l307 -700h-114l-56 131h-308l-56 -131h-114zM456 229l-113 263l-112 -263h225zM313 769l-143 137h142l91 -137h-90z" />
    <glyph glyph-name="Aacute" unicode="&#xc1;" horiz-adv-x="686" 
d="M326 700h34l307 -700h-114l-56 131h-308l-56 -131h-114zM456 229l-113 263l-112 -263h225zM376 906h141l-143 -137h-90z" />
    <glyph glyph-name="Acircumflex" unicode="&#xc2;" horiz-adv-x="686" 
d="M326 700h34l307 -700h-114l-56 131h-308l-56 -131h-114zM456 229l-113 263l-112 -263h225zM282 906h123l98 -137h-81l-79 76l-79 -76h-81z" />
    <glyph glyph-name="Atilde" unicode="&#xc3;" horiz-adv-x="686" 
d="M326 700h34l307 -700h-114l-56 131h-308l-56 -131h-114zM456 229l-113 263l-112 -263h225zM366.5 775q-19.5 8 -43.5 23q-22 13 -34 18.5t-28 5.5q-23 0 -44 -12t-43 -35h-8l8 82q40 44 100 44q26 0 45.5 -8t42.5 -23q21 -12 34 -18t30 -6q45 0 87 47h7l-7 -82
q-40 -44 -100 -44q-27 0 -46.5 8z" />
    <glyph glyph-name="Adieresis" unicode="&#xc4;" horiz-adv-x="686" 
d="M326 700h34l307 -700h-114l-56 131h-308l-56 -131h-114zM456 229l-113 263l-112 -263h225zM205 789.5q-18 18.5 -18 43.5q0 26 18.5 45t43.5 19q26 0 45 -19t19 -45q0 -25 -19 -43.5t-45 -18.5t-44 18.5zM391 789.5q-18 18.5 -18 43.5q0 26 18.5 45t43.5 19
q26 0 45.5 -19t19.5 -45q0 -25 -19.5 -43.5t-45.5 -18.5t-44 18.5z" />
    <glyph glyph-name="Aring" unicode="&#xc5;" horiz-adv-x="686" 
d="M667 0h-114l-56 131h-308l-56 -131h-114l291 663q-31 11 -50.5 37t-19.5 59q0 42 30 71.5t73 29.5t73 -29.5t30 -71.5q0 -33 -19.5 -59t-50.5 -37zM301 717.5q16 -16.5 42 -16.5t42 16.5t16 41.5q0 24 -16 41t-42 17t-42 -17t-16 -41q0 -25 16 -41.5zM456 229l-113 263
l-112 -263h225z" />
    <glyph glyph-name="AE" unicode="&#xc6;" horiz-adv-x="996" 
d="M326 700h342l44 -98h-308l86 -193h283l42 -98h-282l94 -213h309l43 -98h-426l-56 131h-308l-56 -131h-114zM455 229l-112 263l-112 -263h224z" />
    <glyph glyph-name="Ccedilla" unicode="&#xc7;" horiz-adv-x="664" 
d="M296 -226l-9 61l9 4q40 -22 74 -22q22 0 37.5 11.5t15.5 32.5t-15 31.5t-38 10.5q-11 0 -28.5 -3.5t-27.5 -7.5l-7 8l39 90q-89 12 -159 61.5t-110 127t-40 171.5q0 104 48.5 187t132 130t185.5 47q63 0 110.5 -14t92.5 -42l8 -122h-14q-45 37 -92 56.5t-104 19.5
q-73 0 -130 -32.5t-89 -92t-32 -137.5q0 -77 32 -136.5t89.5 -92.5t129.5 -33q56 0 103 19.5t93 57.5h14l-8 -122q-45 -28 -92 -42t-108 -15l-33 -46q25 9 54 9q39 0 62 -24t23 -64q0 -46 -34.5 -73.5t-92.5 -27.5q-53 0 -89 14z" />
    <glyph glyph-name="Egrave" unicode="&#xc8;" horiz-adv-x="534" 
d="M66 700h423v-98h-307v-193h296v-98h-296v-213h311v-98h-427v700zM257 769l-143 137h142l91 -137h-90z" />
    <glyph glyph-name="Eacute" unicode="&#xc9;" horiz-adv-x="534" 
d="M66 700h423v-98h-307v-193h296v-98h-296v-213h311v-98h-427v700zM320 906h141l-143 -137h-90z" />
    <glyph glyph-name="Ecircumflex" unicode="&#xca;" horiz-adv-x="534" 
d="M66 700h423v-98h-307v-193h296v-98h-296v-213h311v-98h-427v700zM226 906h123l98 -137h-81l-79 76l-79 -76h-81z" />
    <glyph glyph-name="Edieresis" unicode="&#xcb;" horiz-adv-x="534" 
d="M66 700h423v-98h-307v-193h296v-98h-296v-213h311v-98h-427v700zM149 789.5q-18 18.5 -18 43.5q0 26 18.5 45t43.5 19q26 0 45 -19t19 -45q0 -25 -19 -43.5t-45 -18.5t-44 18.5zM335 789.5q-18 18.5 -18 43.5q0 26 18.5 45t43.5 19q26 0 45.5 -19t19.5 -45
q0 -25 -19.5 -43.5t-45.5 -18.5t-44 18.5z" />
    <glyph glyph-name="Igrave" unicode="&#xcc;" horiz-adv-x="248" 
d="M66 700h116v-700h-116v700zM94 769l-143 137h142l91 -137h-90z" />
    <glyph glyph-name="Iacute" unicode="&#xcd;" horiz-adv-x="248" 
d="M66 700h116v-700h-116v700zM157 906h141l-143 -137h-90z" />
    <glyph glyph-name="Icircumflex" unicode="&#xce;" horiz-adv-x="248" 
d="M66 700h116v-700h-116v700zM63 906h123l98 -137h-81l-79 76l-79 -76h-81z" />
    <glyph glyph-name="Idieresis" unicode="&#xcf;" horiz-adv-x="248" 
d="M66 700h116v-700h-116v700zM-14 789.5q-18 18.5 -18 43.5q0 26 18.5 45t43.5 19q26 0 45 -19t19 -45q0 -25 -19 -43.5t-45 -18.5t-44 18.5zM172 789.5q-18 18.5 -18 43.5q0 26 18.5 45t43.5 19q26 0 45.5 -19t19.5 -45q0 -25 -19.5 -43.5t-45.5 -18.5t-44 18.5z" />
    <glyph glyph-name="Eth" unicode="&#xd0;" horiz-adv-x="633" 
d="M66 307h-77v86h77v307h164q103 0 186.5 -42t131.5 -121t48 -187q0 -107 -48 -186.5t-131.5 -121.5t-186.5 -42h-164v307zM231 99q74 0 131 30t89 86.5t32 134.5t-32 134.5t-89 86.5t-131 30h-49v-208h135v-86h-135v-208h49z" />
    <glyph glyph-name="Ntilde" unicode="&#xd1;" horiz-adv-x="693" 
d="M66 700h47l398 -457v457h116v-700h-47l-398 459v-459h-116v700zM370.5 775q-19.5 8 -43.5 23q-22 13 -34 18.5t-28 5.5q-23 0 -44 -12t-43 -35h-8l8 82q40 44 100 44q26 0 45.5 -8t42.5 -23q21 -12 34 -18t30 -6q45 0 87 47h7l-7 -82q-40 -44 -100 -44q-27 0 -46.5 8z
" />
    <glyph glyph-name="Ograve" unicode="&#xd2;" horiz-adv-x="813" 
d="M219.5 33.5q-84.5 47.5 -133.5 130.5t-49 186t49 186t133.5 130.5t186.5 47.5t187 -47.5t134 -130.5t49 -186t-49 -186t-134 -130.5t-187 -47.5t-186.5 47.5zM535.5 119q58.5 32 92 91.5t33.5 139.5t-33.5 140t-92 92t-129.5 32t-129 -32t-91.5 -92t-33.5 -140
t33.5 -139.5t91.5 -91.5t129 -32t129.5 32zM376 769l-143 137h142l91 -137h-90z" />
    <glyph glyph-name="Oacute" unicode="&#xd3;" horiz-adv-x="813" 
d="M219.5 33.5q-84.5 47.5 -133.5 130.5t-49 186t49 186t133.5 130.5t186.5 47.5t187 -47.5t134 -130.5t49 -186t-49 -186t-134 -130.5t-187 -47.5t-186.5 47.5zM535.5 119q58.5 32 92 91.5t33.5 139.5t-33.5 140t-92 92t-129.5 32t-129 -32t-91.5 -92t-33.5 -140
t33.5 -139.5t91.5 -91.5t129 -32t129.5 32zM439 906h141l-143 -137h-90z" />
    <glyph glyph-name="Ocircumflex" unicode="&#xd4;" horiz-adv-x="813" 
d="M219.5 33.5q-84.5 47.5 -133.5 130.5t-49 186t49 186t133.5 130.5t186.5 47.5t187 -47.5t134 -130.5t49 -186t-49 -186t-134 -130.5t-187 -47.5t-186.5 47.5zM535.5 119q58.5 32 92 91.5t33.5 139.5t-33.5 140t-92 92t-129.5 32t-129 -32t-91.5 -92t-33.5 -140
t33.5 -139.5t91.5 -91.5t129 -32t129.5 32zM345 906h123l98 -137h-81l-79 76l-79 -76h-81z" />
    <glyph glyph-name="Otilde" unicode="&#xd5;" horiz-adv-x="813" 
d="M219.5 33.5q-84.5 47.5 -133.5 130.5t-49 186t49 186t133.5 130.5t186.5 47.5t187 -47.5t134 -130.5t49 -186t-49 -186t-134 -130.5t-187 -47.5t-186.5 47.5zM535.5 119q58.5 32 92 91.5t33.5 139.5t-33.5 140t-92 92t-129.5 32t-129 -32t-91.5 -92t-33.5 -140
t33.5 -139.5t91.5 -91.5t129 -32t129.5 32zM429.5 775q-19.5 8 -43.5 23q-22 13 -34 18.5t-28 5.5q-23 0 -44 -12t-43 -35h-8l8 82q40 44 100 44q26 0 45.5 -8t42.5 -23q21 -12 34 -18t30 -6q45 0 87 47h7l-7 -82q-40 -44 -100 -44q-27 0 -46.5 8z" />
    <glyph glyph-name="Odieresis" unicode="&#xd6;" horiz-adv-x="813" 
d="M219.5 33.5q-84.5 47.5 -133.5 130.5t-49 186t49 186t133.5 130.5t186.5 47.5t187 -47.5t134 -130.5t49 -186t-49 -186t-134 -130.5t-187 -47.5t-186.5 47.5zM535.5 119q58.5 32 92 91.5t33.5 139.5t-33.5 140t-92 92t-129.5 32t-129 -32t-91.5 -92t-33.5 -140
t33.5 -139.5t91.5 -91.5t129 -32t129.5 32zM268 789.5q-18 18.5 -18 43.5q0 26 18.5 45t43.5 19q26 0 45 -19t19 -45q0 -25 -19 -43.5t-45 -18.5t-44 18.5zM454 789.5q-18 18.5 -18 43.5q0 26 18.5 45t43.5 19q26 0 45.5 -19t19.5 -45q0 -25 -19.5 -43.5t-45.5 -18.5
t-44 18.5z" />
    <glyph glyph-name="multiply" unicode="&#xd7;" horiz-adv-x="441" 
d="M46 194l114 113l-114 114l61 61l114 -114l113 114l61 -61l-113 -114l113 -113l-61 -61l-113 113l-114 -113z" />
    <glyph glyph-name="Oslash" unicode="&#xd8;" horiz-adv-x="813" 
d="M737.5 516.5q38.5 -75.5 38.5 -166.5q0 -103 -49 -186t-134 -130.5t-187 -47.5q-70 0 -133 23l-31 -54l-91 51l30 52q-68 51 -106 126.5t-38 165.5q0 103 49 186t133.5 130.5t186.5 47.5q71 0 134 -23l31 54l91 -50l-30 -53q67 -50 105.5 -125.5zM173 236q21 -51 60 -86
l257 452q-40 12 -84 12q-71 0 -129 -32t-91.5 -92t-33.5 -140q0 -63 21 -114zM535.5 119q58.5 32 92 91.5t33.5 139.5q0 64 -21 114.5t-60 85.5l-256 -451q39 -12 82 -12q71 0 129.5 32z" />
    <glyph glyph-name="Ugrave" unicode="&#xd9;" horiz-adv-x="654" 
d="M184 20q-61 34 -94 98t-33 152v430h116v-444q0 -89 44.5 -130.5t109.5 -41.5t109.5 41.5t44.5 130.5v444h116v-430q0 -88 -33 -152t-94 -98t-143 -34t-143 34zM297 769l-143 137h142l91 -137h-90z" />
    <glyph glyph-name="Uacute" unicode="&#xda;" horiz-adv-x="654" 
d="M184 20q-61 34 -94 98t-33 152v430h116v-444q0 -89 44.5 -130.5t109.5 -41.5t109.5 41.5t44.5 130.5v444h116v-430q0 -88 -33 -152t-94 -98t-143 -34t-143 34zM360 906h141l-143 -137h-90z" />
    <glyph glyph-name="Ucircumflex" unicode="&#xdb;" horiz-adv-x="654" 
d="M184 20q-61 34 -94 98t-33 152v430h116v-444q0 -89 44.5 -130.5t109.5 -41.5t109.5 41.5t44.5 130.5v444h116v-430q0 -88 -33 -152t-94 -98t-143 -34t-143 34zM266 906h123l98 -137h-81l-79 76l-79 -76h-81z" />
    <glyph glyph-name="Udieresis" unicode="&#xdc;" horiz-adv-x="654" 
d="M184 20q-61 34 -94 98t-33 152v430h116v-444q0 -89 44.5 -130.5t109.5 -41.5t109.5 41.5t44.5 130.5v444h116v-430q0 -88 -33 -152t-94 -98t-143 -34t-143 34zM189 789.5q-18 18.5 -18 43.5q0 26 18.5 45t43.5 19q26 0 45 -19t19 -45q0 -25 -19 -43.5t-45 -18.5t-44 18.5
zM375 789.5q-18 18.5 -18 43.5q0 26 18.5 45t43.5 19q26 0 45.5 -19t19.5 -45q0 -25 -19.5 -43.5t-45.5 -18.5t-44 18.5z" />
    <glyph glyph-name="Yacute" unicode="&#xdd;" horiz-adv-x="600" 
d="M242 300l-228 400h127l159 -293l160 293h126l-228 -400v-300h-116v300zM333 906h141l-143 -137h-90z" />
    <glyph glyph-name="Thorn" unicode="&#xde;" horiz-adv-x="540" 
d="M66 700h116v-132h75q77 0 134 -28.5t87 -78t30 -111.5t-30 -111.5t-87 -78t-134 -28.5h-75v-132h-116v700zM258 231q64 0 99 31.5t35 87.5q0 57 -35 88t-99 31h-76v-238h76z" />
    <glyph glyph-name="germandbls" unicode="&#xdf;" horiz-adv-x="621" 
d="M252 25l12 96h12q50 -36 98 -36q49 0 77.5 31.5t28.5 81.5q0 57 -39.5 92t-123.5 35h-38v95q57 3 90.5 34.5t33.5 77.5q0 40 -26 66t-70 26q-42 0 -70.5 -25t-28.5 -74v-525h-106v406h-61v88h61v28q0 63 28.5 106t75.5 64.5t103 21.5q58 0 103 -22.5t70 -62t25 -87.5
q0 -51 -27 -89t-73 -63q82 -8 130.5 -60t48.5 -135q0 -61 -26.5 -108.5t-73 -74t-105.5 -26.5q-72 0 -129 39z" />
    <glyph glyph-name="agrave" unicode="&#xe0;" horiz-adv-x="616" 
d="M161 19.5q-57 33.5 -91.5 93.5t-34.5 134q0 71 33.5 131t91.5 95t128 35q52 0 94 -19t67 -48v53h106v-494h-106v54q-64 -68 -165 -68q-66 0 -123 33.5zM380.5 105q35.5 22 54.5 59.5t19 82.5t-19 82.5t-54.5 59.5t-82.5 22t-83 -22t-55 -59.5t-19 -82.5t19.5 -82.5
t55 -59.5t82.5 -22t82.5 22zM123 700h142l91 -137h-90z" />
    <glyph glyph-name="aacute" unicode="&#xe1;" horiz-adv-x="616" 
d="M161 19.5q-57 33.5 -91.5 93.5t-34.5 134q0 71 33.5 131t91.5 95t128 35q52 0 94 -19t67 -48v53h106v-494h-106v54q-64 -68 -165 -68q-66 0 -123 33.5zM380.5 105q35.5 22 54.5 59.5t19 82.5t-19 82.5t-54.5 59.5t-82.5 22t-83 -22t-55 -59.5t-19 -82.5t19.5 -82.5
t55 -59.5t82.5 -22t82.5 22zM324 700h141l-143 -137h-90z" />
    <glyph glyph-name="acircumflex" unicode="&#xe2;" horiz-adv-x="616" 
d="M161 19.5q-57 33.5 -91.5 93.5t-34.5 134q0 71 33.5 131t91.5 95t128 35q52 0 94 -19t67 -48v53h106v-494h-106v54q-64 -68 -165 -68q-66 0 -123 33.5zM380.5 105q35.5 22 54.5 59.5t19 82.5t-19 82.5t-54.5 59.5t-82.5 22t-83 -22t-55 -59.5t-19 -82.5t19.5 -82.5
t55 -59.5t82.5 -22t82.5 22zM232 700h125l96 -137h-81l-78 75l-77 -75h-81z" />
    <glyph glyph-name="atilde" unicode="&#xe3;" horiz-adv-x="616" 
d="M161 19.5q-57 33.5 -91.5 93.5t-34.5 134q0 71 33.5 131t91.5 95t128 35q52 0 94 -19t67 -48v53h106v-494h-106v54q-64 -68 -165 -68q-66 0 -123 33.5zM380.5 105q35.5 22 54.5 59.5t19 82.5t-19 82.5t-54.5 59.5t-82.5 22t-83 -22t-55 -59.5t-19 -82.5t19.5 -82.5
t55 -59.5t82.5 -22t82.5 22zM317.5 569q-19.5 8 -43.5 23q-21 13 -33.5 18.5t-28.5 5.5q-23 0 -44 -12t-43 -35h-8l8 82q40 44 100 44q26 0 45.5 -8t42.5 -23q21 -12 34 -18t30 -6q45 0 87 47h7l-7 -82q-40 -44 -100 -44q-27 0 -46.5 8z" />
    <glyph glyph-name="adieresis" unicode="&#xe4;" horiz-adv-x="616" 
d="M161 19.5q-57 33.5 -91.5 93.5t-34.5 134q0 71 33.5 131t91.5 95t128 35q52 0 94 -19t67 -48v53h106v-494h-106v54q-64 -68 -165 -68q-66 0 -123 33.5zM380.5 105q35.5 22 54.5 59.5t19 82.5t-19 82.5t-54.5 59.5t-82.5 22t-83 -22t-55 -59.5t-19 -82.5t19.5 -82.5
t55 -59.5t82.5 -22t82.5 22zM156 583.5q-18 18.5 -18 43.5q0 26 18.5 45t43.5 19q26 0 45 -19t19 -45q0 -25 -19 -43.5t-45 -18.5t-44 18.5zM342 583.5q-18 18.5 -18 43.5q0 26 18.5 45t43.5 19q26 0 45.5 -19t19.5 -45q0 -25 -19.5 -43.5t-45.5 -18.5t-44 18.5z" />
    <glyph glyph-name="aring" unicode="&#xe5;" horiz-adv-x="616" 
d="M161 19.5q-57 33.5 -91.5 93.5t-34.5 134q0 71 33.5 131t91.5 95t128 35q52 0 94 -19t67 -48v53h106v-494h-106v54q-64 -68 -165 -68q-66 0 -123 33.5zM380.5 105q35.5 22 54.5 59.5t19 82.5t-19 82.5t-54.5 59.5t-82.5 22t-83 -22t-55 -59.5t-19 -82.5t19.5 -82.5
t55 -59.5t82.5 -22t82.5 22zM222 573.5q-30 29.5 -30 71.5t30 71.5t73 29.5t73 -29.5t30 -71.5t-30 -71.5t-73 -29.5t-73 29.5zM337 604q16 17 16 41q0 25 -16 41.5t-42 16.5t-42 -16.5t-16 -41.5q0 -24 16 -41t42 -17t42 17z" />
    <glyph glyph-name="ae" unicode="&#xe6;" horiz-adv-x="870" 
d="M114.5 4.5q-36.5 18.5 -57.5 51t-21 72.5q0 84 69.5 126.5t187.5 42.5h43q-1 61 -31.5 93t-73.5 32q-41 0 -73.5 -15t-63.5 -45h-16l10 99q27 19 71 33t87 14q54 0 95.5 -21t64.5 -60q36 38 82.5 59.5t99.5 21.5q75 0 130 -32.5t84.5 -89.5t29.5 -127v-40h-392
q9 -66 55.5 -103.5t108.5 -37.5q51 0 94 16.5t88 56.5h11l-4 -106q-88 -59 -193 -59q-65 0 -120 28t-91 77q-36 -53 -85.5 -79t-106.5 -26q-46 0 -82.5 18.5zM730 297q-7 57 -45.5 92t-96.5 35q-50 0 -90.5 -33t-53.5 -94h286zM275 91q28 18 44.5 51t16.5 77
q-97 0 -145.5 -19.5t-48.5 -63.5q0 -29 19.5 -46t52.5 -17t61 18z" />
    <glyph glyph-name="ccedilla" unicode="&#xe7;" horiz-adv-x="494" 
d="M368.5 95.5q31.5 12.5 64.5 41.5h12l-4 -109q-54 -42 -143 -42l-33 -46q23 9 54 9q38 0 61.5 -24.5t23.5 -63.5q0 -46 -35.5 -73.5t-93.5 -27.5q-52 0 -87 14l-10 61l10 4q40 -22 73 -22q24 0 38.5 11t14.5 32q0 22 -14 32.5t-37 10.5q-12 0 -30 -3.5t-27 -7.5l-7 8
l40 92q-89 19 -146.5 86.5t-57.5 168.5q0 79 36 138.5t96.5 91t130.5 31.5q89 0 144 -41l4 -110h-12q-33 29 -64.5 41.5t-71.5 12.5q-70 0 -113.5 -46t-43.5 -118t42.5 -118t114.5 -46q39 0 70.5 12.5z" />
    <glyph glyph-name="egrave" unicode="&#xe8;" horiz-adv-x="568" 
d="M165 20.5q-61 34.5 -95.5 95t-34.5 133.5q0 72 33.5 131.5t91.5 93.5t129 34q72 0 127 -32.5t84.5 -89.5t29.5 -127v-40h-392q9 -67 55.5 -104t111.5 -37q49 0 92 16.5t87 56.5h11l-4 -106q-88 -59 -190 -59q-75 0 -136 34.5zM428 297q-7 56 -45.5 89.5t-96.5 33.5
q-51 0 -91.5 -32t-52.5 -91h286zM116 700h142l91 -137h-90z" />
    <glyph glyph-name="eacute" unicode="&#xe9;" horiz-adv-x="568" 
d="M165 20.5q-61 34.5 -95.5 95t-34.5 133.5q0 72 33.5 131.5t91.5 93.5t129 34q72 0 127 -32.5t84.5 -89.5t29.5 -127v-40h-392q9 -67 55.5 -104t111.5 -37q49 0 92 16.5t87 56.5h11l-4 -106q-88 -59 -190 -59q-75 0 -136 34.5zM428 297q-7 56 -45.5 89.5t-96.5 33.5
q-51 0 -91.5 -32t-52.5 -91h286zM317 700h141l-143 -137h-90z" />
    <glyph glyph-name="ecircumflex" unicode="&#xea;" horiz-adv-x="568" 
d="M165 20.5q-61 34.5 -95.5 95t-34.5 133.5q0 72 33.5 131.5t91.5 93.5t129 34q72 0 127 -32.5t84.5 -89.5t29.5 -127v-40h-392q9 -67 55.5 -104t111.5 -37q49 0 92 16.5t87 56.5h11l-4 -106q-88 -59 -190 -59q-75 0 -136 34.5zM428 297q-7 56 -45.5 89.5t-96.5 33.5
q-51 0 -91.5 -32t-52.5 -91h286zM226 700h125l96 -137h-81l-78 75l-77 -75h-81z" />
    <glyph glyph-name="edieresis" unicode="&#xeb;" horiz-adv-x="568" 
d="M165 20.5q-61 34.5 -95.5 95t-34.5 133.5q0 72 33.5 131.5t91.5 93.5t129 34q72 0 127 -32.5t84.5 -89.5t29.5 -127v-40h-392q9 -67 55.5 -104t111.5 -37q49 0 92 16.5t87 56.5h11l-4 -106q-88 -59 -190 -59q-75 0 -136 34.5zM428 297q-7 56 -45.5 89.5t-96.5 33.5
q-51 0 -91.5 -32t-52.5 -91h286zM150 583.5q-18 18.5 -18 43.5q0 26 18.5 45t43.5 19q26 0 45 -19t19 -45q0 -25 -19 -43.5t-45 -18.5t-44 18.5zM336 583.5q-18 18.5 -18 43.5q0 26 18.5 45t43.5 19q26 0 45.5 -19t19.5 -45q0 -25 -19.5 -43.5t-45.5 -18.5t-44 18.5z" />
    <glyph glyph-name="igrave" unicode="&#xec;" horiz-adv-x="228" 
d="M61 494h106v-494h-106v494zM-58 700h142l91 -137h-90z" />
    <glyph glyph-name="iacute" unicode="&#xed;" horiz-adv-x="228" 
d="M61 494h106v-494h-106v494zM143 700h141l-143 -137h-90z" />
    <glyph glyph-name="icircumflex" unicode="&#xee;" horiz-adv-x="228" 
d="M61 494h106v-494h-106v494zM52 700h125l96 -137h-81l-78 75l-77 -75h-81z" />
    <glyph glyph-name="idieresis" unicode="&#xef;" horiz-adv-x="228" 
d="M61 494h106v-494h-106v494zM-24 583.5q-18 18.5 -18 43.5q0 26 18.5 45t43.5 19q26 0 45 -19t19 -45q0 -25 -19 -43.5t-45 -18.5t-44 18.5zM162 583.5q-18 18.5 -18 43.5q0 26 18.5 45t43.5 19q26 0 45.5 -19t19.5 -45q0 -25 -19.5 -43.5t-45.5 -18.5t-44 18.5z" />
    <glyph glyph-name="eth" unicode="&#xf0;" horiz-adv-x="572" 
d="M152.5 18q-55.5 32 -86.5 86t-31 119q0 66 31 119t83.5 82.5t112.5 29.5q43 0 80.5 -16t62.5 -43q-18 91 -86 159l-151 -62l-19 46l128 52q-52 39 -115 65v16l96 43q69 -31 126 -80l87 36l18 -46l-68 -28q54 -61 82.5 -140.5t28.5 -166.5q0 -92 -32.5 -160.5t-90 -105.5
t-132.5 -37q-69 0 -124.5 32zM346.5 99.5q31.5 17.5 50.5 49.5t19 73q0 62 -40.5 100t-97.5 38q-37 0 -68.5 -17t-50 -48.5t-18.5 -72.5t19 -73t50 -49.5t68 -17.5t68.5 17.5z" />
    <glyph glyph-name="ntilde" unicode="&#xf1;" horiz-adv-x="564" 
d="M61 494h106v-67q27 37 72 59t95 22q79 0 127 -45t48 -127v-336h-106v304q0 51 -29 79t-78 28q-55 0 -92 -41t-37 -105v-265h-106v494zM320.5 569q-19.5 8 -43.5 23q-21 13 -33.5 18.5t-28.5 5.5q-23 0 -44 -12t-43 -35h-8l8 82q40 44 100 44q26 0 45.5 -8t42.5 -23
q21 -12 34 -18t30 -6q45 0 87 47h7l-7 -82q-40 -44 -100 -44q-27 0 -46.5 8z" />
    <glyph glyph-name="ograve" unicode="&#xf2;" horiz-adv-x="600" 
d="M167 20q-61 34 -96.5 94t-35.5 133q0 74 35.5 133.5t96.5 93.5t133 34q73 0 133.5 -34t96 -93.5t35.5 -133.5t-35.5 -133.5t-96 -93.5t-133.5 -34q-72 0 -133 34zM380.5 103.5q36.5 20.5 57.5 58t21 85.5t-21 85.5t-57.5 58t-80.5 20.5t-80.5 -20.5t-57.5 -58t-21 -85.5
t21 -85.5t57.5 -58t80.5 -20.5t80.5 20.5zM128 700h142l91 -137h-90z" />
    <glyph glyph-name="oacute" unicode="&#xf3;" horiz-adv-x="600" 
d="M167 20q-61 34 -96.5 94t-35.5 133q0 74 35.5 133.5t96.5 93.5t133 34q73 0 133.5 -34t96 -93.5t35.5 -133.5t-35.5 -133.5t-96 -93.5t-133.5 -34q-72 0 -133 34zM380.5 103.5q36.5 20.5 57.5 58t21 85.5t-21 85.5t-57.5 58t-80.5 20.5t-80.5 -20.5t-57.5 -58t-21 -85.5
t21 -85.5t57.5 -58t80.5 -20.5t80.5 20.5zM329 700h141l-143 -137h-90z" />
    <glyph glyph-name="ocircumflex" unicode="&#xf4;" horiz-adv-x="600" 
d="M167 20q-61 34 -96.5 94t-35.5 133q0 74 35.5 133.5t96.5 93.5t133 34q73 0 133.5 -34t96 -93.5t35.5 -133.5t-35.5 -133.5t-96 -93.5t-133.5 -34q-72 0 -133 34zM380.5 103.5q36.5 20.5 57.5 58t21 85.5t-21 85.5t-57.5 58t-80.5 20.5t-80.5 -20.5t-57.5 -58t-21 -85.5
t21 -85.5t57.5 -58t80.5 -20.5t80.5 20.5zM238 700h125l96 -137h-81l-78 75l-77 -75h-81z" />
    <glyph glyph-name="otilde" unicode="&#xf5;" horiz-adv-x="600" 
d="M167 20q-61 34 -96.5 94t-35.5 133q0 74 35.5 133.5t96.5 93.5t133 34q73 0 133.5 -34t96 -93.5t35.5 -133.5t-35.5 -133.5t-96 -93.5t-133.5 -34q-72 0 -133 34zM380.5 103.5q36.5 20.5 57.5 58t21 85.5t-21 85.5t-57.5 58t-80.5 20.5t-80.5 -20.5t-57.5 -58t-21 -85.5
t21 -85.5t57.5 -58t80.5 -20.5t80.5 20.5zM323.5 569q-19.5 8 -43.5 23q-21 13 -33.5 18.5t-28.5 5.5q-23 0 -44 -12t-43 -35h-8l8 82q40 44 100 44q26 0 45.5 -8t42.5 -23q21 -12 34 -18t30 -6q45 0 87 47h7l-7 -82q-40 -44 -100 -44q-27 0 -46.5 8z" />
    <glyph glyph-name="odieresis" unicode="&#xf6;" horiz-adv-x="600" 
d="M167 20q-61 34 -96.5 94t-35.5 133q0 74 35.5 133.5t96.5 93.5t133 34q73 0 133.5 -34t96 -93.5t35.5 -133.5t-35.5 -133.5t-96 -93.5t-133.5 -34q-72 0 -133 34zM380.5 103.5q36.5 20.5 57.5 58t21 85.5t-21 85.5t-57.5 58t-80.5 20.5t-80.5 -20.5t-57.5 -58t-21 -85.5
t21 -85.5t57.5 -58t80.5 -20.5t80.5 20.5zM162 583.5q-18 18.5 -18 43.5q0 26 18.5 45t43.5 19q26 0 45 -19t19 -45q0 -25 -19 -43.5t-45 -18.5t-44 18.5zM348 583.5q-18 18.5 -18 43.5q0 26 18.5 45t43.5 19q26 0 45.5 -19t19.5 -45q0 -25 -19.5 -43.5t-45.5 -18.5
t-44 18.5z" />
    <glyph glyph-name="divide" unicode="&#xf7;" horiz-adv-x="500" 
d="M205.5 444.5q-19.5 19.5 -19.5 46.5q0 28 19.5 47.5t46.5 19.5q28 0 47.5 -19.5t19.5 -47.5q0 -27 -19.5 -46.5t-47.5 -19.5q-27 0 -46.5 19.5zM46 350h408v-86h-408v86zM205.5 78q-19.5 19 -19.5 46q0 28 19.5 48t46.5 20q28 0 47.5 -20t19.5 -48q0 -27 -19.5 -46
t-47.5 -19q-27 0 -46.5 19z" />
    <glyph glyph-name="oslash" unicode="&#xf8;" horiz-adv-x="600" 
d="M539.5 361.5q25.5 -52.5 25.5 -114.5q0 -74 -35.5 -133.5t-96 -93.5t-133.5 -34q-42 0 -84 13l-24 -42l-84 46l23 41q-45 36 -70.5 88.5t-25.5 114.5q0 74 35.5 133.5t96.5 93.5t133 34q46 0 85 -13l23 42l85 -46l-23 -41q44 -36 69.5 -88.5zM182 134l153 273
q-15 4 -35 4q-44 0 -80.5 -20.5t-57.5 -58t-21 -85.5q0 -67 41 -113zM380.5 103.5q36.5 20.5 57.5 58t21 85.5q0 67 -40 112l-154 -272q15 -4 35 -4q44 0 80.5 20.5z" />
    <glyph glyph-name="ugrave" unicode="&#xf9;" horiz-adv-x="564" 
d="M103 31q-48 45 -48 127v336h106v-304q0 -51 29 -79t78 -28q55 0 92 41t37 105v265h106v-494h-106v68q-27 -37 -72 -59.5t-95 -22.5q-79 0 -127 45zM110 700h142l91 -137h-90z" />
    <glyph glyph-name="uacute" unicode="&#xfa;" horiz-adv-x="564" 
d="M103 31q-48 45 -48 127v336h106v-304q0 -51 29 -79t78 -28q55 0 92 41t37 105v265h106v-494h-106v68q-27 -37 -72 -59.5t-95 -22.5q-79 0 -127 45zM311 700h141l-143 -137h-90z" />
    <glyph glyph-name="ucircumflex" unicode="&#xfb;" horiz-adv-x="564" 
d="M103 31q-48 45 -48 127v336h106v-304q0 -51 29 -79t78 -28q55 0 92 41t37 105v265h106v-494h-106v68q-27 -37 -72 -59.5t-95 -22.5q-79 0 -127 45zM220 700h125l96 -137h-81l-78 75l-77 -75h-81z" />
    <glyph glyph-name="udieresis" unicode="&#xfc;" horiz-adv-x="564" 
d="M103 31q-48 45 -48 127v336h106v-304q0 -51 29 -79t78 -28q55 0 92 41t37 105v265h106v-494h-106v68q-27 -37 -72 -59.5t-95 -22.5q-79 0 -127 45zM144 583.5q-18 18.5 -18 43.5q0 26 18.5 45t43.5 19q26 0 45 -19t19 -45q0 -25 -19 -43.5t-45 -18.5t-44 18.5zM330 583.5
q-18 18.5 -18 43.5q0 26 18.5 45t43.5 19q26 0 45.5 -19t19.5 -45q0 -25 -19.5 -43.5t-45.5 -18.5t-44 18.5z" />
    <glyph glyph-name="yacute" unicode="&#xfd;" horiz-adv-x="520" 
d="M201 94l-189 400h113l132 -283l137 283h114l-349 -720h-113zM290 700h141l-143 -137h-90z" />
    <glyph glyph-name="thorn" unicode="&#xfe;" horiz-adv-x="621" 
d="M61 700h106v-269q30 35 73.5 56t97.5 21q70 0 126.5 -33t89 -92.5t32.5 -135.5q0 -78 -33 -137.5t-89.5 -91.5t-124.5 -32q-55 0 -99.5 20t-72.5 54v-286h-106v926zM403 105q36 22 56.5 59.5t20.5 82.5q0 46 -20.5 83.5t-56.5 59t-82 21.5t-82 -21.5t-56.5 -59
t-20.5 -83.5q0 -45 20.5 -82.5t56.5 -59.5t82 -22t82 22z" />
    <glyph glyph-name="ydieresis" unicode="&#xff;" horiz-adv-x="520" 
d="M201 94l-189 400h113l132 -283l137 283h114l-349 -720h-113zM122 583.5q-18 18.5 -18 43.5q0 26 18.5 45t43.5 19q26 0 45 -19t19 -45q0 -25 -19 -43.5t-45 -18.5t-44 18.5zM308 583.5q-18 18.5 -18 43.5q0 26 18.5 45t43.5 19q26 0 45.5 -19t19.5 -45q0 -25 -19.5 -43.5
t-45.5 -18.5t-44 18.5z" />
    <glyph glyph-name="Amacron" unicode="&#x100;" horiz-adv-x="686" 
d="M326 700h34l307 -700h-114l-56 131h-308l-56 -131h-114zM456 229l-113 263l-112 -263h225zM223 866h241v-79h-241v79z" />
    <glyph glyph-name="amacron" unicode="&#x101;" horiz-adv-x="616" 
d="M161 19.5q-57 33.5 -91.5 93.5t-34.5 134q0 71 33.5 131t91.5 95t128 35q52 0 94 -19t67 -48v53h106v-494h-106v54q-64 -68 -165 -68q-66 0 -123 33.5zM380.5 105q35.5 22 54.5 59.5t19 82.5t-19 82.5t-54.5 59.5t-82.5 22t-83 -22t-55 -59.5t-19 -82.5t19.5 -82.5
t55 -59.5t82.5 -22t82.5 22zM175 659h240v-79h-240v79z" />
    <glyph glyph-name="Abreve" unicode="&#x102;" horiz-adv-x="686" 
d="M326 700h34l307 -700h-114l-56 131h-308l-56 -131h-114zM456 229l-113 263l-112 -263h225zM255.5 803q-33.5 31 -33.5 83h74q2 -21 14 -34.5t34 -13.5t33.5 13.5t13.5 34.5h74q0 -52 -33.5 -83t-87.5 -31q-55 0 -88.5 31z" />
    <glyph glyph-name="abreve" unicode="&#x103;" horiz-adv-x="616" 
d="M161 19.5q-57 33.5 -91.5 93.5t-34.5 134q0 71 33.5 131t91.5 95t128 35q52 0 94 -19t67 -48v53h106v-494h-106v54q-64 -68 -165 -68q-66 0 -123 33.5zM380.5 105q35.5 22 54.5 59.5t19 82.5t-19 82.5t-54.5 59.5t-82.5 22t-83 -22t-55 -59.5t-19 -82.5t19.5 -82.5
t55 -59.5t82.5 -22t82.5 22zM206.5 597q-33.5 31 -33.5 83h74q2 -21 14 -34.5t34 -13.5t33.5 13.5t13.5 34.5h74q0 -52 -33.5 -83t-87.5 -31q-55 0 -88.5 31z" />
    <glyph glyph-name="Aogonek" unicode="&#x104;" horiz-adv-x="686" 
d="M746 -163l-10 -61q-40 -16 -86 -16q-60 0 -95 31.5t-35 82.5q0 37 20.5 69.5t57.5 56.5h-45l-56 131h-308l-56 -131h-114l307 700h34l307 -700q-66 -61 -66 -117q0 -29 18 -46.5t48 -17.5q23 0 38 5t31 17zM456 229l-113 263l-112 -263h225z" />
    <glyph glyph-name="aogonek" unicode="&#x105;" horiz-adv-x="616" 
d="M633 -163l-9 -61q-40 -16 -87 -16q-59 0 -94.5 31.5t-35.5 82.5q0 37 20.5 69.5t57.5 56.5h-36v54q-64 -68 -165 -68q-66 0 -123 33.5t-91.5 93.5t-34.5 134q0 71 33.5 131t91.5 95t128 35q52 0 94 -19t67 -48v53h106v-494q-67 -60 -67 -117q0 -28 18.5 -46t47.5 -18
q23 0 39 5t31 17zM380.5 105q35.5 22 54.5 59.5t19 82.5t-19 82.5t-54.5 59.5t-82.5 22t-83 -22t-55 -59.5t-19 -82.5t19.5 -82.5t55 -59.5t82.5 -22t82.5 22z" />
    <glyph glyph-name="Cacute" unicode="&#x106;" horiz-adv-x="664" 
d="M216.5 33q-83.5 47 -131.5 130t-48 187t48.5 187t132 130t185.5 47q63 0 110.5 -14t92.5 -42l8 -122h-14q-45 37 -92 56.5t-104 19.5q-73 0 -130 -32.5t-89 -92t-32 -137.5q0 -77 32 -136.5t89.5 -92.5t129.5 -33q56 0 103 19.5t93 57.5h14l-8 -122q-45 -28 -93.5 -42.5
t-110.5 -14.5q-102 0 -185.5 47zM423 906h141l-143 -137h-90z" />
    <glyph glyph-name="cacute" unicode="&#x107;" horiz-adv-x="494" 
d="M167 18q-60 32 -96 91t-36 138t36 138.5t96.5 91t130.5 31.5q89 0 144 -41l4 -110h-12q-33 29 -64.5 41.5t-71.5 12.5q-70 0 -113.5 -46t-43.5 -118t42.5 -118t114.5 -46q39 0 70.5 12.5t64.5 41.5h12l-4 -109q-54 -42 -143 -42q-71 0 -131 32zM320 700h141l-143 -137
h-90z" />
    <glyph glyph-name="Ccircumflex" unicode="&#x108;" horiz-adv-x="664" 
d="M216.5 33q-83.5 47 -131.5 130t-48 187t48.5 187t132 130t185.5 47q63 0 110.5 -14t92.5 -42l8 -122h-14q-45 37 -92 56.5t-104 19.5q-73 0 -130 -32.5t-89 -92t-32 -137.5q0 -77 32 -136.5t89.5 -92.5t129.5 -33q56 0 103 19.5t93 57.5h14l-8 -122q-45 -28 -93.5 -42.5
t-110.5 -14.5q-102 0 -185.5 47zM329 906h123l98 -137h-81l-79 76l-79 -76h-81z" />
    <glyph glyph-name="ccircumflex" unicode="&#x109;" horiz-adv-x="494" 
d="M167 18q-60 32 -96 91t-36 138t36 138.5t96.5 91t130.5 31.5q89 0 144 -41l4 -110h-12q-33 29 -64.5 41.5t-71.5 12.5q-70 0 -113.5 -46t-43.5 -118t42.5 -118t114.5 -46q39 0 70.5 12.5t64.5 41.5h12l-4 -109q-54 -42 -143 -42q-71 0 -131 32zM229 700h125l96 -137h-81
l-78 75l-77 -75h-81z" />
    <glyph glyph-name="Cdotaccent" unicode="&#x10a;" horiz-adv-x="664" 
d="M216.5 33q-83.5 47 -131.5 130t-48 187t48.5 187t132 130t185.5 47q63 0 110.5 -14t92.5 -42l8 -122h-14q-45 37 -92 56.5t-104 19.5q-73 0 -130 -32.5t-89 -92t-32 -137.5q0 -77 32 -136.5t89.5 -92.5t129.5 -33q56 0 103 19.5t93 57.5h14l-8 -122q-45 -28 -93.5 -42.5
t-110.5 -14.5q-102 0 -185.5 47zM341 802q-20 20 -20 49t20 49t49 20q28 0 48.5 -20t20.5 -49t-20 -49t-49 -20t-49 20z" />
    <glyph glyph-name="cdotaccent" unicode="&#x10b;" horiz-adv-x="494" 
d="M167 18q-60 32 -96 91t-36 138t36 138.5t96.5 91t130.5 31.5q89 0 144 -41l4 -110h-12q-33 29 -64.5 41.5t-71.5 12.5q-70 0 -113.5 -46t-43.5 -118t42.5 -118t114.5 -46q39 0 70.5 12.5t64.5 41.5h12l-4 -109q-54 -42 -143 -42q-71 0 -131 32zM242 596q-20 20 -20 49
t20 49t49 20q28 0 48.5 -20t20.5 -49t-20 -49t-49 -20t-49 20z" />
    <glyph glyph-name="Ccaron" unicode="&#x10c;" horiz-adv-x="664" 
d="M216.5 33q-83.5 47 -131.5 130t-48 187t48.5 187t132 130t185.5 47q63 0 110.5 -14t92.5 -42l8 -122h-14q-45 37 -92 56.5t-104 19.5q-73 0 -130 -32.5t-89 -92t-32 -137.5q0 -77 32 -136.5t89.5 -92.5t129.5 -33q56 0 103 19.5t93 57.5h14l-8 -122q-45 -28 -93.5 -42.5
t-110.5 -14.5q-102 0 -185.5 47zM231 906h81l77 -74l78 74h81l-96 -137h-125z" />
    <glyph glyph-name="ccaron" unicode="&#x10d;" horiz-adv-x="494" 
d="M167 18q-60 32 -96 91t-36 138t36 138.5t96.5 91t130.5 31.5q89 0 144 -41l4 -110h-12q-33 29 -64.5 41.5t-71.5 12.5q-70 0 -113.5 -46t-43.5 -118t42.5 -118t114.5 -46q39 0 70.5 12.5t64.5 41.5h12l-4 -109q-54 -42 -143 -42q-71 0 -131 32zM132 700h81l77 -74l78 74
h81l-96 -137h-125z" />
    <glyph glyph-name="Dcaron" unicode="&#x10e;" horiz-adv-x="633" 
d="M66 700h164q103 0 186.5 -42t131.5 -121t48 -187q0 -107 -48 -186.5t-131.5 -121.5t-186.5 -42h-164v700zM231 99q74 0 131 30t89 86.5t32 134.5t-32 134.5t-89 86.5t-131 30h-49v-502h49zM113 906h81l77 -74l78 74h81l-96 -137h-125z" />
    <glyph glyph-name="dcaron" unicode="&#x10f;" horiz-adv-x="762" 
d="M157 20q-57 34 -89.5 93.5t-32.5 133.5q0 77 33.5 136.5t91.5 92t128 32.5q53 0 96 -19t70 -51v282h106v-720h-106v60q-65 -74 -170 -74q-70 0 -127 34zM383 105q36 22 56 59.5t20 82.5q0 46 -20 83.5t-56 59t-83 21.5t-83 -21.5t-56 -59t-20 -83.5q0 -45 20 -82.5
t56 -59.5t83 -22t83 22zM641 488q49 38 53 88q-27 0 -46.5 19t-19.5 47q0 29 19 48.5t47 19.5q30 0 49 -20.5t19 -51.5q0 -55 -28.5 -97t-73.5 -71z" />
    <glyph glyph-name="Dcroat" unicode="&#x110;" horiz-adv-x="633" 
d="M66 307h-77v86h77v307h164q103 0 186.5 -42t131.5 -121t48 -187q0 -107 -48 -186.5t-131.5 -121.5t-186.5 -42h-164v307zM231 99q74 0 131 30t89 86.5t32 134.5t-32 134.5t-89 86.5t-131 30h-49v-208h135v-86h-135v-208h49z" />
    <glyph glyph-name="dcroat" unicode="&#x111;" horiz-adv-x="621" 
d="M157 20q-57 34 -89.5 93.5t-32.5 133.5q0 77 33.5 136.5t91.5 92t128 32.5q53 0 96 -19t70 -51v133h-151v72h151v77h106v-77h61v-72h-61v-571h-106v60q-65 -74 -170 -74q-70 0 -127 34zM383 105q36 22 56 59.5t20 82.5q0 46 -20 83.5t-56 59t-83 21.5t-83 -21.5t-56 -59
t-20 -83.5q0 -45 20 -82.5t56 -59.5t83 -22t83 22z" />
    <glyph glyph-name="Emacron" unicode="&#x112;" horiz-adv-x="534" 
d="M66 700h423v-98h-307v-193h296v-98h-296v-213h311v-98h-427v700zM167 866h241v-79h-241v79z" />
    <glyph glyph-name="emacron" unicode="&#x113;" horiz-adv-x="568" 
d="M165 20.5q-61 34.5 -95.5 95t-34.5 133.5q0 72 33.5 131.5t91.5 93.5t129 34q72 0 127 -32.5t84.5 -89.5t29.5 -127v-40h-392q9 -67 55.5 -104t111.5 -37q49 0 92 16.5t87 56.5h11l-4 -106q-88 -59 -190 -59q-75 0 -136 34.5zM428 297q-7 56 -45.5 89.5t-96.5 33.5
q-51 0 -91.5 -32t-52.5 -91h286zM168 659h240v-79h-240v79z" />
    <glyph glyph-name="Ebreve" unicode="&#x114;" horiz-adv-x="534" 
d="M66 700h423v-98h-307v-193h296v-98h-296v-213h311v-98h-427v700zM199.5 803q-33.5 31 -33.5 83h74q2 -21 14 -34.5t34 -13.5t33.5 13.5t13.5 34.5h74q0 -52 -33.5 -83t-87.5 -31q-55 0 -88.5 31z" />
    <glyph glyph-name="ebreve" unicode="&#x115;" horiz-adv-x="568" 
d="M165 20.5q-61 34.5 -95.5 95t-34.5 133.5q0 72 33.5 131.5t91.5 93.5t129 34q72 0 127 -32.5t84.5 -89.5t29.5 -127v-40h-392q9 -67 55.5 -104t111.5 -37q49 0 92 16.5t87 56.5h11l-4 -106q-88 -59 -190 -59q-75 0 -136 34.5zM428 297q-7 56 -45.5 89.5t-96.5 33.5
q-51 0 -91.5 -32t-52.5 -91h286zM200.5 597q-33.5 31 -33.5 83h74q2 -21 14 -34.5t34 -13.5t33.5 13.5t13.5 34.5h74q0 -52 -33.5 -83t-87.5 -31q-55 0 -88.5 31z" />
    <glyph glyph-name="Edotaccent" unicode="&#x116;" horiz-adv-x="534" 
d="M66 700h423v-98h-307v-193h296v-98h-296v-213h311v-98h-427v700zM239 802q-20 20 -20 49t20 49t49 20q28 0 48.5 -20t20.5 -49t-20 -49t-49 -20t-49 20z" />
    <glyph glyph-name="edotaccent" unicode="&#x117;" horiz-adv-x="568" 
d="M165 20.5q-61 34.5 -95.5 95t-34.5 133.5q0 72 33.5 131.5t91.5 93.5t129 34q72 0 127 -32.5t84.5 -89.5t29.5 -127v-40h-392q9 -67 55.5 -104t111.5 -37q49 0 92 16.5t87 56.5h11l-4 -106q-88 -59 -190 -59q-75 0 -136 34.5zM428 297q-7 56 -45.5 89.5t-96.5 33.5
q-51 0 -91.5 -32t-52.5 -91h286zM239 596q-20 20 -20 49t20 49t49 20q28 0 48.5 -20t20.5 -49t-20 -49t-49 -20t-49 20z" />
    <glyph glyph-name="Eogonek" unicode="&#x118;" horiz-adv-x="534" 
d="M571 -163l-9 -61q-40 -16 -87 -16q-59 0 -94.5 31.5t-35.5 82.5q0 37 20.5 69.5t57.5 56.5h-357v700h423v-98h-307v-193h296v-98h-296v-213h311v-98q-67 -60 -67 -117q0 -28 18.5 -46t47.5 -18q23 0 39 5t31 17z" />
    <glyph glyph-name="eogonek" unicode="&#x119;" horiz-adv-x="568" 
d="M530 219h-392q9 -67 55.5 -104t111.5 -37q49 0 92 16.5t87 56.5h11l-4 -106q-46 -31 -95 -45q-67 -60 -67 -117q0 -28 18.5 -46t47.5 -18q23 0 39 5t31 17l9 -4l-9 -61q-40 -16 -87 -16q-59 0 -94.5 31.5t-35.5 82.5q0 32 15.5 60.5t43.5 51.5h-6q-75 0 -136 34.5
t-95.5 95t-34.5 133.5q0 72 33.5 131.5t91.5 93.5t129 34q72 0 127 -32.5t84.5 -89.5t29.5 -127v-40zM428 297q-7 56 -45.5 89.5t-96.5 33.5q-51 0 -91.5 -32t-52.5 -91h286z" />
    <glyph glyph-name="Ecaron" unicode="&#x11a;" horiz-adv-x="534" 
d="M66 700h423v-98h-307v-193h296v-98h-296v-213h311v-98h-427v700zM129 906h81l77 -74l78 74h81l-96 -137h-125z" />
    <glyph glyph-name="ecaron" unicode="&#x11b;" horiz-adv-x="568" 
d="M165 20.5q-61 34.5 -95.5 95t-34.5 133.5q0 72 33.5 131.5t91.5 93.5t129 34q72 0 127 -32.5t84.5 -89.5t29.5 -127v-40h-392q9 -67 55.5 -104t111.5 -37q49 0 92 16.5t87 56.5h11l-4 -106q-88 -59 -190 -59q-75 0 -136 34.5zM428 297q-7 56 -45.5 89.5t-96.5 33.5
q-51 0 -91.5 -32t-52.5 -91h286zM129 700h81l77 -74l78 74h81l-96 -137h-125z" />
    <glyph glyph-name="Gcircumflex" unicode="&#x11c;" horiz-adv-x="739" 
d="M217 32.5q-83 46.5 -131.5 129.5t-48.5 188t50.5 188t137 129.5t190.5 46.5q132 0 225 -64l9 -118h-16q-57 43 -109 61.5t-108 18.5q-73 0 -133 -31.5t-95 -91t-35 -139.5t33 -139.5t90 -91t129 -31.5q95 0 168 60v150h-209v98h325v-291q-69 -60 -138 -89.5t-150 -29.5
q-101 0 -184 46.5zM351 906h123l98 -137h-81l-79 76l-79 -76h-81z" />
    <glyph glyph-name="gcircumflex" unicode="&#x11d;" horiz-adv-x="606" 
d="M122 -199l-4 102h19q31 -22 66 -34t81 -12q72 0 114.5 40t42.5 115v54q-26 -32 -68 -49t-92 -17q-67 0 -123.5 32.5t-89.5 90.5t-33 131q0 77 35.5 134.5t92.5 88.5t120 31q53 0 93 -18t65 -49v53h106v-449q0 -147 -71 -216t-197 -69q-89 0 -157 41zM377.5 118.5
q34.5 21.5 52.5 57.5t18 78t-18 78t-52.5 57.5t-82.5 21.5t-83 -21.5t-53 -57.5t-18 -78t18 -78t53 -57.5t83 -21.5t82.5 21.5zM228 700h125l96 -137h-81l-78 75l-77 -75h-81z" />
    <glyph glyph-name="Gbreve" unicode="&#x11e;" horiz-adv-x="739" 
d="M217 32.5q-83 46.5 -131.5 129.5t-48.5 188t50.5 188t137 129.5t190.5 46.5q132 0 225 -64l9 -118h-16q-57 43 -109 61.5t-108 18.5q-73 0 -133 -31.5t-95 -91t-35 -139.5t33 -139.5t90 -91t129 -31.5q95 0 168 60v150h-209v98h325v-291q-69 -60 -138 -89.5t-150 -29.5
q-101 0 -184 46.5zM324.5 803q-33.5 31 -33.5 83h74q2 -21 14 -34.5t34 -13.5t33.5 13.5t13.5 34.5h74q0 -52 -33.5 -83t-87.5 -31q-55 0 -88.5 31z" />
    <glyph glyph-name="gbreve" unicode="&#x11f;" horiz-adv-x="606" 
d="M122 -199l-4 102h19q31 -22 66 -34t81 -12q72 0 114.5 40t42.5 115v54q-26 -32 -68 -49t-92 -17q-67 0 -123.5 32.5t-89.5 90.5t-33 131q0 77 35.5 134.5t92.5 88.5t120 31q53 0 93 -18t65 -49v53h106v-449q0 -147 -71 -216t-197 -69q-89 0 -157 41zM377.5 118.5
q34.5 21.5 52.5 57.5t18 78t-18 78t-52.5 57.5t-82.5 21.5t-83 -21.5t-53 -57.5t-18 -78t18 -78t53 -57.5t83 -21.5t82.5 21.5zM212.5 597q-33.5 31 -33.5 83h74q2 -21 14 -34.5t34 -13.5t33.5 13.5t13.5 34.5h74q0 -52 -33.5 -83t-87.5 -31q-55 0 -88.5 31z" />
    <glyph glyph-name="Gdotaccent" unicode="&#x120;" horiz-adv-x="739" 
d="M217 32.5q-83 46.5 -131.5 129.5t-48.5 188t50.5 188t137 129.5t190.5 46.5q132 0 225 -64l9 -118h-16q-57 43 -109 61.5t-108 18.5q-73 0 -133 -31.5t-95 -91t-35 -139.5t33 -139.5t90 -91t129 -31.5q95 0 168 60v150h-209v98h325v-291q-69 -60 -138 -89.5t-150 -29.5
q-101 0 -184 46.5zM364 802q-20 20 -20 49t20 49t49 20q28 0 48.5 -20t20.5 -49t-20 -49t-49 -20t-49 20z" />
    <glyph glyph-name="gdotaccent" unicode="&#x121;" horiz-adv-x="608" 
d="M122 -199l-4 102h19q31 -22 66 -34t81 -12q72 0 114.5 40t42.5 115v54q-26 -32 -68 -49t-92 -17q-67 0 -123.5 32.5t-89.5 90.5t-33 131q0 77 35.5 134.5t92.5 88.5t120 31q53 0 93 -18t65 -49v53h106v-449q0 -147 -71 -216t-197 -69q-89 0 -157 41zM377.5 118.5
q34.5 21.5 52.5 57.5t18 78t-18 78t-52.5 57.5t-82.5 21.5t-83 -21.5t-53 -57.5t-18 -78t18 -78t53 -57.5t83 -21.5t82.5 21.5zM243 596q-20 20 -20 49t20 49t49 20q28 0 48.5 -20t20.5 -49t-20 -49t-49 -20t-49 20z" />
    <glyph glyph-name="uni0122" unicode="&#x122;" horiz-adv-x="739" 
d="M217 32.5q-83 46.5 -131.5 129.5t-48.5 188t50.5 188t137 129.5t190.5 46.5q132 0 225 -64l9 -118h-16q-57 43 -109 61.5t-108 18.5q-73 0 -133 -31.5t-95 -91t-35 -139.5t33 -139.5t90 -91t129 -31.5q95 0 168 60v150h-209v98h325v-291q-69 -60 -138 -89.5t-150 -29.5
q-101 0 -184 46.5zM334 -297q48 32 53 88q-27 0 -46.5 19t-19.5 47q0 29 19 48.5t47 19.5q29 0 48.5 -21.5t19.5 -54.5q0 -108 -113 -168z" />
    <glyph glyph-name="uni0123" unicode="&#x123;" horiz-adv-x="608" 
d="M122 -199l-4 102h19q31 -22 66 -34t81 -12q72 0 114.5 40t42.5 115v54q-26 -32 -68 -49t-92 -17q-67 0 -123.5 32.5t-89.5 90.5t-33 131q0 77 35.5 134.5t92.5 88.5t120 31q53 0 93 -18t65 -49v53h106v-449q0 -147 -71 -216t-197 -69q-89 0 -157 41zM377.5 118.5
q34.5 21.5 52.5 57.5t18 78t-18 78t-52.5 57.5t-82.5 21.5t-83 -21.5t-53 -57.5t-18 -78t18 -78t53 -57.5t83 -21.5t82.5 21.5zM243 586q-19 21 -19 51q0 55 28.5 97t74.5 71l19 -18q-50 -39 -53 -88q27 0 46 -19t19 -47q0 -29 -19 -48.5t-47 -19.5q-30 0 -49 21z" />
    <glyph glyph-name="Hcircumflex" unicode="&#x124;" horiz-adv-x="668" 
d="M66 700h116v-282h304v282h116v-700h-116v320h-304v-320h-116v700zM273 906h123l98 -137h-81l-79 76l-79 -76h-81z" />
    <glyph glyph-name="hcircumflex" unicode="&#x125;" horiz-adv-x="572" 
d="M61 720h106v-294q26 36 73.5 59t97.5 23q81 0 130 -45t49 -127v-336h-106v304q0 51 -30 79t-79 28q-36 0 -67 -18.5t-49.5 -52t-18.5 -75.5v-265h-106v720zM197 926h125l96 -137h-81l-78 75l-77 -75h-81z" />
    <glyph glyph-name="Hbar" unicode="&#x126;" horiz-adv-x="731" 
d="M98 516h-78v79h78v105h116v-105h304v105h116v-105h77v-79h-77v-516h-116v320h-304v-320h-116v516zM518 418v98h-304v-98h304z" />
    <glyph glyph-name="hbar" unicode="&#x127;" horiz-adv-x="572" 
d="M61 571h-61v72h61v77h106v-77h151v-72h-151v-145q26 36 73.5 59t97.5 23q81 0 130 -45t49 -127v-336h-106v304q0 51 -30 79t-79 28q-36 0 -67 -18.5t-49.5 -52t-18.5 -75.5v-265h-106v571z" />
    <glyph glyph-name="Itilde" unicode="&#x128;" horiz-adv-x="248" 
d="M66 700h116v-700h-116v700zM147.5 775q-19.5 8 -43.5 23q-22 13 -34 18.5t-28 5.5q-23 0 -44 -12t-43 -35h-8l8 82q40 44 100 44q26 0 45.5 -8t42.5 -23q21 -12 34 -18t30 -6q45 0 87 47h7l-7 -82q-40 -44 -100 -44q-27 0 -46.5 8z" />
    <glyph glyph-name="itilde" unicode="&#x129;" horiz-adv-x="228" 
d="M61 494h106v-494h-106v494zM137.5 569q-19.5 8 -43.5 23q-21 13 -33.5 18.5t-28.5 5.5q-23 0 -44 -12t-43 -35h-8l8 82q40 44 100 44q26 0 45.5 -8t42.5 -23q21 -12 34 -18t30 -6q45 0 87 47h7l-7 -82q-40 -44 -100 -44q-27 0 -46.5 8z" />
    <glyph glyph-name="Imacron" unicode="&#x12a;" horiz-adv-x="248" 
d="M66 700h116v-700h-116v700zM4 866h241v-79h-241v79z" />
    <glyph glyph-name="imacron" unicode="&#x12b;" horiz-adv-x="228" 
d="M61 494h106v-494h-106v494zM-6 659h240v-79h-240v79z" />
    <glyph glyph-name="Ibreve" unicode="&#x12c;" horiz-adv-x="248" 
d="M66 700h116v-700h-116v700zM36.5 803q-33.5 31 -33.5 83h74q2 -21 14 -34.5t34 -13.5t33.5 13.5t13.5 34.5h74q0 -52 -33.5 -83t-87.5 -31q-55 0 -88.5 31z" />
    <glyph glyph-name="ibreve" unicode="&#x12d;" horiz-adv-x="228" 
d="M61 494h106v-494h-106v494zM26.5 597q-33.5 31 -33.5 83h74q2 -21 14 -34.5t34 -13.5t33.5 13.5t13.5 34.5h74q0 -52 -33.5 -83t-87.5 -31q-55 0 -88.5 31z" />
    <glyph glyph-name="Iogonek" unicode="&#x12e;" horiz-adv-x="246" 
d="M69 -208.5q-35 31.5 -35 82.5q0 37 21 70t57 56h-47v700h116v-700q-66 -61 -66 -117q0 -29 18 -46.5t48 -17.5q22 0 37.5 5t31.5 17l10 -4l-10 -61q-40 -16 -86 -16q-60 0 -95 31.5z" />
    <glyph glyph-name="iogonek" unicode="&#x12f;" horiz-adv-x="228" 
d="M65 596q-20 20 -20 49t20.5 49t48.5 20q29 0 49 -20t20 -49t-20 -49t-49 -20t-49 20zM246 -163l-10 -61q-40 -16 -86 -16q-60 0 -95 31.5t-35 82.5q0 37 20.5 69.5t57.5 56.5h-37v494h106v-494q-66 -61 -66 -117q0 -29 18 -46.5t48 -17.5q22 0 37.5 5t31.5 17z" />
    <glyph glyph-name="Idotaccent" unicode="&#x130;" horiz-adv-x="248" 
d="M66 700h116v-700h-116v700zM75 802q-20 20 -20 49t20 49t49 20q28 0 48.5 -20t20.5 -49t-20 -49t-49 -20t-49 20z" />
    <glyph glyph-name="dotlessi" unicode="&#x131;" horiz-adv-x="228" 
d="M61 494h106v-494h-106v494z" />
    <glyph glyph-name="IJ" unicode="&#x132;" horiz-adv-x="635" 
d="M66 700h116v-700h-116v700zM344 -11q-20 3 -50 11l-12 103h16q43 -19 77 -19q37 0 57.5 24t20.5 74v518h116v-510q0 -97 -47.5 -150.5t-127.5 -53.5q-30 0 -50 3z" />
    <glyph glyph-name="ij" unicode="&#x133;" horiz-adv-x="553" 
d="M65 595.5q-20 20.5 -20 48.5q0 29 20 49.5t48 20.5q29 0 50 -20.5t21 -49.5q0 -28 -21 -48.5t-50 -20.5q-28 0 -48 20.5zM386.5 595.5q-20.5 20.5 -20.5 48.5q0 29 20.5 49.5t48.5 20.5q29 0 49.5 -20.5t20.5 -49.5q0 -28 -20.5 -48.5t-49.5 -20.5q-28 0 -48.5 20.5z
M79 -201l-4 104h20q38 -25 71.5 -34.5t78.5 -9.5q68 0 102.5 38.5t34.5 111.5v34q-25 -27 -58 -42t-81 -15q-49 0 -91 22.5t-67 65t-25 99.5v321h106v-303q0 -51 28 -79.5t76 -28.5q51 0 81.5 34.5t30.5 95.5v281h106v-473q0 -81 -30 -140t-83 -90t-121 -31q-98 0 -175 39z
" />
    <glyph glyph-name="Jcircumflex" unicode="&#x134;" horiz-adv-x="397" 
d="M106 -11q-20 3 -50 11l-12 103h16q43 -19 77 -19q37 0 57.5 24t20.5 74v518h116v-510q0 -97 -47.5 -150.5t-127.5 -53.5q-30 0 -50 3zM212 906h123l98 -137h-81l-79 76l-79 -76h-81z" />
    <glyph glyph-name="jcircumflex" unicode="&#x135;" horiz-adv-x="240" 
d="M60 700h125l96 -137h-81l-78 75l-77 -75h-82zM-36 -223l-10 91h15q14 -9 24.5 -13t25.5 -4q50 0 50 59v584h106v-571q0 -81 -39 -122t-105 -41q-39 0 -67 17z" />
    <glyph glyph-name="uni0136" unicode="&#x136;" horiz-adv-x="602" 
d="M66 700h116v-329l255 329h130l-269 -341l293 -359h-136l-273 332v-332h-116v700zM251 -297q48 32 53 88q-27 0 -46.5 19t-19.5 47q0 29 19 48.5t47 19.5q29 0 48.5 -21.5t19.5 -54.5q0 -108 -113 -168z" />
    <glyph glyph-name="uni0137" unicode="&#x137;" horiz-adv-x="500" 
d="M61 720h106v-438l185 212h126l-201 -230l210 -264h-132l-188 238v-238h-106v720zM191 -297q48 32 53 88q-27 0 -46.5 19t-19.5 47q0 29 19 48.5t47 19.5q29 0 48.5 -21.5t19.5 -54.5q0 -108 -113 -168z" />
    <glyph glyph-name="kgreenlandic" unicode="&#x138;" horiz-adv-x="500" 
d="M61 494h106v-212l185 212h126l-201 -230l210 -264h-132l-188 238v-238h-106v494z" />
    <glyph glyph-name="Lacute" unicode="&#x139;" horiz-adv-x="571" 
d="M66 700h116v-602h351v-98h-467v700zM158 906h141l-143 -137h-90z" />
    <glyph glyph-name="lacute" unicode="&#x13a;" horiz-adv-x="228" 
d="M61 720h106v-720h-106v720zM139 926h141l-143 -137h-90z" />
    <glyph glyph-name="uni013B" unicode="&#x13b;" horiz-adv-x="571" 
d="M66 700h116v-602h351v-98h-467v700zM247 -297q48 32 53 88q-27 0 -46.5 19t-19.5 47q0 29 19 48.5t47 19.5q29 0 48.5 -21.5t19.5 -54.5q0 -108 -113 -168z" />
    <glyph glyph-name="uni013C" unicode="&#x13c;" horiz-adv-x="228" 
d="M61 720h106v-720h-106v720zM60 -297q48 32 53 88q-27 0 -46.5 19t-19.5 47q0 29 19 48.5t47 19.5q29 0 48.5 -21.5t19.5 -54.5q0 -108 -113 -168z" />
    <glyph glyph-name="Lcaron" unicode="&#x13d;" horiz-adv-x="584" 
d="M66 700h116v-602h351v-98h-467v700zM425 488q49 38 53 88q-27 0 -46.5 19t-19.5 47q0 29 19 48.5t47 19.5q30 0 49 -20.5t19 -51.5q0 -55 -28.5 -97t-73.5 -71z" />
    <glyph glyph-name="lcaron" unicode="&#x13e;" horiz-adv-x="373" 
d="M61 720h106v-720h-106v720zM252 488q49 38 53 88q-27 0 -46.5 19t-19.5 47q0 29 19 48.5t47 19.5q30 0 49 -20.5t19 -51.5q0 -55 -28.5 -97t-73.5 -71z" />
    <glyph glyph-name="Ldot" unicode="&#x13f;" horiz-adv-x="571" 
d="M66 700h116v-602h351v-98h-467v700zM362.5 311.5q-19.5 19.5 -19.5 46.5q0 28 19.5 48t46.5 20q29 0 48.5 -19.5t19.5 -48.5q0 -27 -20 -46.5t-48 -19.5q-27 0 -46.5 19.5z" />
    <glyph glyph-name="ldot" unicode="&#x140;" horiz-adv-x="408" 
d="M61 720h106v-720h-106v720zM249.5 311.5q-19.5 19.5 -19.5 46.5q0 28 19.5 48t46.5 20q29 0 48.5 -19.5t19.5 -48.5q0 -27 -20 -46.5t-48 -19.5q-27 0 -46.5 19.5z" />
    <glyph glyph-name="Lslash" unicode="&#x141;" horiz-adv-x="586" 
d="M81 185l-81 -47v105l81 47v410h116v-343l164 96v-105l-164 -96v-154h351v-98h-467v185z" />
    <glyph glyph-name="lslash" unicode="&#x142;" horiz-adv-x="283" 
d="M89 224l-81 -47v105l81 47v391h106v-329l80 47v-105l-80 -47v-286h-106v224z" />
    <glyph glyph-name="Nacute" unicode="&#x143;" horiz-adv-x="693" 
d="M66 700h47l398 -457v457h116v-700h-47l-398 459v-459h-116v700zM380 906h141l-143 -137h-90z" />
    <glyph glyph-name="nacute" unicode="&#x144;" horiz-adv-x="564" 
d="M61 494h106v-67q27 37 72 59t95 22q79 0 127 -45t48 -127v-336h-106v304q0 51 -29 79t-78 28q-55 0 -92 -41t-37 -105v-265h-106v494zM327 700h141l-143 -137h-90z" />
    <glyph glyph-name="uni0145" unicode="&#x145;" horiz-adv-x="693" 
d="M66 700h47l398 -457v457h116v-700h-47l-398 459v-459h-116v700zM291 -297q48 32 53 88q-27 0 -46.5 19t-19.5 47q0 29 19 48.5t47 19.5q29 0 48.5 -21.5t19.5 -54.5q0 -108 -113 -168z" />
    <glyph glyph-name="uni0146" unicode="&#x146;" horiz-adv-x="564" 
d="M61 494h106v-67q27 37 72 59t95 22q79 0 127 -45t48 -127v-336h-106v304q0 51 -29 79t-78 28q-55 0 -92 -41t-37 -105v-265h-106v494zM226 -297q48 32 53 88q-27 0 -46.5 19t-19.5 47q0 29 19 48.5t47 19.5q29 0 48.5 -21.5t19.5 -54.5q0 -108 -113 -168z" />
    <glyph glyph-name="Ncaron" unicode="&#x147;" horiz-adv-x="693" 
d="M66 700h47l398 -457v457h116v-700h-47l-398 459v-459h-116v700zM188 906h81l77 -74l78 74h81l-96 -137h-125z" />
    <glyph glyph-name="ncaron" unicode="&#x148;" horiz-adv-x="564" 
d="M61 494h106v-67q27 37 72 59t95 22q79 0 127 -45t48 -127v-336h-106v304q0 51 -29 79t-78 28q-55 0 -92 -41t-37 -105v-265h-106v494zM139 700h81l77 -74l78 74h81l-96 -137h-125z" />
    <glyph glyph-name="Eng" unicode="&#x14a;" horiz-adv-x="693" 
d="M402.5 -237q-20.5 3 -50.5 11l-11 102h16q39 -18 76 -18t57.5 24t20.5 73v45l-329 432v-432h-116v700h47l398 -521v521h116v-737q0 -96 -47.5 -149.5t-126.5 -53.5q-30 0 -50.5 3z" />
    <glyph glyph-name="eng" unicode="&#x14b;" horiz-adv-x="564" 
d="M298 -223l-10 91h15q14 -9 24.5 -13t25.5 -4q50 0 50 58v395q0 51 -29 79t-78 28q-55 0 -92 -41t-37 -105v-265h-106v494h106v-67q27 37 72 59t95 22q79 0 127 -45t48 -127v-413q0 -81 -39 -122t-105 -41q-39 0 -67 17z" />
    <glyph glyph-name="Omacron" unicode="&#x14c;" horiz-adv-x="813" 
d="M219.5 33.5q-84.5 47.5 -133.5 130.5t-49 186t49 186t133.5 130.5t186.5 47.5t187 -47.5t134 -130.5t49 -186t-49 -186t-134 -130.5t-187 -47.5t-186.5 47.5zM535.5 119q58.5 32 92 91.5t33.5 139.5t-33.5 140t-92 92t-129.5 32t-129 -32t-91.5 -92t-33.5 -140
t33.5 -139.5t91.5 -91.5t129 -32t129.5 32zM286 866h241v-79h-241v79z" />
    <glyph glyph-name="omacron" unicode="&#x14d;" horiz-adv-x="600" 
d="M167 20q-61 34 -96.5 94t-35.5 133q0 74 35.5 133.5t96.5 93.5t133 34q73 0 133.5 -34t96 -93.5t35.5 -133.5t-35.5 -133.5t-96 -93.5t-133.5 -34q-72 0 -133 34zM380.5 103.5q36.5 20.5 57.5 58t21 85.5t-21 85.5t-57.5 58t-80.5 20.5t-80.5 -20.5t-57.5 -58t-21 -85.5
t21 -85.5t57.5 -58t80.5 -20.5t80.5 20.5zM180 659h240v-79h-240v79z" />
    <glyph glyph-name="Obreve" unicode="&#x14e;" horiz-adv-x="813" 
d="M219.5 33.5q-84.5 47.5 -133.5 130.5t-49 186t49 186t133.5 130.5t186.5 47.5t187 -47.5t134 -130.5t49 -186t-49 -186t-134 -130.5t-187 -47.5t-186.5 47.5zM535.5 119q58.5 32 92 91.5t33.5 139.5t-33.5 140t-92 92t-129.5 32t-129 -32t-91.5 -92t-33.5 -140
t33.5 -139.5t91.5 -91.5t129 -32t129.5 32zM318.5 803q-33.5 31 -33.5 83h74q2 -21 14 -34.5t34 -13.5t33.5 13.5t13.5 34.5h74q0 -52 -33.5 -83t-87.5 -31q-55 0 -88.5 31z" />
    <glyph glyph-name="obreve" unicode="&#x14f;" horiz-adv-x="600" 
d="M167 20q-61 34 -96.5 94t-35.5 133q0 74 35.5 133.5t96.5 93.5t133 34q73 0 133.5 -34t96 -93.5t35.5 -133.5t-35.5 -133.5t-96 -93.5t-133.5 -34q-72 0 -133 34zM380.5 103.5q36.5 20.5 57.5 58t21 85.5t-21 85.5t-57.5 58t-80.5 20.5t-80.5 -20.5t-57.5 -58t-21 -85.5
t21 -85.5t57.5 -58t80.5 -20.5t80.5 20.5zM212.5 597q-33.5 31 -33.5 83h74q2 -21 14 -34.5t34 -13.5t33.5 13.5t13.5 34.5h74q0 -52 -33.5 -83t-87.5 -31q-55 0 -88.5 31z" />
    <glyph glyph-name="Ohungarumlaut" unicode="&#x150;" horiz-adv-x="813" 
d="M219.5 33.5q-84.5 47.5 -133.5 130.5t-49 186t49 186t133.5 130.5t186.5 47.5t187 -47.5t134 -130.5t49 -186t-49 -186t-134 -130.5t-187 -47.5t-186.5 47.5zM535.5 119q58.5 32 92 91.5t33.5 139.5t-33.5 140t-92 92t-129.5 32t-129 -32t-91.5 -92t-33.5 -140
t33.5 -139.5t91.5 -91.5t129 -32t129.5 32zM339 906h140l-142 -137h-90zM528 906h140l-142 -137h-90z" />
    <glyph glyph-name="ohungarumlaut" unicode="&#x151;" horiz-adv-x="600" 
d="M167 20q-61 34 -96.5 94t-35.5 133q0 74 35.5 133.5t96.5 93.5t133 34q73 0 133.5 -34t96 -93.5t35.5 -133.5t-35.5 -133.5t-96 -93.5t-133.5 -34q-72 0 -133 34zM380.5 103.5q36.5 20.5 57.5 58t21 85.5t-21 85.5t-57.5 58t-80.5 20.5t-80.5 -20.5t-57.5 -58t-21 -85.5
t21 -85.5t57.5 -58t80.5 -20.5t80.5 20.5zM213 700h140l-142 -137h-90zM402 700h140l-142 -137h-90z" />
    <glyph glyph-name="OE" unicode="&#x152;" horiz-adv-x="1127" 
d="M1086 98v-98h-427v81q-50 -46 -115 -70.5t-138 -24.5q-102 0 -186.5 47.5t-133.5 130.5t-49 186t49 186t133.5 130.5t186.5 47.5q73 0 138 -24.5t115 -70.5v81h423v-98h-307v-193h296v-98h-296v-213h311zM534.5 117.5q57.5 32.5 91 92.5t33.5 140t-33 140t-91 92.5
t-129 32.5t-129 -32.5t-91 -92.5t-33 -140t33.5 -140t91 -92.5t128.5 -32.5t128.5 32.5z" />
    <glyph glyph-name="oe" unicode="&#x153;" horiz-adv-x="995" 
d="M167 20q-61 34 -96.5 94t-35.5 133q0 74 35.5 133.5t96.5 93.5t133 34q65 0 120.5 -27.5t92.5 -76.5q35 49 86.5 76.5t113.5 27.5q75 0 130 -32.5t84.5 -89.5t29.5 -127v-40h-392q9 -66 55.5 -103.5t108.5 -37.5q51 0 94 16.5t88 56.5h11l-4 -106q-88 -59 -193 -59
q-66 0 -121 28t-91 77q-36 -49 -92 -77t-121 -28q-72 0 -133 34zM855 297q-7 57 -45.5 92t-96.5 35q-51 0 -91.5 -33.5t-52.5 -93.5h286zM380.5 103.5q36.5 20.5 57.5 58t21 85.5t-21 85.5t-57.5 58t-80.5 20.5t-80.5 -20.5t-57.5 -58t-21 -85.5t21 -85.5t57.5 -58
t80.5 -20.5t80.5 20.5z" />
    <glyph glyph-name="Racute" unicode="&#x154;" horiz-adv-x="572" 
d="M66 700h203q104 0 169.5 -53t65.5 -146q0 -69 -39 -116t-102 -69l190 -316h-126l-182 302h-63v-302h-116v700zM264 401q60 0 92 25.5t32 74.5t-32 74.5t-92 25.5h-82v-200h82zM313 906h141l-143 -137h-90z" />
    <glyph glyph-name="racute" unicode="&#x155;" horiz-adv-x="412" 
d="M61 494h106v-60q24 36 60 55t74 19q46 0 78 -23l7 -110h-14q-33 36 -85 36q-50 0 -85 -33.5t-35 -101.5v-276h-106v494zM256 700h141l-143 -137h-90z" />
    <glyph glyph-name="uni0156" unicode="&#x156;" horiz-adv-x="572" 
d="M66 700h203q104 0 169.5 -53t65.5 -146q0 -69 -39 -116t-102 -69l190 -316h-126l-182 302h-63v-302h-116v700zM264 401q60 0 92 25.5t32 74.5t-32 74.5t-92 25.5h-82v-200h82zM252 -297q48 32 53 88q-27 0 -46.5 19t-19.5 47q0 29 19 48.5t47 19.5q29 0 48.5 -21.5
t19.5 -54.5q0 -108 -113 -168z" />
    <glyph glyph-name="uni0157" unicode="&#x157;" horiz-adv-x="412" 
d="M61 494h106v-60q24 36 60 55t74 19q46 0 78 -23l7 -110h-14q-33 36 -85 36q-50 0 -85 -33.5t-35 -101.5v-276h-106v494zM55 -297q48 32 53 88q-27 0 -46.5 19t-19.5 47q0 29 19 48.5t47 19.5q29 0 48.5 -21.5t19.5 -54.5q0 -108 -113 -168z" />
    <glyph glyph-name="Rcaron" unicode="&#x158;" horiz-adv-x="572" 
d="M66 700h203q104 0 169.5 -53t65.5 -146q0 -69 -39 -116t-102 -69l190 -316h-126l-182 302h-63v-302h-116v700zM264 401q60 0 92 25.5t32 74.5t-32 74.5t-92 25.5h-82v-200h82zM122 906h81l77 -74l78 74h81l-96 -137h-125z" />
    <glyph glyph-name="rcaron" unicode="&#x159;" horiz-adv-x="412" 
d="M61 494h106v-60q24 36 60 55t74 19q46 0 78 -23l7 -110h-14q-33 36 -85 36q-50 0 -85 -33.5t-35 -101.5v-276h-106v494zM68 700h81l77 -74l78 74h81l-96 -137h-125z" />
    <glyph glyph-name="Sacute" unicode="&#x15a;" horiz-adv-x="521" 
d="M137 7q-52 21 -88 53l7 134h10q40 -50 84 -79.5t101 -29.5q52 0 83 28.5t31 76.5t-33 77.5t-104 61.5q-172 77 -172 204q0 55 28 96t75 63t102 22q56 0 98.5 -15t69.5 -39l5 -123h-13q-74 83 -160 83q-46 0 -73.5 -22t-27.5 -61q0 -38 34.5 -66.5t111.5 -62.5
q86 -38 130.5 -87.5t44.5 -122.5q0 -61 -29 -109t-80 -75.5t-117 -27.5t-118 21zM292 906h141l-143 -137h-90z" />
    <glyph glyph-name="sacute" unicode="&#x15b;" horiz-adv-x="423" 
d="M36 35l25 100h6q68 -52 137 -52q37 0 59 15.5t22 42.5q0 28 -23.5 44t-82.5 36q-129 44 -129 144q0 41 22 73.5t61.5 51t89.5 18.5q75 0 132 -35l4 -102h-7q-32 23 -62.5 34.5t-67.5 11.5q-32 0 -52.5 -12.5t-20.5 -35.5q0 -27 24 -44t82 -37q68 -23 102 -54.5t34 -90.5
q0 -47 -25 -83t-67 -55t-92 -19q-97 0 -171 49zM249 700h141l-143 -137h-90z" />
    <glyph glyph-name="Scircumflex" unicode="&#x15c;" horiz-adv-x="521" 
d="M137 7q-52 21 -88 53l7 134h10q40 -50 84 -79.5t101 -29.5q52 0 83 28.5t31 76.5t-33 77.5t-104 61.5q-172 77 -172 204q0 55 28 96t75 63t102 22q56 0 98.5 -15t69.5 -39l5 -123h-13q-74 83 -160 83q-46 0 -73.5 -22t-27.5 -61q0 -38 34.5 -66.5t111.5 -62.5
q86 -38 130.5 -87.5t44.5 -122.5q0 -61 -29 -109t-80 -75.5t-117 -27.5t-118 21zM198 906h123l98 -137h-81l-79 76l-79 -76h-81z" />
    <glyph glyph-name="scircumflex" unicode="&#x15d;" horiz-adv-x="423" 
d="M36 35l25 100h6q68 -52 137 -52q37 0 59 15.5t22 42.5q0 28 -23.5 44t-82.5 36q-129 44 -129 144q0 41 22 73.5t61.5 51t89.5 18.5q75 0 132 -35l4 -102h-7q-32 23 -62.5 34.5t-67.5 11.5q-32 0 -52.5 -12.5t-20.5 -35.5q0 -27 24 -44t82 -37q68 -23 102 -54.5t34 -90.5
q0 -47 -25 -83t-67 -55t-92 -19q-97 0 -171 49zM157 700h125l96 -137h-81l-78 75l-77 -75h-81z" />
    <glyph glyph-name="Scedilla" unicode="&#x15e;" horiz-adv-x="521" 
d="M453.5 91.5q-27.5 -47.5 -76 -75.5t-111.5 -30l-33 -46q25 9 54 9q38 0 61.5 -24.5t23.5 -63.5q0 -46 -35 -73.5t-93 -27.5q-52 0 -88 14l-9 61l9 4q40 -22 74 -22q23 0 38 11t15 32t-14.5 32t-37.5 11q-11 0 -29 -3.5t-28 -7.5l-7 8l39 89q-49 7 -89 26t-68 45l7 134h10
q40 -50 84 -79.5t101 -29.5q52 0 83 28.5t31 76.5t-33 77.5t-104 61.5q-172 77 -172 204q0 55 28 96t75 63t102 22q56 0 98.5 -15t69.5 -39l5 -123h-13q-74 83 -160 83q-46 0 -73.5 -22t-27.5 -61q0 -38 34.5 -66.5t111.5 -62.5q86 -38 130.5 -87.5t44.5 -122.5
q0 -59 -27.5 -106.5z" />
    <glyph glyph-name="scedilla" unicode="&#x15f;" horiz-adv-x="423" 
d="M343.5 34q-47.5 -42 -117.5 -47l-34 -47q23 9 54 9q38 0 61.5 -24.5t23.5 -63.5q0 -46 -35.5 -73.5t-93.5 -27.5q-52 0 -87 14l-10 61l10 4q40 -22 73 -22q24 0 38.5 11t14.5 32q0 22 -14 32.5t-37 10.5q-12 0 -30 -3.5t-27 -7.5l-7 8l38 89q-71 8 -128 46l25 100h6
q68 -52 137 -52q37 0 59 15.5t22 42.5q0 28 -23.5 44t-82.5 36q-129 44 -129 144q0 41 22 73.5t61.5 51t89.5 18.5q75 0 132 -35l4 -102h-7q-32 23 -62.5 34.5t-67.5 11.5q-32 0 -52.5 -12.5t-20.5 -35.5q0 -27 24 -44t82 -37q68 -23 102 -54.5t34 -90.5q0 -67 -47.5 -109z
" />
    <glyph glyph-name="Scaron" unicode="&#x160;" horiz-adv-x="521" 
d="M137 7q-52 21 -88 53l7 134h10q40 -50 84 -79.5t101 -29.5q52 0 83 28.5t31 76.5t-33 77.5t-104 61.5q-172 77 -172 204q0 55 28 96t75 63t102 22q56 0 98.5 -15t69.5 -39l5 -123h-13q-74 83 -160 83q-46 0 -73.5 -22t-27.5 -61q0 -38 34.5 -66.5t111.5 -62.5
q86 -38 130.5 -87.5t44.5 -122.5q0 -61 -29 -109t-80 -75.5t-117 -27.5t-118 21zM101 906h81l77 -74l78 74h81l-96 -137h-125z" />
    <glyph glyph-name="scaron" unicode="&#x161;" horiz-adv-x="423" 
d="M36 35l25 100h6q68 -52 137 -52q37 0 59 15.5t22 42.5q0 28 -23.5 44t-82.5 36q-129 44 -129 144q0 41 22 73.5t61.5 51t89.5 18.5q75 0 132 -35l4 -102h-7q-32 23 -62.5 34.5t-67.5 11.5q-32 0 -52.5 -12.5t-20.5 -35.5q0 -27 24 -44t82 -37q68 -23 102 -54.5t34 -90.5
q0 -47 -25 -83t-67 -55t-92 -19q-97 0 -171 49zM61 700h81l77 -74l78 74h81l-96 -137h-125z" />
    <glyph glyph-name="uni0162" unicode="&#x162;" horiz-adv-x="542" 
d="M304 0l-43 -60q23 9 54 9q38 0 61.5 -24.5t23.5 -63.5q0 -46 -35.5 -73.5t-93.5 -27.5q-52 0 -87 14l-10 61l10 4q40 -22 73 -22q24 0 38.5 11t14.5 32q0 22 -14 32.5t-37 10.5q-12 0 -30 -3.5t-27 -7.5l-7 8l43 100h-25v602h-176v98h468v-98h-176v-602h-25z" />
    <glyph glyph-name="uni0163" unicode="&#x163;" horiz-adv-x="386" 
d="M328.5 -75.5q23.5 -24.5 23.5 -63.5q0 -46 -35.5 -73.5t-93.5 -27.5q-52 0 -87 14l-10 61l10 4q40 -22 73 -22q24 0 38.5 11t14.5 32q0 22 -14 32.5t-37 10.5q-12 0 -30 -3.5t-27 -7.5l-7 8l41 96q-39 14 -62 50t-23 91v265h-89v92h89v88l106 49v-137h137v-92h-137v-263
q0 -31 17 -46t42 -15q18 0 35.5 6t39.5 23h12l-8 -96q-29 -15 -49.5 -20t-51.5 -5l-33 -46q23 9 54 9q38 0 61.5 -24.5z" />
    <glyph glyph-name="Tcaron" unicode="&#x164;" horiz-adv-x="542" 
d="M213 602h-176v98h468v-98h-176v-602h-116v602zM112 906h81l77 -74l78 74h81l-96 -137h-125z" />
    <glyph glyph-name="tcaron" unicode="&#x165;" horiz-adv-x="520" 
d="M142.5 25q-39.5 39 -39.5 112v265h-89v92h89v88l106 49v-137h137v-92h-137v-263q0 -31 17 -46t42 -15q18 0 35.5 6t39.5 23h12l-8 -96q-29 -15 -50 -20t-53 -5q-62 0 -101.5 39zM399 488q49 38 53 88q-27 0 -46.5 19t-19.5 47q0 29 19 48.5t47 19.5q30 0 49 -20.5
t19 -51.5q0 -55 -28.5 -97t-73.5 -71z" />
    <glyph glyph-name="Tbar" unicode="&#x166;" horiz-adv-x="542" 
d="M213 363h-138v79h138v160h-176v98h468v-98h-176v-160h139v-79h-139v-363h-116v363z" />
    <glyph glyph-name="tbar" unicode="&#x167;" horiz-adv-x="386" 
d="M142.5 25q-39.5 39 -39.5 112v84h-78v72h78v109h-89v92h89v88l106 49v-137h137v-92h-137v-109h128v-72h-128v-82q0 -31 17 -46t42 -15q18 0 35.5 6t39.5 23h12l-8 -96q-29 -15 -50 -20t-53 -5q-62 0 -101.5 39z" />
    <glyph glyph-name="Utilde" unicode="&#x168;" horiz-adv-x="654" 
d="M184 20q-61 34 -94 98t-33 152v430h116v-444q0 -89 44.5 -130.5t109.5 -41.5t109.5 41.5t44.5 130.5v444h116v-430q0 -88 -33 -152t-94 -98t-143 -34t-143 34zM350.5 775q-19.5 8 -43.5 23q-22 13 -34 18.5t-28 5.5q-23 0 -44 -12t-43 -35h-8l8 82q40 44 100 44
q26 0 45.5 -8t42.5 -23q21 -12 34 -18t30 -6q45 0 87 47h7l-7 -82q-40 -44 -100 -44q-27 0 -46.5 8z" />
    <glyph glyph-name="utilde" unicode="&#x169;" horiz-adv-x="564" 
d="M103 31q-48 45 -48 127v336h106v-304q0 -51 29 -79t78 -28q55 0 92 41t37 105v265h106v-494h-106v68q-27 -37 -72 -59.5t-95 -22.5q-79 0 -127 45zM305.5 569q-19.5 8 -43.5 23q-21 13 -33.5 18.5t-28.5 5.5q-23 0 -44 -12t-43 -35h-8l8 82q40 44 100 44q26 0 45.5 -8
t42.5 -23q21 -12 34 -18t30 -6q45 0 87 47h7l-7 -82q-40 -44 -100 -44q-27 0 -46.5 8z" />
    <glyph glyph-name="Umacron" unicode="&#x16a;" horiz-adv-x="654" 
d="M184 20q-61 34 -94 98t-33 152v430h116v-444q0 -89 44.5 -130.5t109.5 -41.5t109.5 41.5t44.5 130.5v444h116v-430q0 -88 -33 -152t-94 -98t-143 -34t-143 34zM207 866h241v-79h-241v79z" />
    <glyph glyph-name="umacron" unicode="&#x16b;" horiz-adv-x="564" 
d="M103 31q-48 45 -48 127v336h106v-304q0 -51 29 -79t78 -28q55 0 92 41t37 105v265h106v-494h-106v68q-27 -37 -72 -59.5t-95 -22.5q-79 0 -127 45zM162 659h240v-79h-240v79z" />
    <glyph glyph-name="Ubreve" unicode="&#x16c;" horiz-adv-x="654" 
d="M184 20q-61 34 -94 98t-33 152v430h116v-444q0 -89 44.5 -130.5t109.5 -41.5t109.5 41.5t44.5 130.5v444h116v-430q0 -88 -33 -152t-94 -98t-143 -34t-143 34zM239.5 803q-33.5 31 -33.5 83h74q2 -21 14 -34.5t34 -13.5t33.5 13.5t13.5 34.5h74q0 -52 -33.5 -83
t-87.5 -31q-55 0 -88.5 31z" />
    <glyph glyph-name="ubreve" unicode="&#x16d;" horiz-adv-x="564" 
d="M103 31q-48 45 -48 127v336h106v-304q0 -51 29 -79t78 -28q55 0 92 41t37 105v265h106v-494h-106v68q-27 -37 -72 -59.5t-95 -22.5q-79 0 -127 45zM194.5 597q-33.5 31 -33.5 83h74q2 -21 14 -34.5t34 -13.5t33.5 13.5t13.5 34.5h74q0 -52 -33.5 -83t-87.5 -31
q-55 0 -88.5 31z" />
    <glyph glyph-name="Uring" unicode="&#x16e;" horiz-adv-x="654" 
d="M184 20q-61 34 -94 98t-33 152v430h116v-444q0 -89 44.5 -130.5t109.5 -41.5t109.5 41.5t44.5 130.5v444h116v-430q0 -88 -33 -152t-94 -98t-143 -34t-143 34zM254 779.5q-30 29.5 -30 71.5t30 71.5t73 29.5t73 -29.5t30 -71.5t-30 -71.5t-73 -29.5t-73 29.5zM369 810
q16 17 16 41q0 25 -16 41.5t-42 16.5t-42 -16.5t-16 -41.5q0 -24 16 -41t42 -17t42 17z" />
    <glyph glyph-name="uring" unicode="&#x16f;" horiz-adv-x="564" 
d="M103 31q-48 45 -48 127v336h106v-304q0 -51 29 -79t78 -28q55 0 92 41t37 105v265h106v-494h-106v68q-27 -37 -72 -59.5t-95 -22.5q-79 0 -127 45zM209 573.5q-30 29.5 -30 71.5t30 71.5t73 29.5t73 -29.5t30 -71.5t-30 -71.5t-73 -29.5t-73 29.5zM324 604q16 17 16 41
q0 25 -16 41.5t-42 16.5t-42 -16.5t-16 -41.5q0 -24 16 -41t42 -17t42 17z" />
    <glyph glyph-name="Uhungarumlaut" unicode="&#x170;" horiz-adv-x="654" 
d="M184 20q-61 34 -94 98t-33 152v430h116v-444q0 -89 44.5 -130.5t109.5 -41.5t109.5 41.5t44.5 130.5v444h116v-430q0 -88 -33 -152t-94 -98t-143 -34t-143 34zM260 906h140l-142 -137h-90zM449 906h140l-142 -137h-90z" />
    <glyph glyph-name="uhungarumlaut" unicode="&#x171;" horiz-adv-x="564" 
d="M103 31q-48 45 -48 127v336h106v-304q0 -51 29 -79t78 -28q55 0 92 41t37 105v265h106v-494h-106v68q-27 -37 -72 -59.5t-95 -22.5q-79 0 -127 45zM195 700h140l-142 -137h-90zM384 700h140l-142 -137h-90z" />
    <glyph glyph-name="Uogonek" unicode="&#x172;" horiz-adv-x="654" 
d="M597 700v-430q0 -106 -46.5 -176t-130.5 -95q-65 -60 -65 -116q0 -29 18 -46.5t48 -17.5q22 0 37.5 5t31.5 17l10 -4l-10 -61q-40 -16 -86 -16q-60 0 -95 31.5t-35 82.5q0 32 15.5 60.5t43.5 51.5h-6q-82 0 -143 34t-94 98t-33 152v430h116v-444q0 -89 44.5 -130.5
t109.5 -41.5t109.5 41.5t44.5 130.5v444h116z" />
    <glyph glyph-name="uogonek" unicode="&#x173;" horiz-adv-x="564" 
d="M581 -163l-9 -61q-40 -16 -87 -16q-59 0 -94.5 31.5t-35.5 82.5q0 37 20.5 69.5t57.5 56.5h-36v68q-27 -37 -72 -59.5t-95 -22.5q-79 0 -127 45t-48 127v336h106v-304q0 -51 29 -79t78 -28q55 0 92 41t37 105v265h106v-494q-67 -60 -67 -117q0 -28 18.5 -46t47.5 -18
q23 0 39 5t31 17z" />
    <glyph glyph-name="Wcircumflex" unicode="&#x174;" horiz-adv-x="970" 
d="M22 700h122l145 -443l170 443h52l170 -443l145 443h122l-237 -700h-42l-184 483l-184 -483h-42zM424 906h123l98 -137h-81l-79 76l-79 -76h-81z" />
    <glyph glyph-name="wcircumflex" unicode="&#x175;" horiz-adv-x="772" 
d="M14 494h110l123 -294l119 294h40l120 -294l122 294h110l-217 -494h-27l-128 319l-128 -319h-27zM324 700h125l96 -137h-81l-78 75l-77 -75h-81z" />
    <glyph glyph-name="Ycircumflex" unicode="&#x176;" horiz-adv-x="600" 
d="M242 300l-228 400h127l159 -293l160 293h126l-228 -400v-300h-116v300zM239 906h123l98 -137h-81l-79 76l-79 -76h-81z" />
    <glyph glyph-name="ycircumflex" unicode="&#x177;" horiz-adv-x="520" 
d="M201 94l-189 400h113l132 -283l137 283h114l-349 -720h-113zM198 700h125l96 -137h-81l-78 75l-77 -75h-81z" />
    <glyph glyph-name="Ydieresis" unicode="&#x178;" horiz-adv-x="600" 
d="M242 300l-228 400h127l159 -293l160 293h126l-228 -400v-300h-116v300zM162 789.5q-18 18.5 -18 43.5q0 26 18.5 45t43.5 19q26 0 45 -19t19 -45q0 -25 -19 -43.5t-45 -18.5t-44 18.5zM348 789.5q-18 18.5 -18 43.5q0 26 18.5 45t43.5 19q26 0 45.5 -19t19.5 -45
q0 -25 -19.5 -43.5t-45.5 -18.5t-44 18.5z" />
    <glyph glyph-name="Zacute" unicode="&#x179;" horiz-adv-x="601" 
d="M25 15l355 587h-325v98h498v-15l-356 -587h370v-98h-542v15zM334 906h141l-143 -137h-90z" />
    <glyph glyph-name="zacute" unicode="&#x17a;" horiz-adv-x="483" 
d="M32 15l240 382h-219v97h383v-15l-237 -382h243v-97h-410v15zM270 700h141l-143 -137h-90z" />
    <glyph glyph-name="Zdotaccent" unicode="&#x17b;" horiz-adv-x="601" 
d="M25 15l355 587h-325v98h498v-15l-356 -587h370v-98h-542v15zM253 802q-20 20 -20 49t20 49t49 20q28 0 48.5 -20t20.5 -49t-20 -49t-49 -20t-49 20z" />
    <glyph glyph-name="zdotaccent" unicode="&#x17c;" horiz-adv-x="483" 
d="M32 15l240 382h-219v97h383v-15l-237 -382h243v-97h-410v15zM192 596q-20 20 -20 49t20 49t49 20q28 0 48.5 -20t20.5 -49t-20 -49t-49 -20t-49 20z" />
    <glyph glyph-name="Zcaron" unicode="&#x17d;" horiz-adv-x="601" 
d="M25 15l355 587h-325v98h498v-15l-356 -587h370v-98h-542v15zM143 906h81l77 -74l78 74h81l-96 -137h-125z" />
    <glyph glyph-name="zcaron" unicode="&#x17e;" horiz-adv-x="483" 
d="M32 15l240 382h-219v97h383v-15l-237 -382h243v-97h-410v15zM82 700h81l77 -74l78 74h81l-96 -137h-125z" />
    <glyph glyph-name="florin" unicode="&#x192;" horiz-adv-x="555" 
d="M48.5 -211q-19.5 5 -38.5 16l15 96h10q11 -13 27 -19.5t31 -6.5q58 0 70 64l92 463h-60l18 92h61l13 70q15 73 61.5 111.5t109.5 38.5q29 0 48.5 -5t38.5 -16l-15 -96h-10q-11 13 -27 19.5t-31 6.5q-58 0 -70 -64l-12 -65h83l-18 -92h-84l-93 -468q-15 -73 -60.5 -111.5
t-110.5 -38.5q-29 0 -48.5 5z" />
    <glyph glyph-name="uni01B5" unicode="&#x1b5;" horiz-adv-x="601" 
d="M25 15l181 298h-144v79h191l127 210h-325v98h498v-15l-178 -293h160v-79h-208l-130 -215h370v-98h-542v15z" />
    <glyph glyph-name="uni01B6" unicode="&#x1b6;" horiz-adv-x="483" 
d="M32 15l126 200h-93v72h138l69 110h-219v97h383v-15l-119 -192h104v-72h-148l-74 -118h243v-97h-410v15z" />
    <glyph glyph-name="AEacute" unicode="&#x1fc;" horiz-adv-x="994" 
d="M326 700h342l44 -98h-308l86 -193h283l42 -98h-282l94 -213h309l43 -98h-426l-56 131h-308l-56 -131h-114zM455 229l-112 263l-112 -263h224zM477 906h140l-142 -137h-90z" />
    <glyph glyph-name="aeacute" unicode="&#x1fd;" horiz-adv-x="870" 
d="M114.5 4.5q-36.5 18.5 -57.5 51t-21 72.5q0 84 69.5 126.5t187.5 42.5h43q-1 61 -31.5 93t-73.5 32q-41 0 -73.5 -15t-63.5 -45h-16l10 99q27 19 71 33t87 14q54 0 95.5 -21t64.5 -60q36 38 82.5 59.5t99.5 21.5q75 0 130 -32.5t84.5 -89.5t29.5 -127v-40h-392
q9 -66 55.5 -103.5t108.5 -37.5q51 0 94 16.5t88 56.5h11l-4 -106q-88 -59 -193 -59q-65 0 -120 28t-91 77q-36 -53 -85.5 -79t-106.5 -26q-46 0 -82.5 18.5zM730 297q-7 57 -45.5 92t-96.5 35q-50 0 -90.5 -33t-53.5 -94h286zM275 91q28 18 44.5 51t16.5 77
q-97 0 -145.5 -19.5t-48.5 -63.5q0 -29 19.5 -46t52.5 -17t61 18zM441 700h141l-143 -137h-90z" />
    <glyph glyph-name="uni0218" unicode="&#x218;" horiz-adv-x="521" 
d="M137 7q-52 21 -88 53l7 134h10q40 -50 84 -79.5t101 -29.5q52 0 83 28.5t31 76.5t-33 77.5t-104 61.5q-172 77 -172 204q0 55 28 96t75 63t102 22q56 0 98.5 -15t69.5 -39l5 -123h-13q-74 83 -160 83q-46 0 -73.5 -22t-27.5 -61q0 -38 34.5 -66.5t111.5 -62.5
q86 -38 130.5 -87.5t44.5 -122.5q0 -61 -29 -109t-80 -75.5t-117 -27.5t-118 21zM209 -297q48 32 53 88q-27 0 -46.5 19t-19.5 47q0 29 19 48.5t47 19.5q29 0 48.5 -21.5t19.5 -54.5q0 -108 -113 -168z" />
    <glyph glyph-name="uni0219" unicode="&#x219;" horiz-adv-x="423" 
d="M36 35l25 100h6q68 -52 137 -52q37 0 59 15.5t22 42.5q0 28 -23.5 44t-82.5 36q-129 44 -129 144q0 41 22 73.5t61.5 51t89.5 18.5q75 0 132 -35l4 -102h-7q-32 23 -62.5 34.5t-67.5 11.5q-32 0 -52.5 -12.5t-20.5 -35.5q0 -27 24 -44t82 -37q68 -23 102 -54.5t34 -90.5
q0 -47 -25 -83t-67 -55t-92 -19q-97 0 -171 49zM161 -297q48 32 53 88q-27 0 -46.5 19t-19.5 47q0 29 19 48.5t47 19.5q29 0 48.5 -21.5t19.5 -54.5q0 -108 -113 -168z" />
    <glyph glyph-name="uni021A" unicode="&#x21a;" horiz-adv-x="542" 
d="M213 602h-176v98h468v-98h-176v-602h-116v602zM210 -297q48 32 53 88q-27 0 -46.5 19t-19.5 47q0 29 19 48.5t47 19.5q29 0 48.5 -21.5t19.5 -54.5q0 -108 -113 -168z" />
    <glyph glyph-name="uni021B" unicode="&#x21b;" horiz-adv-x="386" 
d="M142.5 25q-39.5 39 -39.5 112v265h-89v92h89v88l106 49v-137h137v-92h-137v-263q0 -31 17 -46t42 -15q18 0 35.5 6t39.5 23h12l-8 -96q-29 -15 -50 -20t-53 -5q-62 0 -101.5 39zM175 -297q48 32 53 88q-27 0 -46.5 19t-19.5 47q0 29 19 48.5t47 19.5q29 0 48.5 -21.5
t19.5 -54.5q0 -108 -113 -168z" />
    <glyph glyph-name="uni0237" unicode="&#x237;" horiz-adv-x="240" 
d="M-36 -223l-10 91h15q14 -9 24.5 -13t25.5 -4q50 0 50 58v585h106v-571q0 -81 -39 -122t-105 -41q-39 0 -67 17z" />
    <glyph glyph-name="circumflex" unicode="&#x2c6;" horiz-adv-x="377" 
d="M126 700h125l96 -137h-81l-78 75l-77 -75h-81z" />
    <glyph glyph-name="caron" unicode="&#x2c7;" horiz-adv-x="377" 
d="M30 700h81l77 -74l78 74h81l-96 -137h-125z" />
    <glyph glyph-name="uni02C9" unicode="&#x2c9;" horiz-adv-x="240" 
d="M0 659h240v-79h-240v79z" />
    <glyph glyph-name="breve" unicode="&#x2d8;" horiz-adv-x="303" 
d="M63.5 597q-33.5 31 -33.5 83h74q2 -21 14 -34.5t34 -13.5t33.5 13.5t13.5 34.5h74q0 -52 -33.5 -83t-87.5 -31q-55 0 -88.5 31z" />
    <glyph glyph-name="dotaccent" unicode="&#x2d9;" horiz-adv-x="199" 
d="M50.5 595.5q-20.5 20.5 -20.5 48.5q0 29 20 49.5t49 20.5t49.5 -20.5t20.5 -49.5t-20.5 -49t-49.5 -20q-28 0 -48.5 20.5z" />
    <glyph glyph-name="ring" unicode="&#x2da;" horiz-adv-x="266" 
d="M60 573.5q-30 29.5 -30 71.5t30 71.5t73 29.5t73 -29.5t30 -71.5t-30 -71.5t-73 -29.5t-73 29.5zM175 604q16 17 16 41q0 25 -16 41.5t-42 16.5t-42 -16.5t-16 -41.5q0 -24 16 -41t42 -17t42 17z" />
    <glyph glyph-name="ogonek" unicode="&#x2db;" horiz-adv-x="286" 
d="M65.5 -208.5q-35.5 31.5 -35.5 82.5q0 45 30.5 83.5t81.5 60.5l36 -18q-67 -60 -67 -117q0 -28 18.5 -46t47.5 -18q23 0 39 5t31 17l9 -4l-9 -61q-40 -16 -87 -16q-59 0 -94.5 31.5z" />
    <glyph glyph-name="tilde" unicode="&#x2dc;" horiz-adv-x="414" 
d="M230.5 569q-19.5 8 -43.5 23q-21 13 -33.5 18.5t-28.5 5.5q-23 0 -44 -12t-43 -35h-8l8 82q40 44 100 44q26 0 45.5 -8t42.5 -23q21 -12 34 -18t30 -6q45 0 87 47h7l-7 -82q-40 -44 -100 -44q-27 0 -46.5 8z" />
    <glyph glyph-name="hungarumlaut" unicode="&#x2dd;" horiz-adv-x="481" 
d="M122 700h140l-142 -137h-90zM311 700h140l-142 -137h-90z" />
    <glyph glyph-name="gravecomb" unicode="&#x300;" horiz-adv-x="0" 
d="M-233 700h142l91 -137h-90z" />
    <glyph glyph-name="acutecomb" unicode="&#x301;" horiz-adv-x="0" 
d="M-141 700h141l-143 -137h-90z" />
    <glyph glyph-name="uni0302" unicode="&#x302;" horiz-adv-x="0" 
d="M-221 700h125l96 -137h-81l-78 75l-77 -75h-81z" />
    <glyph glyph-name="tildecomb" unicode="&#x303;" horiz-adv-x="0" 
d="M-153.5 569q-19.5 8 -43.5 23q-21 13 -33.5 18.5t-28.5 5.5q-23 0 -44 -12t-43 -35h-8l8 82q40 44 100 44q26 0 45.5 -8t42.5 -23q21 -12 34 -18t30 -6q45 0 87 47h7l-7 -82q-40 -44 -100 -44q-27 0 -46.5 8z" />
    <glyph glyph-name="uni0304" unicode="&#x304;" horiz-adv-x="0" 
d="M-240 659h240v-79h-240v79z" />
    <glyph glyph-name="uni0306" unicode="&#x306;" horiz-adv-x="0" 
d="M-209.5 597q-33.5 31 -33.5 83h74q2 -21 14 -34.5t34 -13.5t33.5 13.5t13.5 34.5h74q0 -52 -33.5 -83t-87.5 -31q-55 0 -88.5 31z" />
    <glyph glyph-name="uni0307" unicode="&#x307;" horiz-adv-x="0" 
d="M-118 596q-20 20 -20 49t20 49t49 20q28 0 48.5 -20t20.5 -49t-20 -49t-49 -20t-49 20z" />
    <glyph glyph-name="uni0308" unicode="&#x308;" horiz-adv-x="0" 
d="M-294 583.5q-18 18.5 -18 43.5q0 26 18.5 45t43.5 19q26 0 45 -19t19 -45q0 -25 -19 -43.5t-45 -18.5t-44 18.5zM-108 583.5q-18 18.5 -18 43.5q0 26 18.5 45t43.5 19q26 0 45.5 -19t19.5 -45q0 -25 -19.5 -43.5t-45.5 -18.5t-44 18.5z" />
    <glyph glyph-name="uni030A" unicode="&#x30a;" horiz-adv-x="0" 
d="M-176 573.5q-30 29.5 -30 71.5t30 71.5t73 29.5t73 -29.5t30 -71.5t-30 -71.5t-73 -29.5t-73 29.5zM-61 604q16 17 16 41q0 25 -16 41.5t-42 16.5t-42 -16.5t-16 -41.5q0 -24 16 -41t42 -17t42 17z" />
    <glyph glyph-name="uni030B" unicode="&#x30b;" horiz-adv-x="0" 
d="M-329 700h140l-142 -137h-90zM-140 700h140l-142 -137h-90z" />
    <glyph glyph-name="uni030C" unicode="&#x30c;" horiz-adv-x="0" 
d="M-317 700h81l77 -74l78 74h81l-96 -137h-125z" />
    <glyph glyph-name="uni0327" unicode="&#x327;" horiz-adv-x="0" 
d="M-216 -226l-10 61l10 4q40 -22 73 -22q24 0 38.5 11t14.5 32q0 22 -14 32.5t-37 10.5q-12 0 -30 -3.5t-27 -7.5l-7 8l64 148l63 -22l-61 -86q23 9 54 9q38 0 62 -24.5t24 -63.5q0 -46 -36 -73.5t-94 -27.5q-52 0 -87 14z" />
    <glyph glyph-name="uni0328" unicode="&#x328;" horiz-adv-x="0" 
d="M-190.5 -208.5q-35.5 31.5 -35.5 82.5q0 45 30.5 83.5t81.5 60.5l36 -18q-67 -60 -67 -117q0 -28 18.5 -46t47.5 -18q23 0 39 5t31 17l9 -4l-9 -61q-40 -16 -87 -16q-59 0 -94.5 31.5z" />
    <glyph glyph-name="uni037E" unicode="&#x37e;" horiz-adv-x="222" 
d="M63.5 363.5q-19.5 19.5 -19.5 46.5q0 28 19.5 48t46.5 20q29 0 48.5 -19.5t19.5 -48.5q0 -27 -20 -46.5t-48 -19.5q-27 0 -46.5 19.5zM57 -103q48 32 53 88q-27 0 -46.5 19t-19.5 47q0 29 19 49t47 20t48 -20t20 -49q0 -63 -30.5 -105t-82.5 -71z" />
    <glyph glyph-name="tonos" unicode="&#x384;" horiz-adv-x="238" 
d="M85 700h123l-94 -137h-84z" />
    <glyph glyph-name="dieresistonos" unicode="&#x385;" horiz-adv-x="431" 
d="M218 794h123l-94 -137h-84zM48.5 567.5q-18.5 18.5 -18.5 43.5q0 26 18.5 45t43.5 19q26 0 45 -19t19 -45q0 -25 -19 -43.5t-45 -18.5q-25 0 -43.5 18.5zM293.5 567.5q-18.5 18.5 -18.5 43.5q0 26 18.5 45t43.5 19q26 0 45 -19t19 -45q0 -25 -19 -43.5t-45 -18.5
q-25 0 -43.5 18.5z" />
    <glyph glyph-name="Alphatonos" unicode="&#x386;" horiz-adv-x="685" 
d="M326 700h34l307 -700h-114l-56 131h-308l-56 -131h-114zM456 229l-113 263l-112 -263h225zM96 700h123l-94 -137h-84z" />
    <glyph glyph-name="anoteleia" unicode="&#x387;" horiz-adv-x="222" 
d="M63.5 305.5q-19.5 19.5 -19.5 46.5q0 28 19.5 48t46.5 20q29 0 48.5 -19.5t19.5 -48.5q0 -27 -20 -46.5t-48 -19.5q-27 0 -46.5 19.5z" />
    <glyph glyph-name="Epsilontonos" unicode="&#x388;" horiz-adv-x="680" 
d="M213 700h423v-98h-307v-193h296v-98h-296v-213h311v-98h-427v700zM55 700h123l-94 -137h-84z" />
    <glyph glyph-name="Etatonos" unicode="&#x389;" horiz-adv-x="815" 
d="M213 700h116v-282h304v282h116v-700h-116v320h-304v-320h-116v700zM55 700h123l-94 -137h-84z" />
    <glyph glyph-name="Iotatonos" unicode="&#x38a;" horiz-adv-x="394" 
d="M212 700h116v-700h-116v700zM55 700h123l-94 -137h-84z" />
    <glyph glyph-name="Omicrontonos" unicode="&#x38c;" horiz-adv-x="891" 
d="M297.5 33.5q-84.5 47.5 -133.5 130.5t-49 186t49 186t133.5 130.5t186.5 47.5t187 -47.5t134 -130.5t49 -186t-49 -186t-134 -130.5t-187 -47.5t-186.5 47.5zM613.5 119q58.5 32 92 91.5t33.5 139.5t-33.5 140t-92 92t-129.5 32t-129 -32t-91.5 -92t-33.5 -140
t33.5 -139.5t91.5 -91.5t129 -32t129.5 32zM55 700h123l-94 -137h-84z" />
    <glyph glyph-name="Upsilontonos" unicode="&#x38e;" horiz-adv-x="792" 
d="M434 300l-228 400h127l159 -293l160 293h126l-228 -400v-300h-116v300zM55 700h123l-94 -137h-84z" />
    <glyph glyph-name="Omegatonos" unicode="&#x38f;" horiz-adv-x="853" 
d="M126 98h132q-63 48 -103.5 126.5t-40.5 160.5q0 93 45.5 168.5t125.5 118t180 42.5q101 0 181 -42.5t125 -118t45 -168.5q0 -82 -40 -161t-104 -126h133v-98h-288v79q79 47 131 122.5t52 174.5q0 72 -30 126t-83.5 83.5t-121.5 29.5t-121.5 -29.5t-83.5 -83.5t-30 -126
q0 -99 52.5 -174.5t130.5 -122.5v-79h-287v98zM55 700h123l-94 -137h-84z" />
    <glyph glyph-name="iotadieresistonos" unicode="&#x390;" horiz-adv-x="228" 
d="M61 494h106v-494h-106v494zM120 794h123l-94 -137h-84zM-49.5 567.5q-18.5 18.5 -18.5 43.5q0 26 18.5 45t43.5 19q26 0 45 -19t19 -45q0 -25 -19 -43.5t-45 -18.5q-25 0 -43.5 18.5zM195.5 567.5q-18.5 18.5 -18.5 43.5q0 26 18.5 45t43.5 19q26 0 45 -19t19 -45
q0 -25 -19 -43.5t-45 -18.5q-25 0 -43.5 18.5z" />
    <glyph glyph-name="Alpha" unicode="&#x391;" horiz-adv-x="686" 
d="M326 700h34l307 -700h-114l-56 131h-308l-56 -131h-114zM456 229l-113 263l-112 -263h225z" />
    <glyph glyph-name="Beta" unicode="&#x392;" horiz-adv-x="600" 
d="M66 700h237q109 0 170 -48.5t61 -127.5q0 -55 -28 -94.5t-76 -61.5q63 -18 101 -62t38 -108t-32.5 -108.5t-85.5 -67t-116 -22.5h-269v700zM303 409q60 0 88 26t28 70t-28 70t-88 26h-121v-192h121zM327 99q62 0 94 28.5t32 77.5t-32 77t-94 28h-145v-211h145z" />
    <glyph glyph-name="Gamma" unicode="&#x393;" horiz-adv-x="536" 
d="M66 700h419v-98h-303v-602h-116v700z" />
    <glyph glyph-name="uni0394" unicode="&#x394;" horiz-adv-x="686" 
d="M326 700h34l307 -700h-648zM512 97l-169 397l-169 -397h338z" />
    <glyph glyph-name="Epsilon" unicode="&#x395;" horiz-adv-x="534" 
d="M66 700h423v-98h-307v-193h296v-98h-296v-213h311v-98h-427v700z" />
    <glyph glyph-name="Zeta" unicode="&#x396;" horiz-adv-x="601" 
d="M25 15l355 587h-325v98h498v-15l-356 -587h370v-98h-542v15z" />
    <glyph glyph-name="Eta" unicode="&#x397;" horiz-adv-x="668" 
d="M66 700h116v-282h304v282h116v-700h-116v320h-304v-320h-116v700z" />
    <glyph glyph-name="Theta" unicode="&#x398;" horiz-adv-x="813" 
d="M219.5 33.5q-84.5 47.5 -133.5 130.5t-49 186t49 186t133.5 130.5t186.5 47.5t187 -47.5t134 -130.5t49 -186t-49 -186t-134 -130.5t-187 -47.5t-186.5 47.5zM535.5 119q58.5 32 92 91.5t33.5 139.5t-33.5 140t-92 92t-129.5 32t-129 -32t-91.5 -92t-33.5 -140
t33.5 -139.5t91.5 -91.5t129 -32t129.5 32zM281 400h251v-100h-251v100z" />
    <glyph glyph-name="Iota" unicode="&#x399;" horiz-adv-x="248" 
d="M66 700h116v-700h-116v700z" />
    <glyph glyph-name="Kappa" unicode="&#x39a;" horiz-adv-x="602" 
d="M66 700h116v-329l255 329h130l-269 -341l293 -359h-136l-273 332v-332h-116v700z" />
    <glyph glyph-name="Lambda" unicode="&#x39b;" horiz-adv-x="686" 
d="M326 700h34l307 -700h-113l-211 494l-210 -494h-114z" />
    <glyph glyph-name="Mu" unicode="&#x39c;" horiz-adv-x="888" 
d="M207 700h38l199 -471l199 471h38l184 -700h-114l-111 420l-183 -420h-26l-182 420l-111 -420h-115z" />
    <glyph glyph-name="Nu" unicode="&#x39d;" horiz-adv-x="693" 
d="M66 700h47l398 -457v457h116v-700h-47l-398 459v-459h-116v700z" />
    <glyph glyph-name="Xi" unicode="&#x39e;" horiz-adv-x="544" 
d="M50 700h444v-98h-444v98zM76 407h393v-95h-393v95zM48 99h448v-99h-448v99z" />
    <glyph glyph-name="Omicron" unicode="&#x39f;" horiz-adv-x="813" 
d="M219.5 33.5q-84.5 47.5 -133.5 130.5t-49 186t49 186t133.5 130.5t186.5 47.5t187 -47.5t134 -130.5t49 -186t-49 -186t-134 -130.5t-187 -47.5t-186.5 47.5zM535.5 119q58.5 32 92 91.5t33.5 139.5t-33.5 140t-92 92t-129.5 32t-129 -32t-91.5 -92t-33.5 -140
t33.5 -139.5t91.5 -91.5t129 -32t129.5 32z" />
    <glyph glyph-name="Pi" unicode="&#x3a0;" horiz-adv-x="668" 
d="M66 700h536v-700h-116v602h-304v-602h-116v700z" />
    <glyph glyph-name="Rho" unicode="&#x3a1;" horiz-adv-x="540" 
d="M66 700h191q78 0 134.5 -28t86.5 -76.5t30 -110.5t-30 -110.5t-86.5 -76.5t-134.5 -28h-75v-270h-116v700zM258 369q64 0 99 30t35 86t-34.5 86t-99.5 30h-76v-232h76z" />
    <glyph glyph-name="Sigma" unicode="&#x3a3;" horiz-adv-x="596" 
d="M36 35l223 335l-207 295v35h483v-98h-304l158 -232l-182 -272h348v-98h-519v35z" />
    <glyph glyph-name="Tau" unicode="&#x3a4;" horiz-adv-x="542" 
d="M213 602h-176v98h468v-98h-176v-602h-116v602z" />
    <glyph glyph-name="Upsilon" unicode="&#x3a5;" horiz-adv-x="600" 
d="M242 300l-228 400h127l159 -293l160 293h126l-228 -400v-300h-116v300z" />
    <glyph glyph-name="Phi" unicode="&#x3a6;" horiz-adv-x="803" 
d="M726 197.5q-40 -63.5 -109.5 -98t-156.5 -38.5v-61h-116v60q-87 4 -156.5 38.5t-110 98.5t-40.5 151q0 82 41 147t111 103t155 42v60h116v-61q86 -4 155.5 -42t110 -103t40.5 -146q0 -87 -40 -150.5zM206.5 213q54.5 -47 137.5 -52v378q-51 -3 -95 -27t-70.5 -66
t-26.5 -97q0 -89 54.5 -136zM597.5 214q54.5 47 54.5 135q0 55 -26 96.5t-70 65.5t-96 28v-377q83 5 137.5 52z" />
    <glyph glyph-name="Chi" unicode="&#x3a7;" horiz-adv-x="616" 
d="M248 379l-195 321h123l132 -225l132 225h123l-195 -321l228 -379h-123l-165 280l-165 -280h-123z" />
    <glyph glyph-name="Psi" unicode="&#x3a8;" horiz-adv-x="748" 
d="M701 700v-211q0 -134 -73 -210.5t-195 -85.5v-193h-116v193q-123 9 -196.5 85t-73.5 211v211h116v-212q0 -86 44.5 -135.5t109.5 -59.5v407h116v-406q64 10 108 59t44 135v212h116z" />
    <glyph glyph-name="uni03A9" unicode="&#x3a9;" horiz-adv-x="776" 
d="M49 98h132q-63 48 -103.5 126.5t-40.5 160.5q0 93 45.5 168.5t125.5 118t180 42.5q101 0 181 -42.5t125 -118t45 -168.5q0 -82 -40 -161t-104 -126h133v-98h-288v79q79 47 131 122.5t52 174.5q0 72 -30 126t-83.5 83.5t-121.5 29.5t-121.5 -29.5t-83.5 -83.5t-30 -126
q0 -99 52.5 -174.5t130.5 -122.5v-79h-287v98z" />
    <glyph glyph-name="Iotadieresis" unicode="&#x3aa;" horiz-adv-x="248" 
d="M66 700h116v-700h-116v700zM-14 789.5q-18 18.5 -18 43.5q0 26 18.5 45t43.5 19q26 0 45 -19t19 -45q0 -25 -19 -43.5t-45 -18.5t-44 18.5zM172 789.5q-18 18.5 -18 43.5q0 26 18.5 45t43.5 19q26 0 45.5 -19t19.5 -45q0 -25 -19.5 -43.5t-45.5 -18.5t-44 18.5z" />
    <glyph glyph-name="Upsilondieresis" unicode="&#x3ab;" horiz-adv-x="600" 
d="M242 300l-228 400h127l159 -293l160 293h126l-228 -400v-300h-116v300zM162 789.5q-18 18.5 -18 43.5q0 26 18.5 45t43.5 19q26 0 45 -19t19 -45q0 -25 -19 -43.5t-45 -18.5t-44 18.5zM348 789.5q-18 18.5 -18 43.5q0 26 18.5 45t43.5 19q26 0 45.5 -19t19.5 -45
q0 -25 -19.5 -43.5t-45.5 -18.5t-44 18.5z" />
    <glyph glyph-name="alphatonos" unicode="&#x3ac;" horiz-adv-x="632" 
d="M161 19.5q-57 33.5 -91.5 93.5t-34.5 134q0 71 33.5 131t91.5 95t128 35q52 0 94 -19t67 -48v53h106v-372q0 -30 24 -30q15 0 26 9h10v-86q-13 -12 -33.5 -20.5t-45.5 -8.5q-45 0 -64 22t-23 46q-66 -68 -165 -68q-66 0 -123 33.5zM380.5 105q35.5 22 54.5 59.5t19 82.5
t-19 82.5t-54.5 59.5t-82.5 22t-83 -22t-55 -59.5t-19 -82.5t19.5 -82.5t55 -59.5t82.5 -22t82.5 22zM306 700h123l-94 -137h-84z" />
    <glyph glyph-name="epsilontonos" unicode="&#x3ad;" horiz-adv-x="423" 
d="M129 5.5q-43 19.5 -67 53t-24 75.5q0 39 21 69.5t61 47.5q-38 17 -57 47t-19 65q0 42 24.5 75t67.5 51.5t96 18.5q37 0 74.5 -9t62.5 -24l4 -101h-8q-63 44 -126 44q-41 0 -66.5 -16.5t-25.5 -43.5q0 -26 23.5 -44t69.5 -18h48v-87h-47q-48 0 -72 -19t-24 -48
q0 -31 26.5 -47.5t71.5 -16.5q35 0 64.5 10.5t58.5 31.5h9l-4 -98q-27 -15 -64 -25.5t-79 -10.5q-56 0 -99 19.5zM233 700h123l-94 -137h-84z" />
    <glyph glyph-name="etatonos" unicode="&#x3ae;" horiz-adv-x="564" 
d="M403 304q0 51 -29 79t-78 28q-55 0 -92 -41t-37 -105v-265h-106v494h106v-67q27 37 72 59t95 22q79 0 127 -45t48 -127v-562h-106v530zM312 700h123l-94 -137h-84z" />
    <glyph glyph-name="iotatonos" unicode="&#x3af;" horiz-adv-x="228" 
d="M61 494h106v-494h-106v494zM126 700h123l-94 -137h-84z" />
    <glyph glyph-name="upsilondieresistonos" unicode="&#x3b0;" horiz-adv-x="537" 
d="M114.5 40q-59.5 54 -59.5 163v291h106v-296q0 -58 29 -88t79 -30t78.5 30t28.5 88v296h106v-291q0 -109 -59 -163t-154 -54t-154.5 54zM275 794h123l-94 -137h-84zM105.5 567.5q-18.5 18.5 -18.5 43.5q0 26 18.5 45t43.5 19q26 0 45 -19t19 -45q0 -25 -19 -43.5
t-45 -18.5q-25 0 -43.5 18.5zM350.5 567.5q-18.5 18.5 -18.5 43.5q0 26 18.5 45t43.5 19q26 0 45 -19t19 -45q0 -25 -19 -43.5t-45 -18.5q-25 0 -43.5 18.5z" />
    <glyph glyph-name="alpha" unicode="&#x3b1;" horiz-adv-x="632" 
d="M161 19.5q-57 33.5 -91.5 93.5t-34.5 134q0 71 33.5 131t91.5 95t128 35q52 0 94 -19t67 -48v53h106v-372q0 -30 24 -30q15 0 26 9h10v-86q-13 -12 -33.5 -20.5t-45.5 -8.5q-45 0 -64 22t-23 46q-66 -68 -165 -68q-66 0 -123 33.5zM380.5 105q35.5 22 54.5 59.5t19 82.5
t-19 82.5t-54.5 59.5t-82.5 22t-83 -22t-55 -59.5t-19 -82.5t19.5 -82.5t55 -59.5t82.5 -22t82.5 22z" />
    <glyph glyph-name="beta" unicode="&#x3b2;" horiz-adv-x="574" 
d="M61 472q0 65 25.5 120t78.5 88.5t131 33.5q65 0 115 -25t77.5 -69t27.5 -99q0 -52 -28 -92.5t-78 -60.5q62 -15 97.5 -60.5t35.5 -113.5q0 -63 -29.5 -110t-80 -72.5t-110.5 -25.5q-51 0 -91 18.5t-65 52.5v-283h-106v698zM403.5 110q33.5 34 33.5 85q0 53 -36.5 86
t-106.5 33h-44v89h38q56 0 89 31.5t33 79.5q0 47 -32.5 75t-83.5 28q-56 0 -91.5 -36.5t-35.5 -106.5v-237q0 -82 43 -121.5t103 -39.5q57 0 90.5 34z" />
    <glyph glyph-name="gamma" unicode="&#x3b3;" horiz-adv-x="523" 
d="M208 44l-192 450h114l132 -330l132 330h113l-192 -450v-270h-107v270z" />
    <glyph glyph-name="delta" unicode="&#x3b4;" horiz-adv-x="545" 
d="M453.5 368q56.5 -55 56.5 -148q0 -67 -31.5 -120.5t-86 -83.5t-119.5 -30t-119.5 30t-86.5 82.5t-32 118.5q0 72 38 128t102 83q-41 22 -63 55t-22 75q0 46 26 81.5t71 55t101 19.5q91 0 153 -47l5 -108h-13q-62 65 -146 65q-48 0 -72 -19t-24 -49q0 -33 29 -55.5
t88 -44.5q89 -33 145.5 -88zM368 118q39 39 39 101t-39 101t-96 39q-56 0 -95 -38.5t-39 -100.5q0 -63 39 -102t95 -39q57 0 96 39z" />
    <glyph glyph-name="epsilon" unicode="&#x3b5;" horiz-adv-x="423" 
d="M129 5.5q-43 19.5 -67 53t-24 75.5q0 39 21 69.5t61 47.5q-38 17 -57 47t-19 65q0 42 24.5 75t67.5 51.5t96 18.5q37 0 74.5 -9t62.5 -24l4 -101h-8q-63 44 -126 44q-41 0 -66.5 -16.5t-25.5 -43.5q0 -26 23.5 -44t69.5 -18h48v-87h-47q-48 0 -72 -19t-24 -48
q0 -31 26.5 -47.5t71.5 -16.5q35 0 64.5 10.5t58.5 31.5h9l-4 -98q-27 -15 -64 -25.5t-79 -10.5q-56 0 -99 19.5z" />
    <glyph glyph-name="zeta" unicode="&#x3b6;" horiz-adv-x="486" 
d="M223.5 -214q-30.5 7 -46.5 16l-16 99h10q50 -27 96 -27q34 0 50 13.5t16 36.5t-14 35t-27.5 16t-45.5 10q-86 15 -140 68t-54 148q0 82 36 149.5t93 133.5l110 128h-238v88h397v-35l-205 -247q-39 -47 -62 -95t-23 -103q0 -68 35.5 -100.5t95.5 -48.5q42 -10 73.5 -23.5
t55.5 -43.5t24 -80q0 -67 -44 -106t-116 -39q-30 0 -60.5 7z" />
    <glyph glyph-name="eta" unicode="&#x3b7;" horiz-adv-x="564" 
d="M403 304q0 51 -29 79t-78 28q-55 0 -92 -41t-37 -105v-265h-106v494h106v-67q27 37 72 59t95 22q79 0 127 -45t48 -127v-562h-106v530z" />
    <glyph glyph-name="theta" unicode="&#x3b8;" horiz-adv-x="653" 
d="M174.5 33q-65.5 47 -101.5 130t-36 187t36 187t101.5 130t152.5 47q86 0 152 -47t101.5 -130t35.5 -187t-35.5 -187t-101.5 -130t-152 -47q-87 0 -152.5 47zM506 394q-9 104 -56 163t-123 59t-123.5 -59t-55.5 -163h358zM449.5 143q47.5 59 56.5 163h-358
q8 -104 55.5 -163t123.5 -59q75 0 122.5 59z" />
    <glyph glyph-name="iota" unicode="&#x3b9;" horiz-adv-x="228" 
d="M61 494h106v-494h-106v494z" />
    <glyph glyph-name="kappa" unicode="&#x3ba;" horiz-adv-x="505" 
d="M61 494h106v-215l123 140q35 41 62.5 58t66.5 17h45v-91h-25q-19 0 -34.5 -8.5t-31.5 -26.5l-95 -105l214 -263h-132l-193 241v-241h-106v494z" />
    <glyph glyph-name="lambda" unicode="&#x3bb;" horiz-adv-x="520" 
d="M159 720l349 -720h-114l-137 283l-132 -283h-113l189 401l-155 319h113z" />
    <glyph glyph-name="uni03BC" unicode="&#x3bc;" horiz-adv-x="570" 
d="M61 494h106v-302q0 -51 29.5 -79.5t78.5 -28.5q55 0 91.5 39.5t36.5 104.5v266h106v-494h-106v67q-28 -37 -71.5 -59t-93.5 -22q-42 0 -71 16v-228h-106v720z" />
    <glyph glyph-name="nu" unicode="&#x3bd;" horiz-adv-x="536" 
d="M16 494h113l139 -297l139 297h113l-241 -494h-22z" />
    <glyph glyph-name="xi" unicode="&#x3be;" horiz-adv-x="526" 
d="M189 -193l15 83h9q54 -29 94 -29q32 0 51 13.5t19 43.5q0 25 -14.5 39t-32.5 19.5t-57 13.5q-94 20 -160 66.5t-66 146.5q0 69 35 118t91 71q-48 21 -72 58.5t-24 85.5q0 50 25 90.5t75.5 64t122.5 23.5q56 0 98.5 -13.5t68.5 -34.5l5 -113h-14q-31 33 -71.5 48.5
t-81.5 15.5q-60 0 -91 -24.5t-31 -61.5q0 -44 39 -70t106 -26h54v-89h-57q-81 0 -126.5 -36.5t-45.5 -96.5q0 -58 42 -86.5t120 -46.5q50 -11 83.5 -25t57 -45t23.5 -84q0 -75 -47 -114.5t-121 -39.5q-66 0 -122 35z" />
    <glyph glyph-name="omicron" unicode="&#x3bf;" horiz-adv-x="600" 
d="M167 20q-61 34 -96.5 94t-35.5 133q0 74 35.5 133.5t96.5 93.5t133 34q73 0 133.5 -34t96 -93.5t35.5 -133.5t-35.5 -133.5t-96 -93.5t-133.5 -34q-72 0 -133 34zM380.5 103.5q36.5 20.5 57.5 58t21 85.5t-21 85.5t-57.5 58t-80.5 20.5t-80.5 -20.5t-57.5 -58t-21 -85.5
t21 -85.5t57.5 -58t80.5 -20.5t80.5 20.5z" />
    <glyph glyph-name="pi" unicode="&#x3c0;" horiz-adv-x="698" 
d="M477 24.5q-38 38.5 -38 110.5v271h-205v-406h-106v406h-97v88h611v-88h-97v-267q0 -31 15.5 -46t37.5 -15q33 0 58 22h11l-9 -88q-37 -26 -88 -26q-55 0 -93 38.5z" />
    <glyph glyph-name="rho" unicode="&#x3c1;" horiz-adv-x="621" 
d="M61 235q0 85 35 147t95.5 94t137.5 32q72 0 131 -32.5t92.5 -92t33.5 -136.5q0 -76 -34 -135.5t-91 -92.5t-124 -33q-53 0 -97.5 19.5t-72.5 51.5v-283h-106v461zM401 106q36 22 56.5 59.5t20.5 81.5t-20.5 81.5t-56.5 59.5t-81 22t-81 -22t-56.5 -59.5t-20.5 -81.5
t20.5 -81.5t56.5 -59.5t81 -22t81 22z" />
    <glyph glyph-name="uni03C2" unicode="&#x3c2;" horiz-adv-x="505" 
d="M232.5 -182.5q-27.5 7.5 -59.5 22.5l-12 97h17q51 -37 108 -37q30 0 47 9t17 32t-15.5 31.5t-52.5 14.5q-113 20 -180 83t-67 175q0 82 36 141.5t96.5 90.5t131.5 31q86 0 142 -41l4 -107h-12q-30 25 -61.5 37.5t-68.5 12.5q-74 0 -118 -45t-44 -118q0 -79 47.5 -114.5
t122.5 -52.5q41 -9 71.5 -21t52.5 -39t22 -72q0 -63 -43.5 -100.5t-118.5 -37.5q-35 0 -62.5 7.5z" />
    <glyph glyph-name="sigma" unicode="&#x3c3;" horiz-adv-x="622" 
d="M584 411h-75q56 -70 56 -164q0 -74 -35.5 -133.5t-96 -93.5t-133.5 -34q-72 0 -133 34t-96.5 94t-35.5 133q0 74 35.5 133.5t96.5 93.5t133 34q46 0 88 -14h196v-83zM380.5 103.5q36.5 20.5 57.5 58t21 85.5t-21 85.5t-57.5 58t-80.5 20.5t-80.5 -20.5t-57.5 -58
t-21 -85.5t21 -85.5t57.5 -58t80.5 -20.5t80.5 20.5z" />
    <glyph glyph-name="tau" unicode="&#x3c4;" horiz-adv-x="427" 
d="M183 24.5q-40 38.5 -40 110.5v271h-129v88h363v-88h-128v-267q0 -31 17.5 -46t42.5 -15q37 0 76 29h11l-9 -96q-28 -15 -49.5 -20t-53.5 -5q-61 0 -101 38.5z" />
    <glyph glyph-name="upsilon" unicode="&#x3c5;" horiz-adv-x="537" 
d="M114.5 40q-59.5 54 -59.5 163v291h106v-296q0 -58 29 -88t79 -30t78.5 30t28.5 88v296h106v-291q0 -109 -59 -163t-154 -54t-154.5 54z" />
    <glyph glyph-name="phi" unicode="&#x3c6;" horiz-adv-x="732" 
d="M313 -14q-79 0 -142.5 33.5t-99.5 93t-36 134.5q0 76 36 135.5t99.5 92.5t142.5 33v95h106v-95q79 0 142.5 -33t99.5 -92.5t36 -135.5q0 -75 -36 -134.5t-99.5 -93t-142.5 -33.5v-95h-106v95zM313 410q-76 0 -123 -45t-47 -118t47 -118t123 -45v326zM542 129
q47 45 47 118t-47 118t-123 45v-326q76 0 123 45z" />
    <glyph glyph-name="chi" unicode="&#x3c7;" horiz-adv-x="588" 
d="M438.5 -221q-25.5 19 -44.5 57l-104 211l-143 -273h-115l194 368l-121 239q-10 19 -22 27.5t-30 8.5q-17 0 -32 -5v84q35 12 66 12q38 0 63.5 -19t43.5 -57l96 -194l134 256h114l-185 -352l130 -255q10 -19 22.5 -27.5t30.5 -8.5q16 0 31 5v-84q-35 -12 -66 -12
q-37 0 -62.5 19z" />
    <glyph glyph-name="psi" unicode="&#x3c8;" horiz-adv-x="723" 
d="M308 -13q-64 0 -121.5 27t-94.5 88t-37 156v236h106v-228q0 -64 22.5 -105t56 -60t68.5 -19v498h106v-498q35 0 69 19t56.5 60t22.5 105v228h106v-236q0 -95 -37 -156t-94.5 -88t-122.5 -27v-134h-106v134z" />
    <glyph glyph-name="omega" unicode="&#x3c9;" horiz-adv-x="797" 
d="M131.5 13.5q-45.5 27.5 -71 77t-25.5 112.5q0 82 24 147.5t77 143.5h112q-56 -82 -80 -145.5t-24 -140.5q0 -58 28.5 -93.5t75.5 -35.5q48 0 73.5 36.5t25.5 94.5v157h103v-157q0 -58 25.5 -94.5t73.5 -36.5q47 0 75.5 35.5t28.5 93.5q0 77 -24 140.5t-80 145.5h112
q53 -78 77 -143.5t24 -147.5q0 -63 -25.5 -112.5t-70.5 -77t-103 -27.5q-113 0 -164 94q-53 -94 -164 -94q-58 0 -103.5 27.5z" />
    <glyph glyph-name="iotadieresis" unicode="&#x3ca;" horiz-adv-x="228" 
d="M61 494h106v-494h-106v494zM-24 583.5q-18 18.5 -18 43.5q0 26 18.5 45t43.5 19q26 0 45 -19t19 -45q0 -25 -19 -43.5t-45 -18.5t-44 18.5zM162 583.5q-18 18.5 -18 43.5q0 26 18.5 45t43.5 19q26 0 45.5 -19t19.5 -45q0 -25 -19.5 -43.5t-45.5 -18.5t-44 18.5z" />
    <glyph glyph-name="upsilondieresis" unicode="&#x3cb;" horiz-adv-x="537" 
d="M114.5 40q-59.5 54 -59.5 163v291h106v-296q0 -58 29 -88t79 -30t78.5 30t28.5 88v296h106v-291q0 -109 -59 -163t-154 -54t-154.5 54zM130 583.5q-18 18.5 -18 43.5q0 26 18.5 45t43.5 19q26 0 45 -19t19 -45q0 -25 -19 -43.5t-45 -18.5t-44 18.5zM316 583.5
q-18 18.5 -18 43.5q0 26 18.5 45t43.5 19q26 0 45.5 -19t19.5 -45q0 -25 -19.5 -43.5t-45.5 -18.5t-44 18.5z" />
    <glyph glyph-name="omicrontonos" unicode="&#x3cc;" horiz-adv-x="600" 
d="M167 20q-61 34 -96.5 94t-35.5 133q0 74 35.5 133.5t96.5 93.5t133 34q73 0 133.5 -34t96 -93.5t35.5 -133.5t-35.5 -133.5t-96 -93.5t-133.5 -34q-72 0 -133 34zM380.5 103.5q36.5 20.5 57.5 58t21 85.5t-21 85.5t-57.5 58t-80.5 20.5t-80.5 -20.5t-57.5 -58t-21 -85.5
t21 -85.5t57.5 -58t80.5 -20.5t80.5 20.5zM329 700h141l-143 -137h-90z" />
    <glyph glyph-name="upsilontonos" unicode="&#x3cd;" horiz-adv-x="537" 
d="M114.5 40q-59.5 54 -59.5 163v291h106v-296q0 -58 29 -88t79 -30t78.5 30t28.5 88v296h106v-291q0 -109 -59 -163t-154 -54t-154.5 54zM280 700h123l-94 -137h-84z" />
    <glyph glyph-name="omegatonos" unicode="&#x3ce;" horiz-adv-x="797" 
d="M131.5 13.5q-45.5 27.5 -71 77t-25.5 112.5q0 82 24 147.5t77 143.5h112q-56 -82 -80 -145.5t-24 -140.5q0 -58 28.5 -93.5t75.5 -35.5q48 0 73.5 36.5t25.5 94.5v157h103v-157q0 -58 25.5 -94.5t73.5 -36.5q47 0 75.5 35.5t28.5 93.5q0 77 -24 140.5t-80 145.5h112
q53 -78 77 -143.5t24 -147.5q0 -63 -25.5 -112.5t-70.5 -77t-103 -27.5q-113 0 -164 94q-53 -94 -164 -94q-58 0 -103.5 27.5zM410 700h123l-94 -137h-84z" />
    <glyph glyph-name="uni0400" unicode="&#x400;" horiz-adv-x="534" 
d="M66 700h423v-98h-307v-193h296v-98h-296v-213h311v-98h-427v700zM257 769l-143 137h142l91 -137h-90z" />
    <glyph glyph-name="uni0401" unicode="&#x401;" horiz-adv-x="534" 
d="M66 700h423v-98h-307v-193h296v-98h-296v-213h311v-98h-427v700zM149 789.5q-18 18.5 -18 43.5q0 26 18.5 45t43.5 19q26 0 45 -19t19 -45q0 -25 -19 -43.5t-45 -18.5t-44 18.5zM335 789.5q-18 18.5 -18 43.5q0 26 18.5 45t43.5 19q26 0 45.5 -19t19.5 -45
q0 -25 -19.5 -43.5t-45.5 -18.5t-44 18.5z" />
    <glyph glyph-name="uni0402" unicode="&#x402;" horiz-adv-x="738" 
d="M584.5 423q52.5 -25 85.5 -75.5t33 -124.5q0 -72 -30.5 -125.5t-81.5 -82.5t-111 -29q-45 0 -72 14l-3 97h16q20 -12 47 -12q54 0 86.5 39.5t32.5 98.5q0 63 -37.5 94.5t-94.5 31.5q-74 0 -145 -39v-310h-116v602h-157v98h469v-98h-196v-193q80 39 163 39q59 0 111.5 -25
z" />
    <glyph glyph-name="uni0403" unicode="&#x403;" horiz-adv-x="536" 
d="M66 700h419v-98h-303v-602h-116v700zM329 906h141l-143 -137h-90z" />
    <glyph glyph-name="uni0404" unicode="&#x404;" horiz-adv-x="664" 
d="M507 107.5q47 19.5 93 57.5h14l-8 -122q-45 -28 -93.5 -42.5t-110.5 -14.5q-102 0 -185.5 47t-131.5 130t-48 187t48.5 187t132 130t185.5 47q63 0 110.5 -14t92.5 -42l8 -122h-14q-45 37 -92 56.5t-104 19.5q-98 0 -165.5 -58t-81.5 -155h303v-98h-303q14 -97 81.5 -155
t165.5 -58q56 0 103 19.5z" />
    <glyph glyph-name="uni0405" unicode="&#x405;" horiz-adv-x="521" 
d="M137 7q-52 21 -88 53l7 134h10q40 -50 84 -79.5t101 -29.5q52 0 83 28.5t31 76.5t-33 77.5t-104 61.5q-172 77 -172 204q0 55 28 96t75 63t102 22q56 0 98.5 -15t69.5 -39l5 -123h-13q-74 83 -160 83q-46 0 -73.5 -22t-27.5 -61q0 -38 34.5 -66.5t111.5 -62.5
q86 -38 130.5 -87.5t44.5 -122.5q0 -61 -29 -109t-80 -75.5t-117 -27.5t-118 21z" />
    <glyph glyph-name="uni0406" unicode="&#x406;" horiz-adv-x="248" 
d="M66 700h116v-700h-116v700z" />
    <glyph glyph-name="uni0407" unicode="&#x407;" horiz-adv-x="248" 
d="M66 700h116v-700h-116v700zM-14 789.5q-18 18.5 -18 43.5q0 26 18.5 45t43.5 19q26 0 45 -19t19 -45q0 -25 -19 -43.5t-45 -18.5t-44 18.5zM172 789.5q-18 18.5 -18 43.5q0 26 18.5 45t43.5 19q26 0 45.5 -19t19.5 -45q0 -25 -19.5 -43.5t-45.5 -18.5t-44 18.5z" />
    <glyph glyph-name="uni0408" unicode="&#x408;" horiz-adv-x="397" 
d="M106 -11q-20 3 -50 11l-12 103h16q43 -19 77 -19q37 0 57.5 24t20.5 74v518h116v-510q0 -97 -47.5 -150.5t-127.5 -53.5q-30 0 -50 3z" />
    <glyph glyph-name="uni0409" unicode="&#x409;" horiz-adv-x="1028" 
d="M55 0l-11 99h15q22 -14 44 -14q21 0 32.5 16.5t14.5 53.5l45 545h453v-258h88q80 0 139 -28t90 -78t31 -115t-31 -115t-90 -78t-139 -28h-204v602h-245l-38 -464q-6 -73 -36.5 -112.5t-92.5 -39.5q-38 0 -65 14zM736 99q68 0 106 31.5t38 90.5q0 60 -37.5 91t-106.5 31
h-88v-244h88z" />
    <glyph glyph-name="uni040A" unicode="&#x40a;" horiz-adv-x="972" 
d="M66 700h116v-279h304v279h116v-278h79q80 0 138.5 -27.5t89.5 -75.5t31 -108t-31 -108t-89.5 -75.5t-138.5 -27.5h-195v323h-304v-323h-116v700zM680 99q68 0 106 29.5t38 82.5t-38 82.5t-106 29.5h-78v-224h78z" />
    <glyph glyph-name="uni040B" unicode="&#x40b;" horiz-adv-x="748" 
d="M194 602h-157v98h469v-98h-196v-204q34 24 80 37.5t100 13.5q95 0 149 -52t54 -157v-240h-116v218q0 69 -28.5 100.5t-82.5 31.5q-47 0 -87.5 -14t-68.5 -34v-302h-116v602z" />
    <glyph glyph-name="uni040C" unicode="&#x40c;" horiz-adv-x="602" 
d="M66 700h116v-329l255 329h130l-269 -341l293 -359h-136l-273 332v-332h-116v700zM336 906h141l-143 -137h-90z" />
    <glyph glyph-name="uni040D" unicode="&#x40d;" horiz-adv-x="693" 
d="M66 700h116v-498l347 498h98v-700h-116v500l-347 -500h-98v700zM320 769l-143 137h142l91 -137h-90z" />
    <glyph glyph-name="uni040E" unicode="&#x40e;" horiz-adv-x="593" 
d="M73 2l-11 103h16q41 -21 72 -21q30 0 51 21t38 62l6 12l-231 521h119l168 -398l159 398h119l-233 -545q-23 -56 -46 -91t-57.5 -56.5t-84.5 -21.5q-48 0 -85 16zM209.5 803q-33.5 31 -33.5 83h74q2 -21 14 -34.5t34 -13.5t33.5 13.5t13.5 34.5h74q0 -52 -33.5 -83
t-87.5 -31q-55 0 -88.5 31z" />
    <glyph glyph-name="uni040F" unicode="&#x40f;" horiz-adv-x="668" 
d="M276 0h-210v700h116v-601h304v601h116v-700h-210v-130h-116v130z" />
    <glyph glyph-name="uni0410" unicode="&#x410;" horiz-adv-x="686" 
d="M326 700h34l307 -700h-114l-56 131h-308l-56 -131h-114zM456 229l-113 263l-112 -263h225z" />
    <glyph glyph-name="uni0411" unicode="&#x411;" horiz-adv-x="572" 
d="M471.5 372q71.5 -58 71.5 -157t-71.5 -157t-209.5 -58h-196v700h419v-98h-303v-172h80q138 0 209.5 -58zM387.5 129q39.5 30 39.5 86t-39.5 86t-114.5 30h-91v-232h91q75 0 114.5 30z" />
    <glyph glyph-name="uni0412" unicode="&#x412;" horiz-adv-x="600" 
d="M66 700h237q109 0 170 -48.5t61 -127.5q0 -55 -28 -94.5t-76 -61.5q63 -18 101 -62t38 -108t-32.5 -108.5t-85.5 -67t-116 -22.5h-269v700zM303 409q60 0 88 26t28 70t-28 70t-88 26h-121v-192h121zM327 99q62 0 94 28.5t32 77.5t-32 77t-94 28h-145v-211h145z" />
    <glyph glyph-name="uni0413" unicode="&#x413;" horiz-adv-x="536" 
d="M66 700h419v-98h-303v-602h-116v700z" />
    <glyph glyph-name="uni0414" unicode="&#x414;" horiz-adv-x="737" 
d="M37 99h19q28 0 43.5 18t19.5 63l54 520h447v-601h80v-229h-113v130h-437v-130h-113v229zM504 99v503h-237l-42 -416q-4 -32 -8.5 -51.5t-14.5 -35.5h302z" />
    <glyph glyph-name="uni0415" unicode="&#x415;" horiz-adv-x="534" 
d="M66 700h423v-98h-307v-193h296v-98h-296v-213h311v-98h-427v700z" />
    <glyph glyph-name="uni0416" unicode="&#x416;" horiz-adv-x="932" 
d="M295 358l-260 342h129l244 -328v328h116v-328l244 328h130l-260 -342l283 -358h-134l-263 332v-332h-116v332l-263 -332h-134z" />
    <glyph glyph-name="uni0417" unicode="&#x417;" horiz-adv-x="572" 
d="M151.5 -1.5q-44.5 12.5 -84.5 34.5l-14 117h15q38 -32 85 -48t109 -16q69 0 110 31t41 90q0 55 -37.5 82t-104.5 27h-90v95h84q60 0 89 32.5t29 76.5q0 46 -32 70t-86 24q-55 0 -103 -23t-80 -75h-15l6 125q78 73 204 73q66 0 116.5 -24.5t77.5 -66.5t27 -94
q0 -46 -21.5 -87.5t-65.5 -64.5q50 -17 83 -59.5t33 -109.5t-32.5 -117t-93 -77.5t-142.5 -27.5q-63 0 -107.5 12.5z" />
    <glyph glyph-name="uni0418" unicode="&#x418;" horiz-adv-x="693" 
d="M66 700h116v-498l347 498h98v-700h-116v500l-347 -500h-98v700z" />
    <glyph glyph-name="uni0419" unicode="&#x419;" horiz-adv-x="693" 
d="M66 700h116v-498l347 498h98v-700h-116v500l-347 -500h-98v700zM262.5 803q-33.5 31 -33.5 83h74q2 -21 14 -34.5t34 -13.5t33.5 13.5t13.5 34.5h74q0 -52 -33.5 -83t-87.5 -31q-55 0 -88.5 31z" />
    <glyph glyph-name="uni041A" unicode="&#x41a;" horiz-adv-x="602" 
d="M66 700h116v-329l255 329h130l-269 -341l293 -359h-136l-273 332v-332h-116v700z" />
    <glyph glyph-name="uni041B" unicode="&#x41b;" horiz-adv-x="721" 
d="M55 0l-11 99h15q21 -14 47 -14q23 0 35.5 17t16.5 59l44 539h453v-700h-116v602h-245l-39 -465q-13 -151 -131 -151q-41 0 -69 14z" />
    <glyph glyph-name="uni041C" unicode="&#x41c;" horiz-adv-x="888" 
d="M207 700h38l199 -471l199 471h38l184 -700h-114l-111 420l-183 -420h-26l-182 420l-111 -420h-115z" />
    <glyph glyph-name="uni041D" unicode="&#x41d;" horiz-adv-x="668" 
d="M66 700h116v-282h304v282h116v-700h-116v320h-304v-320h-116v700z" />
    <glyph glyph-name="uni041E" unicode="&#x41e;" horiz-adv-x="813" 
d="M219.5 33.5q-84.5 47.5 -133.5 130.5t-49 186t49 186t133.5 130.5t186.5 47.5t187 -47.5t134 -130.5t49 -186t-49 -186t-134 -130.5t-187 -47.5t-186.5 47.5zM535.5 119q58.5 32 92 91.5t33.5 139.5t-33.5 140t-92 92t-129.5 32t-129 -32t-91.5 -92t-33.5 -140
t33.5 -139.5t91.5 -91.5t129 -32t129.5 32z" />
    <glyph glyph-name="uni041F" unicode="&#x41f;" horiz-adv-x="668" 
d="M66 700h536v-700h-116v602h-304v-602h-116v700z" />
    <glyph glyph-name="uni0420" unicode="&#x420;" horiz-adv-x="540" 
d="M66 700h191q78 0 134.5 -28t86.5 -76.5t30 -110.5t-30 -110.5t-86.5 -76.5t-134.5 -28h-75v-270h-116v700zM258 369q64 0 99 30t35 86t-34.5 86t-99.5 30h-76v-232h76z" />
    <glyph glyph-name="uni0421" unicode="&#x421;" horiz-adv-x="664" 
d="M216.5 33q-83.5 47 -131.5 130t-48 187t48.5 187t132 130t185.5 47q63 0 110.5 -14t92.5 -42l8 -122h-14q-45 37 -92 56.5t-104 19.5q-73 0 -130 -32.5t-89 -92t-32 -137.5q0 -77 32 -136.5t89.5 -92.5t129.5 -33q56 0 103 19.5t93 57.5h14l-8 -122q-45 -28 -93.5 -42.5
t-110.5 -14.5q-102 0 -185.5 47z" />
    <glyph glyph-name="uni0422" unicode="&#x422;" horiz-adv-x="542" 
d="M213 602h-176v98h468v-98h-176v-602h-116v602z" />
    <glyph glyph-name="uni0423" unicode="&#x423;" horiz-adv-x="593" 
d="M73 2l-11 103h16q41 -21 72 -21q30 0 51 21t38 62l6 12l-231 521h119l168 -398l159 398h119l-233 -545q-23 -56 -46 -91t-57.5 -56.5t-84.5 -21.5q-48 0 -85 16z" />
    <glyph glyph-name="uni0424" unicode="&#x424;" horiz-adv-x="840" 
d="M361 61q-95 2 -168 36t-114.5 98.5t-41.5 152.5q0 83 42 148.5t115.5 103.5t166.5 40v80h116v-80q94 -2 168 -40t116 -103.5t42 -148.5q0 -88 -41.5 -152.5t-115.5 -98.5t-169 -37v-80h-116v81zM361 539q-58 -2 -105.5 -25t-75.5 -66t-28 -99q0 -92 58.5 -138.5
t150.5 -48.5v377zM629.5 210.5q58.5 46.5 58.5 138.5q0 57 -28 99.5t-76 65.5t-107 25v-377q94 2 152.5 48.5z" />
    <glyph glyph-name="uni0425" unicode="&#x425;" horiz-adv-x="616" 
d="M248 379l-195 321h123l132 -225l132 225h123l-195 -321l228 -379h-123l-165 280l-165 -280h-123z" />
    <glyph glyph-name="uni0426" unicode="&#x426;" horiz-adv-x="724" 
d="M569 0h-503v700h116v-601h304v601h116v-601h80v-229h-113v130z" />
    <glyph glyph-name="uni0427" unicode="&#x427;" horiz-adv-x="601" 
d="M419 303q-56 -14 -138 -14q-106 0 -165 46t-59 141v224h116v-205q0 -58 34.5 -81.5t102.5 -23.5q63 0 109 12v298h116v-700h-116v303z" />
    <glyph glyph-name="uni0428" unicode="&#x428;" horiz-adv-x="910" 
d="M66 700h116v-601h215v601h116v-601h215v601h116v-700h-778v700z" />
    <glyph glyph-name="uni0429" unicode="&#x429;" horiz-adv-x="966" 
d="M811 0h-745v700h116v-601h215v601h116v-601h215v601h116v-601h80v-229h-113v130z" />
    <glyph glyph-name="uni042A" unicode="&#x42a;" 
d="M154 602h-133v98h249v-258h89q80 0 138.5 -28t89.5 -78t31 -115t-31 -115t-89.5 -78t-138.5 -28h-205v602zM358 99q69 0 106.5 31.5t37.5 90.5q0 60 -37.5 91t-106.5 31h-88v-244h88z" />
    <glyph glyph-name="uni042B" unicode="&#x42b;" horiz-adv-x="810" 
d="M66 700h116v-258h89q80 0 138.5 -28t89.5 -78t31 -115t-31 -115t-89.5 -78t-138.5 -28h-205v700zM270 99q69 0 106.5 31.5t37.5 90.5q0 60 -37.5 91t-106.5 31h-88v-244h88zM628 700h116v-700h-116v700z" />
    <glyph glyph-name="uni042C" unicode="&#x42c;" horiz-adv-x="562" 
d="M66 700h116v-258h89q80 0 138.5 -28t89.5 -78t31 -115t-31 -115t-89.5 -78t-138.5 -28h-205v700zM270 99q69 0 106.5 31.5t37.5 90.5q0 60 -37.5 91t-106.5 31h-88v-244h88z" />
    <glyph glyph-name="uni042D" unicode="&#x42d;" horiz-adv-x="664" 
d="M446.5 667q83.5 -47 132 -130t48.5 -187t-48 -187t-131 -130t-185 -47q-62 0 -110.5 14t-93.5 43l-9 122h15q45 -37 92 -57t103 -20q98 0 165.5 58t81.5 155h-302v98h302q-14 97 -81.5 155t-165.5 58q-56 0 -103.5 -19.5t-91.5 -56.5h-15l9 122q45 28 92.5 42t109.5 14
q102 0 185.5 -47z" />
    <glyph glyph-name="uni042E" unicode="&#x42e;" horiz-adv-x="974" 
d="M443.5 27.5q-71.5 41.5 -115 114t-52.5 164.5h-94v-306h-116v700h116v-299h95q10 90 53.5 161t114.5 111.5t160 40.5q98 0 173.5 -47.5t117 -130.5t41.5 -186t-41.5 -186t-117 -130.5t-173.5 -47.5q-90 0 -161.5 41.5zM717.5 119.5q49.5 32.5 77 92.5t27.5 138
q0 79 -27.5 139t-77 92.5t-112.5 32.5t-112 -32.5t-76.5 -92.5t-27.5 -139q0 -78 27.5 -138t76.5 -92.5t112 -32.5t112.5 32.5z" />
    <glyph glyph-name="uni042F" unicode="&#x42f;" horiz-adv-x="582" 
d="M194 291q-59 25 -92.5 74.5t-33.5 118.5t32 117.5t88.5 73.5t127.5 25h200v-700h-116v268h-94l-160 -268h-127zM400 367v234h-79q-137 0 -137 -117q0 -59 35.5 -88t101.5 -29h79z" />
    <glyph glyph-name="uni0430" unicode="&#x430;" horiz-adv-x="616" 
d="M161 19.5q-57 33.5 -91.5 93.5t-34.5 134q0 71 33.5 131t91.5 95t128 35q52 0 94 -19t67 -48v53h106v-494h-106v54q-64 -68 -165 -68q-66 0 -123 33.5zM380.5 105q35.5 22 54.5 59.5t19 82.5t-19 82.5t-54.5 59.5t-82.5 22t-83 -22t-55 -59.5t-19 -82.5t19.5 -82.5
t55 -59.5t82.5 -22t82.5 22z" />
    <glyph glyph-name="uni0431" unicode="&#x431;" horiz-adv-x="608" 
d="M173.5 19q-61.5 33 -100 110.5t-38.5 203.5q0 160 68.5 267.5t216.5 111.5q69 2 101.5 10.5t32.5 34.5h97q0 -80 -58 -109t-164 -33q-100 -4 -152 -63t-63 -175q33 70 89.5 100.5t124.5 30.5q70 0 125.5 -33t87.5 -92t32 -135q0 -77 -34.5 -136.5t-95 -92.5t-135.5 -33
q-73 0 -134.5 33zM389 105q36 21 56 58t20 84q0 72 -44 117.5t-113 45.5q-45 0 -80.5 -20.5t-55.5 -58t-20 -84.5t20 -84t56 -58t80 -21q45 0 81 21z" />
    <glyph glyph-name="uni0432" unicode="&#x432;" horiz-adv-x="521" 
d="M61 494h221q84 0 129.5 -33.5t45.5 -88.5q0 -81 -67 -112q43 -14 67.5 -45t24.5 -75q0 -69 -52.5 -104.5t-132.5 -35.5h-236v494zM281 302q33 0 50.5 14t17.5 41q0 26 -17.5 40t-50.5 14h-114v-109h114zM286 84q39 0 61 16.5t22 48.5q0 33 -22.5 50.5t-60.5 17.5h-119
v-133h119z" />
    <glyph glyph-name="uni0433" unicode="&#x433;" horiz-adv-x="448" 
d="M61 494h351v-92h-245v-402h-106v494z" />
    <glyph glyph-name="uni0434" unicode="&#x434;" horiz-adv-x="601" 
d="M39 89h27q23 0 36 13t15 45l25 347h368v-405h52v-197h-106v108h-311v-108h-106v197zM404 89v313h-176l-16 -233q-2 -32 -6.5 -50.5t-12.5 -29.5h211z" />
    <glyph glyph-name="uni0435" unicode="&#x435;" horiz-adv-x="568" 
d="M165 20.5q-61 34.5 -95.5 95t-34.5 133.5q0 72 33.5 131.5t91.5 93.5t129 34q72 0 127 -32.5t84.5 -89.5t29.5 -127v-40h-392q9 -67 55.5 -104t111.5 -37q49 0 92 16.5t87 56.5h11l-4 -106q-88 -59 -190 -59q-75 0 -136 34.5zM428 297q-7 56 -45.5 89.5t-96.5 33.5
q-51 0 -91.5 -32t-52.5 -91h286z" />
    <glyph glyph-name="uni0436" unicode="&#x436;" horiz-adv-x="738" 
d="M212 263l-191 231h120l175 -215v215h106v-215l176 215h119l-190 -231l198 -263h-123l-180 241v-241h-106v241l-179 -241h-124z" />
    <glyph glyph-name="uni0437" unicode="&#x437;" horiz-adv-x="470" 
d="M119.5 -3.5q-39.5 10.5 -64.5 24.5l-4 104h12q23 -21 60.5 -33.5t79.5 -12.5q55 0 84 19.5t29 53.5q0 64 -105 64h-43v85h41q93 0 93 58q0 28 -23 43t-64 15q-45 0 -85 -20t-62 -55h-12l5 106q24 25 68 42.5t98 17.5q83 0 131 -38t48 -96q0 -34 -16.5 -63t-45.5 -47
q35 -13 57 -42.5t22 -74.5q0 -74 -58.5 -117.5t-156.5 -43.5q-49 0 -88.5 10.5z" />
    <glyph glyph-name="uni0438" unicode="&#x438;" horiz-adv-x="567" 
d="M61 494h106v-309l270 309h69v-494h-106v310l-269 -310h-70v494z" />
    <glyph glyph-name="uni0439" unicode="&#x439;" horiz-adv-x="567" 
d="M61 494h106v-309l270 309h69v-494h-106v310l-269 -310h-70v494zM196.5 597q-33.5 31 -33.5 83h74q2 -21 14 -34.5t34 -13.5t33.5 13.5t13.5 34.5h74q0 -52 -33.5 -83t-87.5 -31q-55 0 -88.5 31z" />
    <glyph glyph-name="uni043A" unicode="&#x43a;" horiz-adv-x="505" 
d="M61 494h106v-215l189 215h128l-206 -231l214 -263h-132l-193 241v-241h-106v494z" />
    <glyph glyph-name="uni043B" unicode="&#x43b;" horiz-adv-x="564" 
d="M63 -10q-16 4 -26 10l-9 86h14q15 -16 34 -16q30 0 33 44l26 380h368v-494h-106v402h-170l-22 -302q-4 -52 -31.5 -83t-77.5 -31q-17 0 -33 4z" />
    <glyph glyph-name="uni043C" unicode="&#x43c;" horiz-adv-x="711" 
d="M167 494h47l141 -305l142 305h47l135 -494h-104l-72 285l-129 -285h-38l-128 285l-73 -285h-103z" />
    <glyph glyph-name="uni043D" unicode="&#x43d;" horiz-adv-x="560" 
d="M61 494h106v-202h226v202h106v-494h-106v200h-226v-200h-106v494z" />
    <glyph glyph-name="uni043E" unicode="&#x43e;" horiz-adv-x="600" 
d="M167 20q-61 34 -96.5 94t-35.5 133q0 74 35.5 133.5t96.5 93.5t133 34q73 0 133.5 -34t96 -93.5t35.5 -133.5t-35.5 -133.5t-96 -93.5t-133.5 -34q-72 0 -133 34zM380.5 103.5q36.5 20.5 57.5 58t21 85.5t-21 85.5t-57.5 58t-80.5 20.5t-80.5 -20.5t-57.5 -58t-21 -85.5
t21 -85.5t57.5 -58t80.5 -20.5t80.5 20.5z" />
    <glyph glyph-name="uni043F" unicode="&#x43f;" horiz-adv-x="560" 
d="M61 494h438v-494h-106v402h-226v-402h-106v494z" />
    <glyph glyph-name="uni0440" unicode="&#x440;" horiz-adv-x="621" 
d="M61 494h106v-63q30 35 73.5 56t97.5 21q70 0 126.5 -33t89 -92.5t32.5 -135.5q0 -78 -33 -137.5t-89.5 -91.5t-124.5 -32q-55 0 -99.5 20t-72.5 54v-286h-106v720zM403 105q36 22 56.5 59.5t20.5 82.5q0 46 -20.5 83.5t-56.5 59t-82 21.5t-82 -21.5t-56.5 -59
t-20.5 -83.5q0 -45 20.5 -82.5t56.5 -59.5t82 -22t82 22z" />
    <glyph glyph-name="uni0441" unicode="&#x441;" horiz-adv-x="494" 
d="M167 18q-60 32 -96 91t-36 138t36 138.5t96.5 91t130.5 31.5q89 0 144 -41l4 -110h-12q-33 29 -64.5 41.5t-71.5 12.5q-70 0 -113.5 -46t-43.5 -118t42.5 -118t114.5 -46q39 0 70.5 12.5t64.5 41.5h12l-4 -109q-54 -42 -143 -42q-71 0 -131 32z" />
    <glyph glyph-name="uni0442" unicode="&#x442;" horiz-adv-x="497" 
d="M195 402h-156v92h419v-92h-157v-402h-106v402z" />
    <glyph glyph-name="uni0443" unicode="&#x443;" horiz-adv-x="520" 
d="M201 94l-189 400h113l132 -283l137 283h114l-349 -720h-113z" />
    <glyph glyph-name="uni0444" unicode="&#x444;" horiz-adv-x="694" 
d="M624 114.5q-35 -57.5 -94.5 -90.5t-129.5 -37v-213h-106v213q-70 4 -129.5 37t-94.5 90.5t-35 132.5t35 133t94.5 90.5t129.5 36.5v213h106v-212q70 -4 129.5 -37t94.5 -91t35 -133t-35 -132.5zM508.5 134q44.5 44 44.5 113t-44.5 113t-108.5 50v-326q64 6 108.5 50z
M185.5 134.5q44.5 -44.5 108.5 -50.5v326q-64 -6 -108.5 -50.5t-44.5 -112.5t44.5 -112.5z" />
    <glyph glyph-name="uni0445" unicode="&#x445;" horiz-adv-x="486" 
d="M184 256l-151 238h118l93 -155l93 155h117l-148 -237l159 -257h-117l-105 172l-104 -172h-118z" />
    <glyph glyph-name="uni0446" unicode="&#x446;" horiz-adv-x="609" 
d="M467 0h-406v494h106v-402h226v402h106v-402h68v-200h-100v108z" />
    <glyph glyph-name="uni0447" unicode="&#x447;" horiz-adv-x="538" 
d="M371 194q-23 -11 -57 -17.5t-72 -6.5q-81 0 -134 41t-53 126v157h106v-138q0 -47 29 -70.5t81 -23.5q26 0 53 6t47 15v211h106v-494h-106v194z" />
    <glyph glyph-name="uni0448" unicode="&#x448;" horiz-adv-x="752" 
d="M61 494h106v-402h156v402h106v-402h156v402h106v-494h-630v494z" />
    <glyph glyph-name="uni0449" unicode="&#x449;" horiz-adv-x="802" 
d="M660 0h-599v494h106v-402h156v402h106v-402h156v402h106v-402h69v-200h-100v108z" />
    <glyph glyph-name="uni044A" unicode="&#x44a;" horiz-adv-x="546" 
d="M459 282.5q52 -42.5 52 -119.5t-52 -120t-160 -43h-186v402h-98v92h204v-169h80q108 0 160 -42.5zM380.5 109.5q24.5 17.5 24.5 53.5t-24.5 53t-68.5 17h-93v-141h93q44 0 68.5 17.5z" />
    <glyph glyph-name="uni044B" unicode="&#x44b;" horiz-adv-x="703" 
d="M61 494h106v-169h81q107 0 159 -42.5t52 -119.5t-52 -120t-159 -43h-187v494zM261 92q43 0 67.5 17.5t24.5 53.5t-24 53t-68 17h-94v-141h94zM536 494h106v-494h-106v494z" />
    <glyph glyph-name="uni044C" unicode="&#x44c;" horiz-adv-x="494" 
d="M61 494h106v-169h81q107 0 159 -42.5t52 -119.5t-52 -120t-159 -43h-187v494zM261 92q43 0 67.5 17.5t24.5 53.5t-24 53t-68 17h-94v-141h94z" />
    <glyph glyph-name="uni044D" unicode="&#x44d;" horiz-adv-x="494" 
d="M327.5 476.5q59.5 -31.5 95.5 -91t36 -138.5t-35.5 -138.5t-96 -91t-131.5 -31.5q-42 0 -79.5 11t-63.5 31l-4 105h12q33 -28 64.5 -40.5t70.5 -12.5q60 0 100.5 34t52.5 90h-219v87h218q-12 56 -53 90t-99 34q-40 0 -71.5 -12t-64.5 -40h-12l4 104q26 20 64.5 30.5
t81.5 10.5q70 0 129.5 -31.5z" />
    <glyph glyph-name="uni044E" unicode="&#x44e;" horiz-adv-x="754" 
d="M357.5 13.5q-51.5 27.5 -84 77t-41.5 112.5h-65v-203h-106v494h106v-202h65q14 96 79.5 156t162.5 60q72 0 127.5 -34t86.5 -93.5t31 -133.5t-31 -133.5t-86.5 -93.5t-127.5 -34q-65 0 -116.5 27.5zM576 128.5q37 45.5 37 118.5t-37 118.5t-102 45.5t-102 -45t-37 -119
t37 -119t102 -45t102 45.5z" />
    <glyph glyph-name="uni044F" unicode="&#x44f;" horiz-adv-x="500" 
d="M141 203q-43 18 -66.5 53t-23.5 83q0 73 52 114t139 41h197v-494h-106v184h-94l-108 -184h-111zM333 271v137h-90q-38 0 -62 -18.5t-24 -50.5q0 -31 24 -49.5t62 -18.5h90z" />
    <glyph glyph-name="uni0450" unicode="&#x450;" horiz-adv-x="568" 
d="M165 20.5q-61 34.5 -95.5 95t-34.5 133.5q0 72 33.5 131.5t91.5 93.5t129 34q72 0 127 -32.5t84.5 -89.5t29.5 -127v-40h-392q9 -67 55.5 -104t111.5 -37q49 0 92 16.5t87 56.5h11l-4 -106q-88 -59 -190 -59q-75 0 -136 34.5zM428 297q-7 56 -45.5 89.5t-96.5 33.5
q-51 0 -91.5 -32t-52.5 -91h286zM116 700h142l91 -137h-90z" />
    <glyph glyph-name="uni0451" unicode="&#x451;" horiz-adv-x="568" 
d="M165 20.5q-61 34.5 -95.5 95t-34.5 133.5q0 72 33.5 131.5t91.5 93.5t129 34q72 0 127 -32.5t84.5 -89.5t29.5 -127v-40h-392q9 -67 55.5 -104t111.5 -37q49 0 92 16.5t87 56.5h11l-4 -106q-88 -59 -190 -59q-75 0 -136 34.5zM428 297q-7 56 -45.5 89.5t-96.5 33.5
q-51 0 -91.5 -32t-52.5 -91h286zM150 583.5q-18 18.5 -18 43.5q0 26 18.5 45t43.5 19q26 0 45 -19t19 -45q0 -25 -19 -43.5t-45 -18.5t-44 18.5zM336 583.5q-18 18.5 -18 43.5q0 26 18.5 45t43.5 19q26 0 45.5 -19t19.5 -45q0 -25 -19.5 -43.5t-45.5 -18.5t-44 18.5z" />
    <glyph glyph-name="uni0452" unicode="&#x452;" horiz-adv-x="569" 
d="M309 -223l-10 92h15q14 -9 24.5 -13.5t25.5 -4.5q51 0 51 62v392q0 49 -31 77t-80 28q-35 0 -65.5 -18t-48.5 -51.5t-18 -76.5v-264h-106v571h-66v72h66v77h106v-77h149v-72h-149v-144q29 37 74.5 59t95.5 22q79 0 129 -46.5t50 -125.5v-412q0 -81 -38 -122.5t-102 -41.5
q-44 0 -72 17z" />
    <glyph glyph-name="uni0453" unicode="&#x453;" horiz-adv-x="448" 
d="M61 494h351v-92h-245v-402h-106v494zM276 700h141l-143 -137h-90z" />
    <glyph glyph-name="uni0454" unicode="&#x454;" horiz-adv-x="494" 
d="M368.5 92.5q31.5 12.5 64.5 40.5h12l-4 -105q-26 -20 -63.5 -31t-79.5 -11q-71 0 -131.5 31.5t-96 91t-35.5 138.5t36 138.5t95.5 91t129.5 31.5q43 0 81.5 -10.5t64.5 -30.5l4 -104h-12q-33 28 -64.5 40t-71.5 12q-58 0 -99 -34t-53 -90h218v-87h-219q12 -56 52.5 -90
t100.5 -34q39 0 70.5 12.5z" />
    <glyph glyph-name="uni0455" unicode="&#x455;" horiz-adv-x="423" 
d="M36 35l25 100h6q68 -52 137 -52q37 0 59 15.5t22 42.5q0 28 -23.5 44t-82.5 36q-129 44 -129 144q0 41 22 73.5t61.5 51t89.5 18.5q75 0 132 -35l4 -102h-7q-32 23 -62.5 34.5t-67.5 11.5q-32 0 -52.5 -12.5t-20.5 -35.5q0 -27 24 -44t82 -37q68 -23 102 -54.5t34 -90.5
q0 -47 -25 -83t-67 -55t-92 -19q-97 0 -171 49z" />
    <glyph glyph-name="uni0456" unicode="&#x456;" horiz-adv-x="228" 
d="M65.5 595.5q-20.5 20.5 -20.5 48.5q0 29 20 49.5t49 20.5t49.5 -20.5t20.5 -49.5q0 -28 -20.5 -48.5t-49.5 -20.5q-28 0 -48.5 20.5zM61 494h106v-494h-106v494z" />
    <glyph glyph-name="uni0457" unicode="&#x457;" horiz-adv-x="241" 
d="M-2 597.5q-18 18.5 -18 48.5q0 29 18 47.5t44 18.5q25 0 43.5 -18.5t18.5 -47.5q0 -30 -18.5 -48.5t-43.5 -18.5q-26 0 -44 18.5zM155.5 597.5q-18.5 18.5 -18.5 48.5q0 29 18.5 47.5t43.5 18.5q26 0 44 -18.5t18 -47.5q0 -30 -18 -48.5t-44 -18.5q-25 0 -43.5 18.5z
M68 494h106v-494h-106v494z" />
    <glyph glyph-name="uni0458" unicode="&#x458;" horiz-adv-x="240" 
d="M73 595.5q-20 20.5 -20 48.5q0 29 20 49.5t48 20.5q29 0 50 -20.5t21 -49.5q0 -28 -21 -48.5t-50 -20.5q-28 0 -48 20.5zM-36 -223l-10 91h15q14 -9 24.5 -13t25.5 -4q50 0 50 58v585h106v-571q0 -81 -39 -122t-105 -41q-39 0 -67 17z" />
    <glyph glyph-name="uni0459" unicode="&#x459;" horiz-adv-x="830" 
d="M63 -10q-16 4 -26 10l-9 86h14q15 -16 34 -16q30 0 33 44l26 380h368v-169h81q107 0 159 -42.5t52 -119.5t-52 -120t-159 -43h-187v402h-171l-22 -302q-4 -52 -31 -83t-77 -31q-17 0 -33 4zM597 92q43 0 67.5 17.5t24.5 53.5t-24 53t-68 17h-94v-141h94z" />
    <glyph glyph-name="uni045A" unicode="&#x45a;" horiz-adv-x="841" 
d="M61 494h106v-173h241v173h106v-173h80q108 0 160 -41.5t52 -118.5t-52 -119t-160 -42h-186v229h-241v-229h-106v494zM607 92q44 0 68.5 17t24.5 52q0 68 -93 68h-93v-137h93z" />
    <glyph glyph-name="uni045B" unicode="&#x45b;" horiz-adv-x="572" 
d="M61 571h-61v72h61v77h106v-77h151v-72h-151v-145q26 36 73.5 59t97.5 23q81 0 130 -45t49 -127v-336h-106v304q0 51 -30 79t-79 28q-36 0 -67 -18.5t-49.5 -52t-18.5 -75.5v-265h-106v571z" />
    <glyph glyph-name="uni045C" unicode="&#x45c;" horiz-adv-x="505" 
d="M61 494h106v-215l189 215h128l-206 -231l214 -263h-132l-193 241v-241h-106v494zM271 700h140l-142 -137h-90z" />
    <glyph glyph-name="uni045D" unicode="&#x45d;" horiz-adv-x="567" 
d="M61 494h106v-309l270 309h69v-494h-106v310l-269 -310h-70v494zM112 700h142l91 -137h-90z" />
    <glyph glyph-name="uni045E" unicode="&#x45e;" horiz-adv-x="520" 
d="M201 94l-189 400h113l132 -283l137 283h114l-349 -720h-113zM172.5 597q-33.5 31 -33.5 83h74q2 -21 14 -34.5t34 -13.5t33.5 13.5t13.5 34.5h74q0 -52 -33.5 -83t-87.5 -31q-55 0 -88.5 31z" />
    <glyph glyph-name="uni045F" unicode="&#x45f;" horiz-adv-x="560" 
d="M230 0h-169v494h106v-402h226v402h106v-494h-169v-108h-100v108z" />
    <glyph glyph-name="uni0462" unicode="&#x462;" horiz-adv-x="626" 
d="M477.5 402q56.5 -28 86.5 -76.5t30 -110.5t-30 -110.5t-86.5 -76.5t-134.5 -28h-191v494h-132v95h132v111h116v-111h172v-95h-172v-64h75q78 0 134.5 -28zM443 129.5q35 30.5 35 85.5q0 56 -35 86t-99 30h-76v-232h76q64 0 99 30.5z" />
    <glyph glyph-name="uni0463" unicode="&#x463;" horiz-adv-x="565" 
d="M132 415h-115v79h115v226h106v-226h151v-79h-151v-90h81q107 0 159 -42.5t52 -119.5t-52 -120t-159 -43h-187v415zM332 92q43 0 67.5 17.5t24.5 53.5t-24 53t-68 17h-94v-141h94z" />
    <glyph glyph-name="uni0472" unicode="&#x472;" horiz-adv-x="813" 
d="M593 666.5q85 -47.5 134 -130.5t49 -186t-49 -186t-134 -130.5t-187 -47.5t-186.5 47.5t-133.5 130.5t-49 186t49 186t133.5 130.5t186.5 47.5t187 -47.5zM288.5 588q-53.5 -26 -88.5 -74.5t-45 -115.5q72 44 134 44q38 0 66.5 -11.5t65.5 -34.5q33 -20 55.5 -29.5
t49.5 -9.5q39 0 67.5 12t62.5 39q-17 96 -85.5 151t-164.5 55q-64 0 -117.5 -26zM524 113q54 26 89.5 75t44.5 116q-72 -44 -133 -44q-38 0 -66 11.5t-67 34.5q-31 20 -54 29.5t-50 9.5q-39 0 -68 -12t-63 -39q17 -96 85.5 -151.5t163.5 -55.5q64 0 118 26z" />
    <glyph glyph-name="uni0473" unicode="&#x473;" horiz-adv-x="600" 
d="M167 20q-61 34 -96.5 94t-35.5 133q0 74 35.5 133.5t96.5 93.5t133 34q73 0 133.5 -34t96 -93.5t35.5 -133.5t-35.5 -133.5t-96 -93.5t-133.5 -34q-72 0 -133 34zM460 293q-14 57 -58 91.5t-102 34.5q-59 0 -103 -36t-55 -96q36 29 82 29q26 0 45 -6.5t43 -19.5
q23 -12 40.5 -18t40.5 -6q36 0 67 27zM402.5 111.5q43.5 35.5 56.5 93.5q-36 -24 -77 -24q-26 0 -45 6.5t-43 19.5q-25 12 -42 18t-40 6q-38 0 -71 -32q15 -56 58.5 -89.5t100.5 -33.5q59 0 102.5 35.5z" />
    <glyph glyph-name="uni0474" unicode="&#x474;" horiz-adv-x="752" 
d="M15 700h121l213 -494l157 361q31 73 69.5 110t99.5 37q32 0 62 -14l-25 -92q-16 4 -22 4q-26 0 -41.5 -14t-29.5 -46l-245 -552h-50z" />
    <glyph glyph-name="uni0475" unicode="&#x475;" horiz-adv-x="597" 
d="M16 494h115l138 -315l106 238q40 91 130 91q45 0 77 -19l-22 -83q-18 11 -38 11q-35 0 -60 -49l-175 -368h-35z" />
    <glyph glyph-name="uni0490" unicode="&#x490;" horiz-adv-x="536" 
d="M66 700h313v110h106v-208h-303v-602h-116v700z" />
    <glyph glyph-name="uni0491" unicode="&#x491;" horiz-adv-x="448" 
d="M61 494h245v92h106v-184h-245v-402h-106v494z" />
    <glyph glyph-name="uni0E3F" unicode="&#xe3f;" horiz-adv-x="600" 
d="M531 306q38 -44 38 -108t-32.5 -108.5t-85.5 -67t-116 -22.5h-11v-76h-66v76h-192v700h192v76h66v-77q99 -4 154.5 -52t55.5 -123q0 -55 -28 -94.5t-76 -61.5q63 -18 101 -62zM182 409h76v192h-76v-192zM396 570.5q-23 25.5 -72 29.5v-190q49 4 72 29.5t23 65.5t-23 65.5
zM258 99v211h-76v-211h76zM421 127.5q32 28.5 32 77.5t-32 77t-94 28h-3v-211h3q62 0 94 28.5z" />
    <glyph glyph-name="Wgrave" unicode="&#x1e80;" horiz-adv-x="970" 
d="M22 700h122l145 -443l170 443h52l170 -443l145 443h122l-237 -700h-42l-184 483l-184 -483h-42zM455 769l-143 137h142l91 -137h-90z" />
    <glyph glyph-name="wgrave" unicode="&#x1e81;" horiz-adv-x="772" 
d="M14 494h110l123 -294l119 294h40l120 -294l122 294h110l-217 -494h-27l-128 319l-128 -319h-27zM214 700h142l91 -137h-90z" />
    <glyph glyph-name="Wacute" unicode="&#x1e82;" horiz-adv-x="970" 
d="M22 700h122l145 -443l170 443h52l170 -443l145 443h122l-237 -700h-42l-184 483l-184 -483h-42zM518 906h141l-143 -137h-90z" />
    <glyph glyph-name="wacute" unicode="&#x1e83;" horiz-adv-x="772" 
d="M14 494h110l123 -294l119 294h40l120 -294l122 294h110l-217 -494h-27l-128 319l-128 -319h-27zM415 700h141l-143 -137h-90z" />
    <glyph glyph-name="Wdieresis" unicode="&#x1e84;" horiz-adv-x="970" 
d="M22 700h122l145 -443l170 443h52l170 -443l145 443h122l-237 -700h-42l-184 483l-184 -483h-42zM347 789.5q-18 18.5 -18 43.5q0 26 18.5 45t43.5 19q26 0 45 -19t19 -45q0 -25 -19 -43.5t-45 -18.5t-44 18.5zM533 789.5q-18 18.5 -18 43.5q0 26 18.5 45t43.5 19
q26 0 45.5 -19t19.5 -45q0 -25 -19.5 -43.5t-45.5 -18.5t-44 18.5z" />
    <glyph glyph-name="wdieresis" unicode="&#x1e85;" horiz-adv-x="772" 
d="M14 494h110l123 -294l119 294h40l120 -294l122 294h110l-217 -494h-27l-128 319l-128 -319h-27zM248 583.5q-18 18.5 -18 43.5q0 26 18.5 45t43.5 19q26 0 45 -19t19 -45q0 -25 -19 -43.5t-45 -18.5t-44 18.5zM434 583.5q-18 18.5 -18 43.5q0 26 18.5 45t43.5 19
q26 0 45.5 -19t19.5 -45q0 -25 -19.5 -43.5t-45.5 -18.5t-44 18.5z" />
    <glyph glyph-name="uni1E9E" unicode="&#x1e9e;" horiz-adv-x="626" 
d="M237 25l11 95h12q47 -34 97 -34q46 0 81.5 30.5t35.5 95.5q0 68 -41 99.5t-110 31.5q-26 0 -60 -2v82l118 179h-199v-602h-116v700h451v-60l-140 -212q62 -2 110 -29.5t75 -75.5t27 -110q0 -65 -29 -117t-80 -81t-114 -29q-73 0 -129 39z" />
    <glyph glyph-name="Ygrave" unicode="&#x1ef2;" horiz-adv-x="600" 
d="M242 300l-228 400h127l159 -293l160 293h126l-228 -400v-300h-116v300zM270 769l-143 137h142l91 -137h-90z" />
    <glyph glyph-name="ygrave" unicode="&#x1ef3;" horiz-adv-x="520" 
d="M201 94l-189 400h113l132 -283l137 283h114l-349 -720h-113zM89 700h142l91 -137h-90z" />
    <glyph glyph-name="endash" unicode="&#x2013;" horiz-adv-x="548" 
d="M40 360h468v-86h-468v86z" />
    <glyph glyph-name="emdash" unicode="&#x2014;" horiz-adv-x="798" 
d="M40 360h718v-86h-718v86z" />
    <glyph glyph-name="quoteleft" unicode="&#x2018;" horiz-adv-x="222" 
d="M63 491q-19 21 -19 51q0 55 28.5 97t74.5 71l19 -18q-50 -39 -53 -88q27 0 46 -19t19 -47q0 -29 -19 -48.5t-47 -19.5q-30 0 -49 21z" />
    <glyph glyph-name="quoteright" unicode="&#x2019;" horiz-adv-x="222" 
d="M57 488q49 38 53 88q-27 0 -46.5 19t-19.5 47q0 29 19 48.5t47 19.5q30 0 49 -20.5t19 -51.5q0 -55 -28.5 -97t-73.5 -71z" />
    <glyph glyph-name="quotesinglbase" unicode="&#x201a;" horiz-adv-x="222" 
d="M57 -88q49 36 53 88q-27 0 -46.5 19t-19.5 47q0 29 19 48.5t47 19.5q30 0 49 -20.5t19 -51.5q0 -102 -102 -169z" />
    <glyph glyph-name="quotedblleft" unicode="&#x201c;" horiz-adv-x="389" 
d="M63 491q-19 21 -19 51q0 55 28.5 97t74.5 71l19 -18q-50 -39 -53 -88q27 0 46 -19t19 -47q0 -29 -19 -48.5t-47 -19.5q-30 0 -49 21zM230 490.5q-19 20.5 -19 51.5q0 55 28.5 97t73.5 71l19 -18q-49 -38 -53 -88q27 0 46.5 -19t19.5 -47q0 -29 -19 -48.5t-47 -19.5
q-30 0 -49 20.5z" />
    <glyph glyph-name="quotedblright" unicode="&#x201d;" horiz-adv-x="389" 
d="M57 488q49 38 53 88q-27 0 -46.5 19t-19.5 47q0 29 19 48.5t47 19.5q30 0 49 -20.5t19 -51.5q0 -55 -28.5 -97t-73.5 -71zM223 488q50 39 53 88q-26 0 -45.5 19.5t-19.5 46.5q0 29 19 48.5t47 19.5q30 0 49 -21t19 -51q0 -55 -28.5 -97t-74.5 -71z" />
    <glyph glyph-name="quotedblbase" unicode="&#x201e;" horiz-adv-x="389" 
d="M57 -88q49 36 53 88q-27 0 -46.5 19t-19.5 47q0 29 19 48.5t47 19.5q30 0 49 -20.5t19 -51.5q0 -102 -102 -169zM223 -88q50 38 53 88q-26 0 -45.5 19.5t-19.5 46.5q0 29 19 48.5t47 19.5q30 0 49 -21t19 -51q0 -102 -103 -169z" />
    <glyph glyph-name="dagger" unicode="&#x2020;" horiz-adv-x="380" 
d="M136 405h-120v89h120v206h106v-206h122v-89h-122v-631h-106v631z" />
    <glyph glyph-name="daggerdbl" unicode="&#x2021;" horiz-adv-x="380" 
d="M136 0h-120v89h120v316h-120v89h120v206h106v-206h122v-89h-122v-316h122v-89h-122v-226h-106v226z" />
    <glyph glyph-name="bullet" unicode="&#x2022;" horiz-adv-x="322" 
d="M92.5 241.5q-28.5 28.5 -28.5 68.5q0 41 28.5 69t68.5 28q41 0 69 -28t28 -69q0 -40 -28 -68.5t-69 -28.5q-40 0 -68.5 28.5z" />
    <glyph glyph-name="ellipsis" unicode="&#x2026;" horiz-adv-x="664" 
d="M63.5 5.5q-19.5 19.5 -19.5 46.5q0 28 19.5 48t46.5 20q29 0 48.5 -19.5t19.5 -48.5q0 -27 -20 -46.5t-48 -19.5q-27 0 -46.5 19.5zM284.5 5.5q-19.5 19.5 -19.5 46.5q0 28 19.5 48t46.5 20q29 0 48.5 -19.5t19.5 -48.5q0 -27 -20 -46.5t-48 -19.5q-27 0 -46.5 19.5z
M505.5 5.5q-19.5 19.5 -19.5 46.5q0 28 19.5 48t46.5 20q29 0 48.5 -19.5t19.5 -48.5q0 -27 -20 -46.5t-48 -19.5q-27 0 -46.5 19.5z" />
    <glyph glyph-name="perthousand" unicode="&#x2030;" horiz-adv-x="1071" 
d="M121 419q-37 21 -59 57t-22 80t22 80t59 57t82 21t82 -21t59 -57t22 -80t-22 -80t-59 -57t-82 -21t-82 21zM263.5 494q24.5 24 24.5 62q0 39 -24.5 62.5t-60.5 23.5t-60.5 -23.5t-24.5 -62.5q0 -38 25 -62t60 -24q36 0 60.5 24zM153 159l333 412l49 -41l-331 -411zM426 7
q-37 21 -59 57t-22 80t22 80t59 57t82 21t82 -21t59 -57t22 -80t-22 -80t-59 -57t-82 -21t-82 21zM786 7q-37 21 -59 57t-22 80t22 80t59 57t82 21t82 -21t59 -57t22 -80t-22 -80t-59 -57t-82 -21t-82 21zM568.5 82q24.5 24 24.5 62q0 39 -24.5 62.5t-60.5 23.5t-60.5 -23.5
t-24.5 -62.5q0 -38 25 -62t60 -24q36 0 60.5 24zM928.5 82q24.5 24 24.5 62q0 39 -24.5 62.5t-60.5 23.5t-60.5 -23.5t-24.5 -62.5q0 -38 25 -62t60 -24q36 0 60.5 24z" />
    <glyph glyph-name="guilsinglleft" unicode="&#x2039;" horiz-adv-x="321" 
d="M32 289v56l233 200h16v-102l-147 -126l147 -126v-102h-16z" />
    <glyph glyph-name="guilsinglright" unicode="&#x203a;" horiz-adv-x="321" 
d="M40 191l147 126l-147 126v102h16l233 -200v-56l-233 -200h-16v102z" />
    <glyph glyph-name="uni203D" unicode="&#x203d;" horiz-adv-x="454" 
d="M102 594.5q-30 -20.5 -51 -46.5h-12l7 109q23 18 54.5 32t66.5 21v59h88v-58q71 -11 115.5 -54.5t44.5 -112.5q0 -39 -12.5 -69.5t-29.5 -52.5t-46 -52q-35 -36 -51.5 -61t-16.5 -58v-39h-92v411q-35 -8 -65 -28.5zM299.5 586.5q-16.5 21.5 -44.5 32.5v-204
q30 34 45.5 60.5t15.5 58.5q0 31 -16.5 52.5zM260 105q20 -20 20 -49q0 -28 -20 -48.5t-49 -20.5q-28 0 -48.5 20.5t-20.5 48.5q0 29 20.5 49t48.5 20q29 0 49 -20z" />
    <glyph glyph-name="fraction" unicode="&#x2044;" horiz-adv-x="182" 
d="M-100 159l333 412l49 -41l-332 -411z" />
    <glyph glyph-name="uni2048" unicode="&#x2048;" horiz-adv-x="638" 
d="M155 239q0 40 11.5 71t27.5 53t44 53q33 36 48.5 61t15.5 59q0 41 -27 64.5t-74 23.5q-44 0 -85 -25t-66 -56h-11l8 115q32 25 75.5 40.5t87.5 15.5q88 0 143 -44t55 -123q0 -55 -21 -92t-61 -80q-33 -36 -49 -62.5t-16 -61.5v-41h-106v29zM162 6q-20 20 -20 49t20 49
t48 20q29 0 49.5 -20t20.5 -49t-20.5 -49t-49.5 -20q-28 0 -48 20zM466 700h106v-490h-106v490zM470.5 6.5q-20.5 20.5 -20.5 48.5q0 29 20.5 49t48.5 20q29 0 49 -20t20 -49q0 -28 -20 -48.5t-49 -20.5q-28 0 -48.5 20.5z" />
    <glyph glyph-name="uni2049" unicode="&#x2049;" horiz-adv-x="642" 
d="M66 700h106v-490h-106v490zM70.5 6.5q-20.5 20.5 -20.5 48.5q0 29 20.5 49t48.5 20q29 0 49 -20t20 -49q0 -28 -20 -48.5t-49 -20.5q-28 0 -48.5 20.5zM350 239q0 40 11.5 71t27.5 53t44 53q33 36 48.5 61t15.5 59q0 41 -27 64.5t-74 23.5q-44 0 -85 -25t-66 -56h-11
l8 115q32 25 75.5 40.5t87.5 15.5q88 0 143 -44t55 -123q0 -55 -21 -92t-61 -80q-33 -36 -49 -62.5t-16 -61.5v-41h-106v29zM357 6q-20 20 -20 49t20 49t48 20q29 0 49.5 -20t20.5 -49t-20.5 -49t-49.5 -20q-28 0 -48 20z" />
    <glyph glyph-name="uni2070" unicode="&#x2070;" horiz-adv-x="356" 
d="M65.5 553q-42.5 51 -42.5 131t42.5 131t112.5 51t112.5 -51t42.5 -131t-42.5 -131t-112.5 -51t-112.5 51zM239.5 595q22.5 32 22.5 89t-22.5 89t-61.5 32t-61.5 -32t-22.5 -89t22.5 -89t61.5 -32t61.5 32z" />
    <glyph glyph-name="uni2074" unicode="&#x2074;" horiz-adv-x="299" 
d="M169 583h-159v46l192 230h38v-215h46v-61h-46v-74h-71v74zM169 644v92l-76 -92h76z" />
    <glyph glyph-name="uni2075" unicode="&#x2075;" horiz-adv-x="281" 
d="M82.5 510q-19.5 4 -44.5 13l-15 75h10q43 -30 91 -30q32 0 50.5 16.5t18.5 46.5q0 31 -18 47t-50 16q-40 0 -84 -22l-16 3l23 188h198v-60h-145l-11 -64q23 10 56 10q55 0 86.5 -31.5t31.5 -86.5q0 -57 -39 -91t-96 -34q-27 0 -46.5 4z" />
    <glyph glyph-name="uni2076" unicode="&#x2076;" horiz-adv-x="296" 
d="M54 547.5q-34 45.5 -34 121.5q0 53 18 98t52.5 72t82.5 27q40 0 68 -19l7 -66h-9q-29 25 -67 25q-33 0 -54.5 -24.5t-25.5 -72.5q31 26 73 26q50 0 82 -31.5t32 -81.5q0 -32 -17 -60t-46.5 -44t-62.5 -16q-65 0 -99 45.5zM194 577q17 17 17 43t-16.5 42.5t-42.5 16.5
q-25 0 -41.5 -16.5t-16.5 -42.5t16.5 -43t41.5 -17t42 17z" />
    <glyph glyph-name="uni2077" unicode="&#x2077;" horiz-adv-x="282" 
d="M177 798h-160v61h255v-12l-167 -338h-74z" />
    <glyph glyph-name="uni2078" unicode="&#x2078;" horiz-adv-x="284" 
d="M53.5 534.5q-33.5 32.5 -33.5 75.5q0 32 15 54.5t39 34.5q-41 31 -41 75q0 38 31 65t78 27q48 0 78.5 -27t30.5 -65q0 -43 -40 -75q23 -12 38 -34.5t15 -54.5q0 -43 -33.5 -75.5t-88.5 -32.5t-88.5 32.5zM175 739q13 12 13 31t-13 31t-33 12t-32.5 -12t-12.5 -31
t12.5 -31t32.5 -12t33 12zM182.5 575q16.5 16 16.5 41t-16.5 41t-40.5 16t-40.5 -16t-16.5 -41t16.5 -41t40.5 -16t40.5 16z" />
    <glyph glyph-name="uni2079" unicode="&#x2079;" horiz-adv-x="296" 
d="M55 521l-7 67h9q29 -26 67 -26q33 0 54.5 25t25.5 73q-32 -27 -73 -27q-49 0 -81.5 32t-32.5 82q0 49 37 84t89 35q65 0 99 -45.5t34 -121.5q0 -52 -18 -97t-52.5 -72.5t-82.5 -27.5q-40 0 -68 19zM185.5 706.5q16.5 16.5 16.5 41.5q0 26 -16.5 43t-41.5 17t-42 -17
t-17 -43q0 -25 17 -41.5t42 -16.5t41.5 16.5z" />
    <glyph glyph-name="uni2080" unicode="&#x2080;" horiz-adv-x="356" 
d="M65.5 -182q-42.5 51 -42.5 131t42.5 131t112.5 51t112.5 -51t42.5 -131t-42.5 -131t-112.5 -51t-112.5 51zM239.5 -140q22.5 32 22.5 89t-22.5 89t-61.5 32t-61.5 -32t-22.5 -89t22.5 -89t61.5 -32t61.5 32z" />
    <glyph glyph-name="uni2081" unicode="&#x2081;" horiz-adv-x="131" 
d="M30 91l47 33h24v-350h-71v317z" />
    <glyph glyph-name="uni2082" unicode="&#x2082;" horiz-adv-x="287" 
d="M14 -214l135 163q18 21 25 38.5t7 36.5q0 21 -15 34.5t-39 13.5q-47 0 -82 -54h-16l4 73q19 19 46.5 29.5t56.5 10.5q54 0 85.5 -28t31.5 -73q0 -29 -13 -57t-43 -63l-64 -75h133v-61h-252v12z" />
    <glyph glyph-name="uni2083" unicode="&#x2083;" horiz-adv-x="292" 
d="M80 -226.5q-26 6.5 -44 16.5l-7 73h10q47 -36 91 -36q30 0 49 17t19 49q0 30 -19 48t-50 18q-18 0 -38 -5l-11 21l67 88h-119v61h229v-8l-83 -107q42 -8 69 -37t27 -75q0 -62 -38.5 -96t-96.5 -34q-29 0 -55 6.5z" />
    <glyph glyph-name="uni2084" unicode="&#x2084;" horiz-adv-x="299" 
d="M169 -152h-159v46l192 230h38v-215h46v-61h-46v-74h-71v74zM169 -91v92l-76 -92h76z" />
    <glyph glyph-name="uni2085" unicode="&#x2085;" horiz-adv-x="281" 
d="M83 -229.5q-19 3.5 -45 12.5l-15 76h10q44 -31 91 -31q32 0 50.5 17t18.5 47q0 31 -18 47t-50 16q-36 0 -84 -22l-16 3l23 188h198v-60h-145l-11 -65q22 11 56 11q55 0 86.5 -31.5t31.5 -86.5q0 -57 -39 -91t-96 -34q-27 0 -46 3.5z" />
    <glyph glyph-name="uni2086" unicode="&#x2086;" horiz-adv-x="296" 
d="M54 -187.5q-34 45.5 -34 121.5q0 53 18 98t52.5 72t82.5 27q40 0 68 -19l7 -66h-9q-29 25 -67 25q-33 0 -54.5 -24.5t-25.5 -73.5q15 13 34.5 20t38.5 7q50 0 82 -31.5t32 -81.5q0 -33 -17 -60.5t-46 -43.5t-63 -16q-65 0 -99 45.5zM194 -158q17 17 17 43q0 25 -17 41.5
t-42 16.5t-41.5 -16.5t-16.5 -41.5q0 -26 16.5 -43t41.5 -17t42 17z" />
    <glyph glyph-name="uni2087" unicode="&#x2087;" horiz-adv-x="282" 
d="M177 63h-160v61h255v-12l-167 -338h-74z" />
    <glyph glyph-name="uni2088" unicode="&#x2088;" horiz-adv-x="284" 
d="M53.5 -200.5q-33.5 32.5 -33.5 75.5q0 32 15 54.5t39 34.5q-41 31 -41 75q0 38 31 65t78 27q48 0 78.5 -27t30.5 -65q0 -43 -40 -75q23 -12 38 -34.5t15 -54.5q0 -43 -33.5 -75.5t-88.5 -32.5t-88.5 32.5zM175 3.5q13 12.5 13 31.5t-13 31t-33 12t-32.5 -12t-12.5 -31
t12.5 -31.5t32.5 -12.5t33 12.5zM182.5 -160.5q16.5 15.5 16.5 40.5t-16.5 41t-40.5 16t-40.5 -16t-16.5 -41t16.5 -40.5t40.5 -15.5t40.5 15.5z" />
    <glyph glyph-name="uni2089" unicode="&#x2089;" horiz-adv-x="296" 
d="M55 -214l-7 66h9q29 -25 67 -25q33 0 54.5 24.5t25.5 72.5q-31 -26 -73 -26q-49 0 -81.5 32t-32.5 82q0 49 37 84t89 35q32 0 58.5 -12.5t42.5 -35.5q32 -44 32 -119q0 -53 -18 -98t-52.5 -72t-82.5 -27q-40 0 -68 19zM185.5 -29.5q16.5 16.5 16.5 42.5t-16.5 43
t-41.5 17t-42 -17t-17 -43t17 -42.5t42 -16.5t41.5 16.5z" />
    <glyph glyph-name="franc" unicode="&#x20a3;" horiz-adv-x="556" 
d="M185 601v-216h309v-99h-309v-101h144v-99h-144v-86h-116v86h-58v99h58v515h436v-99h-320z" />
    <glyph glyph-name="uni20A8" unicode="&#x20a8;" horiz-adv-x="995" 
d="M66 700h203q104 0 169.5 -53t65.5 -146q0 -69 -39 -116t-102 -69l190 -316h-126l-182 302h-63v-302h-116v700zM264 401q60 0 92 25.5t32 74.5t-32 74.5t-92 25.5h-82v-200h82zM608 35l25 100h6q68 -52 137 -52q37 0 59 15.5t22 42.5q0 28 -23.5 44t-82.5 36
q-129 44 -129 144q0 41 22 73.5t61.5 51t89.5 18.5q75 0 132 -35l4 -102h-7q-32 23 -62.5 34.5t-67.5 11.5q-32 0 -52.5 -12.5t-20.5 -35.5q0 -27 24 -44t82 -37q68 -23 102 -54.5t34 -90.5q0 -47 -25 -83t-67 -55t-92 -19q-97 0 -171 49z" />
    <glyph glyph-name="uni20A9" unicode="&#x20a9;" horiz-adv-x="987" 
d="M972 360h-117l-116 -360h-57l-122 360h-124l-122 -360h-57l-116 360h-118v53h101l-92 287h117l89 -287h109l97 287h108l97 -287h104l89 287h122l-92 -287h100v-53zM542 413l-44 129l-44 -129h88zM329 360h-75l36 -115zM737 360h-70l36 -108z" />
    <glyph glyph-name="uni20AA" unicode="&#x20aa;" horiz-adv-x="769" 
d="M66 700h296q170 0 170 -146v-385h-116v352q0 46 -21 63.5t-69 17.5h-144v-602h-116v700zM280 34q-43 34 -43 112v386h116v-353q0 -46 19 -63.5t66 -17.5h149v602h116v-700h-301q-79 0 -122 34z" />
    <glyph glyph-name="dong" unicode="&#x20ab;" horiz-adv-x="550" 
d="M143.5 149q-45.5 27 -72 74t-26.5 105t26.5 105t73 74t103.5 27q36 0 67.5 -12t53.5 -34v81h-106v77h106v54h100v-54h56v-77h-56v-436h-100v37q-50 -48 -124 -48q-56 0 -101.5 27zM334 247q30 33 30 81t-30 81t-80 33t-79.5 -33t-29.5 -81t29.5 -81t79.5 -33t80 33z
M65 80h404v-80h-404v80z" />
    <glyph glyph-name="Euro" unicode="&#x20ac;" horiz-adv-x="641" 
d="M269 19.5q-67 33.5 -112.5 91t-64.5 129.5h-75l26 74h36q-2 12 -2 36t2 36h-62l26 74h49q21 74 66.5 131.5t111.5 90t147 32.5q49 0 92 -12t73 -35l9 -108h-13q-41 32 -78 44.5t-86 12.5q-70 0 -125 -42t-80 -114h278l-26 -74h-268q-1 -11 -1 -36t1 -36h294l-26 -74h-252
q24 -72 79.5 -113.5t125.5 -41.5q50 0 87 12t77 44h13l-9 -108q-30 -23 -73 -35t-92 -12q-81 0 -148 33.5z" />
    <glyph glyph-name="uni20AD" unicode="&#x20ad;" horiz-adv-x="629" 
d="M234 301h-25v-301h-116v301h-58v98h58v301h116v-301h22l233 301h130l-237 -301h205v-98h-190l246 -301h-136z" />
    <glyph glyph-name="uni20B1" unicode="&#x20b1;" horiz-adv-x="651" 
d="M621 506h-67q1 -7 1 -21q0 -13 -1 -20h67v-60h-81q-24 -62 -85.5 -98.5t-150.5 -36.5h-75v-270h-116v405h-83v60h83v41h-83v60h83v134h191q89 0 150 -36t86 -98h81v-60zM229 566h181q-35 35 -105 35h-76v-35zM438 506h-209v-41h209q1 6 1 20t-1 21zM410 405h-181v-36h76
q71 0 105 36z" />
    <glyph glyph-name="uni20B4" unicode="&#x20b4;" horiz-adv-x="572" 
d="M337 321l-10 -7h201v-79h-303q-28 -33 -28 -70q0 -38 26.5 -59t75.5 -21q92 0 170 78h13v-117q-31 -27 -78.5 -43.5t-104.5 -16.5q-96 0 -155.5 48.5t-59.5 129.5q0 37 14 71h-54v79h109q29 27 61 51h-170v79h284q64 48 64 97q0 34 -27 56t-76 22q-90 0 -161 -77h-14
l5 117q26 24 71.5 39.5t99.5 15.5q62 0 110 -21.5t75 -61.5t27 -92q0 -51 -30 -95h56v-79h-132q-27 -22 -59 -44z" />
    <glyph glyph-name="uni20B8" unicode="&#x20b8;" horiz-adv-x="542" 
d="M37 700h468v-98h-468v98zM213 457h-176v98h468v-98h-176v-457h-116v457z" />
    <glyph glyph-name="uni20B9" unicode="&#x20b9;" horiz-adv-x="652" 
d="M472 611q20 -28 27 -66h87v-89h-86q-14 -72 -72.5 -114.5t-150.5 -42.5h-52l328 -299h-145l-342 320v65h198q48 0 77.5 19t40.5 52h-316v89h314q-12 31 -41 48.5t-75 17.5h-198v89h520v-89h-114z" />
    <glyph glyph-name="uni20BA" unicode="&#x20ba;" horiz-adv-x="593" 
d="M561 282q0 -151 -88.5 -216.5t-248.5 -65.5h-116v226l-86 -34v98l86 34v67l-86 -34v98l86 34v211h116v-164l119 47v-98l-119 -47v-67l119 47v-98l-119 -47v-169q109 0 164.5 38t56.5 140h116z" />
    <glyph glyph-name="uni20BD" unicode="&#x20bd;" horiz-adv-x="583" 
d="M225 270v-82h183v-99h-183v-89h-116v89h-79v99h79v81h-79v99h79v332h191q78 0 134.5 -28t86.5 -76.5t30 -110.5t-30 -110.5t-86.5 -76.5t-134.5 -28h-75zM225 369h76q64 0 99 30t35 86t-34.5 86t-99.5 30h-76v-232z" />
    <glyph glyph-name="uni20BF" unicode="&#x20bf;" horiz-adv-x="600" 
d="M524 73.5q-45 -48.5 -118 -65.5v-84h-93v76h-79v-76h-92v76h-76v700h76v76h92v-76h69h10v76h93v-90q62 -19 95 -61.5t33 -100.5q0 -55 -28 -94.5t-76 -61.5q63 -18 101 -62t38 -108q0 -76 -45 -124.5zM391 575q-28 26 -88 26h-121v-192h121q60 0 88 26t28 70t-28 70z
M421 127.5q32 28.5 32 77.5t-32 77t-94 28h-145v-211h145q62 0 94 28.5z" />
    <glyph glyph-name="uni2113" unicode="&#x2113;" horiz-adv-x="507" 
d="M237.5 88.5q31.5 -34.5 80.5 -34.5q32 0 59 13t66 46v-79q-67 -48 -130 -48q-69 0 -116.5 46.5t-75.5 125.5q-37 -15 -81 -30v68q37 14 47 17l19 8q-14 71 -14 141q0 106 25 185.5t73 123t114 43.5q77 0 120 -52.5t43 -139.5q0 -81 -28.5 -141t-89.5 -105
q-67 -49 -164 -92q21 -61 52.5 -95.5zM169 248q60 26 101 53q65 41 96 93.5t31 127.5q0 60 -24 92t-71 32q-66 0 -104 -76t-38 -208q0 -48 9 -114z" />
    <glyph glyph-name="uni2116" unicode="&#x2116;" horiz-adv-x="1193" 
d="M832 314q-50 28 -79 77t-29 109t29 109t79 77t109 28t109 -28t79 -77t29 -109t-29 -109t-79 -77t-109 -28t-109 28zM66 700h47l398 -457v457h116v-700h-47l-398 459v-459h-116v700zM1020 418q32 32 32 82q0 51 -32 83t-79 32t-79 -32t-32 -83q0 -50 32 -82t79 -32t79 32z
M729 230h424v-98h-424v98z" />
    <glyph glyph-name="uni2117" unicode="&#x2117;" horiz-adv-x="810" 
d="M215 34.5q-84 48.5 -131 132t-47 183.5t47 183.5t131 132t190 48.5t190 -48.5t131 -132t47 -183.5t-47 -183.5t-131 -132t-190 -48.5t-190 48.5zM555.5 93q66.5 40 103 108t36.5 149q0 82 -36.5 150t-103 107.5t-150.5 39.5t-150 -39.5t-103 -107.5t-37 -150
q0 -81 37 -149t103 -108t150 -40t150.5 40zM300 544h114q62 0 98 -32t36 -82q0 -51 -36 -83t-98 -32h-43v-143h-71v372zM403 373q72 0 72 57q0 56 -72 56h-32v-113h32z" />
    <glyph glyph-name="uni2120" unicode="&#x2120;" horiz-adv-x="859" 
d="M103.5 301.5q-31.5 12.5 -53.5 32.5l5 87h14q46 -60 102 -60q26 0 40.5 13.5t14.5 36.5q0 21 -15.5 34.5t-55.5 31.5q-101 45 -101 121q0 48 35 79t88 31q64 0 102 -35l3 -80h-17q-19 22 -42.5 34t-45.5 12t-35 -10.5t-13 -27.5t17 -32t59 -32q103 -44 103 -122
q0 -55 -38 -90.5t-97 -35.5q-38 0 -69.5 12.5zM425 700h33l105 -248l105 248h34l107 -404h-82l-57 214l-94 -214h-26l-94 214l-57 -214h-82z" />
    <glyph glyph-name="trademark" unicode="&#x2122;" horiz-adv-x="705" 
d="M108 643h-88v57h244v-57h-88v-293h-68v293zM353 700h19l99 -221l99 221h19l96 -350h-66l-51 195l-90 -195h-14l-89 195l-52 -195h-66z" />
    <glyph glyph-name="uni2126" unicode="&#x2126;" horiz-adv-x="810" 
d="M66 98h132q-63 48 -103.5 126.5t-40.5 160.5q0 93 45.5 168.5t125.5 118t180 42.5q101 0 181 -42.5t125 -118t45 -168.5q0 -82 -40 -161t-104 -126h133v-98h-288v79q79 47 131 122.5t52 174.5q0 72 -30 126t-83.5 83.5t-121.5 29.5t-121.5 -29.5t-83.5 -83.5t-30 -126
q0 -99 52.5 -174.5t130.5 -122.5v-79h-287v98z" />
    <glyph glyph-name="estimated" unicode="&#x212e;" horiz-adv-x="762" 
d="M157 153q33 -51 94 -82t130 -31q86 0 156.5 39.5t102.5 109.5h56q-43 -88 -128.5 -142t-186.5 -54q-104 0 -184 48t-123.5 129.5t-43.5 179.5q0 99 43.5 181t123.5 129.5t184 47.5q101 0 181 -45.5t125 -127t45 -185.5h-575v-197zM253.5 634q-59.5 -29 -96.5 -78v-159
h453v156q-32 46 -93.5 78t-135.5 32q-68 0 -127.5 -29z" />
    <glyph glyph-name="uni2153" unicode="&#x2153;" horiz-adv-x="605" 
d="M30 667l47 33h24v-350h-71v317zM31 159l333 412l49 -41l-332 -411zM393 -7q-26 7 -44 17l-7 73h10q47 -36 91 -36q30 0 49 17t19 49q0 30 -19 48t-50 18q-18 0 -38 -5l-11 21l67 88h-119v61h229v-8l-83 -108q42 -7 69 -36t27 -75q0 -62 -38.5 -96.5t-96.5 -34.5
q-29 0 -55 7z" />
    <glyph glyph-name="uni2154" unicode="&#x2154;" horiz-adv-x="761" 
d="M14 362l135 164q17 20 24.5 37.5t7.5 36.5q0 21 -15 34.5t-39 13.5q-47 0 -82 -54h-16l4 73q19 19 46.5 29.5t56.5 10.5q54 0 85.5 -28t31.5 -73q0 -28 -13 -56t-43 -63l-64 -76h133v-61h-252v12zM187 159l333 412l49 -41l-332 -411zM549 -7q-26 7 -44 17l-7 73h10
q47 -36 91 -36q30 0 49 17t19 49q0 30 -19 48t-50 18q-18 0 -38 -5l-11 21l67 88h-119v61h229v-8l-83 -108q42 -7 69 -36t27 -75q0 -62 -38.5 -96.5t-96.5 -34.5q-29 0 -55 7z" />
    <glyph glyph-name="oneeighth" unicode="&#x215b;" horiz-adv-x="577" 
d="M30 667l47 33h24v-350h-71v317zM31 159l333 412l49 -41l-332 -411zM346.5 18.5q-33.5 32.5 -33.5 75.5q0 32 15 54.5t39 34.5q-41 31 -41 75q0 38 31 65t78 27q48 0 78.5 -27t30.5 -65q0 -43 -40 -75q23 -12 38 -34.5t15 -54.5q0 -43 -33.5 -75.5t-88.5 -32.5t-88.5 32.5
zM468 223q13 12 13 31t-13 31t-33 12t-32.5 -12t-12.5 -31t12.5 -31t32.5 -12t33 12zM475.5 59q16.5 16 16.5 41t-16.5 41t-40.5 16t-40.5 -16t-16.5 -41t16.5 -41t40.5 -16t40.5 16z" />
    <glyph glyph-name="threeeighths" unicode="&#x215c;" horiz-adv-x="708" 
d="M80 350q-26 7 -44 17l-7 73h10q45 -36 91 -36q31 0 49.5 17t18.5 49q0 30 -19 48t-50 18q-14 0 -38 -6l-11 21l67 88h-119v61h229v-8l-83 -107q42 -8 69 -37t27 -75q0 -62 -38.5 -96t-96.5 -34q-29 0 -55 7zM162 159l333 412l49 -41l-332 -411zM477.5 18.5
q-33.5 32.5 -33.5 75.5q0 32 15 54.5t39 34.5q-41 31 -41 75q0 38 31 65t78 27q48 0 78.5 -27t30.5 -65q0 -43 -40 -75q23 -12 38 -34.5t15 -54.5q0 -43 -33.5 -75.5t-88.5 -32.5t-88.5 32.5zM599 223q13 12 13 31t-13 31t-33 12t-32.5 -12t-12.5 -31t12.5 -31t32.5 -12
t33 12zM606.5 59q16.5 16 16.5 41t-16.5 41t-40.5 16t-40.5 -16t-16.5 -41t16.5 -41t40.5 -16t40.5 16z" />
    <glyph glyph-name="fiveeighths" unicode="&#x215d;" horiz-adv-x="697" 
d="M82.5 347q-19.5 4 -44.5 13l-15 75h10q43 -30 91 -30q32 0 50.5 16.5t18.5 46.5q0 31 -18 47t-50 16q-40 0 -84 -22l-16 3l23 188h198v-60h-145l-11 -64q23 10 56 10q55 0 86.5 -31.5t31.5 -86.5q0 -57 -39 -91t-96 -34q-27 0 -46.5 4zM151 159l333 412l49 -41l-332 -411
zM466.5 18.5q-33.5 32.5 -33.5 75.5q0 32 15 54.5t39 34.5q-41 31 -41 75q0 38 31 65t78 27q48 0 78.5 -27t30.5 -65q0 -43 -40 -75q23 -12 38 -34.5t15 -54.5q0 -43 -33.5 -75.5t-88.5 -32.5t-88.5 32.5zM588 223q13 12 13 31t-13 31t-33 12t-32.5 -12t-12.5 -31t12.5 -31
t32.5 -12t33 12zM595.5 59q16.5 16 16.5 41t-16.5 41t-40.5 16t-40.5 -16t-16.5 -41t16.5 -41t40.5 -16t40.5 16z" />
    <glyph glyph-name="seveneighths" unicode="&#x215e;" horiz-adv-x="648" 
d="M177 639h-160v61h255v-12l-167 -338h-74zM82 159l333 412l49 -41l-332 -411zM417.5 18.5q-33.5 32.5 -33.5 75.5q0 32 15 54.5t39 34.5q-41 31 -41 75q0 38 31 65t78 27q48 0 78.5 -27t30.5 -65q0 -43 -40 -75q23 -12 38 -34.5t15 -54.5q0 -43 -33.5 -75.5t-88.5 -32.5
t-88.5 32.5zM539 223q13 12 13 31t-13 31t-33 12t-32.5 -12t-12.5 -31t12.5 -31t32.5 -12t33 12zM546.5 59q16.5 16 16.5 41t-16.5 41t-40.5 16t-40.5 -16t-16.5 -41t16.5 -41t40.5 -16t40.5 16z" />
    <glyph glyph-name="arrowleft" unicode="&#x2190;" horiz-adv-x="562" 
d="M519 290h-311l71 -55v-80h-17l-219 173v17l219 172h17v-79l-69 -54h309v-94z" />
    <glyph glyph-name="arrowup" unicode="&#x2191;" horiz-adv-x="472" 
d="M188 419l-53 -70h-80v18l173 218h16l173 -219v-17h-80l-55 72v-311h-94v309z" />
    <glyph glyph-name="arrowright" unicode="&#x2192;" horiz-adv-x="562" 
d="M352 385l-69 53v80h17l219 -173v-16l-219 -173h-17v80l71 55h-311v94h309z" />
    <glyph glyph-name="arrowdown" unicode="&#x2193;" horiz-adv-x="472" 
d="M282 587v-311l55 71h80v-17l-173 -219h-16l-173 219v17h80l53 -69v309h94z" />
    <glyph glyph-name="arrowboth" unicode="&#x2194;" horiz-adv-x="760" 
d="M717 346v-17l-219 -173h-17v80l72 55h-345l71 -55v-80h-17l-219 173v17l219 172h17v-79l-69 -54h341l-70 54v79h18z" />
    <glyph glyph-name="arrowupdn" unicode="&#x2195;" horiz-adv-x="468" 
d="M53 219v17h80l53 -69v367l-53 -70h-80v18l173 218h16l173 -219v-17h-80l-55 72v-371l55 71h80v-17l-173 -219h-16z" />
    <glyph glyph-name="uni2196" unicode="&#x2196;" horiz-adv-x="461" 
d="M169 395l49 -49v0l-13 13l-154 154v0l155 -155l12 -12v0l-51 51l220 -220v0z" />
    <glyph glyph-name="uni2197" unicode="&#x2197;" horiz-adv-x="462" 
d="M261 422l-87 -11l-56 56l13 13l276 32l12 -11l-33 -278l-12 -12l-56 57l11 89l-220 -219l-66 66z" />
    <glyph glyph-name="uni2198" unicode="&#x2198;" horiz-adv-x="461" 
d="M328 312l-11 87l56 56l12 -13l33 -276l-12 -12l-277 33l-12 12l56 56l90 -11l-220 220l66 66z" />
    <glyph glyph-name="uni2199" unicode="&#x2199;" horiz-adv-x="462" 
d="M200 244l87 11l56 -56l-12 -13l-277 -32l-11 11l32 278l12 12l57 -57l-12 -89l220 219l67 -66z" />
    <glyph glyph-name="partialdiff" unicode="&#x2202;" horiz-adv-x="572" 
d="M153.5 18q-55.5 32 -87 86t-31.5 118q0 67 32 120t85.5 82.5t114.5 29.5q42 0 78 -15t62 -40q-5 65 -32 116t-68.5 79t-89.5 28q-32 0 -55.5 -6.5t-50.5 -20.5l-11 6l24 99q58 14 104 14q99 0 168 -58t103.5 -155t34.5 -213q0 -92 -32.5 -160.5t-90.5 -105t-134 -36.5
q-68 0 -123.5 32zM348 102.5q31 17.5 49 49t18 70.5t-18 70.5t-49 49.5t-67 18q-56 0 -94.5 -39.5t-38.5 -98.5t38.5 -98t94.5 -39q36 0 67 17.5z" />
    <glyph glyph-name="uni2206" unicode="&#x2206;" horiz-adv-x="658" 
d="M28 55l243 645h117l242 -645v-55h-602v55zM506 92l-177 482l-177 -482h354z" />
    <glyph glyph-name="product" unicode="&#x220f;" horiz-adv-x="624" 
d="M66 700h492v-926h-116v828h-260v-828h-116v926z" />
    <glyph glyph-name="summation" unicode="&#x2211;" horiz-adv-x="589" 
d="M35 35l223 335l-207 295v35h483v-98h-304l158 -232l-182 -272h348v-98h-519v35z" />
    <glyph glyph-name="minus" unicode="&#x2212;" horiz-adv-x="488" 
d="M40 350h408v-86h-408v86z" />
    <glyph glyph-name="uni2215" unicode="&#x2215;" horiz-adv-x="480" 
d="M391 772h109l-412 -848h-108z" />
    <glyph glyph-name="uni2219" unicode="&#x2219;" horiz-adv-x="322" 
d="M92.5 241.5q-28.5 28.5 -28.5 68.5q0 41 28.5 69t68.5 28q41 0 69 -28t28 -69q0 -40 -28 -68.5t-69 -28.5q-40 0 -68.5 28.5z" />
    <glyph glyph-name="radical" unicode="&#x221a;" horiz-adv-x="523" 
d="M107 291h-90v89h167l71 -230l145 550h100l-188 -700h-105z" />
    <glyph glyph-name="infinity" unicode="&#x221e;" horiz-adv-x="561" 
d="M227 -9q-57 11 -98 44t-62.5 77t-21.5 88q0 63 30.5 109.5t78.5 73.5q-81 58 -81 147q0 65 42 114t112 65v67h35v-62h19h18v62h36v-67q69 -16 111.5 -65.5t42.5 -113.5q0 -89 -81 -147q48 -27 78 -73t30 -110q0 -44 -21 -88t-62.5 -77t-97.5 -44v-67h-36v62h-18h-19v-62
h-35v67zM299 430v192q-10 2 -18 2q-9 0 -19 -2v-192q7 -1 19 -1q11 0 18 1zM227 609q-23 -12 -36 -33.5t-13 -49.5q0 -27 13 -49t36 -34v166zM371 477q13 22 13 49q0 28 -13 49.5t-36 33.5v-166q23 12 36 34zM299 85v247q-12 2 -18 2q-7 0 -19 -2v-247q8 -1 19 -1q10 0 18 1
zM227 322q-32 -14 -51.5 -43.5t-19.5 -69.5q0 -41 19.5 -70.5t51.5 -42.5v226zM386.5 138.5q19.5 29.5 19.5 70.5q0 40 -19.5 69.5t-51.5 43.5v-226q32 13 51.5 42.5z" />
    <glyph glyph-name="integral" unicode="&#x222b;" horiz-adv-x="555" 
d="M48.5 -211q-19.5 5 -38.5 16l15 96h10q11 -13 27 -19.5t31 -6.5q58 0 70 64l124 625q15 73 61.5 111.5t109.5 38.5q29 0 48.5 -5t38.5 -16l-15 -96h-10q-11 13 -27 19.5t-31 6.5q-58 0 -70 -64l-124 -625q-15 -73 -60.5 -111.5t-110.5 -38.5q-29 0 -48.5 5z" />
    <glyph glyph-name="approxequal" unicode="&#x2248;" horiz-adv-x="482" 
d="M278 190q-24 8 -55 23q-28 13 -45 19t-36 6q-24 0 -45 -11.5t-43 -33.5h-8l7 90q39 45 100 45q27 0 50 -8t55 -23q27 -13 45 -19t37 -6q47 0 88 44h8l-7 -90q-38 -44 -100 -44q-27 0 -51 8zM278 360q-24 8 -55 23q-28 13 -45 19t-36 6q-24 0 -45 -11.5t-43 -33.5h-8l7 90
q39 45 100 45q27 0 50 -8t55 -23q27 -13 45 -19t37 -6q47 0 88 44h8l-7 -90q-38 -44 -100 -44q-27 0 -51 8z" />
    <glyph glyph-name="notequal" unicode="&#x2260;" horiz-adv-x="500" 
d="M122 150h-76v86h122l71 134h-193v86h239l40 74h93l-40 -74h76v-86h-121l-72 -134h193v-86h-239l-39 -74h-94z" />
    <glyph glyph-name="lessequal" unicode="&#x2264;" horiz-adv-x="500" 
d="M82 295v80l311 213h15v-100l-229 -153l229 -152v-101h-15zM46 26h408v-86h-408v86z" />
    <glyph glyph-name="greaterequal" unicode="&#x2265;" horiz-adv-x="500" 
d="M82 183l230 152l-230 153v100h16l310 -213v-80l-310 -213h-16v101zM46 26h408v-86h-408v86z" />
    <glyph glyph-name="lozenge" unicode="&#x25ca;" horiz-adv-x="562" 
d="M12 350l210 350h118l210 -350l-210 -350h-118zM434 350l-153 258l-153 -258l153 -258z" />
    <glyph glyph-name="uniF8FF" unicode="&#xf8ff;" horiz-adv-x="780" 
d="M100.5 6.5q-6.5 6.5 -6.5 15.5v595q0 7 4.5 13.5t11.5 8.5l270 78l10 2l10 -2l270 -78q7 -2 11.5 -8.5t4.5 -13.5v-595q0 -9 -6.5 -15.5t-15.5 -6.5l-7 1l-267 77l-267 -77l-7 -1q-9 0 -15.5 6.5zM368 669l-230 -67q4 -62 35 -114t82.5 -84.5t112.5 -37.5v303z
M524.5 403.5q51.5 32.5 82.5 84.5t35 114l-230 67v-303q61 5 112.5 37.5zM368 118v204q-73 6 -134 43.5t-97 97.5v-412zM643 463q-37 -60 -97.5 -97.5t-133.5 -43.5v-204l231 -67v412z" />
    <glyph glyph-name="fi" unicode="&#xfb01;" horiz-adv-x="573" 
d="M512 0h-106v402h-199v-402h-106v402h-60v92h60v64q0 49 21.5 84.5t55.5 53.5t73 18q26 0 45.5 -5t39.5 -16l4 -96h-10q-13 13 -30.5 19.5t-32.5 6.5q-28 0 -44 -17.5t-16 -48.5v-63h305v-494zM409.5 595.5q-20.5 20.5 -20.5 48.5q0 29 20 49.5t49 20.5t49.5 -20.5
t20.5 -49.5t-20.5 -49t-49.5 -20q-28 0 -48.5 20.5z" />
    <glyph glyph-name="fl" unicode="&#xfb02;" horiz-adv-x="582" 
d="M101 402h-60v92h60v64q0 49 21.5 84.5t55.5 53.5t73 18q26 0 45.5 -5t39.5 -16l4 -96h-10q-13 13 -30.5 19.5t-32.5 6.5q-28 0 -44 -17.5t-16 -48.5v-63h84v-92h-84v-402h-106v402zM415 720h106v-720h-106v720z" />
    <glyph glyph-name="i.loclTRK" horiz-adv-x="228" 
d="M61 494h106v-494h-106v494zM65 596q-20 20 -20 49t20 49t49 20q28 0 48.5 -20t20.5 -49t-20 -49t-49 -20t-49 20z" />
    <glyph glyph-name="y.ss04" horiz-adv-x="551" 
d="M76 -199l-4 103h18q32 -23 67.5 -35.5t81.5 -12.5q73 0 115.5 42.5t42.5 130.5v38q-28 -37 -71.5 -59t-93.5 -22q-78 0 -127.5 47t-49.5 129v332h106v-302q0 -51 29.5 -79.5t78.5 -28.5q55 0 91.5 39.5t36.5 104.5v266h106v-449q0 -145 -71 -215t-193 -70q-95 0 -163 41z
" />
    <glyph glyph-name="yacute.ss04" horiz-adv-x="551" 
d="M76 -199l-4 103h18q32 -23 67.5 -35.5t81.5 -12.5q73 0 115.5 42.5t42.5 130.5v38q-28 -37 -71.5 -59t-93.5 -22q-78 0 -127.5 47t-49.5 129v332h106v-302q0 -51 29.5 -79.5t78.5 -28.5q55 0 91.5 39.5t36.5 104.5v266h106v-449q0 -145 -71 -215t-193 -70q-95 0 -163 41z
M309 700h141l-143 -137h-90z" />
    <glyph glyph-name="ycircumflex.ss04" horiz-adv-x="551" 
d="M76 -199l-4 103h18q32 -23 67.5 -35.5t81.5 -12.5q73 0 115.5 42.5t42.5 130.5v38q-28 -37 -71.5 -59t-93.5 -22q-78 0 -127.5 47t-49.5 129v332h106v-302q0 -51 29.5 -79.5t78.5 -28.5q55 0 91.5 39.5t36.5 104.5v266h106v-449q0 -145 -71 -215t-193 -70q-95 0 -163 41z
M217 700h125l96 -137h-81l-78 75l-77 -75h-81z" />
    <glyph glyph-name="ydieresis.ss04" horiz-adv-x="551" 
d="M76 -199l-4 103h18q32 -23 67.5 -35.5t81.5 -12.5q73 0 115.5 42.5t42.5 130.5v38q-28 -37 -71.5 -59t-93.5 -22q-78 0 -127.5 47t-49.5 129v332h106v-302q0 -51 29.5 -79.5t78.5 -28.5q55 0 91.5 39.5t36.5 104.5v266h106v-449q0 -145 -71 -215t-193 -70q-95 0 -163 41z
M141 583.5q-18 18.5 -18 43.5q0 26 18.5 45t43.5 19q26 0 45 -19t19 -45q0 -25 -19 -43.5t-45 -18.5t-44 18.5zM327 583.5q-18 18.5 -18 43.5q0 26 18.5 45t43.5 19q26 0 45.5 -19t19.5 -45q0 -25 -19.5 -43.5t-45.5 -18.5t-44 18.5z" />
    <glyph glyph-name="j.ss05" horiz-adv-x="228" 
d="M65 595.5q-20 20.5 -20 48.5q0 29 20 49.5t48 20.5q29 0 50 -20.5t21 -49.5q0 -28 -21 -48.5t-50 -20.5q-28 0 -48 20.5zM61 494h106v-720h-106v720z" />
    <glyph glyph-name="uni0237.ss05" horiz-adv-x="195" 
d="M45 494h106v-720h-106v720z" />
    <glyph glyph-name="jcircumflex.ss05" horiz-adv-x="195" 
d="M45 494h106v-720h-106v720zM35 700h125l96 -137h-81l-78 75l-77 -75h-81z" />
    <glyph glyph-name="f_f_j" horiz-adv-x="882" 
d="M817 -77q0 -81 -38.5 -122t-104.5 -41q-39 0 -67 17l-10 91h15q14 -9 24.5 -13t25.5 -4q49 0 49 58v493h-198v-402h-106v402h-199v-402h-106v402h-61v92h61v64q0 48 21.5 83.5t55.5 54t73 18.5q26 0 46 -5t40 -16l3 -96h-9q-13 12 -30 19t-33 7q-28 0 -44.5 -18
t-16.5 -49v-62h199v64q0 49 21 84.5t55.5 53.5t72.5 18q27 0 45.5 -5t39.5 -16l4 -96h-10q-13 13 -30.5 19.5t-32.5 6.5q-27 0 -43 -17.5t-16 -48.5v-63h304v-571zM715.5 595.5q-20.5 20.5 -20.5 48.5q0 29 20.5 49.5t48.5 20.5q29 0 49.5 -20.5t20.5 -49.5
q0 -28 -20.5 -48.5t-49.5 -20.5q-28 0 -48.5 20.5z" />
    <glyph glyph-name="f_j" horiz-adv-x="577" 
d="M512 -77q0 -81 -39 -122t-105 -41q-39 0 -67 17l-10 91h15q14 -9 24.5 -13t25.5 -4q50 0 50 58v493h-199v-402h-106v402h-60v92h60v64q0 49 21.5 84.5t55.5 53.5t73 18q26 0 45.5 -5t39.5 -16l4 -96h-10q-13 13 -30.5 19.5t-32.5 6.5q-28 0 -44 -17.5t-16 -48.5v-63h305
v-571zM410 595.5q-20 20.5 -20 48.5q0 29 20 49.5t48 20.5q29 0 50 -20.5t21 -49.5q0 -28 -21 -48.5t-50 -20.5q-28 0 -48 20.5z" />
    <glyph glyph-name="f_f_j.ss05" horiz-adv-x="882" 
d="M711 402h-198v-402h-106v402h-199v-402h-106v402h-61v92h61v64q0 48 21.5 83.5t55.5 54t73 18.5q26 0 46 -5t40 -16l3 -96h-9q-13 12 -30 19t-33 7q-28 0 -44.5 -18t-16.5 -49v-62h199v64q0 49 21 84.5t55.5 53.5t72.5 18q27 0 45.5 -5t39.5 -16l4 -96h-10
q-13 13 -30.5 19.5t-32.5 6.5q-27 0 -43 -17.5t-16 -48.5v-63h304v-720h-106v628zM715.5 595.5q-20.5 20.5 -20.5 48.5q0 29 20.5 49.5t48.5 20.5q29 0 49.5 -20.5t20.5 -49.5q0 -28 -20.5 -48.5t-49.5 -20.5q-28 0 -48.5 20.5z" />
    <glyph glyph-name="f_j.ss05" horiz-adv-x="577" 
d="M512 -226h-106v628h-199v-402h-106v402h-60v92h60v64q0 49 21.5 84.5t55.5 53.5t73 18q26 0 45.5 -5t39.5 -16l4 -96h-10q-13 13 -30.5 19.5t-32.5 6.5q-28 0 -44 -17.5t-16 -48.5v-63h305v-720zM410 595.5q-20 20.5 -20 48.5q0 29 20 49.5t48 20.5q29 0 50 -20.5
t21 -49.5q0 -28 -21 -48.5t-50 -20.5q-28 0 -48 20.5z" />
    <glyph glyph-name="uni0414.loclBGR" horiz-adv-x="725" 
d="M688 99v-229h-116v130h-419v-130h-116v229h52l249 601h50l248 -601h52zM519 99l-156 392l-156 -392h312z" />
    <glyph glyph-name="uni041B.loclBGR" horiz-adv-x="678" 
d="M322 700h34l307 -700h-119l-205 482l-205 -482h-119z" />
    <glyph glyph-name="uni0432.loclBGR" horiz-adv-x="560" 
d="M128.5 45q-67.5 59 -67.5 193v254q0 60 24 110.5t73.5 81t124.5 30.5q63 0 111 -23t74.5 -65.5t26.5 -98.5q0 -118 -102 -159q61 -14 94.5 -58t33.5 -109q0 -67 -31 -115.5t-83.5 -74t-114.5 -25.5q-96 0 -163.5 59zM274 406q53 0 84.5 28t31.5 78q0 49 -30 77t-79 28
q-51 0 -82.5 -31.5t-31.5 -96.5v-83h107zM382 116q33 33 33 83q0 55 -36.5 85t-100.5 30h-111v-65q0 -85 34 -125.5t95 -40.5q53 0 86 33z" />
    <glyph glyph-name="uni0433.loclBGR" horiz-adv-x="423" 
d="M84.5 24.5q-52.5 38.5 -52.5 109.5q0 60 35.5 96t100.5 58q58 20 82 37t24 44q0 23 -20.5 35.5t-52.5 12.5q-37 0 -67 -11t-63 -35h-7l4 102q57 35 133 35t124 -38.5t48 -100.5q0 -53 -35 -90.5t-94 -57.5t-82.5 -36t-23.5 -44q0 -27 22 -42.5t60 -15.5t71 13.5t66 38.5
h6l24 -100q-74 -49 -170 -49q-80 0 -132.5 38.5z" />
    <glyph glyph-name="uni0434.loclBGR" horiz-adv-x="608" 
d="M122 -199l-4 102h19q31 -22 66 -34t81 -12q72 0 114.5 40t42.5 115v54q-26 -32 -68 -49t-92 -17q-67 0 -123.5 32.5t-89.5 90.5t-33 131q0 77 35.5 134.5t92.5 88.5t120 31q53 0 93 -18t65 -49v53h106v-449q0 -147 -71 -216t-197 -69q-89 0 -157 41zM377.5 118.5
q34.5 21.5 52.5 57.5t18 78t-18 78t-52.5 57.5t-82.5 21.5t-83 -21.5t-53 -57.5t-18 -78t18 -78t53 -57.5t83 -21.5t82.5 21.5z" />
    <glyph glyph-name="uni0436.loclBGR" horiz-adv-x="738" 
d="M212 263l-191 231h120l175 -215v421h106v-421l176 215h119l-190 -231l198 -263h-123l-180 241v-241h-106v241l-179 -241h-124z" />
    <glyph glyph-name="uni0437.loclBGR" horiz-adv-x="536" 
d="M148.5 -226.5q-46.5 13.5 -83.5 36.5l-14 120h12q38 -36 85.5 -54.5t93.5 -18.5q66 0 103.5 34t37.5 93q0 54 -35.5 85t-97.5 31h-74v92h74q51 0 79.5 32.5t28.5 81.5t-31.5 78t-90.5 29q-47 0 -90 -25t-71 -73h-12l7 119q31 33 78 53.5t103 20.5q65 0 113.5 -24.5
t74 -68.5t25.5 -101q0 -54 -29.5 -99t-71.5 -60q51 -11 88.5 -55.5t37.5 -115.5q0 -68 -32 -119t-87.5 -78t-125.5 -27q-49 0 -95.5 13.5z" />
    <glyph glyph-name="uni0438.loclBGR" horiz-adv-x="564" 
d="M103 31q-48 45 -48 127v336h106v-304q0 -51 29 -79t78 -28q55 0 92 41t37 105v265h106v-494h-106v68q-27 -37 -72 -59.5t-95 -22.5q-79 0 -127 45z" />
    <glyph glyph-name="uni0439.loclBGR" horiz-adv-x="564" 
d="M103 31q-48 45 -48 127v336h106v-304q0 -51 29 -79t78 -28q55 0 92 41t37 105v265h106v-494h-106v68q-27 -37 -72 -59.5t-95 -22.5q-79 0 -127 45zM191.5 597q-33.5 31 -33.5 83h74q2 -21 14 -34.5t34 -13.5t33.5 13.5t13.5 34.5h74q0 -52 -33.5 -83t-87.5 -31
q-55 0 -88.5 31z" />
    <glyph glyph-name="uni043A.loclBGR" horiz-adv-x="500" 
d="M61 720h106v-438l185 212h126l-201 -230l210 -264h-132l-188 238v-238h-106v720z" />
    <glyph glyph-name="uni043B.loclBGR" horiz-adv-x="536" 
d="M254 494h28l238 -494h-113l-139 296l-139 -296h-113z" />
    <glyph glyph-name="uni043F.loclBGR" horiz-adv-x="564" 
d="M61 494h106v-67q27 37 72 59t95 22q79 0 127 -45t48 -127v-336h-106v304q0 51 -29 79t-78 28q-55 0 -92 -41t-37 -105v-265h-106v494z" />
    <glyph glyph-name="uni0442.loclBGR" horiz-adv-x="821" 
d="M61 494h106v-61q23 34 63.5 54.5t85.5 20.5q100 0 136 -75q28 35 70 55t91 20q73 0 113 -42t40 -115v-351h-106v319q0 45 -22.5 68.5t-63.5 23.5q-44 0 -75 -33.5t-31 -86.5v-291h-106v319q0 46 -23.5 69t-63.5 23q-47 0 -77.5 -37t-30.5 -98v-276h-106v494z" />
    <glyph glyph-name="uni0446.loclBGR" horiz-adv-x="610" 
d="M471 0h-74v68q-27 -37 -72 -59.5t-95 -22.5q-79 0 -127 45t-48 127v336h106v-304q0 -51 29 -79t78 -28q55 0 92 41t37 105v265h106v-398h68v-204h-100v108z" />
    <glyph glyph-name="uni0448.loclBGR" horiz-adv-x="827" 
d="M101.5 28q-40.5 42 -40.5 115v351h106v-319q0 -44 23 -68t63 -24q45 0 75.5 33.5t30.5 86.5v291h106v-318q0 -46 23.5 -69.5t63.5 -23.5q47 0 77.5 37t30.5 98v276h106v-494h-106v61q-23 -33 -63.5 -54t-85.5 -21q-98 0 -136 76q-27 -36 -69 -56t-92 -20q-72 0 -112.5 42
z" />
    <glyph glyph-name="uni0449.loclBGR" horiz-adv-x="877" 
d="M735 0h-75v61q-23 -33 -63.5 -54t-85.5 -21q-98 0 -136 76q-27 -36 -69 -56t-92 -20q-72 0 -112.5 42t-40.5 115v351h106v-319q0 -44 23 -68t63 -24q45 0 75.5 33.5t30.5 86.5v291h106v-318q0 -46 23.5 -69.5t63.5 -23.5q47 0 77.5 37t30.5 98v276h106v-398h69v-204h-100
v108z" />
    <glyph glyph-name="uni044C.loclBGR" horiz-adv-x="510" 
d="M120 40.5q-59 54.5 -59 157.5v296h106v-163q22 12 53 19.5t64 7.5q55 0 98.5 -24t68 -66t24.5 -94q0 -59 -28.5 -101.5t-75 -64.5t-98.5 -22q-94 0 -153 54.5zM342.5 103q26.5 28 26.5 69q0 43 -26.5 67.5t-70.5 24.5q-55 0 -105 -28v-49q0 -51 28 -81.5t76 -30.5
q45 0 71.5 28z" />
    <glyph glyph-name="uni044A.loclBGR" horiz-adv-x="571" 
d="M181 41q-59 55 -59 157v207h-105v89h211v-162q23 11 53.5 18.5t63.5 7.5q55 0 98.5 -24t68 -66t24.5 -94q0 -59 -28.5 -101.5t-75 -64.5t-98.5 -22q-94 0 -153 55zM403.5 103q26.5 28 26.5 69q0 43 -26.5 67.5t-70.5 24.5q-54 0 -105 -27v-50q0 -51 28 -81.5t76 -30.5
q45 0 71.5 28z" />
    <glyph glyph-name="uni044E.loclBGR" horiz-adv-x="754" 
d="M357.5 13.5q-51.5 27.5 -84 77t-41.5 112.5h-65v-203h-106v700h106v-408h65q14 96 79.5 156t162.5 60q72 0 127.5 -34t86.5 -93.5t31 -133.5t-31 -133.5t-86.5 -93.5t-127.5 -34q-65 0 -116.5 27.5zM576 128.5q37 45.5 37 118.5t-37 118.5t-102 45.5t-102 -45t-37 -119
t37 -119t102 -45t102 45.5z" />
    <glyph glyph-name="delta.ss06" horiz-adv-x="563" 
d="M159.5 16.5q-56.5 31.5 -90.5 89.5t-34 134q0 68 28.5 122.5t81 87t122.5 38.5l-177 192v20h377v-92h-191l141 -144q56 -58 83.5 -109t27.5 -117q0 -75 -34 -133t-90 -89t-122 -31t-122.5 31.5zM353.5 98.5q33.5 18.5 54 55t20.5 86.5q0 51 -20.5 87.5t-54 54.5t-71.5 18
t-71.5 -18t-54 -54t-20.5 -87t20.5 -87.5t54 -55t71.5 -18.5t71.5 18.5z" />
    <glyph glyph-name="zero.osf" horiz-adv-x="564" 
d="M155.5 20q-56.5 34 -88.5 93.5t-32 133.5q0 75 32 134.5t88 93t127 33.5t127.5 -33.5t88 -93t31.5 -134.5q0 -74 -31.5 -133.5t-88 -93.5t-127.5 -34q-70 0 -126.5 34zM381 129q36 45 36 118t-36 118t-99 45q-62 0 -98.5 -45t-36.5 -118t36.5 -118t98.5 -45q63 0 99 45z
" />
    <glyph glyph-name="one.osf" horiz-adv-x="238" 
d="M61 438l83 56h33v-494h-116v438z" />
    <glyph glyph-name="two.osf" horiz-adv-x="477" 
d="M44 30l187 173q47 44 65.5 73.5t18.5 59.5q0 38 -25 59t-71 21t-84.5 -25t-65.5 -71h-14l9 115q31 34 75 53.5t98 19.5q82 0 134 -41.5t52 -115.5q0 -51 -27.5 -96.5t-88.5 -98.5l-71 -62h215v-94h-407v30z" />
    <glyph glyph-name="three.osf" horiz-adv-x="551" 
d="M149 -153q-46 13 -79 32l-14 119h12q38 -30 83.5 -48t93.5 -18q66 0 103.5 36t37.5 93q0 56 -37 89t-101 33q-38 0 -76 -9l-11 25l136 197h-238v98h413v-15l-156 -215q83 -9 133 -61.5t50 -137.5q0 -67 -30 -119.5t-86.5 -82t-133.5 -29.5q-54 0 -100 13z" />
    <glyph glyph-name="four.osf" horiz-adv-x="540" 
d="M305 -3h-287v55l369 442h34v-403h81v-94h-81v-155h-116v155zM305 91v175l-144 -175h144z" />
    <glyph glyph-name="five.osf" horiz-adv-x="517" 
d="M63 -125l-25 122h11q41 -31 88 -48t89 -17q60 0 101 33.5t41 97.5q0 62 -39 92t-97 30q-42 0 -84.5 -14.5t-80.5 -39.5l-24 4l44 359h353v-98h-267l-23 -145q61 26 118 26t105 -23.5t77 -71t29 -114.5q0 -72 -32.5 -125t-89.5 -81t-128 -28q-84 0 -166 41z" />
    <glyph glyph-name="six.osf" horiz-adv-x="568" 
d="M159 26q-56 40 -84.5 109t-28.5 156q0 97 31 181t94.5 136t156.5 52q74 0 126 -33l11 -111h-14q-60 46 -123 46q-145 0 -166 -206q29 32 69.5 49t85.5 17q57 0 105 -26.5t76 -74t28 -107.5q0 -65 -32 -117t-85.5 -81.5t-114.5 -29.5q-79 0 -135 40zM380 119.5
q34 35.5 34 87.5t-34 87t-89 35q-54 0 -88 -35t-34 -87t34 -87.5t88 -35.5q55 0 89 35.5z" />
    <glyph glyph-name="seven.osf" horiz-adv-x="536" 
d="M357 396h-305v98h465v-15l-312 -641h-121z" />
    <glyph glyph-name="eight.osf" horiz-adv-x="539" 
d="M150 14.5q-51 28.5 -78 74.5t-27 98q0 56 28.5 99.5t73.5 65.5q-75 57 -75 134q0 47 26 87t71.5 63.5t100.5 23.5q54 0 99.5 -23.5t71.5 -63.5t26 -87q0 -78 -74 -134q45 -22 73 -65.5t28 -99.5q0 -52 -27 -98t-78 -74.5t-119 -28.5q-69 0 -120 28.5zM334.5 418
q24.5 24 24.5 64q0 36 -25 60.5t-64 24.5t-64.5 -24.5t-25.5 -60.5q0 -40 25 -64t65 -24t64.5 24zM351 114.5q32 30.5 32 80.5q0 51 -32 82t-81 31q-50 0 -82 -31t-32 -82q0 -50 32.5 -80.5t81.5 -30.5t81 30.5z" />
    <glyph glyph-name="nine.osf" horiz-adv-x="565" 
d="M406 468.5q56 -39.5 84.5 -108.5t28.5 -156q0 -97 -30.5 -181.5t-94 -136.5t-156.5 -52q-73 0 -126 33l-12 111h15q60 -46 123 -46q144 0 165 206q-29 -31 -69.5 -48.5t-84.5 -17.5q-57 0 -105 26.5t-76.5 74t-28.5 108.5q0 65 32.5 116.5t85.5 81t114 29.5
q79 0 135 -39.5zM186 374.5q-34 -35.5 -34 -87.5t34 -87t88 -35q55 0 89 35t34 87t-34 87.5t-89 35.5q-54 0 -88 -35.5z" />
    <glyph glyph-name="one.osf.ss02" horiz-adv-x="302" 
d="M128 331l-81 -54h-12v99l173 118h33v-494h-113v331z" />
    <glyph glyph-name="zero.osf.zero" horiz-adv-x="564" 
d="M155.5 20q-56.5 34 -88.5 93.5t-32 133.5q0 75 32 134.5t88 93t127 33.5t127.5 -33.5t88 -93t31.5 -134.5q0 -74 -31.5 -133.5t-88 -93.5t-127.5 -34q-70 0 -126.5 34zM359 394q-34 24 -77 24q-65 0 -103 -47t-38 -124q0 -33 9 -62zM385 124q38 47 38 123q0 36 -9 66
l-211 -211q33 -25 79 -25q65 0 103 47z" />
    <glyph glyph-name="one.ss02" horiz-adv-x="363" 
d="M181 536l-124 -84h-12v99l219 149h33v-700h-116v536z" />
    <glyph glyph-name="zero.tf" 
d="M164 33q-69 47 -106 129.5t-37 187.5t37 187.5t106 129.5t161 47t160.5 -47t105.5 -129.5t37 -187.5t-37 -187.5t-105.5 -129.5t-160.5 -47t-161 47zM462 155.5q50 70.5 50 194.5t-50 194.5t-137 70.5t-137.5 -70.5t-50.5 -194.5t50.5 -194.5t137.5 -70.5t137 70.5z" />
    <glyph glyph-name="one.tf" 
d="M98 99h169v437l-124 -84h-12v99l219 149h33v-601h170v-99h-455v99z" />
    <glyph glyph-name="two.tf" 
d="M89 15l273 338q34 43 49.5 77.5t15.5 73.5q0 52 -33 82t-85 30t-98 -29.5t-77 -78.5h-12l7 128q36 37 86 57.5t102 20.5q68 0 118 -25.5t76.5 -70.5t26.5 -103q0 -57 -24 -110t-71 -109l-163 -198h283v-98h-474v15z" />
    <glyph glyph-name="three.tf" 
d="M111 31l-13 120h11q44 -31 88.5 -49t93.5 -18q68 0 113 40t45 110t-43.5 110.5t-117.5 40.5q-41 0 -78 -9l-11 25l151 201h-257v98h436v-15l-170 -219q89 -14 145 -71t56 -155q0 -77 -34 -134.5t-95 -88.5t-140 -31q-98 0 -180 45z" />
    <glyph glyph-name="four.tf" 
d="M388 167h-316v55l398 478h34v-435h75v-98h-75v-167h-116v167zM388 265v204l-167 -204h167z" />
    <glyph glyph-name="five.tf" 
d="M206.5 -6q-36.5 8 -89.5 28l-25 128h11q88 -66 188 -66q68 0 113 38.5t45 110.5q0 71 -43 110.5t-111 39.5q-82 0 -174 -55l-24 4l44 368h387v-98h-301l-23 -154q59 25 118 25q110 0 174 -63t64 -174q0 -75 -34.5 -131.5t-94.5 -87.5t-134 -31q-54 0 -90.5 8z" />
    <glyph glyph-name="six.tf" 
d="M137.5 76.5q-66.5 90.5 -66.5 239.5q0 107 34 197.5t102.5 145.5t166.5 55q73 0 128 -33l12 -111h-15q-34 26 -63 36t-62 10q-78 0 -127.5 -60t-59.5 -170q29 31 74.5 49.5t92.5 18.5q66 0 117 -29t79.5 -81.5t28.5 -118.5q0 -64 -33 -119t-90 -87.5t-124 -32.5
q-128 0 -194.5 90.5zM428.5 123q37.5 39 37.5 99t-37.5 99t-98.5 39t-98.5 -39t-37.5 -99q0 -59 37.5 -98.5t98.5 -39.5t98.5 39z" />
    <glyph glyph-name="seven.tf" 
d="M408 602h-325v98h485v-15l-344 -685h-122z" />
    <glyph glyph-name="eight.tf" 
d="M199.5 18q-53.5 32 -81.5 81.5t-28 100.5q0 64 29.5 109t79.5 73q-82 59 -82 148q0 51 26.5 93t74.5 66.5t108 24.5t107.5 -24.5t74 -66.5t26.5 -93q0 -88 -81 -148q108 -60 108 -182q0 -51 -28 -100.5t-81 -81.5t-126 -32t-126.5 32zM398 455q28 27 28 70q0 42 -28 69
t-72 27t-72.5 -27t-28.5 -69q0 -43 28.5 -70t72.5 -27t72 27zM413.5 119q36.5 35 36.5 91q0 55 -36.5 90t-87.5 35t-88 -35t-37 -90q0 -56 37 -91t88 -35t87.5 35z" />
    <glyph glyph-name="nine.tf" 
d="M149 19l-12 112h15q34 -26 63 -36.5t62 -10.5q78 0 127.5 60t59.5 171q-29 -32 -72.5 -50t-94.5 -18q-65 0 -116 29t-80 81t-29 119q0 64 33 119t89.5 87t124.5 32q128 0 194.5 -90t66.5 -240q0 -107 -34 -197.5t-102.5 -145.5t-166.5 -55q-73 0 -128 33zM419.5 379.5
q37.5 39.5 37.5 98.5q0 60 -37.5 99t-98.5 39t-98.5 -39t-37.5 -99t37.5 -99t98.5 -39t98.5 39.5z" />
    <glyph glyph-name="zero.tf.zero" 
d="M164 33q-69 47 -106 129.5t-37 187.5t37 187.5t106 129.5t161 47t160.5 -47t105.5 -129.5t37 -187.5t-37 -187.5t-105.5 -129.5t-160.5 -47t-161 47zM454 555q-49 60 -129 60q-87 0 -137.5 -70.5t-50.5 -194.5q0 -50 12 -101zM462 155.5q50 70.5 50 194.5q0 54 -11 101
l-306 -305q24 -30 57.5 -45.5t72.5 -15.5q87 0 137 70.5z" />
    <glyph glyph-name="zero.tosf" 
d="M198.5 20q-56.5 34 -88.5 93.5t-32 133.5q0 75 32 134.5t88 93t127 33.5t127.5 -33.5t88 -93t31.5 -134.5q0 -74 -31.5 -133.5t-88 -93.5t-127.5 -34q-70 0 -126.5 34zM424 129q36 45 36 118t-36 118t-99 45q-62 0 -98.5 -45t-36.5 -118t36.5 -118t98.5 -45q63 0 99 45z
" />
    <glyph glyph-name="one.tosf" 
d="M100 93h170v237l-125 -84h-12v99l219 149h29v-401h169v-93h-450v93z" />
    <glyph glyph-name="two.tosf" 
d="M122 30l187 173q47 44 65.5 73.5t18.5 59.5q0 38 -25 59t-71 21t-84.5 -25t-65.5 -71h-14l9 115q31 34 75 53.5t98 19.5q82 0 134 -41.5t52 -115.5q0 -51 -27.5 -96.5t-88.5 -98.5l-71 -62h215v-94h-407v30z" />
    <glyph glyph-name="three.tosf" 
d="M111 -175l-13 120h11q44 -31 88.5 -49t93.5 -18q68 0 113 40t45 110t-43.5 110.5t-117.5 40.5q-41 0 -78 -9l-11 25l151 201h-257v98h436v-15l-170 -219q89 -14 145 -71t56 -155q0 -77 -34 -134.5t-95 -88.5t-140 -31q-98 0 -180 45z" />
    <glyph glyph-name="four.tosf" 
d="M388 -39h-316v55l398 478h34v-435h75v-98h-75v-167h-116v167zM388 59v204l-167 -204h167z" />
    <glyph glyph-name="five.tosf" 
d="M205.5 -212q-36.5 8 -89.5 28l-25 128h11q88 -66 188 -66q68 0 113 38.5t45 110.5q0 71 -43 110.5t-111 39.5q-82 0 -174 -55l-24 4l44 368h387v-98h-301l-23 -154q59 25 118 25q110 0 174 -63t64 -174q0 -75 -34.5 -131.5t-94.5 -87.5t-134 -31q-54 0 -90.5 8z" />
    <glyph glyph-name="six.tosf" 
d="M137.5 76.5q-66.5 90.5 -66.5 239.5q0 107 34 197.5t102.5 145.5t166.5 55q73 0 128 -33l12 -111h-15q-34 26 -63 36t-62 10q-78 0 -127.5 -60t-59.5 -170q29 31 74.5 49.5t92.5 18.5q66 0 117 -29t79.5 -81.5t28.5 -118.5q0 -64 -33 -119t-90 -87.5t-124 -32.5
q-128 0 -194.5 90.5zM428.5 123q37.5 39 37.5 99t-37.5 99t-98.5 39t-98.5 -39t-37.5 -99q0 -59 37.5 -98.5t98.5 -39.5t98.5 39z" />
    <glyph glyph-name="seven.tosf" 
d="M407 396h-325v98h485v-15l-344 -685h-122z" />
    <glyph glyph-name="eight.tosf" 
d="M199.5 18q-53.5 32 -81.5 81.5t-28 100.5q0 64 29.5 109t79.5 73q-82 59 -82 148q0 51 26.5 93t74.5 66.5t108 24.5t107.5 -24.5t74 -66.5t26.5 -93q0 -88 -81 -148q108 -60 108 -182q0 -51 -28 -100.5t-81 -81.5t-126 -32t-126.5 32zM398 455q28 27 28 70q0 42 -28 69
t-72 27t-72.5 -27t-28.5 -69q0 -43 28.5 -70t72.5 -27t72 27zM413.5 119q36.5 35 36.5 91q0 55 -36.5 90t-87.5 35t-88 -35t-37 -90q0 -56 37 -91t88 -35t87.5 35z" />
    <glyph glyph-name="nine.tosf" horiz-adv-x="605" 
d="M429 468.5q56 -39.5 84.5 -108.5t28.5 -156q0 -97 -30.5 -181.5t-94 -136.5t-156.5 -52q-73 0 -126 33l-12 111h15q60 -46 123 -46q144 0 165 206q-29 -31 -69.5 -48.5t-84.5 -17.5q-57 0 -105 26.5t-76.5 74t-28.5 108.5q0 65 32.5 116.5t85.5 81t114 29.5
q79 0 135 -39.5zM209 374.5q-34 -35.5 -34 -87.5t34 -87t88 -35q55 0 89 35t34 87t-34 87.5t-89 35.5q-54 0 -88 -35.5z" />
    <glyph glyph-name="zero.tosf.zero" 
d="M198.5 20q-56.5 34 -88.5 93.5t-32 133.5q0 75 32 134.5t88 93t127 33.5t127.5 -33.5t88 -93t31.5 -134.5q0 -74 -31.5 -133.5t-88 -93.5t-127.5 -34q-70 0 -126.5 34zM402 394q-34 24 -77 24q-65 0 -103 -47t-38 -124q0 -33 9 -62zM428 124q38 47 38 123q0 36 -9 66
l-211 -211q33 -25 79 -25q65 0 103 47z" />
    <glyph glyph-name="zero.zero" horiz-adv-x="681" 
d="M180 33q-69 47 -106 129.5t-37 187.5t37 187.5t106 129.5t161 47t160.5 -47t105.5 -129.5t37 -187.5t-37 -187.5t-105.5 -129.5t-160.5 -47t-161 47zM470 555q-49 60 -129 60q-87 0 -137.5 -70.5t-50.5 -194.5q0 -50 12 -101zM478 155.5q50 70.5 50 194.5q0 54 -11 101
l-306 -305q24 -30 57.5 -45.5t72.5 -15.5q87 0 137 70.5z" />
    <glyph glyph-name="zero.dnom" horiz-adv-x="356" 
d="M65.5 37q-42.5 51 -42.5 131t42.5 131t112.5 51t112.5 -51t42.5 -131t-42.5 -131t-112.5 -51t-112.5 51zM239.5 79q22.5 32 22.5 89t-22.5 89t-61.5 32t-61.5 -32t-22.5 -89t22.5 -89t61.5 -32t61.5 32z" />
    <glyph glyph-name="one.dnom" horiz-adv-x="131" 
d="M30 310l47 33h24v-350h-71v317z" />
    <glyph glyph-name="two.dnom" horiz-adv-x="287" 
d="M14 5l135 164q17 20 24.5 37.5t7.5 36.5q0 21 -15 34.5t-39 13.5q-47 0 -82 -54h-16l4 73q19 19 46.5 29.5t56.5 10.5q54 0 85.5 -28t31.5 -73q0 -28 -13 -56t-43 -63l-64 -76h133v-61h-252v12z" />
    <glyph glyph-name="three.dnom" horiz-adv-x="292" 
d="M80 -7q-26 7 -44 17l-7 73h10q47 -36 91 -36q30 0 49 17t19 49q0 30 -19 48t-50 18q-18 0 -38 -5l-11 21l67 88h-119v61h229v-8l-83 -108q42 -7 69 -36t27 -75q0 -62 -38.5 -96.5t-96.5 -34.5q-29 0 -55 7z" />
    <glyph glyph-name="four.dnom" horiz-adv-x="299" 
d="M169 67h-159v46l192 230h38v-215h46v-61h-46v-74h-71v74zM169 128v92l-76 -92h76z" />
    <glyph glyph-name="five.dnom" horiz-adv-x="281" 
d="M82.5 -10q-19.5 4 -44.5 13l-15 75h10q43 -30 91 -30q32 0 50.5 16.5t18.5 46.5q0 31 -18 47t-50 16q-40 0 -84 -22l-16 3l23 188h198v-60h-145l-11 -64q23 10 56 10q55 0 86.5 -31.5t31.5 -86.5q0 -57 -39 -91t-96 -34q-27 0 -46.5 4z" />
    <glyph glyph-name="six.dnom" horiz-adv-x="296" 
d="M54 31.5q-34 45.5 -34 121.5q0 53 18 98t52.5 72t82.5 27q40 0 68 -19l7 -66h-9q-29 25 -67 25q-33 0 -54.5 -24.5t-25.5 -72.5q31 26 73 26q50 0 82 -31.5t32 -81.5q0 -32 -17 -60t-46.5 -44t-62.5 -16q-65 0 -99 45.5zM194 61q17 17 17 43t-16.5 42.5t-42.5 16.5
q-25 0 -41.5 -16.5t-16.5 -42.5t16.5 -43t41.5 -17t42 17z" />
    <glyph glyph-name="seven.dnom" horiz-adv-x="282" 
d="M177 289h-160v61h255v-12l-167 -338h-74z" />
    <glyph glyph-name="eight.dnom" horiz-adv-x="284" 
d="M53.5 18.5q-33.5 32.5 -33.5 75.5q0 32 15 54.5t39 34.5q-41 31 -41 75q0 38 31 65t78 27q48 0 78.5 -27t30.5 -65q0 -43 -40 -75q23 -12 38 -34.5t15 -54.5q0 -43 -33.5 -75.5t-88.5 -32.5t-88.5 32.5zM175 223q13 12 13 31t-13 31t-33 12t-32.5 -12t-12.5 -31t12.5 -31
t32.5 -12t33 12zM182.5 59q16.5 16 16.5 41t-16.5 41t-40.5 16t-40.5 -16t-16.5 -41t16.5 -41t40.5 -16t40.5 16z" />
    <glyph glyph-name="nine.dnom" horiz-adv-x="296" 
d="M55 5l-7 67h9q29 -26 67 -26q33 0 54.5 25t25.5 73q-32 -27 -73 -27q-49 0 -81.5 32t-32.5 82q0 49 37 84t89 35q65 0 99 -45.5t34 -121.5q0 -52 -18 -97t-52.5 -72.5t-82.5 -27.5q-40 0 -68 19zM185.5 190.5q16.5 16.5 16.5 41.5q0 26 -16.5 43t-41.5 17t-42 -17
t-17 -43q0 -25 17 -41.5t42 -16.5t41.5 16.5z" />
    <glyph glyph-name="zero.numr" horiz-adv-x="356" 
d="M65.5 394q-42.5 51 -42.5 131t42.5 131t112.5 51t112.5 -51t42.5 -131t-42.5 -131t-112.5 -51t-112.5 51zM239.5 436q22.5 32 22.5 89t-22.5 89t-61.5 32t-61.5 -32t-22.5 -89t22.5 -89t61.5 -32t61.5 32z" />
    <glyph glyph-name="one.numr" horiz-adv-x="131" 
d="M30 667l47 33h24v-350h-71v317z" />
    <glyph glyph-name="two.numr" horiz-adv-x="287" 
d="M14 362l135 164q17 20 24.5 37.5t7.5 36.5q0 21 -15 34.5t-39 13.5q-47 0 -82 -54h-16l4 73q19 19 46.5 29.5t56.5 10.5q54 0 85.5 -28t31.5 -73q0 -28 -13 -56t-43 -63l-64 -76h133v-61h-252v12z" />
    <glyph glyph-name="three.numr" horiz-adv-x="292" 
d="M80 350q-26 7 -44 17l-7 73h10q45 -36 91 -36q31 0 49.5 17t18.5 49q0 30 -19 48t-50 18q-14 0 -38 -6l-11 21l67 88h-119v61h229v-8l-83 -107q42 -8 69 -37t27 -75q0 -62 -38.5 -96t-96.5 -34q-29 0 -55 7z" />
    <glyph glyph-name="four.numr" horiz-adv-x="299" 
d="M169 424h-159v46l192 230h38v-215h46v-61h-46v-74h-71v74zM169 485v92l-76 -92h76z" />
    <glyph glyph-name="five.numr" horiz-adv-x="281" 
d="M82.5 347q-19.5 4 -44.5 13l-15 75h10q43 -30 91 -30q32 0 50.5 16.5t18.5 46.5q0 31 -18 47t-50 16q-40 0 -84 -22l-16 3l23 188h198v-60h-145l-11 -64q23 10 56 10q55 0 86.5 -31.5t31.5 -86.5q0 -57 -39 -91t-96 -34q-27 0 -46.5 4z" />
    <glyph glyph-name="six.numr" horiz-adv-x="296" 
d="M54 388.5q-34 45.5 -34 121.5q0 53 18 98t52.5 72t82.5 27q40 0 68 -19l7 -66h-9q-29 25 -67 25q-33 0 -54.5 -24.5t-25.5 -72.5q31 26 73 26q50 0 82 -31.5t32 -81.5q0 -32 -17 -60t-46.5 -44t-62.5 -16q-65 0 -99 45.5zM194 418q17 17 17 43t-16.5 42.5t-42.5 16.5
q-25 0 -41.5 -16.5t-16.5 -42.5t16.5 -43t41.5 -17t42 17z" />
    </font>
</defs>
</svg>
