<svg width="30" height="30" viewBox="0 0 30 30" fill="none" xmlns="http://www.w3.org/2000/svg"><path d="M28.95 12.12a4.5 4.5 0 00-3.45-1.62h-6.84l.84-2.145A6.196 6.196 0 0013.665 0 1.5 1.5 0 0012.3.885L8.025 10.5H4.5A4.5 4.5 0 000 15v10.5A4.5 4.5 0 004.5 30h19.095a4.5 4.5 0 004.425-3.69l1.905-10.5a4.498 4.498 0 00-.975-3.69zM7.5 27h-3A1.5 1.5 0 013 25.5V15a1.5 1.5 0 011.5-1.5h3V27zM27 15.27l-1.905 10.5a1.5 1.5 0 01-1.5 1.23H10.5V12.315l4.08-9.18a3.166 3.166 0 012.07 4.17l-.795 2.145a3 3 0 002.805 4.05h6.84a1.502 1.502 0 011.155.54A1.5 1.5 0 0127 15.27z" fill="#4283EC"/></svg>