<svg width="30" height="30" viewBox="0 0 30 30" fill="none" xmlns="http://www.w3.org/2000/svg"><path d="M14.996 26.992H4.499a1.5 1.5 0 01-1.5-1.5V4.5a1.5 1.5 0 011.5-1.5h7.497v4.499a4.499 4.499 0 004.5 4.498h4.498v1.5a1.5 1.5 0 002.999 0v-3.089a1.962 1.962 0 00-.09-.405v-.135a1.605 1.605 0 00-.285-.42L14.621.45a1.605 1.605 0 00-.42-.285.48.48 0 00-.135 0A1.32 1.32 0 0013.57 0H4.5A4.499 4.499 0 000 4.499v20.994a4.499 4.499 0 004.499 4.498h10.497a1.5 1.5 0 000-2.999zm0-21.878l3.883 3.883h-2.384a1.5 1.5 0 01-1.5-1.5V5.115zM7.498 8.997a1.5 1.5 0 000 3h1.5a1.5 1.5 0 100-3h-1.5zm22.058 18.43l-1.754-1.74a5.158 5.158 0 00-.81-6.193 5.235 5.235 0 00-8.997 3.734 5.188 5.188 0 007.693 4.574l1.739 1.754a1.501 1.501 0 002.458-.488 1.5 1.5 0 00-.329-1.641zm-4.753-2.624a2.31 2.31 0 01-3.164 0 2.25 2.25 0 01-.645-1.575 2.19 2.19 0 01.66-1.59 2.22 2.22 0 011.5-.644 2.205 2.205 0 012.339 2.234 2.25 2.25 0 01-.69 1.575zm-8.308-9.807H7.498a1.5 1.5 0 100 2.999h8.997a1.5 1.5 0 000-3zm-2.999 8.997a1.5 1.5 0 100-3H7.498a1.5 1.5 0 000 3h5.998z" fill="#4283EC"/></svg>