<svg width="30" height="30" viewBox="0 0 30 30" fill="none" xmlns="http://www.w3.org/2000/svg"><path d="M16.948 15.751a7.47 7.47 0 001.883-2.545c.44-.976.667-2.036.667-3.108 0-2.015-.79-3.948-2.196-5.373A7.45 7.45 0 0011.999 2.5a7.45 7.45 0 00-5.303 2.225A7.649 7.649 0 004.5 10.098a7.56 7.56 0 00.667 3.108A7.47 7.47 0 007.05 15.75a12.045 12.045 0 00-5.13 4.48A12.273 12.273 0 000 26.815c0 .403.158.79.44 1.074a1.49 1.49 0 002.12 0A1.53 1.53 0 003 26.814c0-2.418.948-4.738 2.636-6.447a8.94 8.94 0 016.363-2.67 8.94 8.94 0 016.363 2.67 9.179 9.179 0 012.636 6.447c0 .403.158.79.44 1.074a1.49 1.49 0 002.12 0 1.53 1.53 0 00.44-1.074 12.272 12.272 0 00-1.919-6.582 12.045 12.045 0 00-5.13-4.481zm-4.95-1.094a4.465 4.465 0 01-2.499-.768 4.547 4.547 0 01-1.657-2.046 4.614 4.614 0 01-.256-2.634 4.578 4.578 0 011.231-2.335 4.482 4.482 0 012.304-1.247 4.445 4.445 0 012.6.26 4.514 4.514 0 012.02 1.678 4.602 4.602 0 01-.56 5.757 4.47 4.47 0 01-3.182 1.335zm17.564-3.602a1.498 1.498 0 00-1.065-.45 1.482 1.482 0 00-1.064.45l-3 3.04-.93-.958a1.5 1.5 0 00-1.065-.45 1.483 1.483 0 00-1.065.45 1.53 1.53 0 000 2.143l2.01 2.036a1.49 1.49 0 002.115 0l4.004-4.057A1.519 1.519 0 0030 12.17a1.537 1.537 0 00-.437-1.115z" fill="#4283EC"/></svg>