<svg width="108" height="22" viewBox="0 0 108 22" fill="none" xmlns="http://www.w3.org/2000/svg"><path d="M.1 0h5.34C6.98 0 8.3.29 9.4.87c1.12.58 1.96 1.36 2.52 2.34.58.96.87 2.01.87 3.15 0 1.14-.29 2.2-.87 3.18-.56.96-1.4 1.73-2.52 2.31-1.1.58-2.42.87-3.96.87H2.8V21H.1V0zm5.37 10.44c1.4 0 2.52-.34 3.36-1.02.84-.7 1.26-1.72 1.26-3.06s-.42-2.35-1.26-3.03c-.84-.7-1.96-1.05-3.36-1.05H2.8v8.16h2.67zm10.27-4.26h2.4v2.16c.5-.84 1.13-1.48 1.89-1.92.76-.44 1.54-.66 2.34-.66.88 0 1.64.23 2.28.69l.15 2.43h-.27c-.66-.64-1.5-.96-2.52-.96-1.04 0-1.95.38-2.73 1.14-.76.76-1.14 1.92-1.14 3.48V21h-2.4V6.18zm17.742 15.24c-1.44 0-2.75-.33-3.93-.99a7.699 7.699 0 01-2.82-2.79c-.68-1.2-1.02-2.55-1.02-4.05s.34-2.84 1.02-4.02c.7-1.2 1.64-2.13 2.82-2.79 1.18-.68 2.49-1.02 3.93-1.02s2.75.34 3.93 1.02c1.18.66 2.11 1.59 2.79 2.79.7 1.18 1.05 2.52 1.05 4.02 0 1.5-.35 2.85-1.05 4.05a7.472 7.472 0 01-2.79 2.79c-1.18.66-2.49.99-3.93.99zm0-2.16c1.02 0 1.93-.24 2.73-.72.82-.48 1.46-1.15 1.92-2.01.48-.86.72-1.84.72-2.94 0-1.1-.24-2.08-.72-2.94-.46-.86-1.1-1.53-1.92-2.01-.8-.48-1.71-.72-2.73-.72s-1.94.24-2.76.72c-.8.48-1.44 1.15-1.92 2.01-.46.86-.69 1.84-.69 2.94 0 1.1.23 2.08.69 2.94.48.86 1.12 1.53 1.92 2.01.82.48 1.74.72 2.76.72zM45.208 2.28h-5.52V0h13.74v2.28h-5.52V21h-2.7V2.28zm15.286 19.14c-1.44 0-2.75-.33-3.93-.99a7.699 7.699 0 01-2.82-2.79c-.68-1.2-1.02-2.55-1.02-4.05s.34-2.84 1.02-4.02c.7-1.2 1.64-2.13 2.82-2.79 1.18-.68 2.49-1.02 3.93-1.02s2.75.34 3.93 1.02c1.18.66 2.11 1.59 2.79 2.79.7 1.18 1.05 2.52 1.05 4.02 0 1.5-.35 2.85-1.05 4.05a7.472 7.472 0 01-2.79 2.79c-1.18.66-2.49.99-3.93.99zm0-2.16c1.02 0 1.93-.24 2.73-.72.82-.48 1.46-1.15 1.92-2.01.48-.86.72-1.84.72-2.94 0-1.1-.24-2.08-.72-2.94-.46-.86-1.1-1.53-1.92-2.01-.8-.48-1.71-.72-2.73-.72s-1.94.24-2.76.72c-.8.48-1.44 1.15-1.92 2.01-.46.86-.69 1.84-.69 2.94 0 1.1.23 2.08.69 2.94.48.86 1.12 1.53 1.92 2.01.82.48 1.74.72 2.76.72z" fill="#242A33"/><path d="M71.257 0h4.26v8.13h8.34V0h4.26v21h-4.26v-9.27h-8.34V21h-4.26V0zm20.566 0h6.63c2.08 0 3.77.54 5.07 1.62 1.32 1.08 1.98 2.56 1.98 4.44 0 1.36-.35 2.52-1.05 3.48-.7.96-1.67 1.66-2.91 2.1l5.61 9.36h-4.71l-5.34-8.88h-1.02V21h-4.26V0zm6.27 8.46c2.1 0 3.15-.8 3.15-2.4 0-1.6-1.05-2.4-3.15-2.4h-2.01v4.8h2.01z" fill="#4283EC"/></svg>